<svg width="300" height="300" viewBox="0 0 300 300" fill="none" xmlns="http://www.w3.org/2000/svg">
<g clip-path="url(#clip0_27_611)">
<path d="M99.8 172.2C100.4 172.6 101 173 101.7 173.4C102.3 173.8 103 174.2 103.6 174.5C104.3 174.9 104.9 175.2 105.6 175.6C106.3 176 107 176.3 107.7 176.7C108.4 177.1 109.2 177.4 109.9 177.7C110.7 178 111.5 178.4 112.3 178.6C113.6 179 114.8 179.3 116.1 179.6C117.1 179.9 118.1 180.1 119.1 180.4C119.5 179.9 119.9 179.5 120.4 179.1C121.1 178.5 121.9 178.1 122.7 177.7C123.3 177.5 123.9 177.3 124.6 177.1C125.3 176.9 126 176.9 126.7 176.8C127.3 176.8 127.9 176.8 128.6 176.8C129.2 176.8 129.8 176.9 130.4 177C131 177.1 131.6 177.2 132.2 177.3C132.8 177.4 133.4 177.6 134.1 177.7C134.7 177.8 135.2 178 135.8 178.1C136.4 178.3 137 178.5 137.6 178.7C138.1 178.9 138.7 179.1 139.2 179.2C139.7 179.4 140.3 179.6 140.8 179.8C141.4 180 141.9 180.2 142.5 180.4C143.1 180.6 143.7 180.9 144.2 181.1C144.8 181.3 145.3 181.6 145.9 181.8C146.5 182 147.1 182.3 147.6 182.6C147.8 182.7 147.9 182.7 148.1 182.8C148.6 182.6 149 182.4 149.5 182.2C150 182 150.6 181.7 151.1 181.5C151.7 181.2 152.3 181 152.8 180.7C153.4 180.5 153.9 180.2 154.5 180C155.1 179.8 155.6 179.5 156.2 179.3C156.8 179.1 157.3 178.9 157.9 178.6C158.4 178.4 159 178.2 159.5 178C160 177.8 160.6 177.6 161.1 177.5C161.7 177.3 162.3 177.1 162.9 177C163.5 176.8 164 176.7 164.6 176.6C165.2 176.5 165.8 176.3 166.5 176.2C167.1 176.1 167.7 176 168.3 175.9C168.9 175.8 169.5 175.8 170.1 175.7C170.4 175.7 170.7 175.7 171 175.7C171.3 175.7 171.6 175.7 171.9 175.7C172.6 175.7 173.3 175.8 174 176C174.6 176.2 175.3 176.3 175.9 176.6C176.7 176.9 177.5 177.4 178.2 177.9C178.9 178.5 179.5 179.2 180 180C180.7 179.8 181.3 179.7 182 179.5C183.3 179.2 184.5 178.8 185.8 178.5C186.6 178.2 187.4 177.9 188.2 177.6C188.9 177.3 189.7 177 190.4 176.6C191.1 176.3 191.8 175.9 192.5 175.5C193.2 175.1 193.8 174.8 194.5 174.4C195.1 174 195.8 173.7 196.4 173.3C197 172.9 197.7 172.5 198.3 172.1C198.9 171.7 199.5 171.3 200.1 170.9C200.7 170.5 201.3 170.1 201.9 169.7C202.5 169.3 203.1 168.9 203.7 168.4C204.3 168 204.8 167.5 205.4 167.1C205.9 166.7 206.5 166.2 207 165.8C207.5 165.4 208 164.9 208.5 164.4C209 163.9 209.4 163.5 209.9 163C210.4 162.5 210.8 162 211.3 161.6C211.7 161.1 212.2 160.6 212.6 160.1C213 159.6 213.5 159.1 213.9 158.6C214.3 158.1 214.7 157.6 215.1 157C215.5 156.5 215.8 155.9 216.2 155.4C216.6 154.9 216.9 154.3 217.2 153.7C217.5 153.2 217.8 152.6 218.1 152C218.4 151.4 218.7 150.9 218.9 150.3C219.2 149.7 219.4 149.1 219.7 148.5C219.9 147.9 220.2 147.3 220.4 146.8C220.6 146.2 220.8 145.6 221 145C221.2 144.4 221.4 143.8 221.5 143.2C221.6 142.6 221.8 142 221.9 141.4C222 140.8 222.2 140.2 222.3 139.5C222.4 138.9 222.5 138.2 222.6 137.6C222.7 137 222.8 136.3 222.8 135.7C222.9 135.1 222.9 134.4 223 133.7C223 133 223.1 132.4 223.1 131.7C223.1 131 223.1 130.4 223.2 129.7C223.2 129 223.2 128.4 223.2 127.7C223.2 127 223.2 126.4 223.2 125.7C223.2 125 223.2 124.4 223.2 123.7C223.2 123 223.2 122.4 223.2 121.7C223.2 121 223.2 120.4 223.2 119.7C223.2 119 223.2 118.4 223.2 117.7C223.2 117 223.2 116.4 223.2 115.7C223.2 115 223.2 114.4 223.2 113.7C223.2 113.1 223.2 112.4 223.3 111.8C223.3 111.2 223.3 110.5 223.4 109.9C223.4 109.3 223.5 108.6 223.5 108C223.5 107.4 223.6 106.7 223.6 106.1C223.6 105.5 223.7 104.8 223.7 104.2C223.7 103.6 223.8 103 223.8 102.3C223.8 101.7 223.9 101 223.9 100.4C223.9 99.8 224 99.1 224.1 98.5C224.2 97.9 224.2 97.3 224.3 96.7C224.4 96.1 224.4 95.5 224.5 94.9C224.6 94.3 224.7 93.7 224.7 93.1C224.8 92.5 224.9 92 225 91.4C225.1 90.8 225.2 90.3 225.3 89.7C225.4 89.2 225.5 88.6 225.6 88.1C225.7 87.6 225.8 87.1 225.9 86.5C226 86 226.1 85.5 226.2 85C226.3 84.5 226.4 84 226.6 83.5C226.7 83 226.9 82.4999 227 82.0999C227.1 81.6999 227.3 81.2 227.4 80.8C227.5 80.3 227.6 79.9 227.8 79.4C227.9 79 228.1 78.4999 228.2 78.0999C228.4 77.6999 228.5 77.3 228.7 76.9C228.9 76.6 229 76.3 229.2 76C229.3 75.7 229.5 75.4999 229.7 75.1999C229.8 74.9999 230 74.7 230.1 74.5C230.3 74.3 230.4 74.1 230.6 73.9C230.7 73.8 230.7 73.7999 230.8 73.6999C230.8 73.6999 230.8 73.6999 230.8 73.5999C231 73.3999 231.6 72.7999 232.4 72.0999L232.5 72L232.6 71.9L235 69.5C235.3 69.1 235.6 68.6999 235.9 68.1999C236.4 67.4999 236.9 66.7999 237.3 66.0999C237.8 65.3999 238.2 64.7 238.6 63.9C239 63.2 239.4 62.3999 239.7 61.5999C240 60.7999 240.3 59.9999 240.6 59.0999C240.8 58.2999 241 57.5 241.1 56.7C241.1 55.8 241 54.8 240.9 53.9C240.8 52.9 240.5 51.9 240.3 50.9C240 49.9 239.7 48.9 239.3 47.9C238.9 46.9 238.5 45.9 238.1 45C237.6 44 237.1 43.1 236.6 42.2C236 41.3 235.4 40.5 234.7 39.6C234 38.8 233.3 37.8999 232.6 37.0999C231.9 36.2999 231.2 35.5 230.4 34.8C229.7 34.1 229 33.4 228.3 32.7C227.6 32 226.9 31.4 226.1 30.8C225.4 30.2 224.6 29.6 223.9 29.1C223.2 28.6 222.4 28 221.7 27.5C221 27 220.2 26.5 219.5 26.1C218.7 25.6 217.9 25.2 217 24.8C216.2 24.4 215.4 24 214.5 23.6C213.7 23.2 213 22.9 212.2 22.6C211.4 22.3 210.6 22.1 209.8 21.8C209.1 21.6 208.3 21.5 207.6 21.4C206.9 21.3 206.1 21.3 205.3 21.4C204.6 21.5 203.9 21.7 203.2 21.9C202.4 22.1 201.7 22.4 200.9 22.6C200.2 22.9 199.5 23.2 198.8 23.5C198.1 23.8 197.5 24.2 196.8 24.5C196.2 24.8 195.6 25.2 195 25.6C194.5 25.9 194 26.3 193.5 26.8C193 27.3 192.5 27.8 192 28.3C191.5 28.8 191.1 29.4 190.7 29.9C190.3 30.5 189.9 31.1 189.5 31.7C189.1 32.3 188.8 32.9 188.4 33.5C188.1 34.1 187.7 34.8 187.4 35.4C187.1 36 186.8 36.7 186.5 37.3C186.5 37.4 186.4 37.5 186.4 37.6C185.3 40 182 38.6 182.7 36.3H182.6C182 36.1 181.5 36 180.9 35.8C180.3 35.6 179.8 35.5 179.2 35.3C178.6 35.1 178 35 177.5 34.8C176.9 34.6 176.3 34.5 175.7 34.3C175.1 34.1 174.5 34 173.9 33.8C173.3 33.6 172.7 33.5 172.1 33.4C171.5 33.3 170.9 33.1 170.2 33C169.6 32.9 168.9 32.6999 168.3 32.5999C167.7 32.4999 167 32.3 166.4 32.2C165.7 32.1 165.1 31.9 164.4 31.8C163.7 31.7 163.1 31.5 162.4 31.4C161.7 31.3 161 31.1 160.4 31C159.7 30.9 159 30.8 158.3 30.7C157.6 30.6 156.9 30.5 156.2 30.5C155.5 30.4 154.7 30.4 154 30.3C153.3 30.3 152.5 30.2 151.8 30.2C151.1 30.2 150.3 30.2 149.6 30.2C148.8 30.2 148.1 30.2 147.3 30.3C146.5 30.3 145.7 30.4 144.9 30.4C144.1 30.5 143.4 30.5 142.6 30.6C141.8 30.7 141.1 30.8 140.3 30.9C139.5 31 138.7 31.1 138 31.2C137.2 31.3 136.4 31.5 135.7 31.6C134.9 31.7 134.1 31.9 133.4 32C132.6 32.2 131.8 32.3 131 32.5C130.2 32.7 129.5 32.8 128.7 33C128 33.2 127.3 33.3999 126.5 33.5999C125.8 33.7999 125.1 34 124.4 34.2C123.8 34.4 123.2 34.6 122.6 34.8C122 35 121.4 35.2 120.8 35.5C120.2 35.7 119.6 36 119.1 36.2C118.6 36.4 118 36.6 117.5 36.9C117.2 37 116.9 37.2 116.5 37.3C116.3 39.1 113.7 39.8 112.7 37.8C112.7 37.7 112.6 37.6 112.6 37.5C112.3 36.9 112 36.1999 111.7 35.5999C111.4 34.9999 111.1 34.3 110.7 33.7C110.4 33.1 110 32.5 109.6 31.9C109.2 31.3 108.8 30.7 108.4 30.1C108 29.5 107.6 29 107.1 28.5C106.6 28 106.2 27.5 105.6 27C105.1 26.6 104.6 26.2 104.1 25.8C103.5 25.4 102.9 25 102.3 24.7C101.6 24.3 101 24 100.3 23.7C99.6 23.4 98.9 23.1 98.2 22.8C97.4 22.5 96.7 22.3 95.9 22.1C95.2 21.9 94.5 21.7 93.8 21.6C93 21.6 92.3 21.6 91.5 21.6C90.8 21.7 90 21.8 89.3 22C88.5 22.2 87.7 22.5 86.9 22.8C86.1 23.1 85.3 23.4 84.6 23.8C83.8 24.2 83 24.6 82.1 25C81.3 25.4 80.5 25.8 79.6 26.3C78.8 26.7 78.1 27.2 77.4 27.7C76.7 28.2 75.9 28.8 75.2 29.3C74.4 29.9 73.7 30.4 73 31C72.2 31.6 71.5 32.2 70.8 32.9C70.1 33.6 69.3 34.3 68.7 35C68 35.8 67.2 36.5 66.5 37.3C65.8 38.1 65.1 38.9 64.4 39.8C63.7 40.6 63.1 41.5 62.5 42.4C61.9 43.3 61.4 44.2 61 45.2C60.5 46.1 60.1 47.1 59.8 48.1C59.4 49.1 59.1 50.1 58.8 51.1C58.6 52.1 58.3 53.0999 58.2 54.0999C58.1 54.9999 58 56 58 56.9C58.1 57.7 58.2 58.4999 58.5 59.2999C58.8 60.0999 59 60.9999 59.4 61.7999C59.7 62.5999 60.1 63.2999 60.5 64.0999C60.9 64.7999 61.4 65.6 61.8 66.3C62.3 67 62.7 67.7 63.2 68.4C63.6 69 64.1 69.5999 64.5 70.1999C64.9 70.6999 65.2 71.0999 65.6 71.5999C65.8 71.7999 67 73.0999 67.5 73.5999C67.6 73.6999 67.7 73.8 67.8 73.9C68 74.1 68.1 74.3 68.3 74.5C68.5 74.7 68.6 74.9999 68.7 75.1999C68.9 75.4999 69 75.7 69.2 76C69.4 76.3 69.5 76.6 69.7 76.9C69.9 77.3 70 77.6999 70.2 78.0999C70.4 78.4999 70.5 79 70.6 79.4C70.7 79.8 70.9 80.3 71 80.8C71.1 81.2 71.3 81.6999 71.4 82.0999C71.5 82.5999 71.7 83 71.8 83.5C71.9 84 72.1 84.5 72.2 85C72.3 85.5 72.4 86 72.5 86.5C72.6 87 72.7 87.5 72.8 88.1C72.9 88.6 73 89.2 73.1 89.7C73.2 90.3 73.3 90.8 73.4 91.4C73.5 92 73.6 92.5 73.7 93.1C73.8 93.7 73.9 94.3 73.9 94.9C74 95.5 74 96.1 74.1 96.7C74.2 97.3 74.2 97.9 74.3 98.5C74.4 99.1 74.4 99.8 74.5 100.4C74.5 101 74.6 101.7 74.6 102.3C74.6 102.9 74.7 103.5 74.7 104.2C74.7 104.8 74.8 105.5 74.8 106.1C74.8 106.7 74.9 107.4 74.9 108C74.9 108.6 75 109.3 75 109.9C75 110.5 75.1 111.2 75.1 111.8C75.1 112.4 75.1 113.1 75.2 113.7C75.2 114.4 75.2 115 75.2 115.7C75.2 116.4 75.2 117 75.2 117.7C75.2 118.4 75.2 119 75.2 119.7C75.2 120.4 75.2 121 75.2 121.7C75.2 122.4 75.2 123 75.2 123.7C75.2 124.4 75.2 125 75.2 125.7C75.2 126.4 75.2 127 75.2 127.7C75.2 128.4 75.2 129 75.2 129.7C75.2 130.4 75.2 131 75.3 131.7C75.3 132.4 75.4 133 75.4 133.7C75.4 134.4 75.5 135 75.6 135.7C75.7 136.3 75.8 137 75.8 137.6C75.9 138.2 76 138.9 76.1 139.5C76.2 140.1 76.3 140.7 76.5 141.4C76.6 142 76.8 142.6 76.9 143.2C77 143.8 77.2 144.4 77.4 145C77.6 145.6 77.8 146.2 78 146.8C78.2 147.4 78.4 148 78.7 148.5C78.9 149.1 79.2 149.7 79.5 150.3C79.8 150.9 80 151.5 80.3 152C80.6 152.6 80.9 153.1 81.2 153.7C81.5 154.3 81.9 154.8 82.2 155.4C82.6 155.9 82.9 156.5 83.3 157C83.7 157.5 84.1 158.1 84.5 158.6C84.9 159.1 85.3 159.6 85.8 160.1C86.2 160.6 86.7 161.1 87.1 161.6C87.5 162.1 88 162.6 88.5 163C89 163.5 89.4 163.9 89.9 164.4C90.4 164.9 90.9 165.3 91.4 165.8C91.9 166.3 92.5 166.7 93 167.1C93.6 167.5 94.1 168 94.7 168.4C95.3 168.8 95.9 169.3 96.5 169.7C97.1 170.1 97.7 170.5 98.3 170.9C98.6 171.4 99.2 171.8 99.8 172.2ZM189.2 40.8C189.4 40.5 189.9 39.9 190.1 39.6C190.3 39.3 190.5 39.1 190.6 38.8C190.8 38.5 191 38.3 191.1 38.1C191.3 37.8 191.5 37.6 191.7 37.3C191.9 37 192.1 36.8 192.3 36.5C192.5 36.2 192.7 36 192.9 35.7C193.1 35.4 193.3 35.2 193.5 34.9C193.7 34.7 193.9 34.4 194.1 34.2C194.3 34 194.5 33.7 194.6 33.5C194.8 33.3 195 33 195.2 32.8C195.4 32.6 195.6 32.2999 195.7 32.0999C195.9 31.8999 196.1 31.7 196.3 31.4C196.5 31.2 196.7 30.9 196.9 30.7C197.1 30.5 197.3 30.2 197.5 30C197.7 29.8 198 29.6 198.2 29.3C198.4 29.1 198.7 28.9 198.9 28.7C199.2 28.5 199.4 28.3 199.7 28.2C200 28 200.2 27.9 200.5 27.7C200.8 27.5 201.1 27.4 201.4 27.3C201.7 27.2 202 27 202.3 26.9C202.6 26.8 202.9 26.7 203.3 26.6C203.7 26.5 204 26.4 204.4 26.4C204.8 26.4 205.1 26.3 205.5 26.3C205.9 26.3 206.3 26.3 206.7 26.3C207.1 26.3 207.5 26.4 207.9 26.5C208.3 26.6 208.7 26.7 209.1 26.8C209.5 26.9 209.9 27 210.3 27.2C210.7 27.3 211.1 27.5 211.5 27.6C211.9 27.8 212.3 27.9 212.7 28.1C213.1 28.3 213.5 28.5 213.9 28.7C214.3 28.9 214.6 29.1 215 29.3C215.4 29.5 215.7 29.7 216.1 29.9C216.5 30.1 216.8 30.3 217.2 30.5C217.6 30.7 217.9 30.9 218.3 31.2C218.7 31.4 219 31.7 219.4 31.9C219.8 32.1 220.1 32.3999 220.5 32.5999C220.9 32.7999 221.2 33.1 221.6 33.3C221.9 33.5 222.3 33.8 222.6 34C222.9 34.3 223.3 34.5 223.6 34.8C223.9 35.1 224.3 35.2999 224.6 35.5999C224.9 35.8999 225.3 36.1 225.6 36.4C225.9 36.7 226.3 36.9 226.6 37.2C226.9 37.5 227.3 37.8 227.6 38.1C227.9 38.4 228.3 38.7 228.6 39C228.9 39.3 229.2 39.6 229.5 40C229.8 40.3 230.1 40.7 230.3 41C230.6 41.4 230.8 41.7 231.1 42.1C231.3 42.5 231.6 42.9 231.8 43.3C232 43.7 232.2 44.1 232.4 44.5C232.6 44.9 232.8 45.3 233 45.7C233.2 46.1 233.4 46.6 233.6 47C233.8 47.4 234 47.9 234.2 48.3C234.4 48.8 234.6 49.2 234.7 49.7C234.9 50.2 235.1 50.7 235.2 51.1C235.4 51.6 235.5 52.1 235.6 52.5C235.7 53 235.8 53.4 235.9 53.9C236 54.4 236.1 54.9 236.2 55.4C236.3 55.9 236.3 56.4 236.3 56.9C236.3 57.3 236.3 57.6999 236.2 58.0999C236.1 58.4999 236.1 58.9 236 59.4C235.9 59.8 235.8 60.1999 235.7 60.5999C235.6 60.9999 235.4 61.3999 235.2 61.7999C235 62.0999 234.8 62.4999 234.7 62.7999C234.5 63.0999 234.3 63.4 234.1 63.7C233.9 64 233.7 64.2999 233.5 64.5999C233.3 64.8999 233.1 65.2 232.9 65.5C232.7 65.8 232.5 66 232.3 66.3C232.1 66.6 231.9 66.7999 231.7 67.0999C231.5 67.3999 231.3 67.6 231.1 67.9C230.9 68.1 230.7 68.3999 230.5 68.5999C230.3 68.7999 230.1 69.1 229.9 69.3C229.7 69.5 229.5 69.7 229.3 70C229.1 70.2 228.9 70.3999 228.7 70.6999C228.5 70.8999 228.3 71.1 228.1 71.3C227.9 71.5 227.7 71.7 227.5 71.9C227.3 72.1 227.1 72.3 226.9 72.5C226.7 72.7 226.5 72.8999 226.3 73.0999C226.1 73.2999 225.9 73.4999 225.7 73.5999C225.5 73.7999 225.3 73.8999 225.2 74.0999C225 74.1999 224.9 74.4 224.7 74.5C224.6 74.6 224.4 74.7 224.3 74.8C224.2 74.9 224.1 74.9999 224 75.0999C223.9 75.0999 223.9 75.2 223.8 75.3L223.7 75.4C223.2 75.9 222.7 76 222.2 75.9C221.7 75.9 221.3 75.7999 220.9 75.1999C220.8 74.9999 220.8 75.1 220.7 75C220.5 74.8 220.4 74.4999 220.3 74.1999C220.2 73.8999 220 73.7 219.9 73.4C219.8 73.1 219.7 72.8999 219.5 72.5999C219.4 72.2999 219.3 72.1 219.2 71.8C219.1 71.6 219 71.2999 218.9 71.0999C218.8 70.7999 218.7 70.4999 218.6 70.1999C218.5 69.8999 218.4 69.6 218.4 69.3C218.3 69 218.3 68.7 218.2 68.4C218.2 68.1 218.1 67.8 218.1 67.5C218.1 67.2 218 66.8999 218 66.6999C218 66.3999 218 66.1 217.9 65.9C217.9 65.6 217.9 65.3 217.9 65C217.9 64.7 217.9 64.4999 217.9 64.1999C217.9 63.9999 217.9 63.7 217.9 63.5C217.9 63.3 217.9 62.9999 217.9 62.7999C217.9 62.5999 217.9 62.4 217.9 62.2C217.9 62 217.9 61.8 217.9 61.7C217.9 61.6 217.9 61.3999 217.9 61.2999C217.9 61.1999 217.9 61.0999 217.9 61.0999C217.9 60.9999 217.9 60.8999 217.8 60.7999C217.6 60.7999 217.5 60.9 217.3 60.9C217.1 60.9 216.9 61 216.7 61C216.5 61 216.3 61 216.1 61C215.9 61 215.7 61 215.5 61C215.3 61 215.1 61 214.9 61C214.8 61 214.8 61 214.7 61C214.7 61.2 214.7 61.3 214.7 61.5C214.7 61.9 214.7 62.1999 214.7 62.5999C214.7 64.5999 211.9 64.4999 211.9 62.5999C211.9 62.1999 211.9 61.9 211.9 61.5C211.9 61.1 211.9 60.8 211.9 60.4C211.9 60 211.9 59.5999 212 59.2999C212 58.8999 212 58.6 212.1 58.2C212.1 57.8 212.2 57.4999 212.2 57.0999C212.2 56.7999 212.3 56.3999 212.3 56.0999C212.3 55.7999 212.3 55.5 212.4 55.2C212.4 55 212.4 54.7 212.4 54.5C212.4 54.5 212.4 54.5999 212.5 54.5999C212.5 54.4999 212.4 54.5 212.4 54.4C212.2 54.4 212 54.5 211.9 54.5C211.6 54.6 211.2 54.6 210.9 54.7C210.6 54.7 210.2 54.7999 209.9 54.7999C209.6 54.7999 209.3 54.7999 209 54.7999C208.7 54.7999 208.4 54.8 208.1 54.7C207.8 54.7 207.5 54.6 207.2 54.5C206.9 54.4 206.6 54.3 206.4 54.2C206.2 54.1 205.9 54 205.7 53.9C205.5 53.8 205.3 53.6999 205.1 53.5999C204.9 53.4999 204.7 53.4 204.6 53.3C204.4 53.2 204.3 53.1 204.1 53C204 52.9 203.9 52.9 203.8 52.8C202.6 53.8 200.8 52.3 201.9 50.8C202.1 50.5 202.4 50.2 202.6 49.9C202.8 49.6 203.1 49.3 203.3 49C203.1 49 202.8 49 202.6 48.9C202.2 48.8 201.8 48.8 201.5 48.7C201.1 48.6 200.8 48.5 200.4 48.4C200 48.3 199.7 48.2 199.3 48C199 47.9 198.6 47.7 198.3 47.6C198 47.5 197.7 47.3 197.4 47.2C197.1 47.1 196.8 46.9 196.5 46.8C196.2 46.7 195.9 46.5 195.7 46.4C195.4 46.3 195.2 46.1 194.9 46C194.7 45.9 194.4 45.7 194.2 45.6C194 45.5 193.7 45.3 193.5 45.2C193.3 45.1 193.1 44.9 192.8 44.8C192.6 44.7 192.4 44.5 192.2 44.4C192 44.3 191.8 44.2 191.7 44C191.6 43.9 191.4 43.8 191.3 43.7C191.2 43.6 191.1 43.5 190.9 43.4C190.8 43.3 190.7 43.2 190.6 43.1L190.5 43L190.4 42.9C189.1 42.7 188.6 41.8 189.2 40.8ZM170.3 87.4C170.3 87.7 170.2 87.9 170.2 88.2C170.2 91.7 173.1 94.6 176.6 94.6C180.1 94.6 183 91.7 183 88.2C183 84.7 180.1 81.8 176.6 81.8C176 81.8 175.4 81.8999 174.8 82.0999C177.3 80.2999 180.3 79.1999 183.6 79.1999C191.9 79.1999 198.6 85.9 198.6 94.2C198.6 102.5 191.9 109.2 183.6 109.2C175.3 109.2 168.6 102.5 168.6 94.2C168.7 91.7 169.2 89.4 170.3 87.4ZM137.9 124.7C137.9 124.6 137.9 124.4 137.9 124.3C137.9 124.2 137.9 124 138 123.9C138.1 123.6 138.1 123.4 138.3 123.2C138.4 122.9 138.6 122.5 139 122.2C139.1 122.1 139.3 122 139.5 121.9C139.7 121.8 139.9 121.7 140.1 121.6C140.3 121.5 140.6 121.4 140.8 121.3C141 121.2 141.3 121.1 141.5 121.1C141.8 121 142 121 142.3 120.9C142.6 120.8 142.9 120.8 143.2 120.7C143.5 120.7 143.8 120.6 144.2 120.6C144.5 120.6 144.9 120.5 145.2 120.5C145.6 120.5 145.9 120.4 146.3 120.4C146.7 120.4 147.1 120.4 147.5 120.3C147.9 120.3 148.3 120.3 148.8 120.3C149.2 120.3 149.7 120.3 150.1 120.3C150.6 120.3 151 120.3 151.5 120.4C152 120.4 152.4 120.5 152.9 120.5C153.4 120.5 153.8 120.6 154.3 120.6C154.8 120.6 155.3 120.7 155.7 120.8C156.2 120.9 156.7 121 157.1 121.2C157.5 121.3 158 121.6 158.4 121.8C158.8 122 159.1 122.2 159.4 122.5C159.7 122.7 160 123 160.3 123.2C160.6 123.5 160.8 123.8 161.1 124.1C161.5 124.6 161.6 125.1 161.7 125.7C161.8 126.1 161.8 126.4 161.8 126.8C161.8 127.1 161.8 127.5 161.7 127.8C161.7 128.1 161.6 128.4 161.6 128.7C161.6 129 161.5 129.3 161.5 129.7C161.4 130 161.4 130.3 161.3 130.7C161.2 131 161.2 131.4 161.1 131.7C161 132 161 132.4 160.9 132.7C160.8 133.1 160.7 133.4 160.7 133.8C160.6 134.2 160.5 134.6 160.4 135C160.3 135.4 160.1 135.8 160 136.2C159.8 136.6 159.7 137 159.5 137.3C159.2 138 158.7 138.5 158.1 138.9C157.6 139.2 157.2 139.5 156.7 139.7C156.3 139.9 155.9 140 155.5 140.2C153.6 141 151.4 141.4 150 141.2C147.5 140.9 146.5 140.8 145.9 140.7C145.5 140.7 145.1 140.6 144.8 140.4C144.6 140.4 144.4 140.4 144.2 140.3C143.9 140.2 143.6 140.1 143.3 140C143 139.9 142.7 139.7 142.5 139.5C142.2 139.3 141.9 139 141.7 138.8C141.4 138.4 141.1 138.1 140.9 137.6C140.7 137.2 140.6 136.9 140.4 136.5C140.3 136.1 140.1 135.8 140 135.4C139.9 135.1 139.8 134.8 139.7 134.4C139.6 134.1 139.5 133.7 139.4 133.4C139.3 133.1 139.2 132.8 139.1 132.5C139 132.2 138.9 131.9 138.8 131.5C138.7 131.2 138.6 130.9 138.6 130.6C138.5 130.3 138.5 130 138.4 129.7C138.4 129.4 138.3 129.1 138.3 128.9C138.3 128.6 138.2 128.4 138.2 128.1C138.2 127.9 138.1 127.6 138.1 127.4C138.1 127.2 138 126.9 138 126.7C138 126.5 138 126.2 137.9 126C137.9 125.8 137.9 125.5 137.9 125.3C137.9 125.1 137.9 124.9 137.9 124.7ZM133.3 155.8C133.4 155.8 133.5 155.9 133.7 155.9C133.8 155.9 134 156 134.1 156C134.3 156.1 134.4 156.1 134.6 156.2C134.8 156.3 135 156.3 135.2 156.4C135.4 156.5 135.6 156.5 135.8 156.6C136 156.7 136.3 156.7 136.5 156.8C136.8 156.9 137 156.9 137.3 157C137.6 157.1 137.9 157.1 138.2 157.2C138.5 157.3 138.8 157.3 139.1 157.4C139.4 157.5 139.8 157.5 140.1 157.5C140.5 157.5 140.8 157.6 141.2 157.6C141.6 157.6 142 157.7 142.4 157.7C142.8 157.7 143.2 157.8 143.6 157.8C144 157.8 144.4 157.9 144.9 157.9C145.3 157.9 145.8 158 146.2 158C146.7 158 147.1 158 147.6 158.1C148.1 158.1 148.5 158.1 149 158.1C149.5 158.1 149.9 158.1 150.4 158.1C150.9 158.1 151.3 158.1 151.8 158.1C152.3 158.1 152.8 158 153.3 158C153.8 158 154.3 157.9 154.8 157.9C155.3 157.9 155.8 157.8 156.3 157.8C156.8 157.7 157.3 157.7 157.8 157.6C158.3 157.5 158.8 157.5 159.3 157.4C159.8 157.3 160.3 157.3 160.8 157.2C161.3 157.1 161.8 157 162.3 157C162.8 156.9 163.3 156.8 163.8 156.8C164.3 156.7 164.8 156.6 165.3 156.6C165.8 156.5 166.3 156.4 166.8 156.3C167.3 156.2 167.8 156.1 168.2 156C168.5 155.9 168.4 156 168.7 155.9C171.4 155.3 172.3 159.1 169.6 159.7C169.3 159.8 169.4 159.7 169.1 159.8C168.6 159.9 168.1 160 167.6 160.1C167.1 160.2 166.6 160.3 166.1 160.4C165.6 160.5 165.1 160.6 164.6 160.7C164.1 160.8 163.6 160.9 163.1 160.9C162.6 161 162.1 161.1 161.6 161.1C161.1 161.2 160.6 161.2 160 161.3C159.5 161.4 159 161.4 158.4 161.5C157.9 161.6 157.4 161.6 156.8 161.7C156.3 161.8 155.8 161.8 155.2 161.9C154.7 161.9 154.2 162 153.6 162C153.1 162 152.6 162.1 152 162.1C151.5 162.1 151 162.1 150.5 162.1C150 162.1 149.5 162.1 149 162.1C148.5 162.1 148 162.1 147.5 162C147 162 146.6 162 146.1 161.9C145.6 161.9 145.2 161.8 144.7 161.8C144.2 161.8 143.8 161.7 143.3 161.7C142.9 161.7 142.5 161.6 142 161.6C141.6 161.6 141.2 161.5 140.8 161.5C140.4 161.5 140 161.4 139.6 161.4C139.2 161.3 138.9 161.3 138.5 161.2C138.2 161.1 137.8 161.1 137.5 161C137.2 160.9 136.9 160.9 136.5 160.8C136.2 160.7 135.9 160.7 135.6 160.6C135.3 160.5 135 160.5 134.8 160.4C134.5 160.3 134.3 160.2 134 160.2C133.8 160.1 133.6 160.1 133.4 160C133.2 159.9 133.1 159.9 132.9 159.8C132.8 159.8 132.7 159.7 132.6 159.7C132.5 159.7 132.5 159.7 132.4 159.6C129.5 158.8 130.6 155 133.3 155.8ZM95.8 49C95.5 49.1 95.2 49.1 94.9 49.2C94.6 49.3 94.3 49.4 94.1 49.5H94C93.9 49.5 94.1 49.3 94 49.4C93.9 49.7 93.8 50 93.7 50.3C93.6 50.7 93.5 51.1 93.4 51.5C93.3 51.9 93.2 52.4 93.1 52.8C93 53.3 92.8 53.7 92.7 54.2C92.5 54.7 92.4 55.1999 92.1 55.5999C91.9 56.0999 91.6 56.5 91.4 57C91.1 57.4 90.9 57.8999 90.6 58.2999C90.3 58.6999 90 59.1 89.7 59.5C89.4 59.9 89.1 60.3 88.7 60.7C88.4 61.1 88 61.3999 87.7 61.7999C87.4 62.0999 87 62.4 86.7 62.7C86.6 62.8 86.4 62.9 86.3 63C86.3 63 86.2 62.9999 86.2 63.0999L86.3 63.2C86.5 63.4 86.8 63.7 87 63.9C88.5 65.2 86.7 67.3 85.2 66C84.9 65.7 84.6 65.4999 84.3 65.1999C83.8 64.6999 83.4 64.2999 82.9 63.7999C82.6 63.4999 82.4 63.2 82.1 62.9C82.1 63 82.1 62.9999 82 63.0999C81.9 63.4999 81.8 64 81.6 64.4C81.5 64.8 81.3 65.2999 81.2 65.6999C81.1 66.0999 80.9 66.5 80.8 67C80.7 67.4 80.5 67.7999 80.3 68.1999C80.1 68.5999 80 68.9 79.8 69.3C79.6 69.6 79.5 70 79.3 70.3C79.1 70.6 79 71 78.8 71.3C78.6 71.6 78.5 71.8999 78.3 72.1999C78.1 72.4999 78 72.8 77.8 73C77.6 73.3 77.5 73.5 77.3 73.8C77.2 74 77 74.2 76.9 74.4C76.8 74.6 76.7 74.8 76.6 75C76.5 75.1 76.4 75.2 76.3 75.4C75.9 76.2 74.8 76.6999 73.9 75.6999L73.8 75.5999C73.7 75.4999 73.7 75.5 73.6 75.4C73.5 75.3 73.4 75.1999 73.3 75.0999C73.2 74.9999 73 74.9 72.9 74.8C72.7 74.7 72.6 74.5 72.4 74.4C72.2 74.2 72 74.1 71.9 73.9C71.7 73.7 71.5 73.5 71.3 73.4C71.1 73.2 70.9 73 70.7 72.8C70.5 72.6 70.3 72.3999 70.1 72.1999C69.9 71.9999 69.7 71.7999 69.5 71.5999C69.3 71.3999 69.1 71.2 68.9 71C68.7 70.8 68.5 70.6 68.3 70.3C68.1 70.1 67.9 69.8999 67.7 69.5999C67.5 69.3999 67.3 69.1 67.1 68.9C66.9 68.7 66.7 68.3999 66.5 68.1999C66.3 67.8999 66.1 67.7 65.9 67.4C65.7 67.1 65.5 66.8999 65.3 66.5999C65.1 66.2999 64.9 66.1 64.7 65.8C64.5 65.5 64.3 65.2 64.1 64.9C63.9 64.6 63.7 64.3 63.5 64C63.3 63.7 63.1 63.3999 62.9 63.0999C62.7 62.7999 62.5 62.3999 62.4 62.0999C62.2 61.6999 62 61.3 61.9 60.9C61.8 60.5 61.7 60.1 61.6 59.7C61.5 59.3 61.4 58.9 61.4 58.4C61.3 58 61.3 57.6 61.3 57.2C61.3 56.7 61.3 56.2 61.4 55.7C61.5 55.2 61.6 54.7 61.7 54.2C61.8 53.7 61.9 53.3 62 52.8C62.1 52.3 62.3 51.8 62.4 51.4C62.6 50.9 62.7 50.4 62.9 50C63.1 49.5 63.3 49.1 63.4 48.6C63.6 48.2 63.8 47.7 64 47.3C64.2 46.9 64.4 46.4 64.6 46C64.8 45.6 65 45.2 65.2 44.8C65.4 44.4 65.6 44 65.8 43.6C66 43.2 66.2 42.8 66.5 42.4C66.7 42 67 41.6 67.3 41.3C67.6 40.9 67.8 40.6 68.1 40.3C68.4 40 68.7 39.7 69 39.3C69.3 39 69.6 38.7 70 38.4C70.3 38.1 70.7 37.8 71 37.5C71.3 37.2 71.7 36.9 72 36.7C72.3 36.4 72.7 36.2 73 35.9C73.3 35.6 73.7 35.3999 74 35.0999C74.3 34.7999 74.7 34.6 75 34.3C75.3 34 75.7 33.7999 76 33.5999C76.4 33.2999 76.7 33.1 77.1 32.9C77.5 32.7 77.8 32.4 78.2 32.2C78.6 32 78.9 31.7 79.3 31.5C79.7 31.3 80 31 80.4 30.8C80.8 30.6 81.1 30.4 81.5 30.2C81.9 30 82.2 29.8 82.6 29.6C83 29.4 83.3 29.2 83.7 29C84.1 28.8 84.5 28.6 84.9 28.4C85.3 28.2 85.7 28 86.1 27.9C86.5 27.7 86.9 27.6 87.3 27.5C87.7 27.4 88.1 27.2 88.5 27.1C88.9 27 89.3 26.9 89.7 26.8C90.1 26.7 90.5 26.7 90.9 26.6C91.3 26.5 91.7 26.5 92.1 26.6C92.5 26.6 92.8 26.6 93.2 26.7C93.6 26.7 93.9 26.8 94.3 26.9C94.6 27 94.9 27.1 95.3 27.2C95.6 27.3 95.9 27.4 96.2 27.6C96.5 27.7 96.8 27.9 97.1 28C97.4 28.2 97.7 28.3 97.9 28.5C98.2 28.7 98.4 28.8 98.7 29C99 29.2 99.2 29.4 99.4 29.6C99.6 29.8 99.9 30 100.1 30.3C100.3 30.5 100.5 30.7 100.7 31C100.9 31.2 101.1 31.4 101.3 31.7C101.5 31.9 101.7 32.1 101.9 32.4C102.1 32.6 102.3 32.8999 102.4 33.0999C102.6 33.2999 102.8 33.6 103 33.8C103.2 34 103.4 34.3 103.5 34.5C103.7 34.7 103.9 35 104.1 35.2C104.3 35.4 104.5 35.7 104.7 36C104.9 36.3 105.1 36.5 105.3 36.8C105.5 37.1 105.7 37.3 105.9 37.6C106.1 37.9 106.3 38.1 106.5 38.4C106.7 38.7 106.9 38.9 107 39.1C107.2 39.4 107.4 39.6 107.5 39.9C107.7 40.2 107.9 40.4 108 40.7C108.1 40.9 108.2 41.1 108.3 41.3C108.4 41.5 108.4 41.7 108.3 41.9C108.2 42.1 108.1 42.3 108 42.5L107.9 42.6C107.7 42.8 107.1 43.4 106.9 43.6C106.7 43.8 106.6 44 106.4 44.2C106.2 44.4 106.1 44.6 105.9 44.8C105.7 45 105.6 45.2 105.4 45.3C105.3 45.5 105.1 45.6 105 45.8C104.9 46 104.7 46.1 104.6 46.3C104.5 46.4 104.3 46.6 104.2 46.7C104.1 46.9 103.9 47 103.8 47.2C103.7 47.3 103.5 47.5 103.4 47.6C103.3 47.7 103.1 47.8 103 48C102.9 48.1 102.8 48.2 102.6 48.3C102.5 48.4 102.4 48.5 102.3 48.5C102.2 48.6 102.1 48.6 102 48.7C101.9 48.7 101.3 48.8 100.6 48.8C100.5 48.8 100.5 48.8 100.4 48.8C100.2 48.8 100 48.8 99.8 48.8C99.4 48.8 99.1 48.8 98.7 48.9C98.3 48.9 98 49 97.6 49C97.2 49 96.9 49.1 96.5 49.1C96.5 48.9 96.2 49 95.8 49ZM99.6 87.4C99.6 87.7 99.5 87.9 99.5 88.2C99.5 91.7 102.4 94.6 105.9 94.6C109.4 94.6 112.3 91.7 112.3 88.2C112.3 84.7 109.4 81.8 105.9 81.8C105.3 81.8 104.7 81.9 104.1 82C106.6 80.2 109.6 79.0999 112.9 79.0999C121.2 79.0999 127.9 85.8 127.9 94.1C127.9 102.4 121.2 109.1 112.9 109.1C104.6 109.1 97.9 102.4 97.9 94.1C98 91.7 98.6 89.4 99.6 87.4Z" fill="white"/>
<path d="M192.9 41.9C193.1 42 193.2 42.1 193.4 42.2C193.6 42.3 193.7 42.4 193.9 42.5C194.1 42.6 194.3 42.7 194.5 42.9C194.7 43 194.9 43.0999 195.1 43.2999C195.3 43.3999 195.6 43.5 195.8 43.7C196 43.8 196.3 43.9999 196.5 44.0999C196.8 44.1999 197 44.4 197.3 44.5C197.6 44.6 197.8 44.8 198.1 44.9C198.4 45 198.7 45.1999 198.9 45.2999C199.2 45.3999 199.5 45.4999 199.8 45.5999C200.1 45.6999 200.4 45.8 200.7 45.9C201 46 201.3 46.0999 201.6 46.0999C201.9 46.1999 202.2 46.1999 202.5 46.2999C202.8 46.2999 203 46.4 203.3 46.4C203.6 46.4 203.8 46.4 204.1 46.4C204.4 46.4 204.7 46.4 205 46.4C205.6 46.4 206.1 46.7 206.5 47.2C206.6 47.3 206.6 47.4999 206.7 47.5999C206.9 48.1999 206.7 48.7999 206.4 49.2999C206.2 49.5999 205.9 49.9 205.6 50.2C205.4 50.4 205.3 50.6 205.1 50.7C205.2 50.8 205.4 50.9 205.5 51C205.7 51.1 205.8 51.1999 206 51.2999C206.2 51.3999 206.3 51.5 206.5 51.5C206.7 51.6 206.8 51.7 207 51.7C207.2 51.8 207.4 51.8 207.6 51.9C207.8 52 208 52 208.2 52C208.4 52 208.7 51.9999 208.9 52.0999C209.1 52.0999 209.4 52.0999 209.6 52.0999C209.8 52.0999 210.1 52.0999 210.3 52.0999C210.5 52.0999 210.7 52 211 52C211.3 51.9 211.6 51.8999 211.9 51.7999C212.3 51.6999 212.7 51.8 213.1 51.9C213.4 52 213.7 52.2 214 52.5C214.2 52.7 214.4 52.9 214.6 53.2C214.9 53.6 215 54 215 54.5C215 54.9 215 55.1999 215 55.5999C215 55.8999 215 56.2999 214.9 56.5999C214.9 56.8999 214.8 57.2999 214.8 57.5999C214.8 57.8999 214.7 58.2999 214.7 58.5999H214.8C214.9 58.5999 215 58.6 215.2 58.7C215.3 58.7 215.4 58.7 215.5 58.7C215.6 58.7 215.7 58.7 215.9 58.7C216.1 58.7 216.2 58.7 216.4 58.7C216.6 58.7 216.7 58.6999 216.9 58.5999C217.1 58.5999 217.3 58.5 217.5 58.5C217.7 58.5 217.9 58.4 218.2 58.4C218.5 58.4 218.9 58.4999 219.2 58.5999C219.5 58.6999 219.7 59 219.9 59.2C220 59.4 220.2 59.5999 220.3 59.7999C220.4 59.9999 220.5 60.2 220.6 60.4C220.7 60.6 220.7 60.8 220.8 61C220.9 61.2 220.9 61.4 220.9 61.7C220.9 61.9 220.9 62.0999 220.9 62.2999C220.9 62.4999 220.9 62.7 220.9 62.9C220.9 63.1 220.9 63.3 220.9 63.5C220.9 63.7 220.9 63.9999 220.9 64.1999C220.9 64.3999 220.9 64.7 220.9 64.9C220.9 65.1 220.9 65.3999 220.9 65.5999C220.9 65.7999 220.9 66.1 220.9 66.3C220.9 66.6 220.9 66.7999 221 67.0999C221 67.3999 221 67.6 221.1 67.9C221.1 68.2 221.2 68.3999 221.2 68.6999C221.2 68.8999 221.3 69.2 221.3 69.4C221.3 69.6 221.4 69.7999 221.5 70.0999C221.6 70.2999 221.6 70.4999 221.7 70.6999C221.8 70.9999 221.9 71.2 222 71.5C222.1 71.7 222.2 71.9999 222.3 72.1999C222.4 72.3999 222.5 72.7 222.6 72.9C222.7 73 222.8 73.2 222.8 73.3C222.9 73.2 223 73.1999 223 73.0999C223.2 72.9999 223.3 72.7999 223.5 72.6999C223.6 72.5999 223.8 72.4 223.9 72.3C224.1 72.1 224.2 72 224.4 71.8C224.6 71.6 224.7 71.5 224.9 71.3C225.1 71.1 225.3 70.8999 225.4 70.6999C225.6 70.4999 225.8 70.2999 225.9 70.0999C226.1 69.8999 226.3 69.7 226.4 69.5C226.6 69.3 226.8 69.1 227 68.9C227.2 68.7 227.4 68.3999 227.6 68.1999C227.8 67.9999 228 67.7 228.2 67.5C228.4 67.3 228.6 67 228.8 66.8C229 66.6 229.2 66.2999 229.4 66.0999C229.6 65.8999 229.8 65.6 230 65.4C230.2 65.2 230.4 64.8999 230.6 64.5999C230.8 64.2999 231 64.0999 231.2 63.7999C231.4 63.4999 231.6 63.3 231.8 63C232 62.7 232.1 62.5 232.3 62.2C232.5 61.9 232.6 61.6 232.8 61.4C232.9 61.1 233.1 60.8999 233.1 60.5999C233.2 60.2999 233.3 60 233.3 59.7C233.4 59.4 233.4 59.1 233.5 58.7C233.5 58.4 233.6 58 233.6 57.7C233.6 57.4 233.6 57 233.5 56.7C233.4 56.3 233.3 55.8 233.2 55.4C233.1 55 233 54.4999 232.9 54.0999C232.8 53.6999 232.7 53.2999 232.6 52.7999C232.5 52.3999 232.3 51.9 232.1 51.5C231.9 51.1 231.8 50.6 231.6 50.2C231.4 49.8 231.2 49.4 231.1 48.9C230.9 48.5 230.7 48.1 230.5 47.7C230.3 47.3 230.1 46.9 229.9 46.5C229.7 46.1 229.5 45.8 229.3 45.4C229.1 45 228.9 44.7 228.7 44.4C228.5 44.1 228.3 43.8 228.1 43.5C227.9 43.2 227.6 42.8999 227.4 42.5999C227.2 42.2999 226.9 41.9999 226.7 41.7999C226.4 41.4999 226.1 41.3 225.9 41C225.6 40.7 225.3 40.4 225 40.2C224.7 39.9 224.4 39.7 224.1 39.4C223.8 39.1 223.5 38.8999 223.2 38.5999C222.9 38.2999 222.6 38.0999 222.2 37.7999C221.9 37.5999 221.6 37.2999 221.2 37.0999C220.9 36.8999 220.5 36.6 220.2 36.4C219.9 36.2 219.5 35.9 219.2 35.7C218.9 35.5 218.5 35.2 218.1 35C217.7 34.8 217.4 34.5999 217 34.2999C216.6 34.0999 216.3 33.8999 215.9 33.5999C215.5 33.3999 215.2 33.2 214.8 33C214.5 32.8 214.1 32.6 213.8 32.4C213.5 32.2 213.1 31.9999 212.8 31.7999C212.4 31.5999 212.1 31.3999 211.7 31.2999C211.3 31.0999 211 30.9999 210.6 30.7999C210.2 30.6999 209.9 30.5 209.5 30.4C209.2 30.3 208.8 30.2 208.4 30.1C208.1 30 207.7 29.9 207.4 29.9C207.1 29.8 206.8 29.8 206.5 29.7C206.2 29.7 206 29.7 205.7 29.7C205.4 29.7 205.1 29.6999 204.9 29.7999C204.7 29.7999 204.4 29.9 204.2 29.9C204 30 203.7 30 203.5 30.1C203.3 30.2 203 30.3 202.8 30.4C202.6 30.5 202.4 30.6 202.1 30.7C201.9 30.8 201.7 31 201.5 31.1C201.3 31.2 201.1 31.4 200.9 31.6C200.7 31.7 200.5 31.8999 200.3 32.0999C200.1 32.2999 199.9 32.3999 199.8 32.5999C199.6 32.7999 199.4 33 199.3 33.2C199.1 33.4 199 33.5999 198.8 33.7999C198.6 33.9999 198.4 34.2 198.3 34.4C198.1 34.6 197.9 34.7999 197.8 35.0999C197.6 35.2999 197.5 35.4999 197.3 35.7999C197.1 35.9999 196.9 36.3 196.8 36.5C196.6 36.8 196.4 37 196.2 37.2C196 37.4 195.8 37.7 195.6 37.9C195.4 38.1 195.2 38.3999 195 38.5999C194.8 38.7999 194.6 39.0999 194.4 39.2999C194.2 39.4999 194 39.8 193.9 40C193.7 40.2 193.5 40.5 193.4 40.7C193.2 40.9 193 41.2 192.9 41.4C192.9 41.4 192.9 41.5 192.8 41.5C192.9 41.6 192.9 41.6 193 41.7C192.6 41.7 192.8 41.8 192.9 41.9Z" fill="white"/>
<path d="M100.1 45.7999C100.3 45.7999 100.5 45.7999 100.7 45.7999C100.9 45.7999 101.1 45.8 101.2 45.9C101.3 45.8 101.4 45.8 101.5 45.7C101.6 45.6 101.7 45.5 101.8 45.4C101.9 45.3 102 45.1999 102.1 45.0999C102.2 44.9999 102.3 44.9 102.5 44.7C102.6 44.6 102.8 44.3999 102.9 44.2999C103 44.1999 103.2 44 103.3 43.9C103.4 43.7 103.6 43.6 103.7 43.4C103.9 43.2 104 43 104.2 42.9C104.4 42.7 104.5 42.5 104.7 42.4C104.9 42.2 105 41.9999 105.2 41.7999C105.3 41.6999 105.4 41.4999 105.6 41.2999C105.4 41.0999 105.3 40.9 105.1 40.7C104.9 40.5 104.7 40.2 104.6 40C104.4 39.8 104.2 39.4999 104.1 39.2999C103.9 39.0999 103.7 38.7999 103.5 38.5999C103.3 38.3999 103.1 38.1 102.9 37.9C102.7 37.7 102.5 37.4 102.3 37.2C102.1 37 101.9 36.7 101.7 36.5C101.5 36.3 101.3 35.9999 101.2 35.7999C101 35.5999 100.9 35.3999 100.7 35.0999C100.5 34.8999 100.3 34.7 100.2 34.4C100 34.2 99.9 33.9999 99.7 33.7999C99.5 33.5999 99.4 33.4 99.2 33.2C99 33 98.9 32.7999 98.7 32.5999C98.5 32.3999 98.4 32.2999 98.2 32.0999C98 31.8999 97.8 31.8 97.6 31.6C97.4 31.4 97.2 31.3 97 31.1C96.8 31 96.6 30.8 96.4 30.7C96.2 30.6 96 30.5 95.7 30.4C95.5 30.3 95.2 30.2 95 30.1C94.8 30 94.5 29.9 94.3 29.9C94.1 29.8 93.8 29.7999 93.6 29.7999C93.3 29.7999 93 29.7 92.8 29.7C92.5 29.7 92.3 29.7 92 29.7C91.7 29.7 91.4 29.8 91.1 29.9C90.8 30 90.4 30.1 90.1 30.1C89.7 30.2 89.4 30.3 89 30.4C88.6 30.5 88.3 30.6999 87.9 30.7999C87.5 30.8999 87.2 31.0999 86.8 31.2999C86.4 31.4999 86.1 31.5999 85.7 31.7999C85.4 31.9999 85 32.2 84.7 32.4C84.4 32.6 84 32.8 83.7 33C83.3 33.2 83 33.3999 82.6 33.5999C82.2 33.7999 81.9 33.9999 81.5 34.2999C81.1 34.4999 80.8 34.7 80.4 35C80 35.2 79.7 35.5 79.3 35.7C79 35.9 78.6 36.2 78.3 36.4C78 36.6 77.6 36.8999 77.3 37.0999C77 37.2999 76.7 37.5999 76.3 37.7999C76 37.9999 75.7 38.2999 75.3 38.5999C75 38.7999 74.7 39.1 74.4 39.4C74.1 39.7 73.8 39.9 73.5 40.2C73.2 40.5 72.9 40.7 72.6 41C72.3 41.3 72 41.4999 71.8 41.7999C71.5 42.0999 71.3 42.2999 71.1 42.5999C70.9 42.8999 70.6 43.2 70.4 43.5C70.2 43.8 70 44.1 69.8 44.4C69.6 44.7 69.4 45.1 69.2 45.4C69 45.8 68.8 46.1 68.6 46.5C68.4 46.9 68.2 47.3 68 47.7C67.8 48.1 67.6 48.5 67.4 48.9C67.2 49.3 67 49.7 66.9 50.2C66.7 50.6 66.5 51.1 66.4 51.5C66.2 51.9 66.1 52.3999 65.9 52.7999C65.8 53.1999 65.7 53.5999 65.6 54.0999C65.5 54.4999 65.4 55 65.3 55.4C65.2 55.8 65.1 56.3 65 56.7C64.9 57 64.9 57.3 64.9 57.7C64.9 58 64.9 58.4 65 58.7C65 59 65.1 59.3 65.2 59.7C65.3 60 65.3 60.2999 65.4 60.5999C65.5 60.8999 65.6 61.1 65.7 61.4C65.8 61.7 66 62 66.2 62.2C66.4 62.5 66.5 62.7 66.7 63C66.9 63.3 67.1 63.4999 67.3 63.7999C67.5 64.0999 67.7 64.2999 67.9 64.5999C68.1 64.8999 68.3 65.1 68.5 65.4C68.7 65.6 68.9 65.8999 69.1 66.0999C69.3 66.2999 69.5 66.6 69.7 66.8C69.9 67 70.1 67.3 70.3 67.5C70.5 67.7 70.7 67.9999 70.9 68.1999C71.1 68.3999 71.3 68.7 71.5 68.9C71.7 69.1 71.9 69.3 72.1 69.5C72.3 69.7 72.5 69.8999 72.6 70.0999C72.8 70.2999 73 70.4999 73.1 70.6999C73.3 70.8999 73.5 71.1 73.6 71.3C73.8 71.5 73.9 71.7 74.1 71.8C74.3 72 74.4 72.1 74.6 72.3C74.7 72.4 74.9 72.5999 75 72.6999C75.1 72.7999 75.3 72.9 75.4 73C75.5 72.9 75.6 72.6999 75.7 72.5999C75.8 72.3999 76 72.2 76.1 72C76.2 71.8 76.4 71.4999 76.5 71.1999C76.6 70.8999 76.8 70.7 76.9 70.4C77.1 70.1 77.2 69.8 77.3 69.5C77.5 69.2 77.6 68.8 77.8 68.5C78 68.2 78.1 67.8 78.2 67.5C78.3 67.1 78.5 66.8 78.6 66.4C78.7 66 78.9 65.5999 79 65.1999C79.1 64.7999 79.3 64.4 79.4 64C79.5 63.6 79.6 63.1999 79.7 62.7999C79.8 62.3999 79.9 61.9 80.1 61.5C80.3 61 80.5 60.4999 80.9 60.0999C81.1 59.9999 81.2 59.8999 81.4 59.7999C81.6 59.7999 81.8 59.7 82 59.7C82.8 59.7 83.4 60.2999 83.9 60.7999C84.1 60.9999 84.3 61.2 84.5 61.5L84.6 61.4C84.8 61.2 85 61.1 85.2 60.9C85.5 60.7 85.8 60.4 86 60.2C86.3 59.9 86.6 59.5999 86.9 59.2999C87.2 58.9999 87.5 58.5999 87.8 58.2999C88.1 57.9999 88.3 57.6 88.6 57.2C88.9 56.8 89.1 56.4999 89.3 56.0999C89.5 55.6999 89.7 55.3 89.9 54.9C90.1 54.5 90.2 54.0999 90.3 53.7999C90.4 53.3999 90.6 52.9999 90.7 52.5999C90.8 52.1999 90.9 51.8 91 51.4C91.1 51 91.2 50.5999 91.3 50.0999C91.4 49.6999 91.5 49.1999 91.7 48.7999C92 48.1999 92.5 47.7 93.1 47.4C93.5 47.2 93.9 47.1 94.3 46.9C94.7 46.8 95.1 46.6999 95.6 46.5999C96 46.4999 96.4 46.5 96.8 46.4C97.2 46.3 97.6 46.3 98 46.2C98.4 46.2 98.8 46.0999 99.2 46.0999C99.3 45.7999 99.7 45.7999 100.1 45.7999Z" fill="white"/>
<path d="M212.9 248.5C212.7 248.4 212.5 248.4 212.3 248.3C212.1 248.2 211.8 248.2 211.6 248.1C211.3 248 211.1 247.9 210.8 247.9C210.5 247.8 210.3 247.8 210 247.7C209.7 247.6 209.4 247.6 209.1 247.5C208.8 247.4 208.5 247.4 208.2 247.3C207.9 247.2 207.6 247.2 207.3 247.1C207 247 206.7 247 206.4 246.9C206.1 246.8 205.7 246.8 205.4 246.7C205.1 246.6 204.7 246.6 204.4 246.5C204.1 246.5 203.7 246.4 203.4 246.4C203.1 246.4 202.7 246.3 202.4 246.3C202.1 246.3 201.7 246.2 201.4 246.2C201.1 246.2 200.7 246.2 200.4 246.2C200.1 246.2 199.7 246.2 199.4 246.3C199 246.3 198.7 246.4 198.3 246.4C198 246.4 197.6 246.5 197.3 246.6C196.9 246.7 196.6 246.7 196.2 246.8C195.9 246.9 195.5 246.9 195.2 247C194.9 247.1 194.5 247.1 194.2 247.2C193.9 247.3 193.5 247.3 193.2 247.4C192.9 247.5 192.6 247.6 192.3 247.7C192 247.8 191.7 247.9 191.4 248C191.1 248.1 190.8 248.2 190.5 248.4C190.2 248.5 189.9 248.6 189.6 248.8C189.3 248.9 189 249.1 188.7 249.2C188.4 249.3 188.1 249.5 187.7 249.6C187.4 249.7 187.1 249.9 186.7 250.1C186.4 250.3 186.1 250.4 185.8 250.6C185.5 250.8 185.2 250.9 184.9 251.1C184.6 251.3 184.3 251.4 184 251.6C183.7 251.8 183.4 252 183.1 252.1C182.8 252.3 182.5 252.5 182.3 252.7C182 252.9 181.8 253.1 181.5 253.3C181.3 253.4 181.1 253.6 181 253.7C181 253.7 181 253.7 180.9 253.7C181 254.1 181.1 254.5 181.2 254.9C181.3 255.3 181.4 255.7 181.5 256.1C181.6 256.5 181.7 256.8 181.8 257.2C181.9 257.5 182 257.9 182.1 258.2C182.2 258.5 182.3 258.9 182.4 259.2C182.5 259.5 182.6 259.8 182.7 260.1C182.8 260.4 182.9 260.6 182.9 260.9C183 261.1 183 261.3 183.1 261.5V261.6C183.2 261.6 183.3 261.6 183.4 261.6C184 261.6 184.7 261.7 185.3 261.7C185.9 261.7 186.5 261.7 187.1 261.7C187.7 261.7 188.3 261.6 188.9 261.6C189.5 261.6 190.1 261.5 190.7 261.5C191.3 261.4 191.9 261.4 192.5 261.3C193.1 261.2 193.7 261.1 194.4 261C195 260.9 195.6 260.8 196.3 260.7C196.9 260.6 197.5 260.4 198.1 260.3C198.7 260.2 199.2 260 199.8 259.9C200.3 259.7 200.8 259.6 201.4 259.4C201.9 259.2 202.4 259.1 202.9 258.9C203.4 258.7 203.9 258.6 204.3 258.4C204.7 258.2 205.1 258 205.6 257.9C206 257.7 206.4 257.6 206.8 257.4C207.2 257.2 207.5 257.1 207.9 256.9C208.2 256.7 208.6 256.6 208.9 256.4C209.2 256.2 209.5 256.1 209.8 255.9C210.1 255.7 210.4 255.6 210.6 255.4C210.9 255.2 211.1 255.1 211.4 254.9C211.6 254.8 211.8 254.6 212.1 254.5C212.3 254.4 212.5 254.2 212.7 254.1C212.9 254 213 253.9 213.2 253.7C213.4 253.5 213.6 253.4 213.8 253.2C213.8 252.4 213.8 251.7 213.7 250.9C213.7 250.2 213.6 249.5 213.6 248.8C213.5 248.8 213.4 248.7 213.3 248.7C213.2 248.6 213.1 248.6 212.9 248.5Z" fill="white"/>
<path d="M86.7 253.7C86.9 253.8 87 253.9 87.2 254.1C87.4 254.2 87.6 254.4 87.8 254.5C88 254.6 88.2 254.8 88.5 254.9C88.8 255.1 89 255.2 89.3 255.4C89.6 255.6 89.9 255.7 90.1 255.9C90.4 256.1 90.7 256.2 91 256.4C91.3 256.6 91.7 256.7 92 256.9C92.4 257.1 92.7 257.3 93.1 257.4C93.5 257.6 93.9 257.8 94.3 257.9C94.7 258.1 95.1 258.3 95.6 258.4C96.1 258.6 96.5 258.8 97 258.9C97.5 259.1 98 259.2 98.5 259.4C99 259.6 99.5 259.7 100.1 259.9C100.6 260.1 101.2 260.2 101.8 260.3C102.4 260.4 103 260.6 103.6 260.7C104.2 260.8 104.8 260.9 105.5 261C106.1 261.1 106.7 261.2 107.4 261.3C108 261.4 108.6 261.5 109.2 261.5C109.8 261.6 110.4 261.6 111 261.6C111.6 261.6 112.2 261.7 112.8 261.7C113.4 261.7 114 261.7 114.6 261.7C115.2 261.7 115.9 261.7 116.5 261.6C116.6 261.6 116.7 261.6 116.8 261.6V261.5C116.9 261.3 117 261.1 117 260.9C117.1 260.6 117.2 260.4 117.2 260.1C117.3 259.8 117.4 259.5 117.5 259.2C117.6 258.9 117.7 258.5 117.8 258.2C117.9 257.9 118 257.5 118.1 257.2C118.2 256.8 118.3 256.5 118.4 256.1C118.5 255.7 118.6 255.3 118.7 254.9C118.8 254.5 118.9 254.1 119 253.6C119 253.5 119 253.4 119.1 253.3C119 253.3 119 253.2 118.9 253.2C118.6 253 118.4 252.8 118.1 252.6C117.8 252.4 117.5 252.2 117.3 252C117 251.8 116.7 251.6 116.4 251.5C116.1 251.3 115.8 251.2 115.5 251C115.2 250.8 114.9 250.7 114.6 250.5C114.3 250.3 114 250.2 113.7 250C113.4 249.8 113.1 249.7 112.7 249.5C112.4 249.4 112.1 249.2 111.7 249.1C111.4 249 111.1 248.8 110.8 248.7C110.5 248.6 110.2 248.4 109.9 248.3C109.6 248.2 109.3 248.1 109 247.9C108.7 247.8 108.4 247.7 108.1 247.6C107.8 247.5 107.5 247.4 107.2 247.3C106.9 247.2 106.5 247.1 106.2 247.1C105.9 247 105.5 246.9 105.2 246.9C104.9 246.8 104.5 246.8 104.2 246.7C103.8 246.6 103.5 246.6 103.1 246.5C102.8 246.4 102.4 246.4 102.1 246.3C101.7 246.3 101.4 246.2 101 246.2C100.7 246.2 100.3 246.1 100 246.1C99.7 246.1 99.3 246.1 99 246.1C98.7 246.1 98.3 246.1 98 246.2C97.7 246.2 97.3 246.3 97 246.3C96.7 246.3 96.3 246.4 96 246.4C95.7 246.4 95.3 246.5 95 246.6C94.7 246.7 94.3 246.7 94 246.8C93.7 246.9 93.4 246.9 93.1 247C92.8 247.1 92.5 247.1 92.2 247.2C91.9 247.3 91.6 247.3 91.3 247.4C91 247.5 90.7 247.5 90.4 247.6C90.1 247.7 89.9 247.7 89.6 247.8C89.3 247.9 89.1 248 88.8 248C88.6 248.1 88.3 248.1 88.1 248.2C87.9 248.3 87.7 248.3 87.5 248.4C87.3 248.5 87.2 248.5 87 248.6C86.9 248.6 86.8 248.7 86.7 248.8C86.6 248.8 86.5 248.9 86.4 248.9H86.3L86.4 248.8C86.4 248.9 86.3 248.9 86.2 248.9C86.2 249.5 86.1 250.1 86.1 250.7C86.1 251.5 86.1 252.2 86 253C86.3 253.4 86.5 253.5 86.7 253.7Z" fill="white"/>
<path d="M0 0V300H300V0H0ZM246.5 258C246.5 258.8 246.4 259.6 246.2 260.4C246.1 261.2 245.9 261.9 245.8 262.7C245.6 263.4 245.5 264.2 245.3 264.9C245.1 265.6 244.9 266.3 244.7 267.1C244.5 267.8 244.3 268.5 244 269.2C243.7 270 243.4 270.7 243 271.4C242.5 272.2 241.8 272.9 241.1 273.6C240.5 274.2 239.8 274.7 239.1 275.3C238.4 275.9 237.7 276.4 237 276.9C236.3 277.4 235.6 277.8 234.9 278.2C234.2 278.6 233.5 279 232.7 279.3C232 279.7 231.2 280 230.5 280.2C229.8 280.5 229 280.7 228.3 280.9C227.5 281.1 226.7 281.3 225.9 281.4C225.1 281.5 224.3 281.6 223.6 281.7C222.8 281.8 222 281.8 221.2 281.9C220.4 281.9 219.6 281.9 218.8 281.9C218 281.9 217.1 281.8 216.3 281.7C215.5 281.6 214.7 281.5 213.9 281.4C213.1 281.3 212.3 281.2 211.6 281.1C210.8 281 210 280.8 209.1 280.7C208.3 280.6 207.5 280.4 206.7 280.3C205.9 280.1 205.1 280 204.3 279.8C203.5 279.6 202.7 279.5 202 279.3C201.2 279.1 200.5 278.9 199.7 278.7C198.9 278.5 198.2 278.3 197.4 278C196.7 277.8 196 277.5 195.2 277.3C194.5 277.1 193.8 276.8 193.1 276.6C192.4 276.4 191.7 276.1 191 275.9C190.3 275.7 189.6 275.4 189 275.2C188.3 275 187.7 274.7 187 274.5C186.3 274.3 185.7 274 185 273.8C184.3 273.6 183.7 273.3 183 273C182.3 272.7 181.7 272.5 181 272.2C180.3 271.9 179.7 271.7 179 271.4C178.4 271.1 177.7 270.9 177.1 270.6C176.5 270.3 175.8 270.1 175.2 269.8C174.6 269.6 174 269.3 173.3 269.1C172.7 268.9 172.1 268.6 171.5 268.4C170.9 268.2 170.3 267.9 169.7 267.7C169.1 267.5 168.5 267.3 167.9 267C167.3 266.8 166.7 266.6 166.1 266.3C165.7 266.1 165.9 266.2 165.5 266.1H165.4C165.2 266.1 165.1 266.1 164.9 266C164.6 265.9 164.3 265.9 164 265.8C163.6 265.7 163.1 265.6 162.7 265.5C162.3 265.4 161.8 265.3 161.4 265.2C161 265.1 160.5 265 160.1 264.9C159.7 264.8 159.3 264.7 158.9 264.7C158.5 264.6 158.1 264.6 157.7 264.6C157.3 264.6 156.8 264.5 156.4 264.5C155.9 264.5 155.5 264.5 155 264.5C154.5 264.5 154 264.5 153.5 264.6C153 264.6 152.5 264.6 152.1 264.7C151.6 264.7 151.2 264.7 150.7 264.8C150.2 264.8 149.8 264.9 149.3 264.9C148.8 264.9 148.4 265 147.9 265C147.4 265 147 265.1 146.5 265.1C146 265.1 145.6 265.2 145.1 265.2C144.7 265.2 144.2 265.2 143.8 265.3C143.4 265.3 143 265.3 142.5 265.4C142.1 265.4 141.7 265.4 141.3 265.5C140.9 265.5 140.5 265.6 140.2 265.6C139.8 265.6 139.5 265.7 139.1 265.7C138.8 265.7 138.4 265.8 138.1 265.8C137.8 265.8 137.5 265.9 137.2 265.9C136.9 265.9 136.7 266 136.4 266C136.2 266 136 266.1 135.7 266.1C135.5 266.1 135.3 266.2 135.1 266.2C135 266.2 134.9 266.2 134.9 266.2C134.8 266.2 134.7 266.3 134.5 266.3H134.4H134.3C133.9 266.4 134.1 266.4 133.7 266.5C133.1 266.7 132.5 266.9 131.9 267.2C131.3 267.4 130.7 267.6 130.1 267.9C129.5 268.1 128.9 268.4 128.3 268.6C127.7 268.8 127.1 269.1 126.5 269.3C125.9 269.5 125.3 269.8 124.6 270C124 270.3 123.3 270.5 122.7 270.8C122.1 271.1 121.4 271.3 120.8 271.6C120.1 271.9 119.5 272.1 118.8 272.4C118.1 272.7 117.5 272.9 116.8 273.2C116.1 273.5 115.5 273.7 114.8 274C114.1 274.2 113.5 274.5 112.8 274.7C112.1 274.9 111.5 275.2 110.8 275.4C110.1 275.6 109.4 275.9 108.8 276.1C108.1 276.4 107.4 276.6 106.7 276.8C106 277 105.3 277.3 104.6 277.5C103.9 277.7 103.2 278 102.4 278.2C101.6 278.4 100.9 278.7 100.1 278.9C99.3 279.1 98.6 279.3 97.8 279.5C97 279.7 96.2 279.9 95.5 280C94.7 280.2 93.9 280.3 93.1 280.5C92.3 280.7 91.5 280.8 90.7 280.9C89.9 281 89.1 281.2 88.2 281.3C87.4 281.4 86.6 281.5 85.9 281.6C85.1 281.7 84.3 281.8 83.5 281.9C82.7 282 81.8 282.1 81 282.1C80.2 282.1 79.4 282.2 78.6 282.1C77.8 282.1 77 282 76.2 281.9C75.4 281.8 74.6 281.7 73.9 281.6C73.1 281.5 72.3 281.3 71.5 281.1C70.8 280.9 70 280.6 69.3 280.4C68.6 280.1 67.8 279.8 67.1 279.5C66.4 279.1 65.6 278.8 64.9 278.4C64.2 278 63.5 277.5 62.8 277.1C62.1 276.6 61.3 276.1 60.7 275.5C60 274.9 59.4 274.4 58.7 273.8C58 273.1 57.3 272.4 56.8 271.6C56.4 270.9 56.1 270.2 55.8 269.4C55.6 268.7 55.3 268 55.1 267.3C54.9 266.6 54.7 265.9 54.5 265.1C54.3 264.4 54.1 263.6 54 262.9C53.8 262.1 53.7 261.4 53.6 260.6C53.5 259.8 53.4 259 53.3 258.2C53.2 257.4 53.2 256.6 53.2 255.9C53.2 255.1 53.2 254.4 53.2 253.6C53.2 252.8 53.3 252 53.4 251.2C53.5 250.5 53.7 249.8 53.9 249.1C54.1 248.4 54.3 247.7 54.6 247C54.9 246.4 55.2 245.8 55.5 245.2C55.8 244.6 56.2 244.1 56.6 243.5C57 242.9 57.4 242.4 57.8 241.8C58.3 241.2 58.7 240.7 59.2 240.2C59.7 239.7 60.2 239.3 60.8 238.8C61.4 238.4 61.9 238 62.6 237.7C63.2 237.4 63.8 237.1 64.4 236.9C65 236.7 65.6 236.5 66.3 236.3C66.9 236.1 67.5 236 68.2 235.9C68.9 235.8 69.5 235.7 70.2 235.6C70.9 235.5 71.6 235.5 72.3 235.4C73 235.4 73.7 235.4 74.4 235.4C75.1 235.5 75.8 235.5 76.4 235.7C76.9 235.9 77.4 236 77.9 236.2C78.4 236.4 78.9 236.6 79.3 236.8C79.8 237 80.2 237.2 80.6 237.4C81 237.6 81.3 237.8 81.7 238C82 238.2 82.3 238.4 82.6 238.6C82.7 238.7 82.7 238.7 82.8 238.8C82.8 238.6 82.8 238.4 82.8 238.3C82.9 237.2 83 236.1 83.1 235C83.2 233.9 83.3 232.8 83.4 231.6C83.5 230.4 83.6 229.3 83.8 228.1C84 227 84.1 225.9 84.3 224.8C84.5 223.7 84.7 222.6 84.9 221.5C85.1 220.4 85.3 219.3 85.6 218.2C85.8 217.1 86.1 215.9 86.3 214.8C86.5 213.6 86.8 212.5 87 211.3C87.3 210.1 87.5 208.9 87.8 207.8C88.1 206.6 88.4 205.4 88.7 204.2C89 203 89.3 201.8 89.6 200.5C89.9 199.3 90.3 198 90.6 196.8C90.9 195.5 91.3 194.3 91.6 193C92 191.8 92.3 190.5 92.7 189.3C93 188.3 93.3 187.3 93.6 186.2C93.9 185.2 94.2 184.3 94.5 183.3C94.8 182.4 95.1 181.4 95.4 180.5C95.7 179.6 96 178.7 96.3 177.8C96.5 177.1 96.7 176.4 97 175.7C97 175.6 97.1 175.4 97.1 175.2C96.6 174.9 96.1 174.6 95.6 174.2C95 173.8 94.4 173.4 93.8 172.9C93.2 172.5 92.6 172 92 171.6C91.4 171.2 90.8 170.7 90.2 170.2C89.6 169.7 89 169.3 88.5 168.8C87.9 168.3 87.4 167.8 86.9 167.3C86.4 166.8 85.9 166.3 85.4 165.8C84.9 165.3 84.4 164.8 84 164.3C83.5 163.8 83.1 163.3 82.6 162.7C82.1 162.2 81.7 161.6 81.2 161C80.7 160.4 80.3 159.9 79.9 159.3C79.5 158.7 79.1 158.1 78.7 157.5C78.3 156.9 77.9 156.3 77.6 155.7C77.2 155.1 76.9 154.5 76.5 153.8C76.2 153.2 75.9 152.5 75.6 151.9C75.3 151.3 75.1 150.6 74.8 150C74.5 149.4 74.3 148.7 74 148.1C73.8 147.5 73.6 146.8 73.4 146.2C73.2 145.5 73 144.9 72.8 144.2C72.6 143.6 72.5 142.9 72.4 142.3C72.3 141.6 72.1 141 72 140.3C71.9 139.6 71.8 138.9 71.7 138.3C71.6 137.6 71.5 136.9 71.4 136.2C71.3 135.5 71.3 134.8 71.2 134.1C71.2 133.4 71.1 132.7 71.1 132C71.1 131.3 71 130.6 71 129.9C71 129.2 71 128.5 71 127.9C71 127.2 71 126.6 71 125.9C71 125.2 71 124.6 71 123.9C71 123.2 71 122.6 71 121.9C71 121.2 71 120.6 71 119.9C71 119.2 71 118.6 71 117.9C71 117.2 71 116.6 71 115.9C71 115.3 71 114.6 71 114C71 113.4 71 112.7 70.9 112.1C70.9 111.5 70.9 110.8 70.8 110.2C70.8 109.6 70.7 108.9 70.7 108.3C70.7 107.7 70.6 107 70.6 106.4C70.6 105.8 70.5 105.2 70.5 104.6C70.5 104 70.4 103.4 70.4 102.7C70.4 102.1 70.3 101.5 70.3 100.8C70.3 100.2 70.2 99.6 70.2 99C70.1 98.4 70.1 97.8 70 97.2C69.9 96.6 69.9 96 69.8 95.4C69.7 94.8 69.7 94.3 69.6 93.7C69.5 93.1 69.4 92.6 69.4 92C69.3 91.5 69.2 90.9 69.1 90.4C69 89.9 68.9 89.4 68.8 88.8C68.7 88.3 68.6 87.8 68.5 87.3C68.4 86.8 68.3 86.4 68.2 85.9C68.1 85.4 68 85 67.8 84.5C67.7 84 67.6 83.6 67.4 83.1C67.3 82.6 67.1 82.2 67 81.7C66.9 81.3 66.8 80.9 66.6 80.4C66.5 80.1 66.4 79.9 66.4 79.6C66.4 79.5 66.3 79.5 66.3 79.4C66.1 79.2 62.5 73.8 62.3 73.6C61.9 73.1 61.6 72.7 61.2 72.2C60.7 71.6 60.3 70.9 59.8 70.3C59.3 69.6 58.8 68.8 58.3 68C57.8 67.2 57.3 66.4 56.9 65.6C56.4 64.7 56 63.8 55.6 62.9C55.2 62 54.9 61 54.6 60C54.3 58.9 54.1 57.8 54 56.7C53.9 55.5 54.1 54.3 54.2 53.1C54.3 51.9 54.6 50.8 54.9 49.6C55.2 48.4 55.6 47.3 56 46.2C56.4 45.1 56.9 44 57.4 42.9C57.9 41.8 58.5 40.8 59.1 39.8C59.7 38.8 60.5 37.8 61.2 36.9C61.9 36 62.7 35.1 63.4 34.3C64.1 33.5 64.9 32.7 65.7 31.9C66.4 31.1 67.2 30.4 68 29.6C68.8 28.9 69.6 28.2 70.4 27.5C71.2 26.9 72 26.3 72.8 25.7C73.6 25.1 74.3 24.6 75.1 24C75.9 23.4 76.8 22.9 77.6 22.4C78.5 21.9 79.3 21.5 80.2 21C81 20.6 81.9 20.2 82.8 19.8C83.7 19.4 84.6 19 85.5 18.7C86.4 18.4 87.3 18.1 88.2 17.9C89.1 17.6 90.1 17.5 91.1 17.4C92 17.3 93 17.3 94 17.3C95 17.4 96 17.6 97 17.9C97.9 18.1 98.7 18.4 99.6 18.7C100.4 19 101.2 19.4 102 19.7C102.8 20.1 103.5 20.4 104.2 20.8C104.9 21.2 105.6 21.6 106.3 22.1C107 22.6 107.7 23.1 108.3 23.7C108.9 24.3 109.5 24.9 110 25.5C110.5 26.1 111 26.8 111.5 27.4C112 28 112.4 28.7 112.9 29.4C113.3 30.1 113.7 30.8 114.1 31.5C114.4 32.1 114.8 32.8 115.1 33.4C115.4 33.3 115.6 33.2 115.9 33C116.4 32.8 117 32.5 117.5 32.3C118.1 32.1 118.7 31.8 119.3 31.6C119.9 31.4 120.5 31.1 121.2 30.9C121.9 30.6 122.6 30.4 123.3 30.2C124 30 124.8 29.8 125.5 29.6C126.2 29.4 127 29.2 127.7 29C128.5 28.8 129.3 28.6 130.1 28.5C130.9 28.3 131.7 28.2 132.5 28C133.3 27.8 134.1 27.7 134.9 27.5C135.7 27.4 136.5 27.2 137.3 27.1C138.1 27 138.9 26.9 139.7 26.7C140.5 26.6 141.3 26.5 142.1 26.4C142.9 26.3 143.7 26.3 144.6 26.2C145.4 26.1 146.2 26.1 147 26.1C147.8 26.1 148.6 26 149.4 26C150.2 26 151 26 151.8 26C152.6 26 153.4 26.1 154.2 26.1C155 26.1 155.7 26.2 156.5 26.3C157.3 26.4 158 26.5 158.8 26.6C159.5 26.7 160.3 26.8 161 26.9C161.7 27 162.4 27.1 163.1 27.3C163.8 27.4 164.5 27.6 165.2 27.7C165.9 27.8 166.5 28 167.2 28.1C167.8 28.2 168.5 28.4 169.1 28.5C169.7 28.6 170.4 28.8 171 28.9C171.6 29 172.2 29.2 172.9 29.3C173.5 29.4 174.1 29.6 174.8 29.8C175.4 29.9 176 30.1 176.6 30.3C177.2 30.5 177.8 30.6 178.4 30.8C179 31 179.6 31.1 180.2 31.3C180.8 31.5 181.4 31.6 182 31.8C182.6 32 183.1 32.1 183.7 32.3C183.8 32.3 183.9 32.4 184 32.4C184.2 32.4 184.3 32.5 184.4 32.6C184.6 32.2 184.8 31.8 185 31.4C185.4 30.7 185.8 30 186.2 29.3C186.6 28.6 187.1 28 187.6 27.3C188.1 26.6 188.6 26 189.1 25.4C189.6 24.8 190.2 24.2 190.8 23.6C191.4 23 192.1 22.5 192.8 22C193.5 21.6 194.2 21.1 194.9 20.7C195.6 20.3 196.4 19.9 197.1 19.6C197.9 19.2 198.7 18.9 199.5 18.6C200.3 18.3 201.2 18 202.1 17.8C203.1 17.5 204.1 17.3 205.1 17.2C206.1 17.2 207 17.2 208 17.3C209 17.4 209.9 17.5 210.9 17.8C211.8 18.1 212.7 18.3 213.6 18.6C214.5 18.9 215.4 19.3 216.3 19.7C217.2 20.1 218 20.5 218.9 20.9C219.8 21.4 220.7 21.8 221.5 22.3C222.4 22.8 223.2 23.3 224 23.9C224.8 24.4 225.6 25 226.3 25.6C227.1 26.2 227.9 26.8 228.7 27.4C229.5 28.1 230.3 28.7 231.1 29.5C231.9 30.2 232.7 31 233.4 31.8C234.2 32.6 234.9 33.4 235.7 34.2C236.5 35.1 237.2 35.9 237.9 36.8C238.6 37.8 239.4 38.7 240 39.7C240.6 40.7 241.2 41.7 241.7 42.8C242.2 43.9 242.7 45 243.1 46.1C243.5 47.2 243.9 48.3 244.2 49.5C244.5 50.6 244.7 51.8 244.9 53C245 54.2 245.2 55.4 245.1 56.6C245 57.7 244.8 58.8 244.5 59.9C244.2 60.9 243.9 61.8 243.5 62.8C243.1 63.7 242.7 64.6 242.2 65.5C241.7 66.3 241.3 67.1 240.8 67.9C240.3 68.7 239.8 69.4 239.3 70.2C238.8 70.8 238.4 71.5 237.9 72.1C237.5 72.6 237.2 73 236.8 73.5C236.8 73.5 236.6 73.7 236.4 74C236.2 74.3 236 74.6 235.7 74.8C234.4 76.5 232.3 79.1 232.2 79.2C232.1 79.4 231.9 79.6 231.8 79.7C231.8 79.8 231.7 80 231.7 80.1C231.6 80.5 231.5 80.9 231.3 81.4C231.2 81.9 231 82.3 230.9 82.8C230.8 83.3 230.6 83.7 230.5 84.2C230.4 84.7 230.3 85.1 230.1 85.6C230 86.1 229.9 86.5 229.8 87C229.7 87.5 229.6 88 229.5 88.5C229.4 89 229.3 89.5 229.2 90.1C229.1 90.6 229 91.2 228.9 91.7C228.8 92.3 228.7 92.8 228.7 93.4C228.6 94 228.5 94.5 228.5 95.1C228.4 95.7 228.4 96.3 228.3 96.9C228.2 97.5 228.2 98.1 228.1 98.7C228 99.3 228 99.9 228 100.5C228 101.1 227.9 101.7 227.9 102.4C227.9 103 227.8 103.6 227.8 104.3C227.8 104.9 227.7 105.5 227.7 106.1C227.7 106.7 227.6 107.4 227.6 108C227.6 108.6 227.5 109.3 227.5 109.9C227.5 110.5 227.4 111.2 227.4 111.8C227.4 112.4 227.4 113.1 227.3 113.7C227.3 114.3 227.3 115 227.3 115.6C227.3 116.3 227.3 116.9 227.3 117.6C227.3 118.3 227.3 118.9 227.3 119.6C227.3 120.3 227.3 120.9 227.3 121.6C227.3 122.3 227.3 122.9 227.3 123.6C227.3 124.3 227.3 124.9 227.3 125.6C227.3 126.3 227.3 126.9 227.3 127.6C227.3 128.3 227.3 129 227.3 129.6C227.3 130.3 227.3 131 227.2 131.7C227.2 132.4 227.1 133.1 227.1 133.8C227 134.5 227 135.2 226.9 135.9C226.8 136.6 226.7 137.3 226.6 138C226.5 138.7 226.4 139.4 226.3 140C226.2 140.7 226 141.3 225.9 142C225.8 142.6 225.6 143.3 225.5 143.9C225.3 144.6 225.1 145.2 224.9 145.9C224.7 146.6 224.5 147.2 224.3 147.8C224.1 148.5 223.8 149.1 223.5 149.7C223.2 150.3 223 151 222.7 151.6C222.4 152.2 222.1 152.9 221.8 153.5C221.5 154.1 221.1 154.8 220.7 155.4C220.3 156 220 156.6 219.6 157.2C219.2 157.8 218.8 158.4 218.4 159C218 159.6 217.5 160.2 217.1 160.7C216.7 161.3 216.2 161.8 215.7 162.4C215.2 162.9 214.8 163.5 214.3 164C213.8 164.5 213.3 165 212.9 165.5C212.4 166 211.9 166.5 211.4 167C210.9 167.5 210.3 168 209.8 168.5C209.2 169 208.7 169.5 208.1 169.9C207.5 170.4 206.9 170.8 206.3 171.3C205.7 171.8 205.1 172.2 204.5 172.6C203.9 173 203.3 173.4 202.7 173.8C202.8 174 202.9 174.3 203 174.6C203.1 174.8 203.1 175.1 203.2 175.3C203.4 176 203.6 176.7 203.9 177.4C204.2 178.3 204.5 179.2 204.8 180.1C205.1 181 205.4 182 205.7 182.9C206 183.9 206.3 184.8 206.6 185.8C206.9 186.8 207.2 187.8 207.5 188.9C207.9 190.1 208.2 191.4 208.6 192.6C208.9 193.9 209.3 195.1 209.6 196.4C209.9 197.6 210.3 198.9 210.6 200.1C210.9 201.3 211.2 202.5 211.5 203.8C211.8 205 212.1 206.2 212.4 207.4C212.7 208.6 212.9 209.8 213.2 210.9C213.5 212 213.7 213.2 213.9 214.4C214.1 215.5 214.4 216.6 214.6 217.8C214.8 218.9 215 220 215.3 221.1C215.5 222.2 215.7 223.3 215.9 224.4C216.1 225.5 216.3 226.6 216.4 227.7C216.6 228.9 216.7 230 216.8 231.2C216.9 232.3 217 233.4 217.1 234.6C217.2 235.7 217.3 236.8 217.4 237.9C217.4 238.1 217.4 238.3 217.4 238.5C217.5 238.4 217.6 238.3 217.7 238.3C218 238.1 218.3 237.9 218.6 237.7C219 237.5 219.3 237.3 219.7 237.1C220.1 236.9 220.6 236.7 221 236.5C221.5 236.3 222 236.1 222.4 235.9C222.9 235.7 223.4 235.5 223.9 235.4C224.6 235.2 225.2 235.1 225.9 235.1C226.6 235.1 227.3 235.1 228 235.1C228.7 235.1 229.4 235.2 230.1 235.3C230.8 235.4 231.4 235.5 232.1 235.6C232.7 235.7 233.3 235.9 234 236C234.6 236.2 235.3 236.4 235.9 236.6C236.5 236.8 237.1 237.1 237.7 237.4C238.3 237.7 238.9 238.1 239.5 238.5C240.1 238.9 240.6 239.4 241.1 239.9C241.6 240.4 242.1 240.9 242.5 241.5C242.9 242 243.3 242.6 243.7 243.2C244.1 243.7 244.4 244.3 244.8 244.9C245.1 245.5 245.4 246.1 245.7 246.7C246 247.4 246.3 248.1 246.4 248.8C246.6 249.5 246.7 250.2 246.9 250.9C247 251.7 247.1 252.5 247.1 253.3C247.1 254.1 247.1 254.8 247.1 255.6C246.6 256.5 246.6 257.2 246.5 258Z" fill="white"/>
<path d="M233.4 273.9C233.1 273.9 232.7 274 232.4 274C232.1 274 231.7 274 231.4 274C231 274 230.7 273.9 230.3 273.9C229.9 273.8 229.5 273.7 229.2 273.6C228.8 273.5 228.5 273.3 228.2 273.1C227.9 272.9 227.5 272.7 227.2 272.5C226.9 272.3 226.6 272 226.3 271.8C226 271.5 225.7 271.3 225.4 271C225.1 270.7 224.8 270.4 224.6 270.1C224.3 269.8 224.1 269.5 223.9 269.1C223.7 268.8 223.5 268.4 223.3 268.1C223.1 267.7 222.9 267.4 222.7 267C222.5 266.6 222.3 266.3 222.2 265.9C222 265.5 221.9 265.1 221.8 264.7C221.7 264.3 221.5 263.9 221.4 263.5C221.3 263.1 221.2 262.6 221.1 262.2C221 261.8 220.9 261.3 220.8 260.8C220.7 260.3 220.7 259.9 220.6 259.4C220.6 259 220.5 258.5 220.5 258.1C220.5 257.7 220.4 257.2 220.4 256.8C220.4 256.4 220.4 255.9 220.4 255.5C220.4 255.1 220.4 254.6 220.4 254.2C220.4 253.8 220.4 253.4 220.4 253C220.4 252.6 220.4 252.2 220.4 251.8C220.4 251.4 220.4 251 220.4 250.6C220.4 250.2 220.4 249.9 220.4 249.5C220.4 249.1 220.4 248.8 220.5 248.4C220.5 248 220.5 247.7 220.6 247.3C220.6 247 220.6 246.6 220.7 246.3C220.7 246 220.7 245.6 220.8 245.3C220.8 245 220.8 244.6 220.9 244.3C220.9 244 221 243.7 221 243.3C221 243 221.1 242.7 221.1 242.4C221.1 242.1 221.2 241.8 221.2 241.6C221.2 241.3 221.3 241.1 221.3 240.8C221.3 240.8 221.3 240.8 221.2 240.8C220.9 240.9 220.6 241.1 220.4 241.3C220.2 241.4 219.9 241.6 219.7 241.8C219.5 242 219.3 242.1 219 242.3C218.8 242.4 218.6 242.6 218.4 242.7C218.3 242.8 218.1 242.9 218 243C217.9 243 217.9 243.1 217.8 243.1C217.7 243.2 217.5 243.3 217.4 243.4C217.4 243.8 217.5 244.2 217.5 244.7C217.6 245.7 217.6 246.8 217.7 247.8C217.7 248.8 217.8 249.8 217.8 250.8C217.8 251.6 217.8 252.4 217.9 253.2C217.9 253.3 217.9 253.5 217.9 253.6C218.1 254.2 218 255 217.3 255.6C217.2 255.7 217.1 255.8 217 255.9C216.9 256 216.8 256.1 216.6 256.2C216.4 256.3 216.3 256.4 216.1 256.5C216 256.6 215.9 256.7 215.7 256.8C215.5 257 215.3 257.1 215 257.3C214.8 257.5 214.5 257.6 214.3 257.8C214 258 213.8 258.1 213.5 258.3C213.2 258.5 212.9 258.6 212.7 258.8C212.4 259 212.1 259.2 211.8 259.3C211.5 259.5 211.1 259.6 210.8 259.8C210.4 260 210.1 260.2 209.7 260.4C209.3 260.6 208.9 260.8 208.5 261C208.1 261.2 207.6 261.4 207.2 261.6C206.8 261.8 206.3 262 205.9 262.2C205.4 262.4 204.8 262.6 204.3 262.8C203.8 263 203.2 263.2 202.7 263.3C202.2 263.5 201.6 263.6 201.1 263.8C200.5 264 199.9 264.1 199.2 264.3C198.5 264.5 197.9 264.6 197.2 264.7C196.5 264.8 195.9 265 195.2 265.1C194.5 265.2 193.9 265.3 193.2 265.4C192.5 265.5 191.9 265.6 191.2 265.6C190.5 265.7 189.9 265.7 189.2 265.8C188.5 265.8 187.9 265.9 187.2 265.9C186.5 265.9 185.8 265.9 185.1 265.9C184.4 265.9 183.8 265.9 183.1 265.8C182.8 265.8 182.5 265.8 182.2 265.7C181.8 265.8 181.5 265.7 181.1 265.5C180.8 265.4 180.5 265.1 180.3 264.9C180.2 264.8 180.1 264.6 180 264.5C179.9 264.3 179.8 264.1 179.7 263.9C179.6 263.7 179.5 263.4 179.4 263.2C179.3 262.9 179.2 262.7 179.1 262.4C179 262.1 178.9 261.8 178.8 261.5C178.7 261.2 178.6 260.9 178.5 260.6C178.4 260.3 178.3 259.9 178.2 259.6C178.1 259.2 178 258.8 177.9 258.4C177.8 258 177.7 257.6 177.6 257.2C177.5 256.8 177.4 256.4 177.3 255.9C177.2 255.5 177.1 255 177 254.6C176.9 254.1 176.8 253.7 176.7 253.2C176.6 252.7 176.5 252.2 176.4 251.7C176.3 251.2 176.2 250.7 176.2 250.2C176.1 249.7 176 249.2 176 248.7C175.9 248.2 175.9 247.7 175.8 247.1C175.7 246.6 175.7 246 175.6 245.5C175.5 244.9 175.5 244.4 175.4 243.8C175.3 243.2 175.3 242.7 175.2 242.1C175.1 241.5 175.1 241 175 240.4C175 239.8 174.9 239.3 174.9 238.7C174.9 238.1 174.8 237.6 174.8 237C174.8 236.4 174.7 235.8 174.7 235.3C174.7 234.7 174.6 234.1 174.6 233.5C174.6 232.9 174.5 232.3 174.5 231.8C174.5 231.2 174.4 230.6 174.4 230.1C174.4 229.5 174.3 228.9 174.3 228.4C174.3 227.8 174.2 227.3 174.2 226.7C174.2 226.1 174.1 225.6 174.1 225C174.1 224.4 174.1 223.9 174 223.3C174 222.7 174 222.1 174 221.6C174 221.2 174 221.4 174 221C174 218.2 177.9 218.2 177.9 221C177.9 221.4 177.9 221.2 177.9 221.5C177.9 222.1 177.9 222.6 177.9 223.2C177.9 223.8 177.9 224.3 178 224.9C178 225.5 178 226 178.1 226.6C178.1 227.2 178.2 227.7 178.2 228.3C178.2 228.9 178.3 229.4 178.3 230C178.3 230.6 178.4 231.1 178.4 231.7C178.4 232.3 178.5 232.8 178.5 233.4C178.5 234 178.6 234.6 178.6 235.1C178.6 235.7 178.7 236.2 178.7 236.8C178.7 237.4 178.8 237.9 178.8 238.5C178.8 239.1 178.9 239.6 178.9 240.2C178.9 240.8 179 241.3 179 241.9C179.1 242.5 179.1 243 179.2 243.6C179.3 244.1 179.3 244.7 179.4 245.2C179.5 245.7 179.5 246.2 179.6 246.8C179.7 247.3 179.7 247.8 179.8 248.3C179.9 248.8 179.9 249.3 180 249.8C180.1 250.2 180.1 250.6 180.2 251C180.3 250.9 180.5 250.8 180.6 250.7C180.9 250.5 181.2 250.3 181.5 250.1C181.8 249.9 182.1 249.7 182.4 249.5C182.7 249.3 183 249.1 183.4 248.9C183.7 248.7 184.1 248.5 184.4 248.4C184.7 248.2 185.1 248.1 185.4 247.9C185.7 247.7 186.1 247.6 186.4 247.4C186.7 247.2 187.1 247.1 187.4 246.9C187.7 246.8 188.1 246.6 188.4 246.5C188.7 246.4 189.1 246.2 189.4 246.1C189.7 246 190.1 245.8 190.4 245.7C190.7 245.6 191.1 245.5 191.4 245.3C191.8 245.2 192.1 245.1 192.5 245C192.9 244.9 193.2 244.8 193.6 244.7C194 244.6 194.3 244.5 194.7 244.5C195.1 244.4 195.4 244.4 195.8 244.3C196.2 244.2 196.5 244.2 196.9 244.1C197.3 244 197.7 244 198 243.9C198.4 243.8 198.8 243.8 199.2 243.8C199.6 243.8 200 243.7 200.4 243.7C200.8 243.7 201.2 243.7 201.6 243.7C202 243.7 202.4 243.7 202.7 243.8C203.1 243.8 203.5 243.9 203.8 243.9C204.2 243.9 204.5 244 204.9 244C205.2 244.1 205.6 244.1 205.9 244.2C206.2 244.3 206.6 244.3 206.9 244.4C207.2 244.5 207.6 244.5 207.9 244.6C208.2 244.7 208.5 244.7 208.9 244.8C209.2 244.9 209.5 244.9 209.8 245C210.1 245.1 210.4 245.1 210.7 245.2C211 245.3 211.3 245.4 211.6 245.4C211.9 245.5 212.1 245.6 212.4 245.6C212.6 245.7 212.9 245.7 213.1 245.8C213.2 245.8 213.3 245.9 213.4 245.9C213.4 245.6 213.4 245.3 213.4 244.9C213.3 243.8 213.3 242.8 213.2 241.7C213.1 240.6 213 239.5 213 238.5C212.9 237.4 212.8 236.3 212.7 235.2C212.6 234.1 212.5 233 212.4 231.9C212.3 230.8 212.2 229.7 212 228.6C211.9 227.5 211.7 226.5 211.5 225.5C211.3 224.4 211.1 223.3 210.9 222.3C210.7 221.2 210.5 220.1 210.3 219C210.1 217.9 209.9 216.8 209.6 215.7C209.4 214.6 209.1 213.4 208.9 212.3C208.6 211.1 208.4 210 208.1 208.8C207.8 207.6 207.5 206.4 207.2 205.3C206.9 204.1 206.6 202.9 206.3 201.7C206 200.5 205.6 199.2 205.3 198C205 196.8 204.6 195.5 204.3 194.3C204 193.1 203.6 191.9 203.2 190.6C202.9 189.6 202.6 188.6 202.3 187.6C202 186.6 201.7 185.7 201.4 184.7C201.1 183.8 200.8 182.8 200.5 181.9C200.2 181 199.9 180.1 199.6 179.2C199.4 178.5 199.1 177.8 198.9 177C198.9 176.9 198.8 176.7 198.8 176.6C198.6 176.7 198.4 176.8 198.3 176.9C197.6 177.3 197 177.7 196.3 178.1C195.6 178.5 194.9 178.9 194.2 179.2C193.5 179.6 192.8 180 192 180.3C191.2 180.7 190.4 181.1 189.6 181.4C188.7 181.8 187.8 182.2 186.8 182.5C185.5 182.9 184.1 183.2 182.8 183.6C182.1 183.8 181.5 183.9 180.8 184.1C180.8 184.3 180.8 184.5 180.8 184.7C180.8 185.3 180.8 186 180.7 186.6C180.6 187.1 180.5 187.7 180.4 188.2C180.3 188.6 180.2 189.1 180 189.5C179.9 189.9 179.7 190.3 179.6 190.7C179.4 191.1 179.3 191.6 179.1 192C179 192.3 178.8 192.7 178.7 193C178.6 193.3 178.4 193.6 178.3 193.9C178.2 194.2 178 194.5 177.9 194.8C177.8 195 177.7 195.3 177.5 195.5C177.4 195.8 177.2 196.1 177.1 196.3C176.9 196.6 176.8 196.9 176.6 197.1C176.4 197.4 176.2 197.6 176 197.8C175.4 200.1 173.1 201.9 169.9 200.9C169.8 200.9 169.7 200.8 169.6 200.8C169 200.6 168.4 200.4 167.8 200.2C167.2 200 166.6 199.8 166 199.6C165.4 199.4 164.8 199.2 164.1 199C163.4 198.8 162.8 198.6 162.1 198.3C161.4 198.1 160.8 197.8 160.1 197.6C159.5 197.4 158.8 197.1 158.2 196.9C157.6 196.7 156.9 196.4 156.3 196.2C155.7 196 155 195.7 154.4 195.5C153.8 195.3 153.2 195 152.5 194.7C151.9 194.4 151.3 194.2 150.7 193.9C150.1 193.7 149.6 193.4 149 193.2C148.7 193.1 148.5 193 148.2 192.9C148.1 192.9 147.9 192.9 147.8 192.9C147.2 193.2 146.6 193.4 146 193.7C145.4 194 144.8 194.2 144.2 194.5C143.6 194.8 142.9 195 142.3 195.2C141.7 195.4 141.1 195.7 140.4 195.9C139.8 196.1 139.1 196.4 138.5 196.6C137.8 196.8 137.2 197.1 136.5 197.3C135.8 197.5 135.2 197.7 134.5 198C133.9 198.2 133.3 198.4 132.6 198.6C132 198.8 131.4 199 130.8 199.2C130.2 199.4 129.6 199.6 129 199.8C128.9 199.8 128.8 199.9 128.7 199.9C128.1 200.1 127.5 200.2 127 200.2C125.4 200.6 123.4 200.1 122 198.2C121.8 197.9 121.7 197.7 121.5 197.4C121.4 197.1 121.2 196.8 121.1 196.6C121 196.4 120.9 196.1 120.8 195.9C120.7 195.6 120.5 195.3 120.4 195C120.3 194.7 120.1 194.4 120 194.1C119.9 193.8 119.7 193.4 119.6 193.1C119.4 192.7 119.3 192.3 119.1 191.8C119 191.4 118.8 191 118.7 190.6C118.6 190.2 118.4 189.7 118.3 189.3C118.2 188.8 118.1 188.2 118 187.7C117.9 187.1 117.9 186.4 117.9 185.8C117.9 185.3 117.9 184.8 118 184.4C117.1 184.2 116.2 183.9 115.4 183.7C114.1 183.3 112.7 183 111.4 182.6C110.5 182.3 109.5 181.9 108.6 181.5C107.8 181.2 107 180.8 106.2 180.4C105.5 180 104.7 179.7 104 179.3C103.3 178.9 102.6 178.6 101.9 178.2C101.6 178 101.3 177.8 101 177.7C100.8 178.2 100.7 178.8 100.5 179.3C100.2 180.2 99.9 181.1 99.6 182C99.3 182.9 99 183.9 98.7 184.8C98.4 185.8 98.1 186.7 97.8 187.7C97.5 188.7 97.2 189.7 96.9 190.7C96.5 191.9 96.2 193.1 95.8 194.4C95.5 195.6 95.1 196.9 94.8 198.1C94.5 199.3 94.1 200.6 93.8 201.8C93.5 203 93.2 204.2 92.9 205.4C92.6 206.6 92.3 207.8 92 208.9C91.7 210.1 91.5 211.2 91.2 212.4C90.9 213.5 90.7 214.7 90.5 215.8C90.3 216.9 90 218 89.8 219.1C89.6 220.2 89.4 221.3 89.2 222.4C89 223.5 88.8 224.6 88.6 225.6C88.4 226.6 88.2 227.7 88.1 228.7C88 229.8 87.8 230.9 87.7 232C87.6 233.1 87.5 234.2 87.4 235.3C87.3 236.4 87.2 237.5 87.1 238.6C87 239.7 86.9 240.8 86.9 241.8C86.8 242.9 86.8 243.9 86.7 245C86.7 245.4 86.7 245.7 86.6 246.1H86.7C86.9 246 87.1 246 87.4 245.9C87.6 245.8 87.9 245.7 88.1 245.7C88.4 245.6 88.6 245.6 88.9 245.5C89.2 245.4 89.5 245.3 89.8 245.3C90.1 245.2 90.4 245.2 90.7 245.1C91 245 91.3 245 91.6 244.9C91.9 244.8 92.2 244.8 92.6 244.7C92.9 244.6 93.3 244.6 93.6 244.5C93.9 244.4 94.3 244.4 94.6 244.3C94.9 244.2 95.3 244.2 95.6 244.1C96 244 96.3 244 96.7 244C97.1 244 97.5 243.9 97.8 243.9C98.2 243.9 98.6 243.8 98.9 243.8C99.3 243.8 99.7 243.8 100.1 243.8C100.5 243.8 100.9 243.9 101.3 243.9C101.7 243.9 102.1 244 102.5 244C102.9 244.1 103.3 244.1 103.6 244.2C104 244.3 104.3 244.3 104.7 244.4C105.1 244.5 105.4 244.5 105.8 244.6C106.2 244.7 106.5 244.8 106.9 244.8C107.3 244.9 107.6 245 108 245.1C108.4 245.2 108.7 245.3 109.1 245.4C109.4 245.5 109.8 245.6 110.1 245.8C110.4 245.9 110.8 246 111.1 246.2C111.4 246.3 111.8 246.5 112.1 246.6C112.4 246.7 112.8 246.9 113.1 247C113.4 247.1 113.8 247.3 114.1 247.5C114.4 247.7 114.8 247.8 115.1 248C115.4 248.2 115.8 248.3 116.1 248.5C116.4 248.7 116.8 248.8 117.1 249C117.4 249.2 117.7 249.4 118.1 249.6C118.4 249.8 118.7 250 119 250.2C119.3 250.4 119.6 250.6 119.9 250.8C119.9 250.5 120 250.2 120 249.9C120.1 249.4 120.1 248.9 120.2 248.4C120.3 247.9 120.3 247.4 120.4 246.9C120.5 246.4 120.5 245.9 120.6 245.3C120.7 244.8 120.7 244.2 120.8 243.7C120.9 243.1 120.9 242.6 121 242C121.1 241.4 121.1 240.9 121.1 240.3C121.1 239.7 121.2 239.2 121.2 238.6C121.2 238 121.3 237.5 121.3 236.9C121.3 236.3 121.4 235.8 121.4 235.2C121.4 234.6 121.5 234 121.5 233.5C121.5 232.9 121.6 232.4 121.6 231.8C121.6 231.2 121.7 230.7 121.7 230.1C121.7 229.5 121.8 229 121.8 228.4C121.8 227.8 121.9 227.3 121.9 226.7C121.9 226.1 122 225.6 122 225C122 224.4 122 223.9 122.1 223.3C122.1 222.7 122.1 222.2 122.1 221.6C122.1 221.2 122.1 221.4 122.1 221.1C122.1 218.3 126 218.4 126 221.1C126 221.5 126 221.3 126 221.7C126 222.3 126 222.9 126 223.4C126 224 126 224.5 125.9 225.1C125.9 225.7 125.9 226.2 125.8 226.8C125.8 227.4 125.7 227.9 125.7 228.5C125.7 229.1 125.6 229.7 125.6 230.2C125.6 230.8 125.5 231.4 125.5 231.9C125.5 232.5 125.4 233.1 125.4 233.6C125.4 234.2 125.3 234.8 125.3 235.4C125.3 236 125.2 236.6 125.2 237.1C125.2 237.7 125.1 238.2 125.1 238.8C125.1 239.4 125 239.9 125 240.5C125 241.1 124.9 241.6 124.8 242.2C124.7 242.8 124.7 243.3 124.6 243.9C124.5 244.5 124.5 245 124.4 245.6C124.3 246.1 124.3 246.7 124.2 247.2C124.1 247.7 124.1 248.2 124 248.8C123.9 249.3 123.9 249.8 123.8 250.3C123.7 250.8 123.6 251.3 123.6 251.8C123.5 252.3 123.4 252.8 123.3 253.3C123.2 253.8 123.1 254.2 123 254.7C122.9 255.1 122.8 255.6 122.7 256C122.6 256.4 122.5 256.8 122.4 257.3C122.3 257.7 122.2 258.1 122.1 258.5C122 258.9 121.9 259.3 121.8 259.7C121.7 260 121.6 260.4 121.5 260.7C121.4 261 121.3 261.3 121.2 261.6C121.1 261.9 121 262.2 120.9 262.5C120.8 262.8 120.7 263 120.6 263.3C120.5 263.5 120.4 263.8 120.3 264C120.2 264.2 120.1 264.4 120 264.6C119.9 264.7 119.8 264.9 119.7 265C119.5 265.3 119.2 265.5 118.9 265.6C118.5 265.8 118.1 265.8 117.8 265.8C117.5 265.8 117.2 265.8 116.9 265.9C116.2 265.9 115.6 266 114.9 266C114.2 266 113.5 266 112.8 266C112.1 266 111.5 265.9 110.8 265.9C110.1 265.9 109.5 265.8 108.8 265.7C108.1 265.6 107.5 265.6 106.8 265.5C106.1 265.4 105.5 265.3 104.8 265.2C104.1 265.1 103.5 265 102.8 264.8C102.1 264.7 101.5 264.5 100.8 264.4C100.2 264.3 99.6 264.1 98.9 263.9C98.3 263.7 97.8 263.6 97.3 263.4C96.8 263.2 96.2 263 95.7 262.9C95.2 262.7 94.6 262.5 94.1 262.3C93.7 262.1 93.2 261.9 92.8 261.7C92.4 261.5 91.9 261.3 91.5 261.1C91.1 260.9 90.7 260.7 90.3 260.5C89.9 260.3 89.6 260.1 89.2 259.9C88.9 259.7 88.5 259.6 88.2 259.4C87.9 259.2 87.6 259.1 87.3 258.9C87 258.7 86.7 258.6 86.5 258.4C86.2 258.2 86 258.1 85.7 257.9C85.5 257.7 85.2 257.6 85 257.4C84.8 257.2 84.5 257.1 84.3 256.9C84.2 256.8 84.1 256.7 83.9 256.6C83.7 256.5 83.6 256.4 83.4 256.3C83.3 256.2 83.1 256.1 83 256C82.9 255.9 82.8 255.8 82.7 255.7C82 255 81.9 254.3 82.1 253.7C82.1 253.6 82.1 253.5 82.1 253.3C82.1 252.5 82.1 251.7 82.2 250.9C82.2 249.9 82.3 248.9 82.3 247.9C82.3 246.9 82.4 245.8 82.5 244.8C82.5 244.4 82.6 243.9 82.6 243.5C82.5 243.4 82.4 243.4 82.3 243.3C82.2 243.3 82.2 243.2 82.1 243.2C82 243.1 81.8 243 81.7 242.9C81.5 242.8 81.3 242.6 81.1 242.5C80.9 242.3 80.7 242.2 80.4 242C80.2 241.8 79.9 241.7 79.7 241.5C79.4 241.3 79.1 241.2 78.9 241C78.8 241 78.7 240.9 78.7 240.9V241C78.7 241.3 78.8 241.5 78.8 241.8C78.8 242.1 78.9 242.4 78.9 242.6C78.9 242.9 79 243.2 79 243.5C79 243.8 79.1 244.1 79.1 244.5C79.1 244.8 79.2 245.2 79.2 245.5C79.2 245.8 79.2 246.2 79.3 246.5C79.3 246.8 79.3 247.2 79.4 247.5C79.4 247.9 79.4 248.2 79.5 248.6C79.5 249 79.5 249.3 79.6 249.7C79.6 250.1 79.6 250.4 79.6 250.8C79.6 251.2 79.6 251.6 79.6 252C79.6 252.4 79.6 252.8 79.6 253.2C79.6 253.6 79.6 254 79.6 254.4C79.6 254.8 79.6 255.3 79.6 255.7C79.6 256.1 79.6 256.6 79.6 257C79.6 257.4 79.6 257.9 79.5 258.3C79.5 258.8 79.4 259.2 79.4 259.6C79.4 260.1 79.3 260.5 79.2 261C79.1 261.5 79 261.9 78.9 262.4C78.8 262.8 78.7 263.3 78.6 263.7C78.5 264.1 78.4 264.5 78.2 264.9C78.1 265.3 77.9 265.7 77.8 266.1C77.6 266.5 77.5 266.9 77.3 267.2C77.1 267.6 76.9 267.9 76.7 268.3C76.5 268.6 76.3 269 76.1 269.3C75.9 269.6 75.6 270 75.4 270.3C75.1 270.6 74.9 270.9 74.6 271.2C74.3 271.5 74 271.7 73.7 272C73.4 272.2 73.1 272.5 72.8 272.7C72.5 272.9 72.2 273.1 71.8 273.3C71.5 273.5 71.1 273.7 70.8 273.8C70.4 273.9 70 274 69.7 274.1C69.3 274.2 69 274.2 68.6 274.2C68.3 274.2 67.9 274.2 67.6 274.2C67.3 274.2 66.9 274.2 66.6 274.1C66.3 274.1 66 274 65.7 274C66.2 274.3 66.7 274.6 67.2 274.9C67.8 275.3 68.4 275.6 69.1 275.9C69.7 276.2 70.3 276.5 71 276.7C71.6 276.9 72.3 277.1 72.9 277.3C73.5 277.5 74.2 277.6 74.9 277.7C75.6 277.8 76.3 277.9 77 278C77.7 278.1 78.4 278.1 79.1 278.2C79.8 278.2 80.5 278.2 81.2 278.2C82 278.2 82.7 278.1 83.5 278C84.3 277.9 85 277.8 85.8 277.7C86.6 277.6 87.3 277.5 88.1 277.4C88.9 277.3 89.7 277.2 90.5 277C91.3 276.9 92.1 276.7 92.9 276.6C93.7 276.5 94.5 276.3 95.2 276.1C96 275.9 96.7 275.8 97.5 275.6C98.2 275.4 99 275.3 99.7 275.1C100.4 274.9 101.1 274.7 101.8 274.5C102.5 274.3 103.2 274.1 103.9 273.8C104.6 273.6 105.3 273.3 106 273.1C106.7 272.9 107.4 272.6 108.1 272.4C108.8 272.2 109.4 271.9 110.1 271.7C110.8 271.5 111.4 271.2 112.1 271C112.8 270.8 113.4 270.5 114.1 270.3C114.7 270.1 115.4 269.8 116 269.6C116.6 269.4 117.3 269.1 117.9 268.8C118.6 268.5 119.2 268.3 119.9 268C120.5 267.7 121.2 267.5 121.8 267.2C122.4 266.9 123.1 266.7 123.7 266.4C124.3 266.1 124.9 265.9 125.6 265.7C126.2 265.5 126.8 265.2 127.5 265C128.1 264.8 128.7 264.5 129.3 264.3C129.9 264.1 130.5 263.8 131.1 263.6C131.7 263.4 132.3 263.1 132.9 262.9C133.3 262.8 133.1 262.8 133.5 262.7C133.7 262.6 133.8 262.6 134 262.6C134.1 262.6 134.3 262.5 134.4 262.5C134.4 262.5 134.5 262.5 134.6 262.5C134.8 262.5 134.9 262.4 135.1 262.4C135.3 262.4 135.5 262.3 135.6 262.3C135.9 262.3 136.1 262.2 136.4 262.2C136.7 262.2 137 262.1 137.3 262.1C137.6 262.1 138 262 138.3 262C138.7 262 139 261.9 139.4 261.9C139.8 261.9 140.1 261.8 140.5 261.8C140.9 261.8 141.3 261.7 141.7 261.7C142.1 261.7 142.5 261.6 142.9 261.6C143.3 261.6 143.8 261.6 144.2 261.5C144.6 261.5 145.1 261.5 145.5 261.4C145.9 261.4 146.4 261.3 146.8 261.3C147.3 261.3 147.7 261.2 148.2 261.2C148.7 261.2 149.1 261.1 149.6 261.1C150.1 261.1 150.5 261 151 261C151.5 261 152 261 152.4 260.9C152.9 260.9 153.4 260.9 153.9 260.8C154.4 260.8 154.9 260.8 155.4 260.7C155.9 260.7 156.4 260.7 157 260.7C157.5 260.7 158 260.7 158.6 260.8C159.1 260.8 159.6 260.9 160.1 261C160.6 261.1 161 261.2 161.5 261.3C161.9 261.4 162.4 261.5 162.8 261.6C163.2 261.7 163.7 261.8 164.1 261.9C164.5 262 165 262.1 165.4 262.2C165.7 262.3 166 262.3 166.3 262.4C166.4 262.4 166.5 262.5 166.6 262.5C166.8 262.5 167.1 262.6 167.4 262.7C167.8 262.8 167.6 262.8 168 262.9C168.6 263.1 169.2 263.3 169.8 263.6C170.4 263.8 171 264.1 171.6 264.3C172.2 264.5 172.8 264.8 173.4 265C174 265.2 174.6 265.5 175.3 265.7C175.9 265.9 176.5 266.2 177.2 266.4C177.8 266.7 178.5 266.9 179.1 267.2C179.7 267.5 180.4 267.7 181 268C181.7 268.3 182.3 268.5 183 268.8C183.6 269.1 184.3 269.3 184.9 269.6C185.5 269.9 186.2 270.1 186.8 270.3C187.5 270.5 188.1 270.8 188.8 271C189.5 271.2 190.1 271.5 190.8 271.7C191.5 271.9 192.1 272.2 192.8 272.4C193.5 272.6 194.2 272.9 194.9 273.1C195.6 273.3 196.3 273.6 197 273.8C197.7 274 198.4 274.3 199.1 274.5C199.8 274.7 200.5 274.9 201.2 275.1C201.9 275.3 202.6 275.5 203.4 275.6C204.2 275.8 204.9 275.9 205.7 276.1C206.5 276.3 207.3 276.4 208 276.6C208.8 276.7 209.6 276.9 210.4 277C211.2 277.1 212 277.3 212.8 277.4C213.6 277.5 214.3 277.6 215.1 277.7C215.9 277.8 216.6 277.9 217.4 278C218.2 278.1 218.9 278.2 219.7 278.2C220.4 278.2 221.1 278.2 221.8 278.2C222.5 278.2 223.2 278.1 223.9 278C224.6 277.9 225.3 277.8 226 277.7C226.7 277.6 227.3 277.5 228 277.3C228.7 277.1 229.3 276.9 229.9 276.7C230.5 276.5 231.2 276.2 231.8 275.9C232.4 275.6 233.1 275.3 233.7 274.9C234.2 274.6 234.7 274.3 235.3 273.9H235.2C234.1 273.9 233.8 273.9 233.4 273.9Z" fill="white"/>
<path d="M242.5 251.7C242.4 251.1 242.3 250.5 242.1 249.9C242 249.4 241.8 248.9 241.6 248.4C241.4 247.9 241.1 247.4 240.9 246.9C240.6 246.4 240.3 245.9 240 245.4C239.7 244.9 239.3 244.5 239 244C238.7 243.6 238.3 243.2 237.9 242.8C237.5 242.4 237.1 242.1 236.7 241.7C236.3 241.4 235.9 241.2 235.5 240.9C235 240.7 234.6 240.4 234.1 240.2C233.6 240 233.1 239.9 232.6 239.7C232.1 239.6 231.5 239.4 231 239.3C230.4 239.2 229.9 239.1 229.3 239C228.7 238.9 228.2 238.9 227.6 238.9C227 238.9 226.5 238.9 225.9 238.9C225.5 238.9 225.1 239 224.7 239.1C224.5 239.2 224.4 239.2 224.2 239.3C224.2 239.4 224.2 239.4 224.2 239.5C224.2 239.6 224.1 239.8 224.1 239.9C224.1 240.1 224 240.2 224 240.4C224 240.6 223.9 240.8 223.9 241C223.9 241.2 223.8 241.5 223.8 241.7C223.8 242 223.7 242.2 223.7 242.5C223.7 242.8 223.6 243.1 223.6 243.4C223.6 243.7 223.5 244 223.5 244.3C223.5 244.6 223.5 244.9 223.4 245.3C223.4 245.6 223.4 246 223.3 246.3C223.3 246.6 223.3 247 223.2 247.3C223.2 247.7 223.2 248 223.1 248.4C223.1 248.8 223.1 249.1 223 249.5C223 249.9 223 250.2 223 250.6C223 251 223 251.4 223 251.7C223 252.1 223 252.5 223 252.9C223 253.3 223 253.7 223 254.1C223 254.5 223 254.9 223 255.3C223 255.7 223 256.1 223 256.5C223 256.9 223 257.3 223.1 257.7C223.1 258.1 223.2 258.5 223.2 259C223.2 259.4 223.3 259.8 223.4 260.2C223.5 260.6 223.5 261 223.6 261.4C223.7 261.8 223.8 262.2 223.9 262.6C224 263 224.1 263.3 224.2 263.7C224.3 264 224.4 264.4 224.6 264.7C224.7 265 224.9 265.3 225 265.7C225.1 266 225.3 266.3 225.5 266.6C225.7 266.9 225.9 267.2 226 267.5C226.2 267.8 226.4 268 226.6 268.3C226.8 268.5 227 268.8 227.3 269C227.5 269.2 227.8 269.4 228 269.6C228.2 269.8 228.5 270 228.7 270.2C228.9 270.4 229.1 270.5 229.4 270.6C229.6 270.7 229.8 270.8 230.1 270.9C230.3 271 230.5 271 230.7 271.1C230.9 271.1 231.2 271.2 231.4 271.2C231.7 271.2 231.9 271.2 232.2 271.2C232.5 271.2 232.7 271.2 233 271.1C233.3 271.1 233.5 271 233.8 271C234.1 271 234.3 270.9 234.6 270.8C234.9 270.7 235.2 270.7 235.4 270.6C235.7 270.5 236 270.4 236.3 270.4C236.6 270.3 236.9 270.2 237.2 270.2C237.5 270.1 237.8 270 238.1 269.9C238.4 269.8 238.7 269.7 239 269.6H239.1C239.2 269.6 239.4 269.5 239.5 269.5L239.6 269.4C239.9 268.9 240.1 268.4 240.3 267.8C240.5 267.2 240.7 266.5 240.9 265.9C241.1 265.2 241.3 264.6 241.5 263.9C241.7 263.2 241.8 262.5 242 261.8C242.1 261.1 242.3 260.4 242.4 259.7C242.5 259 242.6 258.3 242.6 257.7C242.6 257 242.7 256.3 242.7 255.6C242.7 254.9 242.7 254.2 242.7 253.5C242.6 252.9 242.6 252.3 242.5 251.7Z" fill="white"/>
<path d="M66.7 271.2C67 271.2 67.2 271.3 67.5 271.3C67.8 271.3 68 271.3 68.3 271.3C68.5 271.3 68.8 271.3 69 271.2C69.2 271.2 69.4 271.1 69.6 271C69.8 270.9 70.1 270.8 70.3 270.7C70.5 270.6 70.8 270.4 71 270.3C71.2 270.1 71.5 269.9 71.7 269.7C71.9 269.5 72.2 269.3 72.4 269.1C72.6 268.9 72.9 268.6 73.1 268.4C73.3 268.2 73.5 267.9 73.7 267.6C73.9 267.3 74.1 267 74.2 266.7C74.4 266.4 74.5 266.1 74.7 265.8C74.9 265.5 75 265.2 75.1 264.8C75.2 264.5 75.4 264.1 75.5 263.8C75.6 263.4 75.7 263.1 75.8 262.7C75.9 262.3 76 261.9 76.1 261.5C76.2 261.1 76.3 260.7 76.3 260.3C76.4 259.9 76.4 259.5 76.5 259.1C76.5 258.7 76.6 258.3 76.6 257.8C76.6 257.4 76.7 257 76.7 256.6C76.7 256.2 76.7 255.8 76.7 255.4C76.7 255 76.7 254.6 76.7 254.2C76.7 253.8 76.7 253.4 76.7 253C76.7 252.6 76.7 252.2 76.7 251.8C76.7 251.4 76.7 251 76.7 250.7C76.7 250.3 76.7 250 76.7 249.6C76.7 249.2 76.7 248.9 76.6 248.5C76.6 248.1 76.6 247.8 76.5 247.4C76.5 247.1 76.5 246.7 76.4 246.4C76.4 246.1 76.4 245.7 76.3 245.4C76.3 245.1 76.3 244.8 76.2 244.4C76.2 244.1 76.2 243.8 76.1 243.5C76.1 243.2 76 242.9 76 242.6C76 242.3 75.9 242.1 75.9 241.8C75.9 241.6 75.8 241.3 75.8 241.1C75.8 240.9 75.7 240.7 75.7 240.5C75.7 240.3 75.6 240.2 75.6 240C75.6 239.9 75.5 239.7 75.5 239.6C75.5 239.5 75.5 239.4 75.4 239.4C75.3 239.4 75.2 239.3 75.1 239.3C74.7 239.2 74.3 239.1 73.9 239.1C73.3 239.1 72.8 239.1 72.2 239.1C71.6 239.1 71.1 239.2 70.5 239.2C69.9 239.3 69.4 239.4 68.8 239.5C68.3 239.6 67.7 239.7 67.2 239.9C66.7 240 66.2 240.2 65.7 240.4C65.2 240.6 64.8 240.8 64.3 241.1C63.9 241.3 63.5 241.6 63.1 241.9C62.7 242.2 62.3 242.6 61.9 243C61.5 243.4 61.2 243.8 60.8 244.2C60.4 244.7 60.1 245.1 59.8 245.6C59.5 246.1 59.2 246.6 58.9 247.1C58.6 247.6 58.4 248.1 58.2 248.6C58 249.1 57.8 249.6 57.7 250.1C57.5 250.7 57.4 251.3 57.3 251.9C57.2 252.5 57.2 253.2 57.1 253.8C57.1 254.5 57.1 255.2 57.1 255.9C57.1 256.6 57.1 257.3 57.2 258C57.2 258.7 57.3 259.4 57.4 260C57.5 260.7 57.6 261.4 57.8 262.1C58 262.8 58.1 263.5 58.3 264.2C58.5 264.9 58.7 265.5 58.9 266.2C59.1 266.8 59.3 267.5 59.5 268.1C59.7 268.6 59.9 269.2 60.2 269.7L60.3 269.8C60.4 269.8 60.4 269.8 60.5 269.8H60.6C60.9 269.9 61.2 270 61.5 270.1C61.8 270.2 62.1 270.3 62.4 270.4C62.7 270.5 63 270.6 63.3 270.6C63.6 270.7 63.9 270.8 64.2 270.8C64.5 270.9 64.8 271 65 271C65.3 271.1 65.5 271.1 65.8 271.2C66.1 271.1 66.4 271.2 66.7 271.2Z" fill="white"/>
</g>
<defs>
<clipPath id="clip0_27_611">
<rect width="300" height="300" fill="white"/>
</clipPath>
</defs>
</svg>
