<svg width="300" height="300" viewBox="0 0 300 300" fill="none" xmlns="http://www.w3.org/2000/svg">
<path d="M157.5 159.5C157.5 158.9 157.5 158.3 157.6 157.7L157 150.8L156.3 145L147.8 154.9L147.2 155.2L147 155.4C146.9 155.4 140.7 159.2 135.1 161.5L130.8 163.7C131.7 172.7 128.8 180 126.4 186C125.2 189.1 124.1 191.9 124 193.9C126.2 194 142.3 191.8 153.2 190.1C153.2 189 153.5 184.7 155.5 177.6C156.7 173.2 157.3 166 157.5 160.3C157.4 160.2 157.3 160.2 157.1 160.1L157.5 159.5ZM142.2 186.5C142.2 186.5 141.9 186.1 140.2 185.8C138.5 185.5 137.6 185.8 137.6 185.8C137.6 185.8 135.1 187 134.2 187.2C134.1 187.2 134.1 187.2 134 187.3C134.1 187.3 134.2 187.2 134.2 187.2C134.2 187.2 136.8 184.5 139.6 184.5C140.7 184.5 141.2 184.5 141.5 184.5L143.5 183C143.5 183 145.1 181.8 146.7 181.9C147.6 181.9 148.6 182.1 148.6 182.1C148.6 182.1 144.4 183.2 142.2 186.5ZM149 179.8C149 179.8 148.8 179.5 147.6 179.3C146.4 179 145.8 179.2 145.8 179.2C145.8 179.2 144 179.9 143.3 180C143.3 180 143.3 180 143.2 180C142.9 180.1 143.1 180 143.2 180H143.3C143.3 180 145.3 178.4 147.3 178.5C148.1 178.5 148.5 178.6 148.6 178.6L150.1 177.7C150.1 177.7 151.3 177 152.4 177.1C153.1 177.1 153.7 177.3 153.7 177.3C153.7 177.3 150.8 177.8 149 179.8Z" fill="white"/>
<path d="M152.4 191.1L147.6 191.9L150 195.9L152.4 191.1Z" fill="white"/>
<path d="M137.2 200.7C137.3 200.5 137.5 200.2 137.7 199.6C138.4 197.5 138.4 196 138.4 196L139.1 195.9L139.6 198.4C141.3 193.3 141.5 193.3 141.8 193.4H142.1V193.7C142.1 194.1 142.4 195.8 142.6 197L144.4 192.8L145.1 192.9C145.1 194.1 145.3 196 145.8 196.3C145.8 196.3 145.9 196.4 146.1 196.3C147.2 195.8 147.4 193.7 147.4 192.9V191.9L124.1 195.5L122.7 203.8L124.9 196.6L125.6 196.7V196.9C125.6 196.8 125.6 196.7 125.7 196.6L126.4 196.8L125.7 200.5C125.7 200.4 125.8 200.4 125.8 200.3L128 195.8L128.7 196L126.5 205.1L131 195L131.7 195.1V201.1L133.3 197.9L134 198.1C133.7 199.6 133.5 201.4 133.5 202.3C133.6 202 133.8 201.6 134.1 200.9L136.3 194.9L137 195V200.7C137 200.9 137.1 200.9 137.2 200.7Z" fill="white"/>
<path d="M207 214.9H204.4C204.3 214.9 202.6 214.3 201.2 212.9C199.8 211.6 198.5 209.2 199.7 205.5C201.1 201.4 202.1 199.1 202.8 198.6C203.2 198 206.5 193.3 207.2 190.5C207.6 189 207.7 188.5 208 188.4L208.7 180.9C208.5 180.4 207.5 177.6 205.1 174.8C205 174.7 204.9 174.6 204.8 174.5C204.7 174.4 204.6 174.3 204.6 174.2C202.2 171.6 198.6 169.2 193.3 169.2H185.8C185.7 169.2 165.1 173.1 157 190.6V195.4V195.8V196.2V198.7C157.4 199.3 160.2 203.4 164.3 204.3C166.4 204.8 168.6 204.3 170.7 203C173 201.5 174.3 200.7 175 200.3L181.2 195.3L182.1 194.5L186.3 189.6L186.6 189.8L186.9 190L183.2 194.5L182.7 194.9L182.4 195.2L181.8 195.7L175.6 201.3H180.6L187.3 196.6C187.7 196.3 187.9 196.1 187.9 196.1L193.1 190.9C193.7 190.3 193.9 190.1 194.1 190.4C194.4 190.7 194.4 190.7 190.6 195.1L187.7 197.1C186.5 198 183.7 200.1 181 201.8L181.7 205.4L181.6 205.5C181.6 205.6 177.2 214.4 179.4 218.6C181.4 222.6 184.1 224.9 184.5 225.2L185 225.4L185.5 225.5L191.9 227.4C192.5 227.4 199.5 227 205 220.1C206.3 218.4 207.1 217.4 207.6 216.7L207.2 216.4L208.2 214.8L208.3 214.7H207.7H207V214.9Z" fill="white"/>
<path d="M36.8 199.5C36.8 199.5 37.3 199.7 36.8 199.5V199.5Z" fill="white"/>
<path d="M220.9 177.8L220.4 178.3L220 178C214.4 172.9 208.3 174 205.8 174.7C208.3 177.7 209.3 180.8 209.4 180.9V181L208.6 189.3H208.3C208.2 189.5 208.1 189.9 207.8 190.9C207 193.9 203.4 199 203.3 199.2L203.2 199.4H203.1C202.9 199.6 202.1 200.6 200.3 205.9C198.3 212 203.9 214.2 204.5 214.4H208.3L208.7 214.2L218.2 203.9V205.4C219 206.9 219.9 208.5 220.7 210.1C224.2 216.8 228.2 224.4 231.2 225.9L240 212L245.8 196L234.9 192.4L235 191.7L241.7 190.9L248.2 188.7L257 157.3C254.3 157.8 241.5 160.2 233 166.1C224.4 170.1 221.1 176.5 220.5 177.7L220.9 177.8ZM211.5 182.3L212.1 182.7C211.1 184.2 210.8 185.4 211.1 186.4C211.5 187.6 212.7 188.1 212.7 188.1L212.4 188.8C212.3 188.8 210.9 188.2 210.4 186.6C210.1 185.4 210.4 183.9 211.5 182.3ZM215.5 200C215.4 200 212.3 199.7 211.2 197.4C210.4 195.8 210.8 193.8 212.3 191.3L212.9 191.7C211.5 194 211.2 195.8 211.9 197.2C212.9 199.1 215.7 199.4 215.7 199.4L215.5 200ZM218.5 194.8C218.4 194.8 215.1 194.4 214 192.3C213.4 191.2 213.6 189.8 214.5 188.3L215.1 188.6C214.3 189.9 214.2 191.1 214.6 191.9C215.5 193.7 218.5 194 218.5 194V194.8ZM219.3 188.8H217C216.9 188.8 216 188.6 215.4 187.5C214.6 186.2 214.5 184.2 215.2 181.6L215.9 181.8C214.6 187 216.8 188 217.1 188.1H219.3V188.8ZM240.2 187.3H230.5V186.6H240.2V187.3ZM233.8 203.4H233.1C233.1 200.3 231.5 198.8 229.4 196.8C228.9 196.4 228.5 195.9 228 195.5L228.5 195C229 195.5 229.4 195.9 229.9 196.3C232 198.2 233.8 200 233.8 203.4ZM237 169.1C238.8 167.5 240.3 166 241 165.3C242.3 165.3 242.8 164.6 244 164.6L237 169.1C234.2 171.6 230.8 174.3 229 174.3L237 169.1ZM234.9 176.1C236.6 174.7 238.3 173.5 240.2 173.5L234.9 176.1C232.8 177.7 230.7 179.5 228.2 179.5L234.9 176.1ZM226.8 182.9C229 182.9 231.3 182.2 233.4 181.6C235.1 181.1 236.7 180.6 238 180.6C238.6 180.6 239 180.4 239.5 180.2C239.9 180 240.4 179.8 241 179.8V180.5C240.5 180.5 240.1 180.6 239.7 180.8C239.2 181 238.7 181.2 238 181.2C236.8 181.2 235.2 181.7 233.6 182.1C231.5 182.7 229.2 183.4 226.8 183.4V182.9ZM226.3 197.2C227.2 198.1 228.1 198.9 229.1 199.6C231.9 201.9 234.6 204.1 234.6 208.6C234.6 209.5 234.4 210.1 234.2 210.8C234 211.3 233.9 211.8 233.9 212.4H233.2C233.2 211.8 233.4 211.2 233.6 210.6C233.8 210 234 209.4 234 208.6C234 204.4 231.5 202.4 228.7 200.1C227.7 199.3 226.8 198.5 225.9 197.6L226.3 197.2ZM224.9 200.4C224.9 202.1 226.5 203.5 227.8 204.7C229 205.8 230.1 206.8 230.1 207.9H229.4C229.4 207.1 228.4 206.2 227.3 205.2C225.8 203.9 224.1 202.4 224.1 200.4H224.9ZM220.1 184.8C220.8 186.3 223.1 186.6 223.1 186.6L223 187.3C222.9 187.3 220.2 186.9 219.5 185.1C219 183.9 219.4 182.5 220.6 180.8L221.2 181.2C220 182.7 219.7 183.9 220.1 184.8Z" fill="white"/>
<path d="M157.7 143.2L157 144.7L158.4 151.5C158.4 151.6 158.4 154.1 158.3 157.7L158.4 159C158.4 159 158.4 159.7 159.3 160.6C161.6 161.9 164 162.9 166.4 163.7C166 163.3 165.5 162.8 165.2 162.2C164.8 161.4 165.6 160.4 166.7 159.1C168 157.5 169.7 155.5 169.7 153V148.5C169.7 148.1 168.9 137.8 160.5 137.6L160.2 138.2C159.6 140.4 158.4 142.3 158.3 142.4L157.7 143.2ZM165.1 142.6C165.1 143.1 167 149.6 168 150.6L168.1 150.7V150.8C168.1 151.1 168.3 151.7 168.4 152.3C168.7 153.5 169.1 154.6 168.6 155.3C168.5 155.5 168.2 155.7 167.8 155.7V155C168 155 168.1 154.9 168.1 154.9C168.4 154.5 168 153.4 167.8 152.5C167.6 151.9 167.5 151.4 167.5 151C166.3 149.6 164.5 143.3 164.5 142.6H165.1Z" fill="white"/>
<path d="M20.8 206.7C20.8 206.7 21.4 206.8 20.8 206.7V206.7Z" fill="white"/>
<path d="M159.5 133.9L144 147.2C143.9 147.2 143.5 147.4 142.9 147.6L142.5 147.9C142.4 147.9 134.1 151.7 127.4 151.7C123.1 151.7 122.4 151.1 122.3 150.6V150.5C121.6 150.8 120.4 151.5 119.6 152.9C119 153.9 118.7 155 118.6 156.3C118.9 156.3 119.2 156.3 119.5 156.3C119.5 156.2 119.6 156.1 119.6 156.1C120.1 155.3 120.7 154.8 121.4 154.8C122.2 154.8 123 155.4 123.5 156.6C124.6 156.6 125.5 156.4 126 156C126.2 155.8 126.3 155.5 126.3 155.2H127C127 155.7 126.8 156.2 126.4 156.5C125.8 157 124.8 157.2 123.7 157.3V157.4C125.1 157.3 126.3 157.3 127.1 158C127.5 158.4 127.8 159 127.8 159.7H127C127 159.2 126.9 158.8 126.6 158.5C126.1 158 125 158 123.8 158.1C123.9 158.6 123.9 159.1 123.9 159.7V159.9C123.9 160.3 123.9 160.7 124 160.8C124.1 160.9 124.5 160.9 124.9 160.9H125.1V161.6H124.9C124.8 161.6 124.8 161.6 124.7 161.6C124.1 161.6 123.7 161.6 123.5 161.3C123.2 161 123.2 160.7 123.2 159.9V159.7C123.2 159.1 123.1 158.6 123.1 158.2C122.8 158.2 122.5 158.3 122.1 158.3C121.2 158.4 120.3 158.5 119.5 158.5C119.5 158.8 119.4 159.2 119.4 159.7H118.7C118.7 158.7 118.8 157.8 119.1 157.1C118.8 157.1 118.6 157.1 118.4 157.1C118.3 158.8 118.7 160.9 119.4 163.2C120.8 163 127.9 163.5 133.2 161.5C133.7 161.3 134.2 161.1 134.7 160.9L146.8 154.6L157.2 142.8L159.6 138C160 136.6 160.1 135 159.5 133.9Z" fill="white"/>
<path d="M122.7 156.5C122.3 155.8 121.8 155.4 121.4 155.4C121 155.4 120.5 155.7 120.2 156.3C120.3 156.3 120.4 156.3 120.4 156.3C121.1 156.4 121.9 156.5 122.7 156.5Z" fill="white"/>
<path d="M119.7 157.7C120.5 157.7 121.3 157.6 122.1 157.5C122.4 157.5 122.7 157.4 123 157.4C123 157.3 123 157.3 123 157.2C122.1 157.2 121.2 157.1 120.4 157C120.2 157 120.1 157 119.9 157C119.8 157.2 119.7 157.4 119.7 157.7Z" fill="white"/>
<path d="M122.2 141.6C121.9 141.4 121.7 141.2 121.5 141C121.2 140.7 120.9 140.4 120.5 140.2C120.5 140.8 120.4 141.4 120.4 141.9C121 141.8 121.5 141.8 122 141.7C122.1 141.6 122.2 141.6 122.2 141.6Z" fill="white"/>
<path d="M157.6 128.7L155.9 130.8C155.4 131.5 154.8 132.3 154.1 133C153.9 133.7 152.9 135.9 147.2 139C145.2 140.1 143 140.6 141 140.7C140.6 140.7 140.3 140.8 139.9 140.8C139.3 140.8 138.7 140.7 138.1 140.6C134.7 140.2 132.1 139.1 131.9 139L130.7 138C128 136.7 126.1 135.3 125.9 135.2L125.8 135.1L123.3 132.2L122.4 131.5H122.3L122.2 131.3L121.7 130.9C119.9 134 119.2 136.7 119 139C119.4 139 119.8 139.1 120.1 139.1C120.1 138.5 120.2 137.9 120.3 137.2C120.4 135.9 120.5 134.7 120.5 134H121.2C121.2 134.7 121.1 135.9 121 137.2C120.9 137.8 120.9 138.5 120.8 139.2C121.5 139.5 121.9 139.9 122.3 140.3C122.7 140.8 123 141.1 123.8 141.1V141.2C124.3 141.1 124.8 141.1 125.3 141.1V141.8C124.4 141.8 123.4 142 122.3 142.1C121.9 142.2 121.5 142.2 121.1 142.3C122.7 143.1 125.6 144.8 125.6 145.2H125.3L125.1 145.5C124.8 145.2 122 143.4 120.7 142.8C120.7 143.5 120.8 144 120.9 144.2H121.2L121.1 144.5C121.1 145.2 121.4 145.3 121.7 145.5C122.1 145.7 122.6 145.9 122.6 146.7H121.9C121.9 146.3 121.8 146.3 121.4 146.1C121 145.9 120.5 145.7 120.4 144.7L120.3 144.6C120 144.3 119.9 143.5 119.9 142.5C119.7 142.5 119.4 142.5 119.2 142.6C119.9 146.7 122.4 149 123 149.5L124 149.3L123.5 149.8L123.6 149.9H123.5C123.9 150 125.1 150.2 128.2 150.2C132.9 150.2 139.9 147.9 142.7 146.9L155.7 136.1L155.8 136.2C155.9 136.2 156.3 135.8 159.4 133.3C159.9 129.9 158.2 128.9 157.6 128.7Z" fill="white"/>
<path d="M119.9 139.9C119.6 139.8 119.2 139.8 118.8 139.8C118.8 140.6 118.8 141.3 118.9 142C119.2 142 119.5 142 119.7 141.9C119.8 141.3 119.8 140.6 119.9 139.9Z" fill="white"/>
<path d="M154.6 124.1C154.7 124 154.8 123.8 155 123.7C154.8 123.3 154.7 122.8 154.6 122.3V124.1Z" fill="white"/>
<path d="M156.5 120.2C156.2 120.6 155.7 121 155.3 121.4C155.3 122 155.4 122.7 155.5 123.1C155.7 122.9 155.8 122.7 156 122.5C155.9 122.5 155.9 122.5 155.8 122.5V121.8C156.1 121.8 156.3 121.8 156.5 121.8C156.7 121.5 156.9 121.2 156.9 120.9C156.8 120.8 156.8 120.7 156.7 120.6C156.6 120.5 156.5 120.3 156.5 120.2Z" fill="white"/>
<path d="M155.2 120.4C155.5 120.1 155.8 119.8 156 119.5C155.7 119 155.5 118.5 155.4 117.8C155.4 118.2 155.4 118.6 155.3 119.1C155.3 119.5 155.3 120 155.2 120.4Z" fill="white"/>
<path d="M155.9 109C153.6 112.5 150.5 116.4 146.1 120.3L145.5 120.9L141 124.7L139.8 125.3C139 125.9 138.2 126.4 137.4 127H137.3C136.6 127.2 135.9 127.4 135.3 127.6L133.3 128.6H130.2L122 126.4C121.8 126.4 121.2 126.5 120.9 126.9C120.6 127.4 120.8 128.3 121.5 129.5L123.6 131.7L130.8 137.4C132.9 138.4 135.3 139.4 137.7 139.9C138.4 140 139.2 140 140 140C140.2 140 140.5 140 140.7 140C141 140 141.2 139.9 141.5 139.9C146.5 138.6 146.7 138.5 149.4 136.2C149.9 135.8 150.4 135.3 151.1 134.7C151.9 134.1 152.6 133.4 153.2 132.7V132.6L153.3 132.5L155 130.4C156.8 128 157.7 125.9 157.7 125.8C157.7 125.7 160.4 118.1 155.9 109ZM156.8 122.5C156.5 122.9 156.2 123.4 155.8 123.8C156 124 156.2 124.1 156.5 124.1V124.8C156 124.8 155.7 124.6 155.4 124.3C155.2 124.6 154.9 124.8 154.6 125.1V125.9H153.9V125.8C152 127.7 150 129.4 149.2 129.9L149.1 130H149C148.8 130 148.1 130.3 147.6 130.6C146.7 131.1 145.8 131.6 145.1 131.6C144.9 131.6 144.7 131.6 144.6 131.5C144.3 131.3 144.1 131 144.1 130.4H144.8C144.8 130.5 144.8 130.8 144.9 130.9C145.3 131.1 146.5 130.5 147.2 130.1C147.9 129.7 148.4 129.4 148.8 129.4C149.8 128.7 152 126.8 153.8 124.9V122.5C153.3 122.9 152.7 123.4 152.1 123.9L151.5 124.6C149.3 126.8 147.6 128.5 143.7 128.5V127.8H143.8C147.5 127.8 148.9 126.3 151.1 124.1L151.8 123.4C152.5 122.7 153.2 122.1 153.9 121.6V117.7H154.6V119.1C154.6 118.6 154.7 118.1 154.7 117.7H155.4C155.4 117.4 155.3 117.2 155.3 116.9H156C156 117.6 156.2 118.2 156.4 118.8C156.6 118.3 156.8 117.7 156.8 116.9H157.5C157.5 118 157.2 118.8 156.8 119.6C156.9 119.8 157.1 120.1 157.2 120.3C157.3 120.4 157.4 120.6 157.4 120.7H157.5V120.8C157.8 121.3 157.9 121.6 157.7 122C157.6 122.3 157.3 122.4 156.8 122.5Z" fill="white"/>
<path d="M153.9 220.6C154 220.7 154.1 220.8 154.1 220.9C154.2 221 154.3 221.1 154.4 221.1C156 222.7 158.4 223.7 160.9 223.7C165.9 223.7 169.9 220 169.9 215.4C169.9 210.9 165.9 207.1 160.9 207.1C159 207.1 157.2 207.7 155.7 208.6C155.6 208.7 155.5 208.7 155.4 208.8C155.3 208.9 155.2 208.9 155.1 209C153.1 210.5 151.9 212.8 151.9 215.3C151.9 217.4 152.6 219.2 153.9 220.6ZM155.7 209.7C155.9 209.7 156 209.6 156.2 209.6C156.3 209.6 156.5 209.6 156.7 209.6C157.8 209.7 158.7 210.8 158.7 212.2C158.7 212.8 158.5 213.4 158.2 213.8C158.1 213.9 158 214.1 157.8 214.2C157.7 214.3 157.7 214.3 157.6 214.4L157.4 214.5C157.1 214.7 156.8 214.8 156.5 214.8C155.3 214.8 154.3 213.6 154.3 212.2C154.2 211 154.8 210 155.7 209.7Z" fill="white"/>
<path d="M96.9 241.4C96.9 241.4 97.5 241.6 96.9 241.4V241.4Z" fill="white"/>
<path d="M284.5 237.3C284.5 237.3 284.9 237.5 284.5 237.3V237.3Z" fill="white"/>
<path d="M244.6 270C235.3 266.1 226.6 266.3 216.3 267L185.7 270.7L170 273.7L161.5 274.6L162.2 273.9C162.2 273.9 163 273 165.1 267.3C172.6 249 174.6 239.4 174.2 236.5L168.8 239.2C169.3 250.3 155.1 275.8 153.8 277.9L154.5 282.3C154.5 282.3 155.4 284.2 161.6 283.5C168.2 282.8 202.4 279.8 202.7 279.8H238C247.5 279.8 248.7 272.8 248.9 272C248.7 271.8 248 271.1 244.6 270Z" fill="white"/>
<path d="M151.3 234.2L154.2 231.3L158.6 226.3C155.8 227.9 150.2 230.6 144 231.1H143.7L143.6 230.8C143.6 230.7 143 227.2 143.9 221.4C141.5 219.9 139.9 217.2 139.9 214.3C139.9 209.6 143.9 205.7 148.8 205.7C149 205.7 149.1 205.7 149.3 205.7C150.9 202.6 153 199.4 155.7 196.1L155.8 196L156.3 195.7V190.4C164.5 172.5 185.5 168.6 185.7 168.5H193.2C198.8 168.5 202.7 171.1 205.2 173.9C207.5 173.2 213.6 171.9 219.5 176.5C221.2 173.8 227.8 160 229.3 152.8C230.1 150.3 230.8 148.4 231.3 146.9C231 147.3 230.8 147.6 230.7 147.8C230.5 148 215.4 163.7 192.3 165.9H190.8C190.7 165.9 179.7 168 167.8 164.7C167.7 164.8 167.5 164.9 167.1 164.9C166.4 164.9 165.3 164.6 163 163.6C160.8 162.7 159.5 161.7 158.7 160.9C158.5 160.8 158.2 160.6 158 160.5C157.7 166.2 157.2 173.3 156 177.6C153.8 185.7 153.8 190.2 153.8 190.2V190.5L153.5 190.6C153.4 190.6 153.3 190.6 153.3 190.6L150 197.2L148 193.8C147.9 194.8 147.5 196.2 146.4 196.7C146 196.9 145.7 196.8 145.5 196.7C144.9 196.3 144.6 195.2 144.5 194.2L142.4 199.1L142.2 198C142.2 197.7 141.8 195.9 141.6 194.7C141.2 195.9 140.5 197.8 139.9 199.6L139.5 200.8L138.9 197.8C138.8 198.3 138.6 198.9 138.4 199.6C138 200.7 137.6 201.3 137.1 201.4C136.7 201.5 136.4 201.2 136.4 201.2L136.3 201.1V196.9L134.7 201.1C133.9 203.2 133.6 203.5 133.2 203.4C132.9 203.3 132.6 203.2 133 200.1L131.7 202.6L131.1 202.5V196.7L125.8 208.7L125.1 208.5L127.4 198.7L126.5 200.5C125.8 201.8 125.5 202.2 125.2 202C125 201.9 124.7 201.8 125.1 199.6V198.9L122 208.7L121.3 208.5L123.6 194.8L126.6 194.3C125.6 194.4 124.8 194.4 124.2 194.4C123.8 194.4 123.5 194.4 123.5 194.3L123.4 194.2V194C123.4 191.7 124.5 188.9 125.8 185.6C128.1 179.7 131 172.4 130.1 163.4V163.2L131 162.7C128 163.4 124.9 163.6 122.6 163.6C120.7 163.6 119.4 163.5 119.2 163.5H119.1C103.5 176.3 97.3 183 96.8 183.5L96.2 184.8L102.1 195.1L115.4 207.7H115.6V207.9C120.2 211.3 123.2 212.4 125.3 213.1C127.3 213.8 128.6 214.2 129.7 216.1C130.2 216.9 130.3 217.7 130 218.5C129 221.3 123.8 223.2 123.6 223.3C123.5 223.3 121.2 224.1 114.6 224.8C114.1 224.8 113.6 224.9 113.2 224.9C118.5 228.1 124 230.5 129.2 232.2L132 233.1H132.1C139.5 235.3 145.7 236.3 148.6 236.6L147 236L151.3 234.2Z" fill="white"/>
<path d="M149.4 206.5C149.3 206.5 149.2 206.5 149 206.5H148.9C146.9 206.5 145.1 207.2 143.7 208.3C144.5 208.4 145.1 209.2 145.1 210.1C145.1 211.1 144.4 212 143.6 212C142.8 212 142.1 211.2 142.1 210.1C142.1 210 142.1 210 142.1 209.9C141.2 211.2 140.7 212.7 140.7 214.3C140.7 216.9 142.1 219.3 144.1 220.7C144.2 220.8 144.3 220.8 144.4 220.9C144.5 221 144.6 221 144.7 221.1C145.9 221.8 147.4 222.2 148.9 222.2C150.5 222.2 152 221.8 153.3 221C152 219.5 151.2 217.5 151.2 215.4C151.2 212.7 152.5 210.2 154.6 208.6C153.3 207.4 151.6 206.6 149.8 206.5C149.6 206.5 149.5 206.5 149.4 206.5Z" fill="white"/>
<path d="M131.7 233.9C131 233.7 130.4 233.5 129.7 233.3L130.4 244.7L133.4 261.1L135.7 270.2L134.7 271.2L114.4 272C113.9 272 67.3 275.1 57.8 282.4L53.5 286.7L54.1 288.6C54.6 288.9 57.7 290.7 64.2 290.7C65.7 290.3 98.3 281 115.8 281H137.3L138.6 279.7V272.4C138.2 271.4 133.4 257.3 133.4 234.5L131.7 233.9Z" fill="white"/>
<path d="M176 234.3L183.5 226L183.9 225.8C183.1 225.1 180.7 222.9 178.9 219.2C176.7 214.8 180.6 206.6 181.1 205.6L180.5 202.4L179.3 203.1L179.1 202.8L178.9 202.5L179.5 202.1H173.9L174.8 201.3C174.1 201.8 173 202.5 171.3 203.5C169 205 166.7 205.4 164.4 204.9C159.7 203.8 156.8 199.1 156.7 198.9L156.6 198.8V196.4L156.4 196.5C153.9 199.7 151.9 202.8 150.3 205.7C152.3 206 154 206.8 155.4 208.1C157 207 159 206.4 161.1 206.4C166.4 206.4 170.8 210.4 170.8 215.3C170.8 220.2 166.5 224.3 161.1 224.3C158.3 224.3 155.8 223.2 154 221.4C152.6 222.3 150.9 222.8 149.1 222.8C147.5 222.8 146.1 222.4 144.8 221.7C144.1 226.2 144.4 229.3 144.5 230.3C153.1 229.5 160.4 224.5 160.5 224.4L161 224.9L155 231.6L151.9 234.7L148.8 235.9L150.3 236.8C150.5 236.8 150.6 236.8 150.6 236.8V236.9L155.7 239.9L160.8 240.6L167.4 239.1L168.4 238.5L168.7 238.3L176 234.3ZM176.4 203.9L177 204.3C176.2 205.5 175.9 206.5 176.3 207.1C176.9 208.2 178.9 208.2 179 208.2V208.9C178.9 208.9 176.5 208.9 175.7 207.4C175.2 206.6 175.4 205.4 176.4 203.9ZM175.5 210.9C175.5 213.5 176.1 214.2 176.4 214.4C176.8 214.6 177.2 214.4 177.2 214.3L177.6 214.9C177.6 214.9 177.2 215.2 176.7 215.2C176.5 215.2 176.3 215.2 176.1 215C175.2 214.5 174.8 213.2 174.8 210.9H175.5V210.9ZM174 219.8C174.2 221.7 174.8 222.8 175.6 223.1C176.9 223.6 178.7 221.8 178.7 221.8L179.2 222.3C179.1 222.4 177.6 223.9 176.1 223.9C175.9 223.9 175.6 223.9 175.4 223.8C174.3 223.4 173.6 222.1 173.4 219.9L174 219.8Z" fill="white"/>
<path d="M125.4 78.8C125.4 73 120.1 68.3 113.6 68.3C107.1 68.3 101.8 73 101.8 78.8C101.8 84.6 107.1 89.3 113.6 89.3C120.1 89.3 125.4 84.6 125.4 78.8ZM109.7 85.8C109.7 85 107.8 84.3 107.1 84C106.4 83.8 106.1 83.6 106.1 83.2C106.2 82.9 106.4 82.8 106.8 82.7C106.6 82.2 106.1 81.6 105.8 81.2C105.4 80.7 105 80.3 105.2 79.9C105.3 79.7 105.6 79.5 105.9 79.5C106 79.5 106.1 79.5 106.1 79.5C105.9 79.3 105.6 79 105.4 78.7C104.7 78 104.1 77.4 104.1 76.8V76.3H104.6C104.8 76.3 105 76.3 105.1 76.3C104.8 75.9 104.5 75.4 104.6 74.7C104.8 73.9 105.6 73.2 107.2 72.5L107.6 73.3C106 74 105.6 74.6 105.6 74.9C105.5 75.2 105.7 75.5 106 75.8C106.2 76.1 106.5 76.4 106.3 76.8C106.2 77.1 105.9 77.2 105.4 77.2C105.6 77.5 106 77.8 106.2 78C106.9 78.7 107.5 79.3 107.3 79.8C107.2 80.1 106.8 80.3 106.5 80.3C106.6 80.4 106.6 80.4 106.7 80.5C107.3 81.2 108 82.1 108 83.1V83.2C109.2 83.6 110.8 84.4 110.8 85.7H109.7V85.8V85.8ZM118.6 83.6C116.4 83.6 114.6 81.8 114.6 79.6C114.6 77.4 116.4 75.6 118.6 75.6C120.8 75.6 122.6 77.4 122.6 79.6C122.5 81.8 120.8 83.6 118.6 83.6Z" fill="white"/>
<path d="M123.3 222.7C123.3 222.7 128.4 220.8 129.3 218.3C129.5 217.7 129.4 217.1 129.1 216.5C128.1 214.8 126.9 214.4 125 213.8C122.8 213 119.8 212 115.1 208.5L115 208.4L114.2 207.8H114.4L101.5 195.6L95.3 185L96.2 183.3C96.3 183.3 100.4 178.6 111 169.5C110.6 169.3 109.4 168.9 106.2 168.9C101.8 168.9 95.8 168.9 91.4 170.4L90.7 170.6C85.9 172 82.3 173 78.1 180.7C73 188 75.9 198.3 75.9 198.4V198.5C75.9 198.6 76 207.4 86.2 214.7C90.5 218.2 99.6 223.2 100.3 223.6C101 223.7 108 225 114.3 224.3C121 223.5 123.3 222.8 123.3 222.7Z" fill="white"/>
<path d="M130.5 118.9C130.5 118.9 137.8 115.2 140 109.4C141 106.8 142.3 103.7 143.1 103.2L146.1 101C147.8 99.2 150.5 98.6 152.6 98.1C155.3 97.4 156.8 97 156.5 95.4L155.1 92.6C145.6 91.8 139.5 88.9 139.5 88.8C139.5 88.8 138.3 88.2 136.6 87.6C135.8 87.4 135.1 87.2 134.4 86.9C131.9 86.2 128.9 85.6 126.3 85.9C124 86.2 122.4 87.3 120.5 88.6C117.8 90.5 114.7 92.6 108.3 92.6C106.8 92.9 104.9 93.2 103.1 93.5C102.9 93.5 102.6 93.6 102.4 93.6C100.3 93.9 98.6 94.1 98.6 94.1H79.1C78.9 94.1 61.1 94.9 50.1 97.1L44.5 99.1C36.9 102 24.2 107.9 24.2 114.3L32.8 113.6C32.9 113.6 44.9 110.6 56 109.9C57.5 109.9 67.9 109.3 68.7 109.2C68.7 109.2 68.7 109.2 68.8 109.2H68.9H69.2C87.6 110.3 100.6 110.5 109.1 110.4H109.9C118.1 110.3 121.7 109.9 121.8 109.9C134.1 106 137.9 100.9 138.6 99.8L137.4 98.7H140.5C143.1 98.7 143.1 100.5 143.1 100.5H142.4C142.4 100.4 142.3 99.3 140.5 99.3H139.1L139.4 99.6L139.3 99.8C139.2 100.1 136.1 106 121.9 110.4C121.8 110.4 118.1 110.8 110.1 110.9C109.9 110.9 109.6 110.9 109.4 110.9C108.2 110.9 106.9 110.9 105.5 110.9C97.2 110.9 85.4 110.6 69.5 109.7C69.5 109.8 69.5 109.9 69.5 110C69.5 110.8 69.5 112.3 73.2 114.2H108.4L111.4 115.2L112.4 115.5L115.1 116.4C115.2 116.7 124 121 130.5 118.9Z" fill="white"/>
<path d="M140.2 87.4C147.7 87.4 153.8 81.7 153.8 74.8C153.8 67.9 147.7 62.2 140.2 62.2C132.7 62.2 126.6 67.9 126.6 74.8C126.6 79.8 129.7 84.0999 134.3 86.0999C135.3 86.3999 136.2 86.7 137 87C138 87.3 139.1 87.4 140.2 87.4ZM148.6 78.4C149 78.4 149.1 78.2 149.2 78C149.3 77.6 149.1 77.2 149 76.9C149 77 149 77.1 149 77.3C149 77.7 148.8 77.6999 148.7 77.6999C148.5 77.6999 148.4 77.7 148.4 77.5C148.3 77.9 148.2 77.9 148 77.8C147.7 77.8 147.7 77.3999 147.7 77.1999C147.7 76.6999 147.7 76.4 147.7 76C147.6 76 147.6 76 147.6 75.9C147.4 75.8 147.2 75.6 147.2 75.4C147.2 75.1 147.4 74.9 147.8 74.8C147.9 74.1 148 74.1 148.2 74H148.3V73.9C148.2 73.9 148.1 73.9 148 73.9V73.4C147.5 73.9 146.8 74.5999 145.9 74.5999H145.6V74.3C145.6 73.7 146 73.5 146.3 73.3C146.9 73 147.7 72.6 147.7 69.4H148.4C148.4 71 148.2 71.9999 147.9 72.6999C148.1 72.4999 148.4 72.3 148.6 72.5C148.8 72.6 148.9 72.6999 149 73.0999C149.2 72.9999 149.5 72.8999 149.6 72.6999C150 72.4999 150.4 72.2 150.7 72.4C151 72.6 151.2 73.1 151.2 74.3C151.2 76.4 151 76.9 150.6 76.9H150.5C150.2 76.9 149.9 76.5999 149.6 75.6999C149.6 75.6999 149.5 75.6999 149.4 75.6999C149.2 75.6999 149.1 75.5 149 75.3C149 75.4 148.9 75.4999 148.8 75.5999C148.8 75.6999 148.8 75.7 148.8 75.8C148.9 75.8 148.9 75.8 148.9 75.8C149.5 75.8 149.9 76.8 149.9 77.5C149.9 78.3 149.4 78.8 148.6 78.8C147.6 78.8 145.3 80.1 145.1 80.5C145.1 80.5 145.1 80.4 145.1 80.3V80.9C144.9 80.9 144.8 80.9 144.7 80.8C144.5 80.7 144.4 80.6 144.4 80.4C144.4 79.9 147.5 78.4 148.6 78.4ZM133.3 75.8C131.1 75.8 129.3 74 129.3 71.8C129.3 69.6 131.1 67.8 133.3 67.8C135.5 67.8 137.3 69.6 137.3 71.8C137.3 74 135.5 75.8 133.3 75.8Z" fill="white"/>
<path d="M135.2 126.8L139.4 124.7C141.7 123 143.8 121.4 145.7 119.7L151.8 112.9L155.8 107.3L156 107.6C159.9 101.1 160.7 95.7 160.8 92.8C160.5 89.8 159.8 87 159.3 84.2C158.1 78.5 156.8 72.7001 157.9 64.4001C156.8 63.8001 155.8 63.1001 155.1 62.4001L155 62.3V62.2001C155 60.9001 154.6 59.4001 154.1 59.4001V58.7001C155.5 58.7001 155.6 61.3 155.7 62C156.3 62.6 157.1 63.1 158 63.6C158.2 62.2 158.5 60.7001 158.8 59.2001C156.3 57.9001 153.9 55.7 153.9 53.8H154.6C154.6 55.3 156.7 57.3 158.9 58.5C159.1 57.7 159.3 56.9 159.5 56C158.5 55.5 157.4 55.0001 156.2 54.4001L156.5 53.8C157.7 54.4 158.7 54.9001 159.7 55.4001C160.1 54.0001 160.5 52.8 160.9 51.6C158.5 51.9 156 52.5 153.5 53C149.4 53.9 145.2 54.8 140.8 54.8V54.1C145.1 54.1 149.3 53.2 153.3 52.3C156 51.7 158.6 51.1 161.1 50.8C161.3 50.2 161.4 49.7 161.6 49.1H147.1V48.4001H161.7C161.7 48.3001 161.7 48.3001 161.7 48.2001C156.4 47.1001 149.8 46.9001 146.3 46.9001V46.2001C150.6 46.2001 156.8 46.4 161.9 47.5C162.2 46.3 162.4 45.3001 162.6 44.4001C155.8 43.4001 149.1 43.4001 142.1 43.4001V42.7001C149.1 42.7001 155.9 42.7 162.7 43.8C163.5 39.5 162.9 38.5001 162.5 38.2001C161.8 37.8001 160.4 38.9001 159.9 39.4001L159.3 40V39.2001C159.3 39.0001 159.3 38 158.9 36.6C157.6 36.5 156.2 36.5 154.7 36.5V35.8C156.1 35.8 157.4 35.8001 158.7 35.9001C158.5 35.1001 158.1 34.2001 157.6 33.2001C154.5 34.4001 151.5 35.8 148.6 37.3L148.3 36.7001C151.2 35.2001 154.3 33.8 157.3 32.6C156.6 31.3 155.5 29.9 154.1 28.6C153.5 29.1 152.8 29.4 152 29.4C149.9 31.5 148.4 33.6 147 35.5C143.4 40.4 140.6 44.2001 132.1 44.2001V43.5C140.3 43.5 143 39.8 146.4 35.1C147.8 33.2 149.4 31 151.6 28.8L151.7 28.7001H151.8C152.4 28.7001 152.9 28.5001 153.4 28.2001C150.6 28.6001 148.5 29.9001 147.1 33.2001L146.5 32.9001C148 29.3001 150.4 28 152.9 27.5C152.3 27 151.6 26.6001 150.9 26.2001C148.7 28.5001 145.9 30.8001 143.5 32.7001C141.9 34.0001 140.4 35.2 139.6 36L139.1 35.5C140 34.6 141.4 33.4 143.1 32.1C145.4 30.2 148.1 28 150.3 25.8C149.6 25.4 148.9 25.1 148.1 24.8C145.4 26.3 142.7 29.2 140.8 32L140.2 31.6C141.6 29.5001 144.3 26.3 147.2 24.5C145.9 24 144.4 23.6 142.7 23.3C141.5 24.2 140.4 25 139.4 25.1C139.3 26.5 138.9 27.9001 138.6 29.2001C138.3 30.2001 138 31.2 138 31.9H137.3C137.3 31.2 137.6 30.2 137.9 29.1C138.3 27.8001 138.7 26.2 138.7 24.9V24.6H139C139.8 24.6 140.7 24.1 141.7 23.3C140.1 23 138.4 22.8 136.6 22.8C136 25.3 135 27.8001 134.1 30.2001C132.5 34.2001 130.9 38.4 130.9 42.6H130.2C130.2 38.3 131.8 34.1 133.4 30C134.3 27.6 135.2 25.2 135.8 22.8C135.2 22.8 134.7 22.8 134.1 22.8L130.3 25.3C129.7 26.5 129.4 27.8001 129.4 29.2001H128.7C128.7 28.1001 128.9 27 129.3 25.9L126.8 27.5C127.5 28.9 128 30.4 128 31.9C128 32.4 128 32.9001 127.9 33.4001C127.8 35.1001 127.6 37.1 128.6 38L128.1 38.5C126.9 37.3 127.1 35.2001 127.2 33.4001C127.2 32.9001 127.3 32.4 127.3 31.9C127.3 30.5 126.9 29.2 126.2 27.9L124.4 29.1C124.4 30.6 124.8 32.5001 125.2 34.2001C125.5 35.6001 125.8 36.8 125.8 37.6H125.1C125.1 36.9 124.8 35.7001 124.5 34.4001C124.1 32.8001 123.7 31.1 123.7 29.6L121.6 31V39.7001H120.9V32.5C120.5 32.5 120 32.5 119.6 32.5C119.9 34.2 120.2 35.7001 120.2 36.9001H120C120 35.8001 119.8 34.3001 119.5 32.7001L117.8 33.8L116.1 35.8C116.2 36.1 116.3 36.3 116.3 36.5C116.8 38.1 117.2 39.4 117.2 40.3H116.5C116.5 39.6 116.1 38.4 115.7 37.1C115.4 37.1 115.1 37.1 114.9 37.1L113.9 38.3C114 38.4 114.1 38.6001 114.3 38.7001L113.8 39.2001C113.7 39.1001 113.6 39.0001 113.5 38.9001L112.5 40C112.8 40 113 40 113.3 40V40.7001H113.2C114.4 41.7001 115.7 42.7 117 43.6L116.6 44.2001C115.1 43.2001 113.6 42.0001 112.1 40.7001C112.1 41.1001 112.2 41.4 112.2 41.8H111.5C111.5 41.6 111.5 41.4 111.5 41.1L110.5 42.3C111.2 42.2 111.9 42.1 112.6 42.1V42.8C111.6 42.8 110.7 42.9 109.7 43.1L109.4 43.5H111.9V44.2001H108.9L107.3 46C109.3 45.3 111.1 44.9001 112.6 44.9001V45.6C110.8 45.6 108.6 46.2 106.3 47.1L100.8 53.5C97.2 58.5 96.1 75.8 98 84.1C99.7 86.9 101.3 89.8 102.6 92.7C104.4 92.4 106.4 92.1 108 91.8C113.4 91.8 116.4 90.2001 118.8 88.6001C117.2 89.3001 115.4 89.7 113.5 89.7C106.7 89.7 101.2 84.7 101.2 78.7C101.2 72.6 106.7 67.7 113.5 67.7C120.3 67.7 125.8 72.6 125.8 78.7C125.8 81.6 124.5 84.3001 122.4 86.3001C123.5 85.7001 124.6 85.3 126 85.1C127.9 84.9 129.9 85.1001 131.7 85.4001C128.1 83.0001 125.8 79.1 125.8 74.7C125.8 67.4 132.2 61.4001 140.1 61.4001C148 61.4001 154.4 67.4 154.4 74.7C154.4 82 148 88 140.1 88C139.8 88 139.5 88 139.3 88C139.5 88.1 139.6 88.2 139.7 88.2C139.8 88.2 145.7 91.2001 155.3 91.9001H155.5L157.1 95.2C157.6 97.5 155.2 98.1 152.7 98.7C150.6 99.2 148.2 99.8 146.5 101.5L143.4 103.8C143.2 103.9 142.4 104.8 140.6 109.6C138.3 115.6 131 119.4 130.7 119.5C129.3 120 127.8 120.2 126.3 120.2C120.6 120.2 115 117.4 114.7 117.3L113 116.8C116.6 121 124.9 129.1 135.2 126.8Z" fill="white"/>
<path d="M148.9 74.5V74.2H149C149.1 74 149.2 73.9 149.3 73.8C149.2 73.9 149 73.9 148.9 74C148.9 74.1 148.9 74.3 148.9 74.5Z" fill="white"/>
<path d="M150.3 74.5C150.3 73.4 150.2 73.2 150.2 73.2C150.2 73.2 150 73.4 149.8 73.5C149.9 73.5 149.9 73.5 150 73.5V74.2C149.9 74.2 149.9 74.2 149.8 74.3C149.7 74.4 149.7 74.5 149.7 74.6C150 75.5 150.2 76 150.3 76.3C150.3 75.9 150.3 75.4 150.3 74.5Z" fill="white"/>
<path d="M106.9 43.5C107.7 43.1 108.6 42.7999 109.5 42.5999L109.8 42.2C108.3 42.3 106.7 42.6 105.2 43C105.8 43.3 106.4 43.4 106.9 43.5Z" fill="white"/>
<path d="M112.6 32.1C111.4 32 110.2 32 109 31.9C110 33.5 111.1 35 112.2 36.4C113 36.5 113.8 36.5 114.7 36.6L115.3 35.8C115.2 35.4 115.1 35.1 115 34.7C114.4 33.6 113.6 32.8 112.6 32.1Z" fill="white"/>
<path d="M92.6 39.2C93.2 39.5 93.8 39.8 94.5 40.1L94.6 40.2C94.8 40.4 95.3 40.9 95.9 41.6C96.7 42.4 97.9 43.8 98.9 44.8C99.4 44.5 99.9 44.3 100.4 44.1C99.9 42.7 99.5 41.3 99.2 40.3C98 39.4 97 38.6 96.3 38C95.6 38 94.7 37.8 93.6 37.6C93.2 38.1 92.9 38.6 92.6 39.2Z" fill="white"/>
<path d="M103.3 42.9C102.2 42.3 101 41.6 100 40.9C100.3 41.8 100.6 42.8 101 43.8C101.7 43.5 102.5 43.1 103.3 42.9Z" fill="white"/>
<path d="M96.4 37.3L96.6 37.4C97.1 37.9 97.9 38.6 98.9 39.3C98.9 39.2 98.9 39.1 98.9 39.1C98.9 37.8 97.5 36.3 95.6 34.9C95 35.4 94.5 36.1 93.9 37C95 37.2 95.8 37.3 96.4 37.3Z" fill="white"/>
<path d="M95.8 33.7999C95.6 33.7999 95.3 33.7 95.1 33.7C95.3 33.8 95.4 33.9 95.6 34C95.7 33.9 95.7 33.8999 95.8 33.7999Z" fill="white"/>
<path d="M114.6 32.9C114.5 32.7 114.5 32.4 114.5 32.2C114.3 32.2 114.1 32.2 113.9 32.2C114.2 32.4 114.4 32.7 114.6 32.9Z" fill="white"/>
<path d="M115.2 14.6C115.1 15.6 115 16.9 115 18C116.4 20.9 118.7 26.8 119.9 31.8L121.4 30.7V21.3C121 20.9 120.5 20.4 120.1 20C118.3 18.2 116.6 16.4 115.2 14.6Z" fill="white"/>
<path d="M122.2 30.2L124.3 28.8V24.3C123.6 23.5 122.9 22.7 122.2 21.9V30.2Z" fill="white"/>
<path d="M115.7 34.5C115.7 34.5 115.7 34.6001 115.8 34.7001C115.8 34.9001 115.8 35.0001 115.9 35.2001L117.4 33.4001L118.8 32.5C117.6 32.5 116.4 32.4 115.2 32.3C115.3 33 115.5 33.7 115.7 34.5Z" fill="white"/>
<path d="M98.7 33.8C101.5 34.5 104.2 35.1 107.1 35.7C106.1 34.6 105.1 33.4 104.1 32.1C102 32.3 100 32.8 98.2 33.7C98.3 33.7 98.5 33.8 98.7 33.8Z" fill="white"/>
<path d="M109.5 39.6C110.1 39.7 110.7 39.9001 111.3 39.9001C110.7 39.4001 110.1 38.9 109.5 38.3C109.5 38.8 109.5 39.2 109.5 39.6Z" fill="white"/>
<path d="M109.4 41.5C109.7 41.5 110 41.5 110.3 41.5L111.1 40.6C110.6 40.5 110 40.4 109.4 40.3C109.4 40.7 109.4 41.1 109.4 41.5Z" fill="white"/>
<path d="M108.8 41.6C108.8 41.1 108.8 40.6 108.8 40.1C105 39.1 101.1 36.9 97.9 34.3C97.5 34.2 97.1 34.1 96.7 34C96.5 34.1 96.3 34.2 96.1 34.4C98.1 35.9 99.5 37.5 99.5 39C99.5 39.2 99.5 39.5 99.6 39.8C101 40.8 102.6 41.8 104.1 42.5C105.7 42.1 107.2 41.8 108.8 41.6Z" fill="white"/>
<path d="M109.3 33.5C109.3 33.6 109.3 33.6 109.3 33.7C109.8 34.5 110.3 35.4 110.7 36.2C110.9 36.2 111.1 36.3 111.2 36.3C110.6 35.4 109.9 34.5 109.3 33.5Z" fill="white"/>
<path d="M111.3 31.2999C110.3 30.7999 109.3 30.5 108.2 30.2C108.4 30.5 108.5 30.8 108.7 31.2C109.5 31.2 110.4 31.2999 111.3 31.2999Z" fill="white"/>
<path d="M113.5 37.9L114.1 37.2C113.7 37.2 113.3 37.1 112.8 37.1C113 37.4 113.2 37.6 113.5 37.9Z" fill="white"/>
<path d="M111 37C111.4 37.9 111.7 38.8 111.9 39.7L113 38.5C112.6 38.1 112.2 37.6 111.8 37.1C111.5 37.1 111.3 37 111 37Z" fill="white"/>
<path d="M108.8 37.5999C108.5 37.1999 108.1 36.9 107.8 36.5C105 36 102.2 35.4 99.5 34.7C102.3 36.8 105.6 38.5 108.8 39.5C108.8 38.9 108.8 38.2999 108.8 37.5999Z" fill="white"/>
<path d="M105.8 29.9C104.9 29.7 104 29.6 103 29.6C103.4 30.2 103.9 30.8 104.4 31.4C105.2 31.3 106 31.3 106.8 31.3C106.5 30.8 106.1 30.4 105.8 29.9Z" fill="white"/>
<path d="M109.5 36.1C109.6 36.1 109.8 36.1 109.9 36.1C109.8 35.8 109.6 35.6 109.5 35.3C109.5 35.6 109.5 35.8 109.5 36.1Z" fill="white"/>
<path d="M104.9 32C106 33.3 107 34.6 108.2 35.8C108.4 35.8 108.6 35.9 108.8 35.9C108.8 35.2 108.7 34.6 108.6 33.9C108.2 33.3 107.7 32.6 107.3 31.9C106.5 31.9 105.7 31.9 104.9 32Z" fill="white"/>
<path d="M109.5 37.3C110 37.8 110.5 38.3 111 38.8C110.8 38.2 110.5 37.5001 110.2 36.9001C109.9 36.9001 109.7 36.8 109.5 36.8C109.5 37 109.5 37.1 109.5 37.3Z" fill="white"/>
<path d="M125 28.2999L126.4 27.2999C126 26.5999 125.5 25.9 125 25.2V28.2999Z" fill="white"/>
<path d="M163.9 30.7C162 29.1 159.9 28 157.7 28C157.1 28 156.5 28 155.9 28C155.9 28.1 155.9 28.2 155.9 28.3H155.2C155.2 28.2 155.2 28.1 155.2 28C155.1 28 155 28 154.9 28C154.9 28.3 154.9 28.3 154.8 28.3C156.2 29.6 157.3 31.1 158.1 32.4C160 31.7 162 31.1 163.9 30.7Z" fill="white"/>
<path d="M173 68.3C172.2 64.9 170.6 62.7 168.1 61.5C168.9 63 169.3 64.8 169.9 67.7C170.9 68 172 68.2 173 68.3Z" fill="white"/>
<path d="M82.6 64.9C82.8 65.7 83.8 66.1 85.5 66.2C88 62.8 93.6 55.8 98.6 51.4C93.8 54.3 89.4 57.8 86.7 60.5C83.7 62 82.3 63.9 82.6 64.9Z" fill="white"/>
<path d="M131.6 23.8L134.4 21.9H134.5V22C135.2 22 135.8 22 136.5 22C136.7 20.9 136.9 19.8 137 18.6C134.8 20.1 132.9 21.8 131.6 23.8Z" fill="white"/>
<path d="M169.1 67.5C168.5 64.4 168 62.6 166.9 61.1C165.7 60.7 164.2 60.5 162.6 60.5C161.7 60.5 160.6 60.2 159.4 59.6C159.1 61.2 158.8 62.6 158.6 64C161.4 65.5 165.3 66.7 169.1 67.5Z" fill="white"/>
<path d="M154.7 18.5C155 17.7 155.1 16.6 155.2 15.5C155.3 14.3 155.4 13.1 155.6 12.2C154.3 12.1 153 12.4 151.6 12.7C151.1 12.8 150.5 12.9 150 13C150.1 13.1 150.1 13.1 150.2 13.2C152.3 15.1 153.7 16.5 154.7 18.5Z" fill="white"/>
<path d="M166.1 60.2C164.9 59 163.1 57.9 160.1 56.4C159.9 57.3 159.7 58.1 159.5 58.9C160.6 59.5 161.8 59.8 162.6 59.8C163.9 59.8 165 59.9 166.1 60.2Z" fill="white"/>
<path d="M155 22.1C154.7 22.2 154.5 22.3 154.3 22.4C153.7 23.6 152.7 24.8 151.6 26C152.5 26.5 153.3 27.1 154 27.6C154.2 27.6 154.5 27.5 154.7 27.5C154.9 27.3 155.1 27.1 155.3 26.9C155.3 25 155.2 23.4 155 22.1Z" fill="white"/>
<path d="M152.3 23.7999L152.1 23.9C151.1 23.9 150.1 24.2 149.1 24.7C149.8 25 150.4 25.3 151 25.6C151.8 24.8 152.4 24 153 23.2C152.8 23.4 152.5 23.5999 152.3 23.7999Z" fill="white"/>
<path d="M153.9 18.5C153 16.8 151.7 15.5 149.7 13.7C149.5 13.5 149.3 13.3 149.1 13.2C148.3 13.3 147.5 13.4 146.6 13.4L145.8 13.8C143.3 15 140.4 16.5 137.7 18.3C137.7 19.6 137.5 20.9 137.2 22.2C139.3 22.3 141.2 22.5 142.9 22.9C143.1 22.6 143.3 22.4 143.6 22.2C145.9 20.4 148.5 18.3 151.4 18.3C152.2 18.3 153.1 18.4 153.9 18.5Z" fill="white"/>
<path d="M146.4 12.6C147.2 12.6 147.8 12.5 148.4 12.5C147.8 11.9 147.1 11.2 146.3 10.5C140.9 10.5 140.5 11.5 139 14.9C138.7 15.5 138.4 16.3 138 17.1C140.5 15.5 143.1 14.2 145.3 13.1L146.4 12.6Z" fill="white"/>
<path d="M153.9 21.8C154.1 21.2 154.4 20.6 154.5 20.1C154.4 19.8 154.3 19.5 154.2 19.2C153.3 19.1 152.4 19 151.4 19C148.7 19 146.2 21 144.1 22.7C144 22.8 143.9 22.9 143.8 22.9C145.5 23.3 147 23.7 148.3 24.3C149.5 23.6 150.8 23.2 152 23.2C152.6 22.6 153.2 22.2 153.9 21.8Z" fill="white"/>
<path d="M166.6 49.9001C166.1 49.7001 165.6 49.5 165.1 49.3H162.3C162.2 49.8 162 50.3001 161.9 50.9001C162.9 50.8001 163.8 50.7001 164.8 50.7001C165.1 50.7001 165.9 50.3001 166.6 49.9001Z" fill="white"/>
<path d="M108.2 31.9C108.2 32 108.2 32 108.3 32.1C108.2 32 108.2 31.9 108.2 31.9Z" fill="white"/>
<path d="M174.3 48.6C173.9 48.1 173.5 47.6 173 47.1C169.7 46 166.6 45.3 163.4 44.8C163.2 45.7 163 46.8001 162.7 47.9001C163.6 48.1001 164.4 48.3 165.2 48.6H174.3V48.6Z" fill="white"/>
<path d="M167.3 49.4C167.4 49.3 167.5 49.3 167.5 49.2H166.9C167 49.3 167.2 49.4 167.3 49.4Z" fill="white"/>
<path d="M106.8 29.9C107 30.4 107.3 30.8 107.7 31.2C107.4 30.8 107.1 30.4 106.8 29.9Z" fill="white"/>
<path d="M0 0V300H300V0H0ZM21.3 210.6C21.3 210.6 20.9 209.7 17.8 208.4C14.8 207.1 13 207.1 13 207.1C13 207.1 7.9 208 6.1 208C6.1 208 12.1 204.5 17.3 205.8C19.4 206.3 20.3 206.6 20.8 206.7L25.1 205C25.1 205 28.6 203.7 31.6 204.6C33.3 205 35.1 205.9 35.1 205.9C35.1 205.9 26.9 205.8 21.3 210.6ZM36.9 202.1C36.9 202.1 36.6 201.5 34.6 200.5C32.5 199.5 31.3 199.4 31.3 199.4C31.3 199.4 27.6 199.7 26.4 199.6C26.4 199.6 30.9 197.7 34.5 198.8C36 199.3 36.6 199.5 36.9 199.6L40 198.7C40 198.7 42.5 198 44.6 198.8C45.8 199.2 47 199.8 47 199.8C47 199.8 41.2 199.3 36.9 202.1ZM238 280.5H202.9C202.6 280.5 168.5 283.5 161.8 284.2C160.8 284.3 160 284.4 159.2 284.4C154.7 284.4 154 282.7 153.9 282.5L153.1 277.8L153.2 277.7C153.4 277.4 168.3 250.9 168.1 239.6L167.3 240.1L160.5 241.6L155.1 240.8L149.8 237.6C148.1 237.4 142 236.8 134.2 234.6C134.2 257.9 139.4 272.1 139.4 272.2V272.3V279.9L137.7 281.6H115.9C98.2 281.6 64.8 291.2 64.4 291.3C56.9 291.3 53.9 289.1 53.7 289L53.6 288.9L52.7 286.4L57.3 281.8C67 274.3 112.4 271.4 114.3 271.2L134.3 270.5L134.8 270L132.6 261.2L129.6 244.7L128.9 233C123.4 231.1 117.4 228.6 111.7 225C111.2 225 110.8 225 110.3 225C104.9 225 100.1 224.1 100 224H99.9C99.8 224 90.1 218.7 85.6 215C75.6 207.8 75.1 199.1 75 198.4C74.8 197.6 72.2 187.5 77.3 180.2C81.6 172.2 85.4 171.1 90.3 169.8L91 169.6C95.5 168.1 101.6 168.1 106 168.1C109.9 168.1 111.1 168.6 111.4 168.9C113.5 167.1 115.9 165.1 118.5 163C117.2 158.5 117.2 154.9 118.7 152.4C119.7 150.7 121.2 149.9 122 149.6C121 148.7 118.9 146.3 118.2 142.6C118 142.6 117.7 142.6 117.5 142.6V142C117.7 142 117.9 142 118.1 142C117.6 138.9 118.2 135 121 130.2L121.1 130L121 129.8C120.1 128.3 119.9 127.2 120.3 126.4C120.8 125.5 122 125.5 122 125.5H122.1L123 125.7C117.9 123.2 114.1 119.1 112.1 116.6C112 116.5 111.9 116.3 111.8 116.2L108 114.9H73H72.9C68.7 112.8 68.7 111 68.7 110C68.7 109.9 68.7 109.7 68.7 109.7H68.6C67.9 109.8 66.4 109.9 62.9 110.1C60 110.3 56.7 110.4 55.9 110.4C44.9 111.1 32.9 114.1 32.8 114.1L23.4 114.9V114.6C22.6 104.7 48.7 96.6 49.8 96.3C55.4 95.2 62.6 94.4 68.5 94C74.4 93.5 78.9 93.3 79 93.3H98.4C98.4 93.3 100 93.1 102 92.8C100.7 90 99.2 87.1 97.5 84.4V84.3C95.5 75.8 96.7 58.2 100.4 53L104.9 47.8C104.7 47.8 104.5 47.9 104.4 48C104 48.2 103.6 48.4 103.3 48.6C98.3 51.5 90 61.2 86.5 66C88 65.9 89.6 65.6 91.2 65.3C92.7 65 94.2 64.7 95.5 64.6V64.5C95.5 64.1 95.5 64 95.8 63.7C95.9 63.6 96.1 63.5 96.3 63.3L96.8 63.8C96.6 64 96.4 64.2 96.3 64.3C96.2 64.4 96.2 64.4 96.2 64.4C96.2 64.4 96.2 64.5 96.2 64.6C96.2 64.7 96.2 64.8 96.2 65V65.4H95.8C94.4 65.4 92.9 65.7 91.3 66.1C89.5 66.5 87.7 66.9 86 66.9C85.9 67.1 85.7 67.3 85.6 67.4C83.2 69.9 78.6 75.1 78.6 77.8H77.9C77.9 74.2 84.8 67.3 85 67L85.1 66.9C82.9 66.7 82.2 65.9 82 65.1C81.6 63.5 83.4 61.4 86.4 59.9C89.8 56.6 96.2 51.6 102.4 48.3C102.2 48.1 101.9 47.7 101.6 47.1C101.6 47.1 101.5 47.1 101.5 47.2C98.1 49.3 94.5 51.5 90.3 51.9V52H90.2C85.4 53.6 77.8 58 77.8 62.9H77.1C77.1 58.2 83.3 54.1 88.2 52C85.2 52.3 77.8 54.3 77.8 56.6H77.1C77.1 54.2 82.4 52.5 85.9 51.7L85.6 51.4C86.5 50.5 87.7 47.8 89 45C89.8 43.1 90.7 41.2 91.6 39.5C89.5 38.5 87.5 37.7 85.6 37C85.1 37.5 84.6 38 84.1 38.5C81.6 40.9 79.2 43.2 79.2 46.7C79.2 47.9 78.8 49.1 78.4 50.3C78.1 51.3 77.8 52.2 77.8 53.1H77.1C77.1 52.2 77.4 51.2 77.8 50.1C78.2 49 78.5 47.8 78.5 46.7C78.5 42.9 81.1 40.4 83.6 38C84 37.6 84.5 37.2 84.9 36.7C81.2 35.6 77.5 35 72.5 35V34.3C77.8 34.3 81.6 34.9 85.5 36.1C85.9 35.7 86.3 35.3 86.6 34.8C86.2 34.6 85.9 34.3 85.7 34.1C84.7 33.1 84 32.3 83.4 31.5C82.6 31.5 81.8 31.4 81 31.4C76.9 31.4 71.5 26.8 71.5 23.3H72.2C72.2 26.4 77.3 30.7 81 30.7C81.6 30.7 82.3 30.7 82.9 30.8C81.5 28.5 81.3 26.4 81.3 22.6H82C82 26.6 82.2 28.6 83.7 30.8C85.6 30.9 87.5 31.2 89.4 31.5C89.5 31.4 89.6 31.4 89.7 31.3C87.7 30.5 85.8 30 84.5 30V29.3C85.9 29.3 88.1 29.9 90.4 30.9C91.4 30.3 92.4 29.9 93.5 29.5C92.9 28.7 92.3 27.8 91.9 27C89.8 24.9 81.2 18 79.5 18V17.3C81.7 17.3 90.8 25 92.4 26.6L92.5 26.7C92.9 27.6 93.5 28.5 94.2 29.3C95.9 28.8 97.9 28.6 100 28.6C100.5 28.6 101.1 28.6 101.7 28.6C99.3 25.3 97 21.8 94.8 18.5C92.3 17.1 89.4 16 87 15.9V18.4H86.3V15.2H86.6C88.9 15.2 91.5 16 94 17.3C93.5 16.6 93.1 15.9 92.7 15.2C91.3 13 89.9 10.8 88.6 8.8C88.1 8.5 87.8 8.4 87.7 8.4C87.7 8.5 87.7 8.7 87.7 8.9C87.7 9.2 87.8 9.6 87.8 10H87.1C87.1 9.6 87.1 9.3 87 9C86.9 8.5 86.9 8.1 87.2 7.9C87.5 7.7 88 7.8 89 8.3H89.1L89 8.6C90.4 10.6 91.7 12.8 93.2 15.1C93.9 16.1 94.5 17.2 95.2 18.3C97.1 19.4 98.9 20.7 100.2 22C100.3 22 100.4 22.1 100.5 22.2C100.2 21.6 99.9 20.9 99.7 20.3C99 18.1 99 16.6 99 14.5H99.7C99.7 16.5 99.7 18 100.4 20C100.7 20.9 101.2 21.9 101.8 22.9C103.3 24.1 104.7 25.8 106.1 27.7C105.4 26.2 104.6 24.6 103.7 22.9C101.7 19.1 99.6 15.2 99.6 11.6H100.3C100.3 15 102.3 18.8 104.3 22.6C105.5 24.9 106.6 27 107.3 29.1C107.4 29.2 107.6 29.4 107.7 29.5C109.7 29.9 111.4 30.5 112.9 31.5C113.4 31.5 113.9 31.6 114.5 31.6C114.5 31.5 114.5 31.5 114.5 31.4C114.5 23.7 110 18.6 104 12.6L104.5 12.1C110.5 18.1 115.2 23.4 115.2 31.4C115.2 31.5 115.2 31.6 115.2 31.6C116.6 31.7 118 31.8 119.4 31.8C118.3 27.1 116.2 21.3 114.5 18.1V18V17.9C114.5 16.8 114.6 15.4 114.7 14.1C114.7 13.9 114.7 13.7 114.8 13.6C113.8 12 113.1 10.4 113.1 8.8H113.8C113.8 10.1 114.2 11.3 114.9 12.5C115 11.9 115.2 11.8 115.4 11.8C115.8 11.8 115.9 12 115.9 14C117.2 15.8 118.9 17.5 120.7 19.4C121 19.7 121.2 19.9 121.5 20.2V20C121.5 19.2 121.5 18.5 121.6 18.1C121.6 17.8 121.7 17.3 122.1 17.3C122.9 17.3 122.9 20.6 122.9 20.7H122.2V20.9C122.9 21.7 123.7 22.4 124.3 23.2V8.8H125V24.1C125.8 25.1 126.5 26 127 27L130.3 24.8C131.7 22.1 134.2 19.8 137 17.9V17.8C137.6 16.6 138 15.6 138.4 14.7C139.9 11.1 140.5 9.9 146.5 9.9H146.6L146.7 10C147.7 11 148.5 11.8 149.3 12.5C150.1 12.4 150.8 12.3 151.4 12.1C152.9 11.8 154.4 11.5 155.8 11.7C156.1 11 156.4 10.6 157 10.6V11.3C156.8 11.3 156.6 11.5 156.5 11.8C157.9 12.1 159.3 12.8 160.8 14.3C162.1 15.6 165.6 18.4 166.2 18.4V19.1C165.2 19.1 161.2 15.6 160.3 14.8C158.9 13.4 157.6 12.7 156.3 12.5C156.1 13.4 156 14.7 155.9 15.8C155.8 17 155.7 18.1 155.5 18.9C157.8 19.3 159.9 20 162 20.7C165.1 21.7 168 22.7 171.2 22.7V23.4C167.9 23.4 165 22.4 161.8 21.4C159.7 20.7 157.6 20 155.4 19.6C155.4 19.6 155.4 19.6 155.4 19.7C155.4 19.9 155.4 20.1 155.3 20.3C155.4 20.7 155.5 21.1 155.6 21.5C156.1 21.4 156.6 21.3 157.1 21.3V22C156.6 22 156.1 22.1 155.7 22.2C155.9 23.4 156 24.7 156 26.3C156 26.3 156 26.3 156.1 26.2C157.2 24.8 158.3 23.4 160 23.4V24.1C158.7 24.1 157.7 25.3 156.7 26.6C156.5 26.8 156.3 27.1 156.1 27.3C156.1 27.4 156.1 27.5 156.1 27.6C156.7 27.6 157.3 27.6 157.9 27.6C160.5 27.6 162.8 29 165 30.8C166.4 30.6 167.8 30.4 169.2 30.4C172.2 30.4 173.8 32.2 173.8 35.7H173.1C173.1 32.6 171.8 31.1 169.2 31.1C168 31.1 166.9 31.2 165.7 31.4C166.8 32.4 167.8 33.4 168.9 34.5C172.2 37.9 175.3 41 179.1 41V41.7C175.1 41.7 171.7 38.3 168.4 35C167.2 33.8 166.1 32.6 164.9 31.6C162.8 32 160.8 32.6 158.7 33.3C159.2 34.4 159.6 35.4 159.9 36.2C163.9 36.5 167.3 37.2 170.8 38.9C172 38.9 172.5 39.5 172.5 40.7H171.8C171.8 39.9 171.6 39.6 170.7 39.6H170.6H170.5C167.2 37.9 163.9 37.2 160 37C160.2 37.8 160.3 38.4 160.3 38.8C161 38.2 162.3 37.5 163.2 38C164.2 38.6 164.4 40.7 163.7 44.3C166.9 44.8 170.2 45.6 173.5 46.7H173.6L173.7 46.8C177.5 50.6 177.5 53.5 177.4 58.3C177.4 59.2 177.4 60.1 177.4 61.1H176.7C176.7 60.1 176.7 59.2 176.7 58.3C176.8 54.5 176.8 52 174.9 49.2V49.5H168.8C168.7 49.7 168.5 49.8 168.3 50C168.8 50.3 169.2 50.6 169.5 50.9C174 52.4 174.6 52.9 174.6 57.5H173.9C173.9 53.2 173.5 52.9 169.2 51.5H169.1L169 51.4C168.6 51 168.1 50.7 167.6 50.4C166.7 51 165.5 51.5 165 51.5C164 51.5 162.9 51.6 161.9 51.7C161.5 53 161.1 54.4 160.6 55.9C164.4 57.9 166.4 59.1 167.6 60.7C170.9 61.9 173 64.5 173.9 68.6C176.2 69 178.2 69.1 179.8 69.1V69.8C178.4 69.8 176.4 69.6 174.1 69.3C174.4 70.8 174.5 72.5 174.5 74.4H173.8C173.8 72.4 173.6 70.7 173.3 69.2C172.3 69 171.2 68.8 170.2 68.6C170.6 70.3 171 72.5 171.7 75V75.1V81.4H171V75C170.3 72.3 169.9 70.1 169.5 68.3C165.7 67.5 161.7 66.3 158.7 64.8C157.7 72.8 158.9 78.3 160.2 84.1C160.8 86.8 161.4 89.7 161.8 92.8C161.7 95.9 160.8 101.6 156.6 108.4C161.5 117.9 158.6 126 158.6 126.1C158.6 126.2 158.3 126.9 157.7 127.9C158.2 128.1 160.8 129.1 160.1 133.4C160.8 134.5 160.9 135.8 160.7 137.1C169.7 137.3 170.6 148.5 170.6 148.6V153.1C170.6 155.8 168.8 158 167.4 159.6C166.6 160.6 165.8 161.5 166 161.9C166.7 163.3 168.1 164 168.1 164L168.2 164.1L168.3 164.2V164.3C180 167.6 190.9 165.5 191 165.5H192.6C215.3 163.3 230.3 147.8 230.5 147.7C231.3 146.4 232.2 145 232.8 144C233.5 142.3 233.6 142.3 233.8 142.3H234.1V142.6C234.1 142.9 233.8 143.4 233.5 144.1C232.7 146.2 231.3 150.3 230.4 153.1C229.1 159.6 223.7 171 221.3 175.6C222.9 173 226.4 168.5 233.1 165.4C242.7 158.7 257.7 156.4 257.9 156.4L258.4 156.3L249.2 189.1L242.3 191.4L237.1 192L247.2 195.4L241.1 212.2L231.9 226.7L231.6 226.6C228.4 225.3 224.4 217.7 220.5 210.3C219.6 208.7 218.8 207 217.9 205.5L209.8 214.3H209.9L209 215.6C209 215.6 209.1 215.6 209.1 215.7C209.4 216 209.5 216.1 205.7 220.8C199.7 228.3 192.1 228.4 192 228.4H191.9L184.8 226.2L184 226.6L176.5 234.8L174.9 235.8V235.9C175.7 238.5 173.8 248.1 165.9 267.5C164.5 271.2 163.7 272.9 163.3 273.7L170.1 273L185.8 270L216.5 266.3C226.9 265.6 235.6 265.4 245.1 269.3C248.2 270.3 249.8 271.2 249.8 271.9C249.5 272 248.6 280.5 238 280.5ZM90 247.8C92.3 248.4 94.6 249.5 94.6 249.5C94.6 249.5 83.7 249.5 76.3 255.7C76.3 255.7 75.7 254.6 71.7 252.9C67.7 251.2 65.4 251.2 65.4 251.2C65.4 251.2 58.5 252.3 56.3 252.3C56.3 252.3 64.3 247.8 71.2 249.5C73.9 250.2 75.2 250.6 75.7 250.7L81.4 248.4C81.4 248.4 86 246.7 90 247.8ZM83.1 241.4C83.1 241.4 89 238.9 93.8 240.4C95.7 241 96.6 241.3 97 241.4L101.2 240.2C101.2 240.2 104.5 239.3 107.3 240.3C108.9 240.8 110.4 241.7 110.4 241.7C110.4 241.7 102.7 241.1 97.1 244.8C97 244.8 96.7 244 94 242.7C91.3 241.4 89.6 241.2 89.6 241.2C89.6 241.2 84.7 241.6 83.1 241.4ZM268.9 248.3C268.9 248.3 268.5 247.4 265.4 246.1C262.4 244.8 260.6 244.8 260.6 244.8C260.6 244.8 255.4 245.7 253.7 245.7C253.7 245.7 259.7 242.2 264.9 243.5C267.1 244 268 244.3 268.4 244.4L272.7 242.7C272.7 242.7 276.2 241.4 279.2 242.3C280.9 242.7 282.7 243.6 282.7 243.6C282.7 243.6 274.5 243.6 268.9 248.3ZM284.6 239.9C284.6 239.9 284.3 239.3 282.3 238.3C280.2 237.3 279 237.2 279 237.2C279 237.2 275.3 237.5 274.1 237.4C274.1 237.4 278.6 235.5 282.2 236.6C283.6 237.1 284.3 237.3 284.6 237.4L287.7 236.5C287.7 236.5 290.2 235.8 292.3 236.6C293.5 237 294.7 237.7 294.7 237.7C294.7 237.7 288.8 237.1 284.6 239.9Z" fill="white"/>
<path d="M75.7 250.7C75.7 250.7 76.5 250.9 75.7 250.7V250.7Z" fill="white"/>
<path d="M268.4 244.4C268.4 244.4 269 244.5 268.4 244.4V244.4Z" fill="white"/>
<path d="M95.3 42.1C94.7 41.5 94.3 41 94.1 40.8C93.5 40.5 92.9 40.2 92.3 39.9C91.4 41.7 90.5 43.6 89.7 45.4C88.4 48.2 87.4 50.6 86.4 51.7C87.4 51.5 88.2 51.4 88.7 51.4C89.2 51.4 89.6 51.4 90.1 51.3C92.2 49.2 95.1 47 98.3 45.1C97.5 44.4 96.6 43.4 95.3 42.1Z" fill="white"/>
<path d="M91.2 51.2C94.6 50.6 97.6 48.8999 100.5 47.0999C100.2 46.9999 99.7 46.6 98.8 45.7C95.8 47.3 93.2 49.3 91.2 51.2Z" fill="white"/>
<path d="M99.4 45.2999C100 45.8999 100.5 46.4 100.7 46.4V46.9C100.9 46.8 101 46.6999 101.2 46.5999C101.3 46.5999 101.3 46.5 101.4 46.5C101.1 46 100.9 45.3 100.6 44.7C100.2 44.9 99.8 45.0999 99.4 45.2999Z" fill="white"/>
<path d="M104.2 43.3C103.2 43.6 102.2 44 101.2 44.5C101.4 45.1 101.7 45.7 101.9 46.3C103.2 45.5 104.5 44.7 105.8 44.1C105.3 43.8 104.8 43.6 104.2 43.3Z" fill="white"/>
<path d="M87.7 33.3C88.1 32.9 88.4 32.6001 88.7 32.4001C87.2 32.2001 85.8 32 84.3 31.8C84.8 32.5 85.4 33.1001 86.2 33.9001C86.4 34.1001 86.7 34.3 87 34.5C87.2 34.1 87.5 33.7 87.7 33.3Z" fill="white"/>
<path d="M92.9 37.4C90.9 36.9 88.7 36.1 87.2 35.4C86.9 35.8 86.6 36.2 86.2 36.6C88.1 37.2 90 38 92 39C92.3 38.4 92.6 37.9 92.9 37.4Z" fill="white"/>
<path d="M105.2 29.1C105.1 29 105 28.9 104.9 28.7C103.5 26.8 102.2 25 101.1 23.3C100.6 22.9 100.2 22.6 99.7 22.4L99.6 22.3C98.6 21.3 97.4 20.3 95.9 19.4C97.9 22.5 100.1 25.7 102.3 28.7C103.4 28.9 104.3 29 105.2 29.1Z" fill="white"/>
<path d="M87.5 34.8C89 35.6 91.3 36.3 93.2 36.8C93.8 35.9 94.4 35.1 95 34.5C94.3 34 93.6 33.6 92.9 33.2C91.8 33 90.7 32.7 89.5 32.5C89 32.9 88.6 33.2 88.2 33.6C88 34 87.8 34.4 87.5 34.8Z" fill="white"/>
<path d="M106.9 44.2C105.3 44.9 103.8 45.7999 102.2 46.7999C102.5 47.3999 102.7 47.7999 102.8 47.7999C102.8 47.7999 102.8 47.7999 102.7 47.7999V48.0999C103.2 47.7999 103.6 47.6 104 47.4C104.6 47.1 105.2 46.7999 105.8 46.5999L108 44.2999H107.7C107.5 44.2999 107.2 44.3 106.9 44.2Z" fill="white"/>
<path d="M96.7 33.3C95.7 32.3 94.7 31.3 93.9 30.3C92.9 30.6 92 31 91.1 31.4C91.8 31.7 92.5 32.1001 93.1 32.4001C94.4 32.8001 95.6 33 96.7 33.3Z" fill="white"/>
<path d="M97.5 33.1C97.6 33.1 97.6 33.1 97.7 33.1C99.5 32.2 101.4 31.7 103.5 31.5C103 30.9 102.5 30.3 102.1 29.6C101.4 29.6 100.6 29.6 99.9 29.6C98 29.6 96.2 29.8 94.6 30.2C95.5 31.2 96.5 32.2 97.5 33.1Z" fill="white"/>
<path d="M106.1 29.2C106.2 29.2 106.2 29.2 106.3 29.2C105.4 27.9 104.4 26.6 103.4 25.5C104.1 26.4 104.7 27.4 105.4 28.3C105.7 28.6 105.9 28.9 106.1 29.2Z" fill="white"/>
<path d="M90.4 31.9C90.4 31.9 90.5 32 90.6 32C90.5 32 90.5 31.9 90.4 31.9Z" fill="white"/>
</svg>
