<svg width="300" height="300" viewBox="0 0 300 300" fill="none" xmlns="http://www.w3.org/2000/svg">
<path d="M131.7 110.1V109.8L68.8 113.1L69.2 111C72.9 94 75.5 74 71.6 68.5C71 67.6 70.3 67.4 69.9 67.4C66.9 67.1 60.1 66.7 51.6 66.8H51.5C28 66.9 11.5 69.7 9.5 74C9.3 74.3 8.9 75.2 10.2 76.9C15.4 83.8 27.1 82.4 36.5 81.2C43.5 80.4 49.1 79.7 52 82.1C53.1 83 53.7 84.2 53.8 85.7C54.5 96.3 54.5 116.9 54.5 117.1V117.2C53.7 127.3 53.3 152.9 65.8 172.3L66.1 172.8L66 173.4C62.2 193.9 59.3 218 62.3 224C65.6 230.7 89.3 239.2 97 236.4C98.3 235.9 98.8 235.3 98.6 234.1C98.6 234 98.6 233.8 98.5 233.7C98.4 233.4 98.3 233 98.2 232.7C98 232.2 97.8 231.8 97.6 231.3C95.8 227.7 91.8 225.2 87.6 222.4C81.2 218.3 74.6 214 75.8 205.7C76.4 201.4 76.4 196.5 75.8 191C75.6 189.6 75.4 188.1 75.2 186.7V186.6L74.5 182.7L75.6 183.6L76.8 184.5L77.7 185.2C80 187 82.5 188.5 85.2 189.9C85.7 190.1 86.2 190.4 86.7 190.6C87.2 190.8 87.7 191 88.1 191.3C98.6 195.8 111.3 197.5 126.2 196.2C131.8 195.7 137.4 195 142.8 194.1L144.9 193.7L144.6 195.9C141.6 218.4 142.9 225.2 143.9 227.3C147.2 234 170.9 242.5 178.6 239.7C180.1 239.2 180.5 238.4 180.2 237C179.7 234.6 178.2 232.7 176.3 230.9C175.4 230 174.3 229.2 173.1 228.4C171.9 227.5 170.6 226.7 169.3 225.8C165.8 223.5 162.3 221.3 160 218.3C159.3 217.4 158.7 216.5 158.3 215.5C157.5 213.7 157.2 211.6 157.6 209.2C158.3 204.5 158.2 198.9 157.4 192.7L157.2 191.3L158.6 191C159.1 190.9 159.7 190.7 160.2 190.6C160.7 190.5 161.1 190.4 161.6 190.2C162.1 190.1 162.5 190 163 189.8C166.1 189 169.2 188.1 172.1 187.1C172.5 187 172.9 186.8 173.4 186.7C173.8 186.6 174.2 186.4 174.7 186.3C177.8 185.3 180.8 184.2 183.7 183C153.7 174.2 131.7 144.8 131.7 110.1Z" fill="white"/>
<path d="M173 204.9C173.7 200 173.3 194.7 172.7 190.4C169.4 191.4 166 192.4 162.5 193.4C162 196.8 161.6 200.4 161.3 203.7C161.3 205.5 161.1 207.2 160.9 208.8C160.8 210.2 160.8 211.6 160.8 212.8C161.7 217.2 166.1 220.1 171.1 223.3C173.8 225.1 176.6 226.9 178.9 229C181.9 229.8 184.8 230.3 187.1 230.3C188.3 230.3 189.4 230.2 190.2 229.9C191.4 229.5 191.8 228.9 191.5 227.7C190.6 223.8 186.7 221.2 182.6 218.6C177.4 215.2 172 211.7 173 204.9Z" fill="white"/>
<path d="M248.3 125.3C249.7 128.3 250.6 131.6 251 134.9C251.1 135.5 251.1 136.1 251.2 136.6C251.2 137.1 251.3 137.5 251.3 138C251.3 138.4 251.3 138.8 251.3 139.1V139.6C251.3 139.9 251.3 140.2 251.3 140.5C251 158.3 237.3 172.7 220.4 172.9H220.1C217.7 172.9 215.3 172.6 213.1 172.1C212.4 171.9 211.7 171.7 211 171.5C210.3 171.3 209.7 171 209 170.8C205 169.2 201.4 166.7 198.3 163.5C192.4 157.3 189.1 149.1 189 140.3V139.8C188.9 132.7 191 126.1 194.6 120.7C194.9 120.2 195.2 119.8 195.6 119.3C195.9 118.8 196.3 118.4 196.6 117.9C202.3 111 210.6 106.6 219.9 106.5C220 106.5 220.1 106.5 220.2 106.5C225.1 106.5 229.7 107.7 234 109.9C230.3 102.9 228.2 94.3 228.2 85.2C228.2 71 233.4 58.3 241.4 50.4C236.8 47 231.8 44.2 226.5 42.1C225 42 223.6 41.5 222.2 40.6C216.1 38.7 209.6 37.6 202.9 37.6C186.8 37.6 171.9 43.7 160.2 53.7C162.2 53.2 164.2 53 166.3 53C183.5 53 197.5 70.1 197.5 91.2C197.5 100.6 194.7 109.2 190.1 115.9C189.8 116.4 189.4 116.8 189.1 117.3C188.8 117.8 188.4 118.2 188 118.7C182.4 125.4 174.7 129.5 166.3 129.5C154.5 129.5 144.2 121.5 138.9 109.6C138.7 109.1 138.4 108.6 138.2 108C138 107.5 137.8 107 137.6 106.4C136.8 104.1 136.1 101.7 135.7 99.1C135.4 101.5 135.1 104 135 106.5C135 107 135 107.6 134.9 108.1C134.8 108.6 134.9 109.2 134.9 109.7V110.1C134.9 144.9 157.9 174 188.5 181C189.4 181.2 190.3 181.4 191.3 181.6C192.2 181.8 193.2 181.9 194.1 182.1C196.9 182.5 199.8 182.7 202.7 182.7C234.5 182.7 261.3 159.1 268.6 127.5C266.1 128.3 263.5 128.7 260.9 128.7C256.5 128.7 252.2 127.5 248.3 125.3Z" fill="white"/>
<path d="M147.6 57.2C145.1 49.5 137.2 31.9 127.8 34.2C119.4 36.3 114.5 38.4 112.2 39.6C118.3 45.2 137.1 62.7 138.3 68.9V69C140.5 67.9 146.3 59.7 147.6 57.2Z" fill="white"/>
<path d="M85.9 206.3C86.5 202.2 86.3 197.9 85.9 194.1C83.5 193 81.2 191.7 79 190.3C79.8 196.3 79.8 201.8 79.1 206.6C78.2 212.8 83.4 216.2 89.4 220.1C94.3 223.3 99.4 226.6 101.2 231.8C101.9 231.7 102.6 231.6 103.2 231.4C104.4 231 104.7 230.4 104.5 229.2C103.6 225.3 99.7 222.7 95.6 220.1C90.3 216.5 84.9 213 85.9 206.3Z" fill="white"/>
<path d="M222.5 127.7C222.6 128.2 222.8 128.9 223 129.5C223.3 130.5 223.5 131.7 223.7 132.9C223.9 131.8 224.1 130.8 224.3 129.9C224.4 129.3 224.6 128.8 224.7 128.3C224.8 128 224.9 127.7 225 127.4C224.1 127.5 223.3 127.6 222.5 127.7Z" fill="white"/>
<path d="M141.6 107.8C141.8 108.3 142.1 108.9 142.3 109.4C147.2 119.5 156.1 126.2 166.2 126.2C173.2 126.2 179.7 122.9 184.6 117.6C185 117.2 185.4 116.7 185.7 116.3C186.1 115.9 186.4 115.4 186.7 114.9C191.3 108.7 194.1 100.4 194.1 91.1999C194.1 71.8999 181.5 56.2 166.1 56.2C161.7 56.2 157.6 57.5 153.9 59.7C151.5 61.1 149.3 62.9999 147.4 65.1999C144.6 68.3999 142.3 72.2999 140.6 76.6999C139.4 79.8999 138.6 83.4 138.3 87C138.2 88.4 138.1 89.6999 138.1 91.0999C138.1 96.4999 139.1 101.5 140.8 106.1C141.2 106.7 141.4 107.2 141.6 107.8ZM164.6 77C168.1 77 170.9 80.3 170.9 84.3C170.9 88.3 168.1 91.5999 164.6 91.5999C161.2 91.5999 158.3 88.3 158.3 84.3C158.3 80.2 161.1 77 164.6 77Z" fill="white"/>
<path d="M0 0V300H300V0H0ZM272.4 126C265.5 160.2 237 185.9 202.9 185.9C198.1 185.9 193.5 185.4 189 184.4C184.7 186.2 180.1 187.9 175.4 189.5C176.1 194 176.6 199.8 175.8 205.2C175 210.3 179.3 213.1 184.3 216.3C188.7 219.1 193.2 222.1 194.3 227.1C194.9 229.6 193.8 231.5 191.3 232.4C190.2 232.8 188.9 233 187.3 233C185.7 233 183.8 232.8 181.9 232.4C182.7 233.6 183.3 235 183.6 236.5C184.3 239.5 183 241.9 180 242.9C178.7 243.4 177 243.6 175.1 243.6C163.9 243.6 144.8 235.9 141.3 228.9C139.2 224.7 139.2 214.5 141.4 197.8C136.6 198.5 131.7 199.1 126.7 199.6C112.1 200.9 99.4 199.4 88.8 195.2C89.1 198.8 89.2 202.8 88.6 206.7C87.8 211.8 92.1 214.6 97.1 217.8C101.5 220.6 106 223.6 107.1 228.6C107.7 231.1 106.6 233 104.1 233.9C103.4 234.1 102.7 234.3 101.9 234.4C102.1 236.9 100.7 238.9 98.1 239.8C88.8 243.1 63.6 233.9 59.5 225.8C55.5 217.7 60.4 187.2 62.8 173.8C50.2 153.7 50.6 127.7 51.3 117.3C51.3 116.1 51.3 96.4 50.6 86.2C50.5 85.4 50.2 85 50 84.8C48.2 83.3 42.5 84 37 84.6C26.7 85.7 14 87.2 7.7 78.9C5.6 76.1 6 74 6.6 72.6C10.2 65.4 33 63.7 51.6 63.6H51.7C52.2 63.6 52.6 63.6 53.1 63.6C61.1 63.6 67.4 63.9 70.3 64.3C71.9 64.5 73.2 65.3 74.2 66.7C79.2 73.7 75.7 95.8 72.8 109.7L131.8 106.6C132.1 99.6 133.3 92.8 135.3 86.4C135.8 81.2 137.2 76.3 139.3 72C138.9 72.2 138.5 72.2 138.2 72.3C138.1 72.3 138 72.3 137.9 72.3C137.1 72.3 135.5 72 135 69.5C134.1 65 118.1 49.3 108.2 40.5L106.7 39.2L108.3 38C108.5 37.9 113.4 34.5 126.8 31.1C141.4 27.5 150.3 55.6 150.7 56.8L150.8 57V57.2C150.8 57.4 150.7 57.7 150.5 58.1C150.9 57.8 151.4 57.5 151.8 57.2C164.7 43.1 182.7 34.3 202.7 34.3C208.5 34.3 214.1 35 219.5 36.4C220.2 32 223.7 10.9 230.2 6.9C231.5 6.1 232.8 5.9 234.2 6.4C241.5 8.8 244.7 8.3 244.7 8.3L247.5 7.7L246.4 10.4C246.4 10.5 243.7 17.5 240.5 24.7C235.7 35.5 233 39.2 231.3 40.6C235.6 42.6 239.7 45.1 243.6 48C248.6 43.9 254.5 41.5 260.9 41.5C279 41.5 293.8 61 293.8 85C293.9 103.9 284.9 119.9 272.4 126Z" fill="white"/>
<path d="M261 44.9C255.6 44.9 250.6 46.8 246.3 50.2C245.9 50.5 245.5 50.9 245.1 51.2C244.7 51.6 244.3 51.9 243.9 52.3C236.3 59.6 231.4 71.6 231.4 85.1C231.4 97 235.2 107.8 241.3 115.2C241.6 115.5 241.8 115.7 242.1 116C242.7 116.6 243.2 117.2 243.8 117.9C248.7 122.7 254.6 125.5 261.1 125.5C264.1 125.5 266.9 124.9 269.6 123.8C270.2 123.6 270.8 123.3 271.4 123C272 122.7 272.6 122.4 273.2 122C283.6 115.7 290.8 101.6 290.8 85.2C290.7 63 277.4 44.9 261 44.9ZM269.1 82.7C268.7 83.1 268.2 83.4 267.8 83.7C267.3 84 266.8 84.1 266.2 84.2C266 84.2 265.9 84.2 265.7 84.2C262.2 84.2 259.4 80.1 259.4 74.9C259.4 73.5 259.6 72.2 260 71C260.2 70.3 260.5 69.7 260.8 69.1C261.1 68.6 261.4 68.1 261.8 67.7C262.9 66.4 264.3 65.6 265.8 65.6C269.3 65.6 272.1 69.7 272.1 74.9C271.9 78.2 270.8 81.1 269.1 82.7Z" fill="white"/>
<path d="M227.1 38.8999C227.7 38.8999 228.4 38.7999 229.1 38.4999C231.5 37.4999 237.8 24.1999 242.7 11.6999C240.7 11.5999 237.7 11.0999 233.2 9.59994C232.9 9.49994 232.5 9.39994 231.9 9.79994C227.8 12.2999 224.1 27.5999 222.7 36.9999C222.9 37.1999 223.1 37.3999 223.5 37.6999C224.8 38.0999 225.9 38.4999 227.1 38.8999Z" fill="white"/>
<path d="M221.8 124.4C227.268 124.4 231.7 122.788 231.7 120.8C231.7 118.812 227.268 117.2 221.8 117.2C216.332 117.2 211.9 118.812 211.9 120.8C211.9 122.788 216.332 124.4 221.8 124.4Z" fill="white"/>
<path d="M220 109.8C212.2 109.9 205.1 113.4 200.1 119C199.7 119.4 199.3 119.9 199 120.3C198.7 120.7 198.3 121.2 198 121.7C194.4 126.7 192.4 133 192.4 139.8V140.3C192.5 148.3 195.4 155.7 200.8 161.3C204.2 164.9 208.3 167.4 212.8 168.7C213.5 168.9 214.2 169.1 215 169.2C215.8 169.4 216.6 169.5 217.4 169.6C218.4 169.7 219.4 169.8 220.4 169.8C220.5 169.8 220.6 169.8 220.6 169.8C234.4 169.7 245.9 158.8 248 144.6C248.1 143.7 248.2 142.8 248.3 141.9C248.3 141.2 248.4 140.5 248.4 139.8C248.4 139.7 248.4 139.6 248.4 139.5V139.4C248.4 138.8 248.4 138.1 248.3 137.5C248.3 136.9 248.2 136.3 248.1 135.8C248 135.2 247.9 134.6 247.8 134C246.9 128.8 244.7 123.9 241.3 119.9C240.6 119.2 240 118.5 239.3 117.8C234.1 112.7 227.4 109.9 220.3 109.9H220V109.8ZM234.9 120.8C234.9 123.9 231.5 126.3 226.4 127.3C226.1 127.4 225.7 127.4 225.4 127.5C225.3 127.8 225.2 128.2 225.1 128.6C225 129.1 224.8 129.6 224.7 130.2C224.4 131.5 224.1 132.9 223.9 134.4C224.3 137.3 224.4 140.6 223.9 143.6C224.2 145 224.5 146.2 225.1 147.4C226.4 150.2 228.6 152.2 231.6 153.2L231.5 153.6C228.4 152.5 226.2 150.5 224.8 147.6C224.4 146.7 224 145.6 223.8 144.6C223.5 145.7 223.2 146.7 222.8 147.6C221.4 150.5 219.2 152.5 216.1 153.6L216 153.2C219 152.2 221.2 150.2 222.5 147.4C223.1 146.2 223.4 144.9 223.7 143.6C223.2 140.6 223.3 137.3 223.7 134.4C223.5 132.6 223.1 130.9 222.8 129.5C222.6 128.8 222.5 128.3 222.3 127.7C222.2 127.7 222.1 127.7 222 127.7C216.6 127.7 212.2 126.2 210.1 123.8C209.6 123.2 209.2 122.5 209 121.8C208.9 121.5 208.9 121.2 208.9 120.8C208.9 116.9 214.5 113.9 222 113.9C229.2 113.9 234.9 116.9 234.9 120.8Z" fill="white"/>
</svg>
