<svg width="300" height="300" viewBox="0 0 300 300" fill="none" xmlns="http://www.w3.org/2000/svg">
<g clip-path="url(#clip0_26_575)">
<path d="M85.7 186.3C85.6 186.8 87 188 89.5 188.6C92 189.2 93.8 188.8 93.9 188.3C94 187.8 92.6 186.6 90.1 186C87.6 185.4 85.9 185.7 85.7 186.3Z" fill="white"/>
<path d="M225.4 234.4C223.9 230.9 224 226.4 224.2 221.6C224.3 218.6 224.4 215.6 224.1 212.7C217.3 218.1 214.2 224 214.6 230.7C217.3 231.3 221.8 232.4 225.4 234.4Z" fill="white"/>
<path d="M119.6 266.6C119.7 266.1 119.7 265.6 119.8 265.1C120.3 262.6 121.1 260.7 122.2 259.8C122.3 259.7 122.3 259.6 122.4 259.5C121.5 256.8 117.3 256.4 114.8 256.4C107 256.4 96.8 259.8 95.3 262.9H95.7L95.3 263.7C92.5 269.2 104.6 284.4 115 290.6C118.2 292.5 123.8 295.1 126.6 291.6C121.9 285.6 119.8 277.9 119.5 271.5C119.3 269.9 119.4 268.2 119.6 266.6Z" fill="white"/>
<path d="M21.3 151.7C21.3 149 19.1 146.9 16.5 146.9C13.9 146.9 11.7 149.1 11.7 151.7C11.7 154.3 13.9 156.5 16.5 156.5C19.1 156.5 21.3 154.4 21.3 151.7Z" fill="white"/>
<path d="M78.7 210.2C76.2 209.6 73.7 211.6 72.9 214.6C72.2 217.6 73.6 220.6 76 221.2C78.5 221.8 81 219.8 81.8 216.8C82.6 213.7 81.2 210.8 78.7 210.2ZM78.3 215.7C77.9 217.4 76.7 218.5 75.5 218.2C74.3 217.9 73.7 216.4 74.1 214.7C74.5 213 75.7 211.9 76.9 212.2C78.1 212.5 78.7 214 78.3 215.7Z" fill="white"/>
<path d="M227.6 237.5C227.3 237.2 227 236.9 226.7 236.5C223.2 233.9 217.9 232.5 214.7 231.8L214 231.6C212.2 231.2 209.9 230.6 207.4 230C194.6 227 173.3 221.9 159.6 217.7L159.5 217.6C154.1 214.5 155.1 208.7 155.7 204.8C155.9 203.4 156.2 201.7 155.8 201.5C154.6 200.7 145.9 207.3 142.7 209.8L142.4 210L142.1 209.9C132.4 205.6 125.8 201.8 113.9 194.8C107.9 191.2 100.9 188.3 93.2 186.3C94.1 186.9 94.6 187.5 94.5 188.2C94.2 189.5 91.6 189.6 89.3 189C87 188.4 84.7 187.2 85 185.9C85.1 185.4 85.7 185 86.5 184.9C68.9 181.9 48.8 184.2 30.9 195.3L30.6 195.5C17.5 202.9 15.7 213.7 15.8 219.5C15.9 227.8 20 235.9 25.5 238.8C33 243.7 57.6 250.1 74.6 245.8C82 243.9 87.3 240.2 90.1 234.8C90.3 234.5 90.7 234.3 91 234.5C91.3 234.7 91.5 235.1 91.3 235.4L91.2 235.5C98.1 236.8 172.9 250.5 202.6 243.3C207 242.2 212.7 242.7 215.2 242.9C215.6 242.9 215.9 243 216.1 243C216.2 242.9 216.4 242.9 216.5 242.8L216.9 242.6L217.2 243C228.2 257.1 237 263.2 247.2 270.4C249.4 271.9 251.6 273.5 253.9 275.1C251.4 271.7 248.7 268.4 246 265.1C238.9 256.6 231.5 247.5 227.6 237.5ZM82.9 217C82 220.6 78.8 223 75.8 222.2C72.8 221.5 71 217.9 71.9 214.3C72.8 210.7 76 208.3 79 209.1C82 209.8 83.8 213.4 82.9 217Z" fill="white"/>
<path d="M253.6 253.3C253 253.3 252.5 253.4 251.9 253.8C251.2 254.2 250.6 254.9 250.4 255.8C250.2 256.6 250.3 257.5 250.7 258.2C251.1 258.9 251.8 259.4 252.7 259.6C253.5 259.8 254.4 259.7 255.1 259.2C256.6 258.3 257.1 256.3 256.3 254.8C255.8 253.8 254.7 253.3 253.6 253.3Z" fill="white"/>
<path d="M202.8 244.3C172.6 251.6 96.1 237.4 90.9 236.4C90.9 236.5 90.8 236.5 90.8 236.6C91.1 238.1 91.5 238.7 92.6 239.5C92.8 239.6 92.8 239.8 92.7 240C92.6 240.1 92.5 240.2 92.3 240.1H92.2C91 239.3 90.5 238.6 90.2 237.5C89.5 238.5 88.8 239.5 87.9 240.4C88.2 242.2 88.5 242.8 89.5 243.5C89.7 243.6 89.7 243.8 89.6 244C89.5 244.1 89.4 244.2 89.2 244.1H89.1C88 243.4 87.6 242.7 87.3 241C86.4 241.9 85.4 242.7 84.3 243.4C84.6 245 85.5 246 86.9 247C87.1 247.1 87.1 247.3 87 247.5C86.9 247.6 86.8 247.7 86.6 247.6C86.6 247.6 86.5 247.6 86.5 247.5C85.1 246.5 84.1 245.5 83.7 243.8C82.9 244.3 82 244.8 81.1 245.2C81.1 245.3 81.2 245.3 81.2 245.4C81.2 247.5 82.4 249.2 84.4 250.3C84.6 250.4 84.6 250.6 84.5 250.8C84.4 250.9 84.3 251 84.1 251H84C81.8 249.9 80.6 248 80.5 245.7C79.2 246.3 77.8 246.8 76.4 247.2V247.3C76.5 249.5 77.6 251.5 79.4 253C79.5 253.1 79.6 253.3 79.4 253.5C79.3 253.6 79.2 253.6 79.1 253.6C79 253.6 79 253.6 79 253.5C77 251.8 75.9 249.8 75.8 247.3C75.5 247.4 75.3 247.5 75 247.5C74.2 247.7 73.3 247.9 72.4 248.1C72.4 248.2 72.5 248.3 72.4 248.4C71.9 250.1 72.7 252 75 254.6C75.1 254.7 75.1 255 75 255.1C74.9 255.2 74.8 255.2 74.7 255.2C74.6 255.2 74.6 255.1 74.5 255.1C72.1 252.3 71.3 250.2 71.8 248.3C70.2 248.6 68.5 248.8 66.7 248.9C66.6 251.8 67.1 253.4 69.1 255.9C69.2 256 69.2 256.3 69 256.4C68.9 256.5 68.8 256.5 68.7 256.5C68.6 256.5 68.6 256.4 68.5 256.4C66.4 253.8 65.8 252 65.9 249C64.4 249.1 62.9 249.1 61.3 249.1C60.8 252.1 61.3 254 63.3 256.2C63.4 256.3 63.4 256.6 63.3 256.7C63.2 256.8 63.1 256.8 63 256.8C62.9 256.8 62.9 256.8 62.8 256.7C60.7 254.4 60 252.3 60.6 249.1C59 249.1 57.3 249 55.6 248.9C55.4 250.4 55.3 253.5 57.7 256C57.8 256.1 57.8 256.4 57.7 256.5C57.6 256.6 57.5 256.6 57.4 256.6C57.3 256.6 57.3 256.6 57.2 256.5C54.6 253.8 54.7 250.5 54.9 248.9C53.4 248.8 51.8 248.6 50.3 248.4C50.3 248.6 50.3 248.7 50.3 248.9C50.2 250.8 50 253.2 52.9 256.2C53 256.3 53 256.6 52.9 256.7C52.8 256.8 52.7 256.8 52.6 256.8C52.5 256.8 52.5 256.8 52.4 256.7C49.2 253.5 49.4 250.8 49.6 248.9C49.6 248.7 49.6 248.6 49.6 248.4C48.3 248.2 47 248 45.7 247.8C45.5 247.8 45.2 247.7 45 247.7C45 248 45 248.2 45 248.5C44.9 250.6 44.9 253.3 47.2 255.4C47.3 255.5 47.4 255.7 47.2 255.9C47.1 256 47 256 46.9 256C46.8 256 46.8 256 46.7 255.9C44.2 253.6 44.3 250.6 44.3 248.5C44.3 248.2 44.3 247.9 44.3 247.6C44.3 247.6 44.3 247.6 44.3 247.5C43.1 247.3 41.9 247 40.8 246.7C40.4 246.6 39.9 246.5 39.5 246.4C39.5 246.4 39.5 246.4 39.5 246.5C38.9 249 39.4 251.7 41 253.9C41.1 254.1 41.1 254.3 40.9 254.4C40.8 254.5 40.7 254.5 40.6 254.5C40.5 254.5 40.5 254.4 40.4 254.4C38.7 252.1 38.1 249.2 38.8 246.4V246.3C37.1 245.9 35.5 245.4 34 244.9C33.7 246.8 33.8 250.3 35.4 252.6C35.5 252.8 35.5 253 35.3 253.1C35.2 253.2 35.1 253.2 35 253.2C34.9 253.2 34.8 253.1 34.8 253.1C33 250.5 33 246.9 33.3 244.8C31.7 244.3 30.2 243.7 28.9 243.1C28.5 245 28.7 247.8 29.9 249.5C30 249.7 30 249.9 29.8 250C29.7 250.1 29.6 250.1 29.5 250C29.4 250 29.3 249.9 29.3 249.9C28 248 27.7 244.9 28.2 242.8C26.7 242.1 25.4 241.4 24.3 240.7C24.3 240.7 24.2 240.7 24.2 240.6C23.7 242.6 23.8 244.2 24.3 245.4C24.4 245.6 24.3 245.8 24.1 245.9C24 245.9 23.9 245.9 23.9 245.9C23.8 245.9 23.7 245.8 23.7 245.7C23 244.4 23 242.6 23.5 240.5C21.9 240.5 20.7 240.7 20 241.1C19.8 241.3 19.6 241.5 19.4 241.8C19.3 242 19.2 242.2 19.2 242.4C19 244 20.6 246.6 22 249L22.3 249.5C26 255.3 41.8 260.3 63.3 262.6C72.5 263.6 82 264 91.2 263.8C92.5 263.7 93.5 263.7 94.3 263.6C95.8 259.9 107 256.4 114.5 256.5C119.1 256.5 121.9 257.7 122.7 260C124.9 259.9 127.1 259.9 129.2 259.8C130.1 259.7 131.1 259.7 132 259.6C152.7 258.2 173.9 256.8 193.1 252.1C195.6 251.4 197.9 250.8 199.9 250.1C201.1 249.8 202.2 249.4 203.3 249.1C206.4 248.1 209.5 246.9 212.4 245.6C213 245.3 213.7 245 214.2 244.7C212 243.7 206.8 243.4 202.8 244.3Z" fill="white"/>
<path d="M130.5 260.2C129.5 260.2 128.5 260.3 127.6 260.3C127.5 260.3 127.3 260.3 127.2 260.3C125.9 260.4 124.5 260.5 123.2 260.6C123.2 260.6 123.2 260.6 123.1 260.7C121.9 262.4 121.1 264.5 120.8 266.9C120.6 268.6 120.6 270.6 120.7 272.6C120.7 272.9 120.8 273.2 120.8 273.6C125.6 278.4 135.2 281.1 138.4 279.4C139.3 278.9 139.7 278.1 139.5 277C129.3 273.5 128.4 268.9 130.5 260.2Z" fill="white"/>
<path d="M238 103.4C238 105.2 239.4 106.6 241.2 106.6C242.9 106.6 244.4 105.2 244.4 103.4C244.4 101.6 243 100.2 241.2 100.2C239.4 100.2 238 101.6 238 103.4Z" fill="white"/>
<path d="M24.5 123.6C29.7 123.6 33.9 119.4 33.9 114.2C33.9 109 29.7 104.8 24.5 104.8C19.3 104.8 15.1 109 15.1 114.2C15.2 119.4 19.4 123.6 24.5 123.6Z" fill="white"/>
<path d="M216.4 72.3999C211.5 72.3999 207.5 76.4999 207.5 81.3999C207.5 86.2999 211.5 90.3999 216.4 90.3999C221.3 90.3999 225.3 86.2999 225.3 81.3999C225.3 76.4999 221.3 72.3999 216.4 72.3999Z" fill="white"/>
<path d="M251.8 72.3001C251.8 74.1001 253.2 75.5001 255 75.5001C256.8 75.5001 258.2 74.1001 258.2 72.3001C258.2 70.5001 256.8 69.1001 255 69.1001C253.2 69.1001 251.8 70.5001 251.8 72.3001Z" fill="white"/>
<path d="M83.7 17.7999C83.7 18.2999 85.4 19.0999 87.9 18.9999C90.5 18.8999 92.1 18.0999 92.1 17.5999C92.1 17.0999 90.4 16.2999 87.9 16.3999C85.3 16.4999 83.7 17.2999 83.7 17.7999Z" fill="white"/>
<path d="M35.4 185.5C38.8794 185.5 41.7 182.679 41.7 179.2C41.7 175.721 38.8794 172.9 35.4 172.9C31.9206 172.9 29.1 175.721 29.1 179.2C29.1 182.679 31.9206 185.5 35.4 185.5Z" fill="white"/>
<path d="M83.4 54.1C85.9 54 87.9 51.5 87.8 48.3C87.7 45.2 85.6 42.7 83.1 42.8C80.6 42.9 78.6 45.4 78.7 48.6C78.8 51.6 80.9 54.1 83.4 54.1ZM81.9 45.2C83.1 45.2 84.1 46.5 84.1 48.2C84.1 49.9 83.2 51.3 82 51.3C80.8 51.3 79.8 50 79.8 48.3C79.8 46.6 80.7 45.2 81.9 45.2Z" fill="white"/>
<path d="M39.3 84.2999C47.8 87.0999 73.2 86.9999 88.5 78.3999C95.2 74.5999 99.3 69.6999 100.6 63.7999C100.7 63.3999 101.1 63.1999 101.4 63.2999C101.8 63.3999 102 63.7999 101.9 64.0999V64.1999C108.9 63.6999 184.7 57.4999 211.5 42.8999C215.4 40.6999 221.1 39.6999 223.5 39.2999C223.9 39.1999 224.2 39.1999 224.4 39.0999C224.5 38.9999 224.6 38.8999 224.8 38.7999L225.1 38.4999L225.5 38.7999C239.8 49.5999 249.9 53.1999 261.6 57.3999C264.1 58.2999 266.6 59.1999 269.3 60.1999C266 57.5999 262.5 55.0999 259.1 52.5999C249.9 45.8999 240.4 38.9999 234.1 30.3999C233.7 30.1999 233.3 29.9999 233 29.6999C229 28.0999 223.4 28.1999 220.2 28.2999H219.4C217.5 28.3999 215.2 28.3999 212.6 28.4999C199.5 28.8999 177.6 29.5999 163.3 29.0999H163.2C157.2 27.4999 156.6 21.5999 156.2 17.7999C156.1 16.3999 155.9 14.6999 155.5 14.5999C154.1 14.1999 147.5 22.7999 145 25.9999L144.8 26.2999L144.5 26.1999C134 24.5999 126.6 22.5999 113.4 18.8999C106.5 16.9999 99 15.9999 91.1 16.0999C92.1 16.3999 92.8 16.8999 92.8 17.5999C92.8 18.8999 90.3 19.6999 88 19.6999C85.6 19.7999 83.1 19.0999 83.1 17.7999C83.1 17.1999 83.5 16.7999 84.2 16.3999C66.4 18.1999 47.6 25.5999 33.2 40.9999L33 41.1999C22.3 51.7999 23.3 62.6999 24.9 68.1999C27.1 76.1999 33.2 82.9999 39.3 84.2999ZM83.1 41.6999C86.2 41.5999 88.9 44.5999 89 48.2999C89.1 51.9999 86.6 55.0999 83.5 55.1999C80.4 55.2999 77.7 52.2999 77.7 48.5999C77.5 44.7999 80 41.6999 83.1 41.6999Z" fill="white"/>
<path d="M38 131.4C34.6 131.4 31.8 134.2 31.8 137.6C31.8 141 34.6 143.8 38 143.8C41.4 143.8 44.2 141 44.2 137.6C44.2 134.2 41.4 131.4 38 131.4Z" fill="white"/>
<path d="M233.8 142.8C231.3 142.8 229.2 145.3 229.2 148.4C229.2 151.5 231.3 154 233.8 154C236.3 154 238.4 151.5 238.4 148.4C238.4 145.3 236.4 142.8 233.8 142.8ZM235.1 151.3C233.9 151.3 232.9 150 232.9 148.2C232.9 146.5 233.8 145.1 235.1 145.1C236.3 145.1 237.3 146.4 237.3 148.2C237.3 150 236.4 151.3 235.1 151.3Z" fill="white"/>
<path d="M137.3 86.6999C137.2 86.1999 137.2 85.6999 137.1 85.1999C136.9 82.5999 137.2 80.5999 138 79.4999C138 79.3999 138.1 79.2999 138.1 79.1999C136.5 76.8999 132.3 77.4999 129.9 78.1999C122.4 80.1999 113.4 86.1999 112.7 89.5999L113.1 89.4999L112.9 90.3999C111.6 96.3999 127.2 108 138.9 111.3C142.5 112.3 148.6 113.3 150.4 109.3C144.3 104.7 140.3 97.8999 138.4 91.6999C137.8 89.8999 137.5 88.1999 137.3 86.6999Z" fill="white"/>
<path d="M178.4 193.4C179 191.5 179.4 189.6 179.6 187.9C179.8 185.5 179.5 183.3 178.8 181.4C178.8 181.4 178.8 181.4 178.7 181.3C177.4 180.9 176.2 180.5 174.9 180.1C174.8 180.1 174.6 180 174.5 180C173.6 179.8 172.6 179.5 171.7 179.2C171.7 188.2 169.7 192.4 159.1 193.2C158.7 194.3 158.8 195.1 159.6 195.8C162.3 198.2 172.3 197.9 178 194.4C178.2 194 178.3 193.7 178.4 193.4Z" fill="white"/>
<path d="M187.8 179.2C185.4 178.6 181.2 178 179.7 180.4C179.7 180.5 179.8 180.6 179.8 180.7C180.6 181.8 181 183.8 180.9 186.4C180.9 186.9 180.8 187.4 180.8 187.9C180.7 189.5 180.3 191.1 179.8 192.9C178 199.1 174.2 206 168.2 210.8C170.1 214.8 176.2 213.6 179.7 212.5C191.2 208.9 206.6 197 205.2 191L205 190.1L205.4 190.2C204.5 186.8 195.4 181 187.8 179.2Z" fill="white"/>
<path d="M224.3 117.9C224.3 118.4 225.9 119.2 228.5 119.2C231.1 119.2 232.7 118.4 232.7 117.9C232.7 117.4 231.1 116.6 228.5 116.6C225.9 116.6 224.3 117.3 224.3 117.9Z" fill="white"/>
<path d="M96.9 130.5C98.9 124.1 97.2 117.6 91.9 110.8C90.9 113.6 90.3 116.5 89.7 119.4C88.7 124.1 87.8 128.5 85.5 131.5C89.5 130.5 94.2 130.5 96.9 130.5Z" fill="white"/>
<path d="M0 0V300H300V0H0ZM32.2 40.5C42.7 29.2 56.5 21.2 72.1 17.4C86 14.1 100.7 14.2 113.5 17.8C126.6 21.5 134 23.4 144.2 25C152.2 14.7 154.3 13 155.7 13.5C156.8 13.8 157 15.4 157.2 17.7C157.6 21.5 158.1 26.6 163.3 28.1C177.6 28.6 199.4 27.9 212.5 27.5C214.8 27.4 216.8 27.4 218.5 27.3C216.3 20.4 218.1 13.4 223.9 6L224.5 5.2L224.9 6.1C226.2 9.2 227 12.5 227.7 15.8C229 21.2 230.2 26.4 233.5 28.8C233.6 28.8 233.6 28.8 233.7 28.9C234 29.1 234.4 29.3 234.7 29.5L234.8 29.6L234.9 29.7C241.1 38.2 250.6 45.1 259.7 51.8C264.1 55 268.6 58.3 272.7 61.7L272.1 62.6C268.2 61 264.6 59.7 261.1 58.5C249.4 54.3 239.3 50.6 225.1 40C204.7 57.5 175.8 67.3 147.8 76.9C147.6 77 147.3 77.1 147.1 77.1C147.3 85.7 148.6 89.8 159.3 90.2H159.6L159.7 90.5C160.7 92.6 160 93.9 159.2 94.7C157.8 96 155.1 96.7 152 96.8C148.3 96.9 143.9 96.1 140.6 94.5C142.8 99.7 146.5 105 151.4 108.5L151.7 108.7L151.6 109.1C150.7 111.7 148.4 113.1 145 113.1C143.2 113.1 141.1 112.8 138.6 112.1C126.7 108.7 111.7 97.7 111.8 90.8C102.3 93.7 92.1 96 82.1 97.6C60 101.1 43.6 100.2 38.2 95.3L37.8 94.9C35.2 92.3 32.4 89.7 33.1 87.4C33.5 86.2 34.7 85.3 37 84.7C31.3 82.4 25.9 75.9 23.8 68.5C22.2 62.8 21.1 51.4 32.2 40.5ZM272.6 102.7C272.6 106 269.9 108.7 266.7 108.7C263.5 108.7 260.8 106 260.8 102.7C260.8 99.4 263.5 96.7 266.7 96.7C269.9 96.7 272.6 99.4 272.6 102.7ZM258.6 72.3C258.6 74.3 257 75.9 255 75.9C253 75.9 251.4 74.3 251.4 72.3C251.4 70.3 253 68.7 255 68.7C257 68.7 258.6 70.3 258.6 72.3ZM244.8 103.4C244.8 105.4 243.2 107 241.2 107C239.2 107 237.6 105.4 237.6 103.4C237.6 101.4 239.2 99.8 241.2 99.8C243.1 99.8 244.8 101.4 244.8 103.4ZM226.5 81.5C226.5 87.1 222 91.7 216.4 91.7C210.8 91.7 206.3 87.1 206.3 81.5C206.3 75.9 210.8 71.3 216.4 71.3C222 71.3 226.5 75.8 226.5 81.5ZM38 144.6C34.1 144.6 31 141.5 31 137.6C31 133.7 34.1 130.6 38 130.6C41.9 130.6 45 133.7 45 137.6C45 141.5 41.8 144.6 38 144.6ZM42.5 179.2C42.5 183.1 39.3 186.3 35.4 186.3C31.5 186.3 28.3 183.1 28.3 179.2C28.3 175.3 31.5 172.1 35.4 172.1C39.3 172.1 42.5 175.3 42.5 179.2ZM24.5 103.7C30.3 103.7 35.1 108.4 35.1 114.3C35.1 120.2 30.4 124.9 24.5 124.9C18.6 124.9 14 120.1 14 114.3C14 108.5 18.7 103.7 24.5 103.7ZM11 151.7C11 148.7 13.5 146.2 16.5 146.2C19.5 146.2 22 148.7 22 151.7C22 154.7 19.5 157.2 16.5 157.2C13.5 157.2 11 154.7 11 151.7ZM256.1 278.4C252.7 275.9 249.6 273.7 246.6 271.6C236.4 264.5 227.6 258.3 216.7 244.4C192.5 256 162 258 132.5 260C132.3 260 132 260 131.8 260C129.7 268.3 130 272.6 140.2 275.8L140.5 275.9L140.6 276.2C141.1 278.5 140 279.6 139 280.1C137.3 281 134.5 281 131.5 280.2C127.9 279.3 123.9 277.4 121.1 275C121.9 280.6 124.1 286.7 127.8 291.3L128.1 291.6L127.9 291.9C126.4 294.2 123.8 294.9 120.5 294.1C118.7 293.7 116.8 292.8 114.6 291.5C104 285.2 92.3 270.6 94.2 264C84.3 264.3 73.8 263.9 63.8 262.9C41.6 260.5 26 255.5 22 249.3L21.7 248.8C19.8 245.6 17.9 242.4 19.2 240.3C19.9 239.2 21.3 238.7 23.7 238.7C18.8 235 15.3 227.3 15.2 219.6C15.1 213.6 17 202.3 30.6 194.6C43.6 186.4 59 182.3 75.1 182.7C89.4 183.1 103.6 187 115 193.9C126.7 200.9 133.3 204.7 142.8 208.8C153.2 200.9 155.6 199.9 156.9 200.6C157.9 201.2 157.7 202.8 157.3 205C156.7 208.7 155.8 213.9 160.5 216.6C174.1 220.8 195.4 225.8 208.2 228.8C210.4 229.3 212.4 229.8 214.1 230.2C213.8 223 217.3 216.7 224.8 211L225.6 210.4L225.7 211.3C226.1 214.6 226 218 225.9 221.4C225.7 227 225.5 232.2 228.1 235.5C228.2 235.5 228.2 235.6 228.3 235.6C228.5 235.9 228.8 236.2 229.1 236.5L229.2 236.6V236.7C233 246.6 240.3 255.7 247.5 264.5C250.9 268.7 254.4 273.1 257.5 277.4L256.1 278.4ZM255.4 259.6C254.8 259.9 254.2 260.1 253.5 260.1C253.2 260.1 252.9 260.1 252.6 260C251.7 259.8 250.9 259.2 250.4 258.4C249.9 257.6 249.8 256.6 250 255.7C250.2 254.8 250.8 254 251.7 253.5C253.4 252.5 255.6 253 256.7 254.7C257.7 256.3 257.2 258.5 255.4 259.6ZM257.2 233.8C254.6 233.2 252.4 231.5 251 229.2C249.6 226.9 249.2 224.2 249.9 221.6C250.6 219 252.3 216.8 254.6 215.4C256.9 214 259.7 213.6 262.3 214.2C264.9 214.8 267.1 216.5 268.5 218.8C269.9 221.1 270.3 223.8 269.6 226.4C268.9 229 267.2 231.2 264.9 232.6C263.3 233.6 261.5 234.1 259.6 234.1C258.8 234.1 258 234 257.2 233.8ZM273.1 279.5C272.7 281 271.7 282.3 270.3 283.2C269.3 283.8 268.3 284.1 267.2 284.1C266.7 284.1 266.2 284 265.8 283.9C264.3 283.5 263 282.6 262.2 281.2C261.4 279.8 261.2 278.2 261.6 276.7C262 275.2 263 273.9 264.4 273C265.8 272.2 267.4 271.9 268.9 272.3C270.4 272.7 271.7 273.6 272.5 275C273.3 276.4 273.5 278 273.1 279.5ZM289.2 255.5C288.6 255.9 288 256 287.3 256C286.1 256 284.9 255.4 284.2 254.3C283.7 253.5 283.6 252.5 283.8 251.6C284 250.7 284.6 249.9 285.5 249.4C287.2 248.4 289.5 248.9 290.5 250.6C291.5 252.3 291 254.5 289.2 255.5ZM293.7 167.2C291.8 174.7 286.6 181.3 280.9 183.7C283.1 184.3 284.4 185.1 284.8 186.4C285.6 188.7 282.9 191.4 280.3 194.1L279.9 194.5C274.6 199.5 258.2 200.8 236 197.8C226 196.5 215.7 194.4 206.2 191.7C206.4 198.6 191.7 210 179.9 213.6C177.5 214.3 175.4 214.7 173.6 214.7C170.2 214.7 167.9 213.4 166.9 210.8L166.8 210.4L167.1 210.1C171.9 206.4 175.4 201.1 177.5 195.8C174.2 197.5 169.9 198.4 166.1 198.4C163 198.4 160.3 197.8 158.9 196.5C158.1 195.7 157.3 194.4 158.3 192.3L158.4 192H158.7C169.4 191.3 170.6 187.2 170.6 178.6C170.4 178.5 170.1 178.5 169.9 178.4C141.7 169.5 112.6 160.3 91.8 143.3C77.8 154.3 67.8 158.2 56.3 162.7C52.9 164 49.3 165.4 45.4 167.1L44.8 166.2C48.8 162.7 53.2 159.3 57.5 156C66.5 149.1 75.8 142 81.8 133.3L81.9 133.2L82 133.1C82.4 132.9 82.7 132.7 83 132.5C83.1 132.5 83.1 132.4 83.2 132.4C86.5 129.8 87.5 124.7 88.7 119.2C89.4 115.9 90.1 112.6 91.3 109.5L91.6 108.6L92.2 109.3C98.2 116.6 100.1 123.5 98.1 130.5C99.8 130.5 101.9 130.5 104.1 130.5C117.2 130.6 139 130.7 153.3 129.9C158.5 128.3 158.8 123.2 159.1 119.4C159.3 117.2 159.4 115.5 160.5 115.2C161.9 114.8 164 116.3 172.3 126.5C182.5 124.7 189.8 122.6 202.8 118.5C215.5 114.6 230.2 114.1 244.2 117.1C259.9 120.5 273.9 128.1 284.6 139.2C296.1 150 295.3 161.4 293.7 167.2Z" fill="white"/>
<path d="M278.7 189.7C278.6 189.8 278.5 189.8 278.4 189.8C278.3 189.8 278.2 189.8 278.2 189.7C278.1 189.6 278 189.4 278.2 189.2C279.1 188.2 279.5 186.6 279.5 184.5H279.4C278.3 184.9 276.8 185.3 275.2 185.6C275.2 187.7 274.2 190.7 272.5 192.2C272.4 192.3 272.3 192.3 272.3 192.3C272.2 192.3 272.1 192.3 272 192.2C271.9 192.1 271.9 191.8 272 191.7C273.6 190.3 274.5 187.7 274.5 185.7C273.1 185.9 271.5 186.1 269.8 186.3C269.6 188.4 268.7 192 266.4 194.1C266.3 194.2 266.3 194.2 266.2 194.2C266.1 194.2 266 194.2 265.9 194.1C265.8 194 265.8 193.7 265.9 193.6C268 191.7 268.9 188.4 269.1 186.4C267.5 186.5 265.8 186.6 264.1 186.6V186.7C264.1 189.5 262.8 192.2 260.6 194.1C260.5 194.2 260.5 194.2 260.4 194.2C260.3 194.2 260.2 194.2 260.1 194.1C260 194 260 193.7 260.1 193.6C262.1 191.9 263.3 189.4 263.3 186.8C263.3 186.8 263.3 186.8 263.3 186.7C262.9 186.7 262.4 186.7 262 186.7C260.8 186.7 259.6 186.7 258.4 186.6C258.4 186.6 258.4 186.6 258.4 186.7C258.3 187 258.3 187.2 258.2 187.5C257.7 189.6 257.1 192.5 254.1 194.1C254 194.1 254 194.1 253.9 194.1C253.8 194.1 253.7 194 253.6 193.9C253.5 193.7 253.6 193.5 253.7 193.4C256.4 191.9 257 189.3 257.4 187.2C257.5 186.9 257.5 186.7 257.6 186.4C257.4 186.4 257.1 186.4 256.9 186.4C255.6 186.3 254.3 186.2 253 186.1C253 186.3 252.9 186.4 252.9 186.6C252.6 188.5 252.2 191.1 248.3 193.5C248.2 193.5 248.2 193.6 248.1 193.6C248 193.6 247.9 193.5 247.8 193.4C247.7 193.2 247.8 193 247.9 192.9C251.5 190.7 251.9 188.4 252.2 186.5C252.2 186.3 252.3 186.2 252.3 186C250.7 185.8 249.2 185.6 247.7 185.4C247.5 187 246.8 190.3 243.6 192.3C243.5 192.3 243.5 192.4 243.4 192.4C243.3 192.4 243.2 192.3 243.1 192.2C243 192 243 191.8 243.2 191.7C246.1 189.9 246.8 186.8 246.9 185.3C245.2 185 243.6 184.7 242 184.4C241.8 187.6 240.7 189.6 238.1 191.3C238 191.3 238 191.4 237.9 191.4C237.8 191.4 237.7 191.3 237.6 191.2C237.5 191 237.5 190.8 237.7 190.7C240.1 189.1 241.1 187.4 241.3 184.3C239.8 183.9 238.3 183.5 236.8 183.1C236.2 186.1 235.2 187.7 232.5 189.7C232.4 189.7 232.4 189.8 232.3 189.8C232.2 189.8 232.1 189.8 232 189.7C231.9 189.5 231.9 189.3 232.1 189.2C234.6 187.3 235.6 185.8 236.1 182.9C234.4 182.4 232.8 181.8 231.3 181.1C231.4 183.1 230.1 184.9 227.1 187.1C227 187.1 227 187.2 226.9 187.2C226.8 187.2 226.7 187.2 226.6 187.1C226.5 186.9 226.5 186.7 226.7 186.6C229.5 184.6 230.7 182.9 230.7 181.2C230.7 181.1 230.7 181 230.8 180.9C230 180.5 229.2 180.1 228.4 179.7C228.1 179.6 227.9 179.4 227.7 179.3C227 181.6 225.4 183.4 223.1 184.5C223.1 184.5 223 184.5 222.9 184.5C222.8 184.5 222.6 184.4 222.6 184.3C222.5 184.1 222.6 183.9 222.8 183.8C224.9 182.7 226.4 181.1 227.1 179C227.1 179 227.1 178.9 227.2 178.9C225.9 178.1 224.7 177.3 223.6 176.5C223 178.7 221.3 180.3 218.9 180.9H218.8C218.6 180.9 218.5 180.8 218.5 180.6C218.5 180.4 218.6 180.2 218.8 180.2C221 179.7 222.5 178.2 223 176.2C223 176.1 223.1 176.1 223.1 176C222.3 175.4 221.6 174.7 220.9 174C220.1 175.6 218.9 176.3 217.3 176.9H217.2C217.1 176.9 216.9 176.8 216.9 176.7C216.8 176.5 216.9 176.3 217.1 176.2C218.7 175.6 219.7 174.9 220.4 173.3C219.5 172.3 218.7 171.3 218.1 170.3C217.4 171.8 216.8 172.4 215.6 172.8H215.5C215.4 172.8 215.2 172.7 215.2 172.6C215.1 172.4 215.2 172.2 215.4 172.2C216.5 171.8 217 171.2 217.7 169.6C217.1 168.5 216.6 167.4 216.1 166.3C215.5 167.3 214.9 167.9 213.6 168.4H213.5C213.4 168.4 213.2 168.3 213.2 168.2C213.1 168 213.2 167.8 213.4 167.8C214.7 167.3 215.2 166.9 215.9 165.4C215.9 165.3 215.9 165.3 215.8 165.2C210.5 164.9 132.8 160.6 105.2 146.4C101.5 144.5 96.4 143.6 93.8 143.2C94.3 143.6 94.8 144 95.4 144.5C98 146.4 100.7 148.3 103.4 150C104.4 150.6 105.5 151.2 106.5 151.8C108.4 152.9 110.4 154.1 112.7 155.3C130.2 164.4 150.5 170.8 170.3 177.1C171.2 177.4 172.1 177.7 173 177.9C175 178.5 177.1 179.1 179.2 179.6C180.5 177.6 183.6 177.1 188 178.2C195.4 179.9 205.4 186 206 189.9C206.7 190.1 207.7 190.5 208.9 190.8C217.8 193.1 227.2 195 236.3 196.2C257.8 199.1 274.2 197.9 279.2 193.2L279.6 192.8C281.5 190.9 283.6 188.7 283.9 187.1C283.9 186.9 283.9 186.7 283.8 186.5C283.7 186.2 283.6 185.9 283.4 185.7C282.8 185.1 281.7 184.6 280.1 184.3C280.1 186.8 279.6 188.5 278.7 189.7Z" fill="white"/>
<path d="M283.9 140.1L283.7 139.9C269 124.8 250 117.9 232.2 116.6C232.9 116.9 233.4 117.4 233.4 117.9C233.4 119.2 230.9 119.9 228.5 119.9C226.1 119.9 223.6 119.2 223.6 117.9C223.6 117.2 224.3 116.7 225.3 116.4C217.4 116.5 209.9 117.7 203.2 119.7C190 123.8 182.7 125.9 172.2 127.8L171.9 127.9L171.7 127.6C169.1 124.4 162.3 116 160.9 116.4C160.5 116.5 160.4 118.3 160.2 119.6C159.9 123.5 159.5 129.3 153.5 131.1H153.4C139.1 131.9 117.2 131.8 104.1 131.7C101.5 131.7 99.2 131.7 97.3 131.7H96.5C93.2 131.7 87.7 131.8 83.7 133.4C83.4 133.7 83 133.9 82.6 134.1C76.5 142.9 67.2 150 58.1 156.9C54.8 159.4 51.3 162.1 48.1 164.7C50.8 163.6 53.3 162.6 55.7 161.7C67.3 157.2 77.3 153.3 91.3 142.2L91.7 141.9L92 142.2C92.1 142.3 92.2 142.4 92.4 142.5C92.6 142.5 92.9 142.6 93.3 142.6C95.7 143 101.4 143.9 105.4 146C132.6 160 208.5 164.4 215.5 164.7V164.6C215.4 164.2 215.6 163.9 216 163.8C216.4 163.7 216.7 163.9 216.8 164.3C218.3 170.2 222.5 175 229.2 178.6C244.7 186.8 270.1 186.3 278.5 183.4C284.6 181.9 290.5 175 292.5 167C294.1 161.3 294.9 150.4 283.9 140.1ZM233.8 155.2C230.7 155.2 228.1 152.2 228.1 148.4C228.1 144.7 230.7 141.6 233.8 141.6C236.9 141.6 239.5 144.6 239.5 148.4C239.5 152.2 237 155.2 233.8 155.2Z" fill="white"/>
<path d="M266.7 97.3999C263.8 97.3999 261.5 99.7999 261.5 102.7C261.5 105.6 263.8 108 266.7 108C269.6 108 271.9 105.6 271.9 102.7C271.9 99.7999 269.6 97.3999 266.7 97.3999Z" fill="white"/>
<path d="M231.1 28.1C228.7 25.2 227.7 20.7 226.6 16.1C225.9 13.2 225.2 10.2 224.2 7.5C219 14.4 217.6 20.9 219.7 27.3C222.5 27.2 227.1 27.1 231.1 28.1Z" fill="white"/>
<path d="M268.6 273C268.2 272.9 267.8 272.8 267.3 272.8C266.3 272.8 265.4 273.1 264.6 273.6C263.4 274.3 262.5 275.5 262.2 276.8C261.8 278.2 262 279.6 262.8 280.8C263.5 282 264.7 282.8 266 283.2C267.4 283.5 268.8 283.3 270 282.6C271.2 281.9 272.1 280.7 272.4 279.4C272.8 278 272.6 276.6 271.8 275.4C271.2 274.2 270 273.3 268.6 273Z" fill="white"/>
<path d="M101.7 65C101.7 65.1 101.7 65.0999 101.6 65.1999C102.3 66.5999 102.8 67.1 104.1 67.5C104.3 67.6 104.4 67.8 104.3 67.9C104.3 68 104.1 68.0999 104 68.0999H103.9C102.6 67.5999 101.9 67.0999 101.3 66.0999C100.9 67.2999 100.4 68.4 99.8 69.5C100.5 71.1 101 71.7 102.2 72C102.4 72.1 102.5 72.3 102.4 72.4C102.4 72.5 102.2 72.5999 102.1 72.5999H102C100.8 72.1999 100.2 71.5999 99.5 70.0999C98.9 71.1999 98.1 72.1999 97.2 73.1999C97.9 74.6999 99 75.4 100.6 76C100.8 76.1 100.9 76.3 100.8 76.4C100.7 76.5 100.6 76.5999 100.5 76.5999H100.4C98.8 75.9999 97.6 75.2999 96.7 73.6999C96 74.3999 95.3 75.1 94.6 75.8L94.7 75.9C95.3 77.9 96.8 79.3 99 79.8C99.2 79.8 99.3 79.9999 99.3 80.1999C99.3 80.3999 99.1 80.5 99 80.5H98.9C96.5 80 94.8 78.5 94.1 76.3C93 77.2 91.8 78 90.5 78.8L90.6 78.9C91.3 81 92.8 82.5999 95 83.5999C95.2 83.6999 95.2 83.8999 95.2 84.0999C95.1 84.1999 95 84.3 94.9 84.3C94.8 84.3 94.8 84.3 94.7 84.3C92.4 83.2 90.8 81.4999 90 79.1999C89.8 79.2999 89.5 79.4999 89.3 79.5999C88.6 79.9999 87.8 80.4 86.9 80.8C87 80.9 87 80.9999 87 81.0999C87 82.7999 88.2 84.5 91.1 86.4C91.3 86.5 91.3 86.7 91.2 86.9C91.1 87 91 86.9999 90.9 87.0999C90.8 87.0999 90.8 87.1 90.7 87C87.6 84.9 86.3 83.0999 86.3 81.0999C84.8 81.7999 83.2 82.4 81.6 83C82.2 85.9 83.2 87.2999 85.8 89.1999C86 89.2999 86 89.4999 85.9 89.6999C85.8 89.7999 85.7 89.8 85.6 89.8C85.5 89.8 85.5 89.7999 85.4 89.6999C82.7 87.6999 81.7 86.1999 81 83.1999C79.6 83.6999 78.1 84.1 76.6 84.5C76.9 87.6 77.9 89.3 80.4 90.8C80.6 90.9 80.6 91.1 80.5 91.3C80.4 91.4 80.3 91.5 80.2 91.5C80.1 91.5 80.1 91.5 80 91.4C77.3 89.8 76.2 87.8999 75.9 84.5999C74.3 84.9999 72.7 85.3999 71 85.6999C71.2 87.1999 72 90.2 74.9 92C75.1 92.1 75.1 92.3 75 92.5C74.9 92.6 74.8 92.6999 74.7 92.6999C74.6 92.6999 74.6 92.6999 74.5 92.6999C71.3 90.7999 70.5 87.6 70.3 85.9C68.8 86.2 67.3 86.3999 65.7 86.5999C65.7 86.7999 65.8 86.8999 65.8 87.0999C66.2 88.9999 66.6 91.3 70.2 93.4C70.4 93.5 70.4 93.7 70.3 93.9C70.2 94 70.1 94.0999 70 94.0999C69.9 94.0999 69.9 94.0999 69.8 94.0999C65.9 91.7999 65.4 89.2 65 87.3C65 87.1 64.9 87 64.9 86.8C63.6 86.9 62.3 87.0999 61 87.1999C60.8 87.1999 60.5 87.1999 60.3 87.1999C60.4 87.3999 60.4 87.7 60.5 88C61 90.1 61.6 92.6999 64.4 94.0999C64.6 94.1999 64.6 94.3999 64.5 94.5999C64.4 94.6999 64.3 94.8 64.2 94.8C64.1 94.8 64.1 94.8 64 94.8C61 93.2 60.3 90.4 59.8 88.3C59.7 88 59.7 87.7 59.6 87.5C59.6 87.5 59.6 87.5 59.6 87.4C58.4 87.5 57.2 87.4999 56 87.5999C55.6 87.5999 55.1 87.5999 54.7 87.5999C54.7 87.5999 54.7 87.5999 54.7 87.6999C54.8 90.2999 56 92.8 58.1 94.5C58.2 94.6 58.3 94.8 58.2 95C58.1 95.1 58 95.0999 57.9 95.0999C57.8 95.0999 57.7 95.1 57.7 95C55.5 93.2 54.1 90.4999 54.1 87.6999V87.5999C52.4 87.5999 50.7 87.6 49.1 87.5C49.3 89.4 50.3 92.7999 52.4 94.5999C52.5 94.6999 52.6 94.8999 52.4 95.0999C52.3 95.1999 52.2 95.1999 52.1 95.1999C52 95.1999 51.9 95.1999 51.9 95.0999C49.5 93.0999 48.6 89.5 48.3 87.4C46.6 87.3 45 87.1 43.6 86.9C43.7 88.9 44.7 91.5 46.2 92.8C46.3 92.9 46.4 93.1 46.2 93.3C46.1 93.4 46 93.4 45.9 93.4C45.8 93.4 45.7 93.4 45.7 93.3C43.9 91.8 42.9 88.8999 42.8 86.6999C41.1 86.3999 39.7 86.0999 38.5 85.6999H38.4C38.4 87.7999 38.9 89.3 39.8 90.3C39.9 90.4 39.9 90.7 39.8 90.8C39.7 90.9 39.7 90.9 39.6 90.9C39.5 90.9 39.4 90.9 39.3 90.8C38.3 89.7 37.8 88 37.7 85.8C36.1 86.2 35 86.7 34.5 87.3C34.3 87.6 34.2 87.7999 34.1 88.0999C34 88.2999 34 88.4999 34 88.6999C34.3 90.2999 36.4 92.4 38.4 94.3L38.8 94.6999C43.9 99.2999 60.4 100.1 81.8 96.6999C90.9 95.2999 100.2 93.1999 109.1 90.5999C110.3 90.1999 111.3 89.7999 112 89.5999C112.5 85.6999 122.4 79.4 129.7 77.5C134.1 76.3 137.2 76.7999 138.5 78.6999C140.6 78.0999 142.7 77.4 144.7 76.8C145.6 76.5 146.5 76.2 147.4 75.9C167.1 69.2 187.2 62.2999 204.4 52.7999C206.7 51.4999 208.6 50.2999 210.5 49.0999C211.5 48.4999 212.6 47.8 213.6 47.2C216.3 45.4 219 43.5 221.5 41.5C222 41 222.5 40.6 223 40.2C220.4 40.7 215.2 41.7 211.6 43.7C184.6 58.5 107 64.6 101.7 65Z" fill="white"/>
<path d="M287.5 249.2C286.9 249.2 286.4 249.3 285.8 249.7C285.1 250.1 284.5 250.8 284.3 251.7C284.1 252.5 284.2 253.4 284.6 254.1C285.5 255.6 287.5 256.1 289 255.2C290.5 254.3 291 252.3 290.1 250.8C289.6 249.8 288.5 249.2 287.5 249.2Z" fill="white"/>
<path d="M143.3 78.5C143.2 78.5 143 78.6 142.9 78.6C141.6 79 140.4 79.5 139.1 79.9C139.1 79.9 139.1 79.9 139 80C138.3 81.9 138.1 84.1 138.3 86.6C138.5 88.3 139 90.2 139.7 92.1C139.8 92.4 139.9 92.7 140.1 93C146 96.4 155.9 96.5 158.6 94C159.3 93.3 159.5 92.5 159 91.4C148.4 90.9 146.3 86.7 146.1 77.7C145.1 77.9 144.2 78.2 143.3 78.5Z" fill="white"/>
<path d="M268.5 226.1C269.1 223.8 268.8 221.4 267.6 219.3C266.4 217.3 264.4 215.8 262.1 215.3C261.4 215.1 260.7 215 259.9 215C258.3 215 256.7 215.4 255.2 216.3C253.1 217.5 251.6 219.5 251 221.8C250.4 224.1 250.7 226.5 251.9 228.6C253.1 230.6 255.1 232.1 257.4 232.6C259.7 233.2 262.2 232.8 264.2 231.6C266.4 230.4 267.9 228.4 268.5 226.1Z" fill="white"/>
</g>
<defs>
<clipPath id="clip0_26_575">
<rect width="300" height="300" fill="white"/>
</clipPath>
</defs>
</svg>
