<svg width="300" height="300" viewBox="0 0 300 300" fill="none" xmlns="http://www.w3.org/2000/svg">
<g clip-path="url(#clip0_28_623)">
<path d="M107.4 157.8C107.7 157.9 108.1 157.9 108.4 158C108.7 158 108.9 158.1 109.2 158.2C110.2 158.4 111.2 158.6 112.1 158.9C113.2 159.2 114.2 159.5 115.1 159.9C115.2 159.9 115.2 160 115.3 160C115.6 160.1 115.8 160.4 115.7 160.7C115.7 160.8 115.7 160.8 115.6 160.9C115.4 161.3 115 161.5 114.7 161.3C114.5 161.2 114.2 161.1 114 161C113.8 160.9 113.5 160.8 113.3 160.7C113.2 160.7 113.1 160.6 113 160.6C113 160.6 113 160.6 112.9 160.6C112.6 160.5 112.3 160.4 112 160.3C111.6 160.2 111.1 160.1 110.7 159.9C110.2 159.8 109.6 159.6 109.1 159.5C109 159.5 108.8 159.4 108.7 159.4C108.8 159.5 108.9 159.6 109 159.7C109.5 160.3 109.9 160.8 110.3 161.2L110.4 161.3C110.6 161.6 110.8 161.8 111 162C111.6 162.7 111.9 163 111.9 163C111.9 163 111.9 163 112 163.1C112.3 163.5 112.6 163.8 112.9 164.1C114.2 165.6 115.6 166.9 117 168C117.8 168.6 118.5 169.1 119.3 169.6H119.4C119.4 169.5 119.5 169.5 119.5 169.4C120.3 167.7 122 166.2 124.3 165.4C125.4 165 126.7 164.7 128.1 164.7C128.3 164.7 128.5 164.7 128.7 164.7C129.6 164.7 130.5 164.8 131.4 165C135.2 165.8 138 168.2 138.3 171.2C142.3 169.9 146.3 167.9 150.2 165.6C149.1 165.6 148.1 165.6 147.1 165.8C146.9 165.8 146.7 165.8 146.5 165.6C146.4 165.5 146.3 165.3 146.3 165.2C146.2 164.8 146.5 164.4 146.9 164.4C147.5 164.3 148.1 164.3 148.7 164.2C149.9 164.1 151.1 164.2 152.4 164.2C152.8 164 153.2 163.7 153.6 163.4C153.9 163.2 154.1 163 154.4 162.9C155.7 162.1 157 161.2 158.2 160.4C158.8 160 159.4 159.6 160 159.2C159.1 159.4 158.1 159.6 157.2 159.9C155.7 160.3 154.2 160.8 152.7 161.5C152.6 161.5 152.5 161.6 152.4 161.6C152.1 161.6 151.9 161.4 151.7 161.2C151.5 160.8 151.7 160.4 152.1 160.2C153.1 159.8 154.2 159.4 155.2 159C156.5 158.6 157.8 158.2 159 158C160.3 157.7 161.6 157.5 162.8 157.3C165.9 155.1 168.9 153 171.6 150.8C172.5 150.1 173.4 149.4 174.3 148.7C174.5 148.6 174.6 148.4 174.8 148.3C175.3 147.9 175.9 147.5 176.4 147C217.3 113.8 218.7 87.6 219.6 69.3C219.7 68.3 219.7 67.3 219.8 66.3C220.9 48.4 212.7 17.4 210.6 9.89995C194.2 17.5 171.3 40.4999 171.1 40.7999C170.7 41.1999 170.1 41.4 169.5 41.2C153.6 35.7 132.4 38.7999 132.1 38.7999C131.4 38.8999 130.8 38.5 130.5 37.9C122.3 19.2 107.2 11 103.5 9.19995C87 24.2 88.2 52.7 88.2 53C88.2 53.3 88.1 53.7 87.9 54C74.3 73.2 74.1 97.3 87.4 125.8C91.8 135.2 97 143.5 101.4 149.9C102.7 150.1 104 150.4 105.3 150.7C108 151.4 110.9 152.3 113.5 153.6C113.8 153.7 113.9 154 113.9 154.3C113.9 154.4 113.9 154.5 113.8 154.6C113.7 154.9 113.4 155 113.2 155C113.1 155 113 155 112.9 154.9C112.8 154.8 112.6 154.8 112.5 154.7C110.6 153.8 108.7 153.1 106.7 152.6C105.3 152.2 103.9 151.9 102.5 151.6C103.2 152.6 103.9 153.5 104.6 154.4C105.1 155.1 105.6 155.7 106 156.3C106.6 156.7 107 157.3 107.4 157.8ZM182.3 43.4C182.8 42.5 194.3 22.5 206.6 20C207.3 19.8 208.1 20.3 208.3 21C208.6 21.9 215.9 44 211.9 55C211.7 55.5 211.4 55.8 210.9 55.9C210.8 55.9 210.6 56 210.5 56C210.2 56 209.8 55.9 209.6 55.7C209.5 55.6 197.4 46.2999 183.6 45.5999C183.1 45.5999 182.6 45.2999 182.4 44.7999C182.1 44.3999 182.1 43.8 182.3 43.4ZM171.5 128.1C177.5 127.9 182.6 131.6 182.7 136.3V136.5C182.7 140.6 179 144.1 174 145C173.4 145.1 172.7 145.2 172 145.2C171.9 145.2 171.7 145.2 171.6 145.2C171 145.2 170.4 145.2 169.8 145.1C167.8 144.8 165.9 144.1 164.3 143C163.4 142.4 162.7 141.6 162.1 140.8C161.4 139.8 161 138.7 160.8 137.5C160.8 137.3 160.8 137.1 160.8 136.9C160.6 132.3 165.5 128.3 171.5 128.1ZM155.3 119.1C158.4 118.3 161.5 120.2 162.3 123.3C163.1 126.4 161.2 129.5 158.1 130.3C155 131.1 151.9 129.2 151.1 126.1C150.3 123 152.2 119.8 155.3 119.1ZM116.3 128.2C113.2 129 110.1 127.1 109.3 124C108.5 120.9 110.4 117.8 113.5 117C116.6 116.2 119.7 118.1 120.5 121.2C121.3 124.3 119.4 127.5 116.3 128.2ZM101.6 16.7C101.9 16 102.6 15.6 103.3 15.8C114.2 18.4 123.8 36.5 124.2 37.2C124.4 37.7 124.4 38.2 124.2 38.7C123.9 39.2 123.5 39.4 122.9 39.4C110.6 39.5 99.5 47.2 99.4 47.2C99.1 47.4 98.8 47.5 98.5 47.5C98.3 47.5 98.2 47.5 98 47.4C97.5 47.2 97.2 46.9 97 46.4C93.9 36.6 101.2 17.5 101.6 16.7ZM113.1 142.3C111.1 143.9 108.4 144.8 105.6 144.9C105.5 144.9 105.3 144.9 105.2 144.9C101.9 144.9 98.9 143.8 96.9 141.9C95.3 140.4 94.5 138.6 94.4 136.7C94.3 134.3 95.5 132.1 97.6 130.4C99.6 128.8 102.3 127.9 105.1 127.8C111.2 127.6 116.2 131.3 116.3 136C116.3 136.1 116.3 136.1 116.3 136.2C116.2 138.5 115.1 140.7 113.1 142.3Z" fill="white"/>
<path d="M79.4 146.2C76.1 140.5 69.5 139.7 69.4 139.7C68.8 139.6 68.4 139.2 68.2 138.7C68.1 138.1 68.3 137.6 68.8 137.3C77.1 132.4 78 125.4 78 122.7C68.9 122.3 63.3 130.9 63.2 131C62.8 131.6 62.1 131.8 61.5 131.5C60.9 131.2 60.6 130.5 60.8 129.9C64.7 117.7 59 109 57 106.5C47.8 111.6 50 126.8 50 127C50.1 127.7 49.7 128.3 49 128.5C48.3 128.7 47.7 128.3 47.4 127.7C40.1 107.7 29.2 106.8 26.1 107C24 120.3 37.1 133.1 37.2 133.2C37.7 133.7 37.7 134.4 37.3 135C36.9 135.5 36.1 135.7 35.5 135.3C27 129.7 17 133.4 13.5 135C20.9 145.5 33.5 145 34.3 144.9H34.4C35.1 144.9 35.8 145.4 35.8 146.1C35.9 146.8 35.3 147.5 34.6 147.5H34.5C22.3 148.3 20.1 156.3 19.8 158.9C29.9 164 38.3 155.8 38.4 155.8C38.7 155.5 39 155.4 39.3 155.4C39.6 155.4 39.9 155.5 40.1 155.7C40.6 156.1 40.8 156.9 40.4 157.4C38.1 161.2 38.6 166.4 39 168.8C50 166.6 53.5 156.2 54.4 152.7C54.6 152 54.6 151.6 54.6 151.6C54.7 150.9 55.4 150.4 56.1 150.5C57.2 150.6 58.2 150.7 59.2 150.8C71.3 151.5 77.4 147.7 79.4 146.2ZM55.8 148.8C55.1 149.3 54.2 150 53.4 150.9C50 154.5 46.1 160.6 46 160.6C45.9 160.8 45.7 160.9 45.5 160.9C45.4 160.9 45.3 160.9 45.2 160.8C44.9 160.6 44.8 160.3 45 160C45.2 159.7 49.1 153.6 52.6 150C53 149.6 53.4 149.2 53.7 148.9C53.3 148.9 52.8 148.9 52.4 149C44.6 149.7 35.4 153.7 35.3 153.7C35.2 153.7 35.1 153.7 35.1 153.7C34.9 153.7 34.7 153.6 34.6 153.3C34.5 153 34.6 152.7 34.9 152.5C35.4 152.3 45.1 148.1 53.2 147.6C53.4 147.6 53.6 147.6 53.8 147.6C53.7 147.5 53.6 147.4 53.4 147.4C47 143.4 31.2 139.2 31 139.1C30.7 139 30.5 138.7 30.6 138.4C30.7 138.1 31 137.9 31.3 138C32 138.2 46.5 142.1 53.4 146.1C47.7 137.2 36.3 121.4 36.1 121.3C35.9 121 36 120.7 36.2 120.5C36.5 120.3 36.8 120.4 37 120.6C37.1 120.8 49 137.2 54.6 146C54.3 141.4 53.7 131.4 54.4 126.1C54.4 125.8 54.8 125.5 55.1 125.6C55.4 125.6 55.7 125.9 55.6 126.3C54.9 131.6 55.6 142.2 55.9 146.5C57.7 143.6 61.7 137.4 65.8 134.1C66.1 133.9 66.4 133.9 66.6 134.2C66.8 134.5 66.8 134.8 66.5 135C62.6 138.3 58.6 144.4 56.8 147.3C59.6 146.3 65.3 144.6 71.5 145.2C71.8 145.2 72.1 145.5 72 145.8C72 146.1 71.8 146.3 71.4 146.3C65.4 145.7 59.7 147.4 57.1 148.4C56.4 148.6 55.8 148.8 55.8 148.8Z" fill="white"/>
<path d="M155.1 166.1C149.9 169.5 143.8 173 137.3 174.7C135.8 177.1 132.4 178.8 128.5 178.8C126.6 178.8 124.8 178.4 123.3 177.7C120.7 184 119.3 191.3 119.3 199.1C119.3 226.5 137 230.6 147.5 230.6C158 230.6 175.7 226.5 175.7 199.1C175.7 187 172.2 176.2 166.6 168.6C165.4 168.3 163.9 167.9 162.4 167.5C161.1 167.2 159.7 166.9 158.2 166.6C157.2 166.4 156.1 166.3 155.1 166.1Z" fill="white"/>
<path d="M162.1 163.6C161.6 163.2 161.2 162.8 160.7 162.5C160.3 162.8 159.9 163.1 159.5 163.3C158.8 163.7 158.2 164.2 157.5 164.6C157.3 164.7 157.2 164.8 157 164.9C158.3 165.1 159.6 165.3 160.9 165.6C162.4 165.9 163.8 166.2 165.1 166.6C164.7 166.2 164.4 165.8 164 165.4C163.3 164.7 162.7 164.1 162.1 163.6Z" fill="white"/>
<path d="M205.9 23.3C197.5 26 189.2 38.0001 186.2 42.9001C196.9 44.1001 205.9 49.6 209.6 52.1C211.5 43 207.3 27.8 205.9 23.3Z" fill="white"/>
<path d="M226.6 175.7C233.5 173.9 235.4 168 235.9 164.6C236.8 158.8 235 152.6 232.8 151.3C232.3 151 231.8 151 231.3 151.4C225.7 155.2 195 153 180.7 151.7C184.1 155.7 187.2 160.4 189.8 165.6C206.8 174.2 219.1 177.6 226.6 175.7Z" fill="white"/>
<path d="M105.4 130.4C105.3 130.4 105.2 130.4 105.1 130.4C102.8 130.5 100.7 131.2 99.1 132.4C97.7 133.5 96.9 135 96.9 136.5C96.9 137.7 97.5 138.9 98.5 139.9C100.1 141.4 102.7 142.3 105.3 142.2C107.6 142.1 109.7 141.4 111.3 140.2C112.7 139 113.5 137.6 113.5 136.1C113.5 132.9 109.9 130.4 105.4 130.4Z" fill="white"/>
<path d="M120.3 36.5001C117.7 32.0001 111 21.8001 103.8 19.1001C102.3 23.2001 98.2 35.8001 99.4 43.6001C103 41.5001 111 37.3001 120.3 36.5001Z" fill="white"/>
<path d="M254.1 173.9C221.1 185.3 209.3 206.5 202.2 219.2C200.4 222.3 198.9 225.1 197.4 227C197.1 227.5 196.7 227.9 196.3 228.4C193.9 236.9 190 243.8 184.5 249.2C184.3 249.4 184 249.6 183.8 249.9C183.9 250.6 184 251.3 184.1 252.1C214.3 257.8 246.6 244.4 272.9 214.7C292.1 193.1 286.5 162.6 284 152.7C281 157.6 273.1 167.3 254.1 173.9Z" fill="white"/>
<path d="M165.8 140.9C167.1 141.8 168.8 142.4 170.6 142.5C171 142.5 171.4 142.5 171.8 142.5C176.4 142.4 180 139.6 179.9 136.4C179.8 133.2 176.2 130.7 171.8 130.7C171.7 130.7 171.6 130.7 171.5 130.7C166.9 130.8 163.3 133.6 163.4 136.8C163.4 137.4 163.6 138.1 163.9 138.7C164.3 139.6 165 140.3 165.8 140.9Z" fill="white"/>
<path d="M181.7 254.3C181.6 253.5 181.5 252.8 181.4 252C180.7 252.6 179.9 253.2 179.1 253.7C173.8 257.4 167.5 259.8 160.4 261.1C157.6 272.6 155.6 284.2 156.8 287.3C157.2 288.4 158.8 289.4 161.2 290.1C169.3 292.5 184.3 291 187.4 288.8C188 288.3 188.4 287.8 188.4 287.1C188.6 284.6 185.6 281 184.5 279.9C184.3 279.7 184.1 279.3 184.1 279C184.2 274.8 182.8 263.4 181.7 254.3Z" fill="white"/>
<path d="M63.4 168.6C63.5 170.4 63.5 172.2 63.2 174.1C63.7 174.6 64.3 175 64.7 175C64.9 175 65.1 174.8 65.3 174.6C65.4 174 65.6 172 65.2 169.1C65.1 168.2 64.9 167.2 64.6 166.1C63.7 162.7 61.9 158.5 58.6 153.8C60.4 157 62.4 161.3 63.2 165.9C63.2 166.9 63.3 167.8 63.4 168.6Z" fill="white"/>
<path d="M0 0V300H300V0H0ZM274.9 216.4C258.6 234.8 240.5 247 221.1 252.6C213.4 254.8 205.6 255.9 197.9 255.9C193.4 255.9 188.9 255.5 184.5 254.7C185.6 263.3 186.8 273.8 186.8 278.3C188 279.6 191.4 283.6 191.1 287.2C191 288.7 190.2 289.9 189 290.8C186.4 292.6 179.2 293.9 172 293.9C167.9 293.9 163.7 293.5 160.6 292.6C157.3 291.6 155.3 290.2 154.5 288.2C152.9 284.2 155.2 271.9 157.7 261.4C155.1 261.7 152.4 261.9 149.6 261.9C143.6 261.9 138.1 261.2 133 259.7C129.9 270.1 125.6 282.2 122.2 285C121.2 285.8 119.9 286.2 118.2 286.2C117.2 286.2 116 286 114.7 285.7C105.8 283.5 93 274.4 90.9 269.9C90.3 268.5 90.3 267 90.9 265.7C92.4 262.5 97.3 260.7 99.1 260.2C101.1 256.9 105.8 250.5 110.4 244.4C103.6 235.2 100.1 222.6 100.1 207C100.1 198.3 101.2 189.9 103.2 182.2C93.6 188.8 82.6 194.8 74.1 194.8C73.6 194.8 73.2 194.8 72.8 194.7C66.4 194.2 61.7 190.2 59.4 183.5C57.3 177.4 57.9 170.1 60.7 167.2C60.1 162.9 58.3 158.9 56.6 155.8C54.8 161.1 50 170.1 38.5 171.6C38.4 171.6 38.4 171.6 38.3 171.6C37.7 171.6 37.2 171.2 37 170.6C36.9 170.3 35.7 165.3 36.8 160.4C32.7 162.8 25.7 165.2 18 160.8C17.6 160.6 17.3 160.1 17.3 159.6C17.3 159.5 17.7 150.6 26.8 146.6C21.7 145.3 15.3 142.3 10.9 135.1C10.7 134.8 10.7 134.4 10.7 134.1C10.8 133.8 11 133.5 11.3 133.3C11.8 133 21.5 127.6 31.6 130.4C27.4 125 21.9 115.5 24 105.5C24.1 105 24.5 104.6 25 104.5C25.6 104.4 38.2 101.9 47.4 120.3C47.8 114.5 49.8 106.9 57 103.7C57.5 103.5 58.1 103.6 58.5 104C58.9 104.4 66.5 112.5 64.7 125.5C67.8 122.6 72.9 119.4 79.6 120.2C80.2 120.3 80.7 120.7 80.7 121.3C80.8 121.7 81.9 130.9 72.8 137.8C75.7 138.8 79.9 141 82.2 145.9C82.4 146.4 82.3 147 82 147.4C81.7 147.7 75.9 153.8 61.5 153.5C65 158.6 66.7 163.2 67.5 166.8C71.3 167 78.3 166 86.4 164.3C92.4 163.1 99.1 161.5 105.5 159.9L105.4 159.8C105.1 159.5 104.9 159.1 104.6 158.8C97.2 157.9 89.9 158.3 89.8 158.3C89.7 158.3 89.7 158.3 89.6 158.3C89.3 158.2 89.1 158 89.1 157.8V157.7C89.1 157.3 89.4 157 89.8 156.9C90.2 156.9 96.5 156.5 103.4 157.2C102.9 156.6 102.4 155.9 101.9 155.2C101.5 154.7 101.1 154.1 100.7 153.5C100.1 152.7 99.5 151.8 98.9 150.9C92.5 150.2 87.6 150.7 87.5 150.8C87 150.9 86.7 150.6 86.7 150.2C86.7 149.8 86.9 149.4 87.3 149.4C87.6 149.4 92 148.9 97.7 149.4C93.5 143.2 88.9 135.6 84.9 127.1C78.9 114.2 75.5 101.9 74.9 90.5C74 76.3 77.6 63.6 85.2 52.6C85.1 48.3 84.9 21.1 102.3 6.4C102.7 6 103.3 5.9 103.8 6.2C104.6 6.5 122.8 14.2 132.7 35.8C137.3 35.2 155 33.5 169.5 38.2C173.6 34.1 195.2 13.2 210.9 6.7C211.3 6.5 211.7 6.5 212.1 6.7C212.5 6.9 212.8 7.2 212.9 7.6C213.4 9.2 223.9 45.8 222.7 66.7C222.6 67.7 222.6 68.7 222.5 69.7C221.9 80.5 221.2 94 212.5 110.4C205.5 123.6 194.4 136.3 179 148.9C198.7 150.7 225.4 152.1 229.7 149.2C231.1 148.2 232.7 148.2 234.1 149.1C237.5 151.2 239.4 158.5 238.4 165.1C237.3 172.1 233.3 176.8 227.1 178.4C225.6 178.8 223.9 179 222.1 179C213.1 179 201.4 174.4 191.5 169.6C196.2 180.5 198.9 193.4 198.9 207.1C198.9 212.3 198.5 217.1 197.8 221.6C198.4 220.5 199.1 219.3 199.8 218.1C207 205.1 219.2 183.4 253.1 171.6C277.8 163 282.9 148.9 283 148.7C283.2 148.2 283.7 147.8 284.3 147.8C284.9 147.8 285.4 148.2 285.6 148.7C285.7 149.1 289 159 289.4 172.3C289.7 184.4 287.5 202.1 274.9 216.4Z" fill="white"/>
<path d="M161.1 258.2C166 257.3 171.1 255.6 175.8 252.7C176.8 252.1 177.8 251.5 178.7 250.8C179.5 250.2 180.3 249.6 181 248.9C181.8 248.2 182.6 247.4 183.4 246.7C186.9 243.1 189.9 238.6 192.1 232.9C192.8 231.1 193.4 229.2 194 227.1C195.5 221.4 196.4 214.8 196.4 207C196.4 192.3 193.2 178.7 187.9 167.6C187.2 166.2 186.5 164.8 185.7 163.4C183.1 158.8 180.2 154.8 176.9 151.3C176.6 151.3 176.4 151.3 176.2 151.2C175.3 151.9 174.4 152.6 173.5 153.3C172.4 154.1 171.4 154.9 170.3 155.7C169.8 156.1 169.3 156.4 168.8 156.8C169.4 156.8 169.9 156.8 170.5 156.8C172 156.8 173.3 156.8 174.4 156.9C177 157 178.7 157.3 178.9 157.3C179.3 157.4 179.6 157.7 179.5 158.1C179.4 158.5 179.1 158.8 178.7 158.7C178.7 158.7 178.2 158.6 177.3 158.5C176.1 158.4 174 158.2 171.5 158.2C170 158.2 168.3 158.2 166.5 158.4C165.4 159.2 164.2 160 163.1 160.8C164.4 161.8 165.6 163 166.7 164.3C167.2 164.9 167.7 165.5 168.2 166.2C168.6 166.7 169 167.2 169.4 167.8C171.2 168.3 172.3 168.8 172.5 168.8C172.9 168.9 173.1 169.3 172.9 169.7C172.8 170 172.5 170.2 172.2 170.2C172.1 170.2 172 170.2 172 170.2C172 170.2 171.5 170 170.7 169.8C175.6 177.6 178.5 187.9 178.5 199.1C178.5 220.8 167.3 233.3 147.6 233.3C128 233.3 116.7 220.8 116.7 199.1C116.7 190.8 118.3 182.9 121.1 176.3C120.1 175.4 119.4 174.3 119.1 173.2C118.3 172.8 117.6 172.4 116.8 171.9C116 171.4 115.3 170.9 114.6 170.3C113.5 169.4 112.4 168.4 111.4 167.3C110.1 169.9 109 172.6 108 175.5C107.5 176.9 107 178.4 106.6 179.9C104.1 188.2 102.8 197.4 102.8 207.1C102.8 223.2 106.5 234.5 112 242.3C112.5 243.1 113.1 243.8 113.7 244.5C118.7 250.6 124.9 254.3 131.3 256.5C132.1 256.8 133 257.1 133.8 257.3C139.4 258.9 145 259.4 149.7 259.4C152.4 259.4 155.3 259.2 158.4 258.8C159.2 258.6 160.1 258.4 161.1 258.2Z" fill="white"/>
<path d="M109.5 165C109.2 164.6 108.3 163.7 107.2 162.3C94.5 165.5 76.5 169.6 67.9 169.4C68.3 173 67.8 175.2 67.8 175.4C67.8 175.5 67.7 175.7 67.6 175.8C66.7 177.3 65.5 177.6 64.7 177.6H64.6C62.6 177.6 61 175.7 60.7 175.3C60.6 177.6 61 180.2 61.8 182.6C62.9 185.9 65.8 191.4 72.9 192C80 192.6 90.5 187.9 104.3 178C105.7 173.4 107.4 169 109.5 165Z" fill="white"/>
<path d="M112 246.5C107.4 252.7 102.7 259.1 101 262C100.8 262.3 100.5 262.5 100.2 262.6C98.6 263 94.3 264.6 93.2 266.8C92.9 267.4 92.9 268.1 93.2 268.8C94.8 272.3 107 281.1 115.2 283.1C117.6 283.7 119.5 283.6 120.4 282.9C123.1 280.8 127 270 130.3 258.9C124.2 256.8 118.8 253.5 114.4 249.2C113.6 248.4 112.8 247.5 112 246.5Z" fill="white"/>
</g>
<defs>
<clipPath id="clip0_28_623">
<rect width="300" height="300" fill="white"/>
</clipPath>
</defs>
</svg>
