<?xml version="1.0" encoding="utf-8"?>
<!-- Generator: Adobe Illustrator 23.0.3, SVG Export Plug-In . SVG Version: 6.00 Build 0)  -->
<svg version="1.1" id="Слой_1" xmlns="http://www.w3.org/2000/svg" xmlns:xlink="http://www.w3.org/1999/xlink" x="0px" y="0px"
	 viewBox="0 0 300 300" style="enable-background:new 0 0 300 300;" xml:space="preserve">
<style type="text/css">
	.st0{fill:#231F20;}
	.st1{fill:#FFFFFF;}
</style> 
<g>
	<path class="st1" d="M70.1,214.9c-2.8-4.1-6.7-7.1-10.2-7.8c-0.5-0.1-0.9-0.1-1.4-0.1c-1.2,0-2.3,0.3-3.1,0.9
		c-3.8,2.6-3.3,10,1.1,16.5c2.3,3.4,5.3,6,8.3,7.2c0.1,0.1,0.3,0.1,0.4,0.1c2.3,0.9,4.4,0.8,6-0.3c0.6-0.4,1-0.9,1.4-1.5
		c0.1-0.1,0.2-0.3,0.3-0.5c0.6-1.1,0.8-2.5,0.8-4C73.7,222.2,72.4,218.4,70.1,214.9z M71.8,224.7c-0.2,0-0.4-0.1-0.5-0.4
		c-0.7-5.5-5.1-11.5-9.5-13.1c-1.8-0.6-3.3-0.5-4.5,0.4c-1.3,1.1-1.9,3.1-1.5,5.5c0.7,4.5,4.3,9.4,7.9,10.7c1.4,0.5,2.6,0.4,3.5-0.4
		c1-0.9,1.5-2.5,1.2-4.5c-0.6-3.6-3.4-7.4-6.2-8.3c-1-0.3-1.9-0.2-2.5,0.3c-0.8,0.7-1,1.9-0.8,3.4c0.5,2.6,2.6,5.4,4.6,5.9
		c0.6,0.2,1.2,0.1,1.6-0.3c0.5-0.5,0.7-1.3,0.4-2.3c-0.4-1.7-1.7-3.4-2.9-3.6c-0.3,0-0.5,0-0.7,0.2c-0.2,0.3-0.3,0.7-0.1,1.2
		s0.6,1,0.9,1.2c0,0,0,0,0-0.1c-0.2-0.1-0.3-0.3-0.2-0.6c0.1-0.2,0.3-0.3,0.5-0.2c0.3,0.1,0.5,0.5,0.5,0.9c0,0.3-0.2,0.7-0.5,0.8
		c-0.2,0.1-0.4,0.1-0.8-0.1c-0.6-0.3-1.1-1.1-1.3-1.7c-0.3-0.8-0.2-1.6,0.3-2.1c0.4-0.4,0.9-0.6,1.5-0.5c1.6,0.3,3.1,2.4,3.5,4.2
		c0.3,1.3,0,2.4-0.7,3.1c-0.6,0.6-1.5,0.7-2.4,0.5c-2.3-0.6-4.6-3.7-5.2-6.6c-0.3-1.8,0.1-3.3,1.1-4.2c0.8-0.8,2-0.9,3.4-0.5
		c3.1,1,6.2,5.1,6.8,9c0.3,2.3-0.2,4.2-1.4,5.2c-0.7,0.6-1.5,0.9-2.5,0.9c-0.6,0.6-1.2,0.5-1.8,0.2c-3.9-1.3-7.7-6.5-8.4-11.4
		c-0.4-2.8,0.3-5,1.8-6.3c1.4-1.1,3.2-1.3,5.3-0.6c4.7,1.7,9.3,8,10,13.7C72.2,224.4,72.1,224.6,71.8,224.7z"/>
	<path class="st1" d="M241.9,108.7c-0.6-1-1.6-1.7-3-2c-0.6-0.2-1.3-0.2-2-0.2c-2.4,0-5.1,0.8-7.7,2.3c-4.1,2.5-6.7,6.2-6.7,9.1
		c0,0.8,0.2,1.5,0.5,2.2c0.6,1,1.6,1.7,3,2c1.5,0.4,3.3,0.3,5.2-0.2c0.1,0,0.3-0.1,0.5-0.1c1.3-0.4,2.7-1,4-1.8
		c0.5-0.3,0.9-0.5,1.3-0.8c1.2-0.8,2.2-1.8,3-2.8C242.3,113.7,243.1,110.8,241.9,108.7z M239,113.6c-1.2,3-5.4,6-9.3,6.7
		c-0.2,0-0.3-0.1-0.3-0.2c0-0.1,0.1-0.3,0.2-0.3c3.7-0.6,7.7-3.5,8.8-6.3c0.4-1.1,0.3-2-0.2-2.7c-0.7-0.9-2.1-1.2-3.8-0.9
		c-3.1,0.5-6.4,2.9-7.2,5.2c-0.3,0.8-0.2,1.6,0.2,2.1c0.6,0.7,1.7,0.9,3.1,0.7c2.4-0.4,5-2.3,5.6-4.1c0.2-0.6,0.1-1.1-0.2-1.5
		c-0.4-0.5-1.3-0.7-2.3-0.5c-1.8,0.3-3.6,1.7-4,3c-0.1,0.4-0.1,0.7,0.2,0.9c0.3,0.3,0.9,0.4,1.6,0.2c1.1-0.3,2.3-1.2,2.4-1.9
		c0-0.1,0-0.3-0.1-0.4c-0.2-0.1-0.5-0.2-0.9,0c-0.4,0.1-0.8,0.4-0.8,0.6c0.1-0.1,0.1-0.1,0.3-0.1c0,0,0.1,0,0.2,0
		c0.1,0.1,0.2,0.2,0.2,0.4c-0.1,0.2-0.3,0.3-0.6,0.4c-0.2,0-0.4-0.1-0.5-0.3c0-0.1-0.1-0.3,0-0.5c0.2-0.4,0.7-0.7,1.1-0.9
		c0.6-0.2,1.1-0.1,1.4,0.1s0.4,0.5,0.3,0.9c-0.2,1-1.6,2-2.8,2.3c-0.9,0.2-1.7,0.1-2.1-0.4c-0.4-0.4-0.5-0.9-0.3-1.5
		c0.4-1.4,2.5-3,4.4-3.4c1.2-0.2,2.3,0,2.9,0.6c0.5,0.5,0.6,1.3,0.3,2.1c-0.7,1.9-3.4,4-6,4.4c-1.6,0.3-2.9,0-3.6-0.9
		c-0.6-0.7-0.7-1.6-0.3-2.6c0.9-2.5,4.4-5,7.6-5.5c1.9-0.3,3.5,0.1,4.3,1.1C239.4,111.2,239.5,112.4,239,113.6z"/>
	<path class="st1" d="M38.9,220.3c-3.9-3.8-8.8-6.2-12.7-6.1c-2,0-3.6,0.7-4.7,1.8c-3.5,3.7-1.4,11.5,4.7,17.5
		c3.9,3.8,8.8,6.2,12.7,6.1c0.8,0,1.5-0.1,2.2-0.3c1-0.3,1.9-0.8,2.6-1.5c1.1-1.1,1.6-2.7,1.6-4.4C45.4,229.5,43.1,224.4,38.9,220.3
		z M42.8,228.1c-0.2,0.1-0.5,0.1-0.6-0.2c-3.3-5.4-10.1-9.8-15-9.5c-1.7,0.1-3,0.8-3.7,2c-0.9,1.7-0.5,4.2,1.1,6.8
		c2.8,4.5,8.4,8,12.3,7.8c1.4-0.1,2.4-0.7,2.9-1.6c0.7-1.4,0.3-3.4-1-5.4c-2.2-3.5-6.7-6.3-9.7-6c-1,0.1-1.7,0.5-2.1,1.2
		c-0.5,1-0.2,2.5,0.8,4.1c1.7,2.5,5,4.5,7,4.3c0.6-0.1,1-0.4,1.3-0.8c0.3-0.7,0-1.7-0.7-2.8c-1.1-1.6-3.2-2.8-4.3-2.5
		c-0.2,0-0.4,0.2-0.5,0.4c-0.1,0.4,0.1,0.9,0.5,1.4c0.5,0.5,1.1,0.9,1.4,0.9v-0.1c-0.3,0-0.5-0.2-0.5-0.5c0-0.3,0.2-0.4,0.4-0.5
		c0.4,0,0.7,0.2,0.9,0.6c0.1,0.3,0.2,0.8-0.1,1c-0.1,0.1-0.3,0.3-0.7,0.3c-0.7,0-1.6-0.6-2.1-1.2c-0.7-0.8-0.9-1.6-0.7-2.3
		c0.2-0.5,0.6-0.9,1.1-1c1.7-0.4,4.1,1.2,5.3,2.9c0.9,1.3,1.2,2.7,0.8,3.7c-0.3,0.8-1,1.3-2,1.4c-2.6,0.3-6.2-2.1-7.9-4.7
		c-1.2-1.8-1.5-3.7-0.9-5c0.5-1,1.5-1.6,2.8-1.8c3.3-0.3,8.1,2.7,10.5,6.4c1.5,2.4,1.9,4.7,1,6.3c-0.6,1.3-1.9,2-3.6,2.1h-0.4
		c-4.2,0-9.9-3.7-12.7-8.2c-1.8-2.9-2.2-5.7-1.2-7.7c0.8-1.5,2.4-2.4,4.5-2.5c5.1-0.2,12.3,4.3,15.8,10
		C43.1,227.7,43.1,227.9,42.8,228.1z"/>
	<path class="st1" d="M271.3,104.1c-0.1-1.2-0.7-2.3-1.8-3.2c-1.8-1.6-4.9-2.5-8.1-2.5c-0.5,0-1,0-1.5,0.1c-6,0.5-10.6,3.8-10.3,7.4
		c0.1,1.2,0.7,2.3,1.8,3.2c0.9,0.8,2.1,1.4,3.4,1.8c1.8,0.5,4,0.8,6.2,0.6c1.1-0.1,2.1-0.3,3-0.5
		C268.5,109.8,271.6,107.1,271.3,104.1z M265.9,108c-1.5,1.1-3.8,1.6-6.3,1.6c-2.2,0-4.4-0.4-6.2-1.3c0.3-0.2,0.2-0.4,0.3-0.5
		c0.1-0.2,0.3-0.2,0.4-0.1c3.8,1.8,9.2,1.6,11.9-0.3c1-0.7,1.5-1.6,1.4-2.6c-0.1-1.2-1.2-2.4-3-3.2c-3.1-1.4-7.6-1.3-9.8,0.3
		c-0.8,0.6-1.2,1.3-1.1,2c0.1,1,1,1.9,2.4,2.6c2.5,1.1,6,1,7.6-0.3c0.6-0.4,0.8-1,0.8-1.5c-0.1-0.7-0.8-1.4-1.9-1.9
		c-1.8-0.8-4.4-0.7-5.5,0.3c-0.3,0.3-0.5,0.6-0.4,1c0.1,0.5,0.6,0.9,1.3,1.2c1.2,0.5,2.8,0.3,3.4-0.2c0.1-0.1,0.2-0.2,0.1-0.4
		c-0.1-0.2-0.4-0.5-0.8-0.6c-0.4-0.1-0.8-0.1-1,0c0.1,0,0.2,0.1,0.3,0.1c0.1,0.1,0.1,0.3-0.1,0.4c-0.2,0.1-0.5,0.1-0.8,0
		c-0.2-0.1-0.3-0.4-0.3-0.6c0-0.1,0.1-0.3,0.3-0.4c0.4-0.2,1.1-0.2,1.6-0.1c0.6,0.2,1.1,0.5,1.2,1c0.1,0.4,0,0.7-0.3,1
		c-0.8,0.8-2.7,0.9-4,0.4c-1-0.4-1.6-1-1.7-1.7c-0.1-0.6,0.1-1.1,0.6-1.5c1.3-1.1,4.1-1.2,6.1-0.3c1.3,0.6,2.1,1.4,2.2,2.4
		c0.1,0.8-0.3,1.5-1,2.1c-1.8,1.4-5.6,1.5-8.2,0.3c-1.6-0.7-2.6-1.8-2.8-3.1c-0.1-1,0.4-1.9,1.3-2.6c2.3-1.7,7.1-1.9,10.4-0.3
		c2,0.9,3.2,2.3,3.3,3.7C267.7,106.1,267.1,107.2,265.9,108z"/>
	<path class="st1" d="M276.5,132.6c-4.5,1.4-8.1,2.6-11.3,6.1c-3.4,3.7-5.9,9.9-10.5,11.8c-2.6,1.1-7.1,1-10.8-1.3
		c-3.9-3.2-4.6-7.1-4-10.4c0.4-2.5,1.7-5.2,3.1-7.8c-1.2-3.9-3.4-6.2-8.9-8.5c2.7-0.8,3.6-1.7,4.8-3.1c2,6,4.6,8.3,6.9,9.3
		c10.7,0.4,8.5-9.3,10.1-16.4c1.7,0.7,3.5,0.6,5.3,0.3c-2.4,3.6-5.2,4.7-3.8,17.2c5,5.7,10.1,1.6,13.1-1.8
		C271.8,130.3,273.7,131.6,276.5,132.6z"/>
	<path class="st1" d="M246.8,151.6c-23.9,25.2-47.1,41.5-68.8,12c4.1,6,10.7,15.1,17.8,16.5c2.5,5.9,1.1,18.2-0.1,23.1
		c-3.6,2.1-6.8,4.3-9.6,6.4c0.6-1.4,0.3-3.1,0-4.9c-0.1-0.9-0.3-1.9-0.3-2.7v-0.2c0-32.2-17.7-58.4-39.4-58.4
		c-21.7,0-39.4,26.2-39.4,58.4c0,1-0.1,2.1-0.3,3.2c-0.3,1.9-0.6,3.9,0,5.4c-3-2.8-6.3-5.6-9.9-8.3c-2.9-4.5-5.2-19.3-0.5-29.4
		c5.1-3.8,7.9-5.1,10.8-9.8c0,0-5.2,4.3-12.1,8.9c-4.6,3-9,4.7-13.4,4.5c-8.8-0.5-24.9-18.6-30.6-24.6c2.9,0,6.6-4.7,7-8.9
		c0,0,6.8,8.3,14.7,13c6.3,3.7,17.1,7.5,21.8,4.4c2.2-1.4,3.4-4.2,7.5-8.5c3.8-4,7.7-7.8,10.8-10.6c3-2.8,5.1-4.6,5.1-4.6
		c18.8,3.9,36.4,3.4,52.6,0c15.6,7.9,17.5,25.4,30.7,27.6c6.8,1.1,24.8-11.7,38-18.7C240.6,147.9,244.3,151.6,246.8,151.6z"/>
	<path class="st1" d="M49.9,105.2c-0.3-1.1-1.2-2-2.4-2.7c-1.3-0.7-2.9-1-4.8-1c-1.6,0-3.4,0.3-5.1,0.8c-5.7,1.8-9.5,6.1-8.5,9.5
		c0.3,1.1,1.2,2,2.4,2.7c1.1,0.6,2.5,0.9,4.1,1c1.8,0.1,3.8-0.2,5.8-0.8c0.8-0.2,1.5-0.5,2.2-0.8C48.1,111.8,50.8,108.2,49.9,105.2z
		 M46.1,108.6c-1,2.4-4.7,4.7-7.9,5.1H37c-1.5,0-2.8-0.5-3.4-1.4c-0.6-0.9-0.7-2-0.1-3.2c1.3-2.9,5.7-5.7,9.6-6
		c0.1,0,0.3,0.1,0.3,0.2c0,0.2-0.1,0.3-0.2,0.3c-3.7,0.4-7.9,3-9.2,5.7c-0.5,1-0.4,2,0.1,2.7c0.7,0.9,2,1.3,3.8,1.1
		c3.1-0.3,6.5-2.5,7.5-4.7c0.4-0.8,0.3-1.6-0.1-2.1c-0.5-0.7-1.6-1-3-0.9c-2.4,0.3-5.1,2-5.8,3.7c-0.2,0.6-0.2,1.1,0.1,1.5
		c0.4,0.5,1.3,0.7,2.3,0.6c1.8-0.2,3.7-1.5,4.2-2.7c0.1-0.4,0.1-0.7-0.1-1c-0.3-0.3-0.9-0.5-1.6-0.3c-1.1,0.2-2.3,1-2.5,1.7
		c0,0.1,0,0.3,0.1,0.4c0.2,0.2,0.5,0.2,0.9,0.1c0.3-0.1,0.6-0.3,0.8-0.4c0,0-0.1,0-0.1,0c0,0-0.1,0-0.1,0c-0.1-0.1-0.2-0.2-0.1-0.4
		c0.1-0.2,0.3-0.3,0.6-0.3c0.2,0,0.4,0.1,0.5,0.3c0,0.1,0,0.3-0.1,0.5c-0.2,0.4-0.8,0.7-1.2,0.8c-0.6,0.2-1.1,0.1-1.4-0.2
		c-0.2-0.2-0.3-0.6-0.2-0.9c0.3-1,1.7-1.9,3-2.1c0.9-0.2,1.7,0,2.1,0.5c0.3,0.4,0.4,0.9,0.2,1.5c-0.5,1.4-2.6,2.8-4.6,3.1
		c-1.3,0.2-2.3-0.1-2.8-0.8c-0.4-0.6-0.5-1.3-0.2-2.1c0.8-1.9,3.7-3.8,6.3-4.1c1.6-0.2,2.9,0.2,3.5,1.1
		C46.5,106.6,46.6,107.6,46.1,108.6z"/>
	<path class="st1" d="M25.5,111.9c-0.7-0.6-1.7-0.9-2.8-0.9h-0.6c-2.8,0.3-6,2.3-8.4,5.4c-3.8,4.7-4.7,10.4-2,12.7
		c0.9,0.7,2.1,1,3.4,0.9c1.9-0.2,4-1.2,5.9-2.8c0.1-0.1,0.3-0.3,0.4-0.4c0.7-0.6,1.5-1.4,2.1-2.2c0.2-0.1,0.3-0.3,0.4-0.4
		c0.6-0.8,1.2-1.7,1.6-2.5c1.1-2,1.6-4,1.6-5.8C27.1,114.2,26.6,112.8,25.5,111.9z M18.4,126.9c0,0-0.1,0.1-0.2,0.1
		c-0.1,0-0.2,0-0.2-0.1c-0.1-0.1-0.1-0.3,0.1-0.4c3-2.2,5.3-6.7,5-9.7c-0.1-1.1-0.6-1.9-1.4-2.3c-1-0.4-2.4-0.1-3.8,1
		c-2.5,1.9-4.4,5.5-4.1,8c0.1,0.9,0.5,1.5,1.1,1.8c0.8,0.3,1.9,0,3-0.8c2-1.5,3.4-4.4,3.1-6.2c-0.1-0.6-0.4-1.1-0.8-1.3
		c-0.6-0.2-1.5,0-2.3,0.7c-1.4,1.1-2.4,3.2-2.2,4.5c0.1,0.4,0.3,0.7,0.6,0.8c0.4,0.1,1,0,1.5-0.5c0.9-0.8,1.5-2.1,1.3-2.8
		c0-0.1-0.1-0.2-0.3-0.3c-0.2-0.1-0.5,0.1-0.8,0.4c-0.2,0.2-0.4,0.5-0.5,0.8c0-0.1,0.1-0.1,0.3-0.1c0.2,0,0.3,0.1,0.3,0.2
		c0,0.3-0.1,0.5-0.4,0.6c-0.2,0.1-0.4,0.1-0.6,0c-0.1-0.1-0.2-0.2-0.2-0.4c0-0.4,0.3-1,0.6-1.3c0.4-0.4,0.9-0.6,1.3-0.5
		c0.3,0.1,0.6,0.3,0.7,0.7c0.3,1-0.5,2.6-1.5,3.4c-0.7,0.6-1.5,0.8-2.1,0.6c-0.5-0.2-0.8-0.6-0.9-1.2c-0.3-1.5,0.8-3.8,2.4-5.1
		c1-0.8,2-1.1,2.8-0.8c0.6,0.3,1.1,0.9,1.2,1.7c0.3,2-1.2,5.1-3.3,6.8c-1.3,1-2.6,1.3-3.6,0.9c-0.8-0.3-1.3-1.1-1.5-2.2
		c-0.3-2.6,1.7-6.5,4.3-8.5c1.6-1.2,3.1-1.6,4.3-1c1,0.4,1.6,1.4,1.7,2.7C24,119.9,21.6,124.6,18.4,126.9z"/>
	<path class="st1" d="M55.2,130.5c2.5,1.9,4.4,12.5-1.7,18.9c-2.7,2.7-9.1,1-13.6-3.4c-4.4-4.1-5.6-10.2-6.4-13.1
		c-1.3-2.9-7.6-4.9-10.6-5.8c1.1-1.2,2.4-2.4,3.1-3.7l12.6,7.2c1.1-5,0-9-1.3-14c1.9,0,3.5-0.4,5-1c-0.3,4.4-0.9,7.6,1.4,11.9
		c2.3-1.7,4.6-2.3,6.7-0.2c4.2-2.8,6.5-5.6,9.2-9.1c0.8,1.5,1.4,3,2.4,4.5C59.2,124.5,56.6,126.4,55.2,130.5z"/>
	<path class="st1" d="M33.1,251.3c-1.3-2.4-3.3-5-6-7.3c-1.9-1.5-3.9-2.8-5.9-3.6c-2-0.8-4-1.3-5.8-1.3h-1c-1.9,0.2-3.4,0.9-4.4,2.2
		c-3.1,3.8-0.4,11.2,6,16.5c4.1,3.4,8.9,5.2,12.7,4.8c1.9-0.2,3.4-0.9,4.4-2.2C34.9,258.2,34.7,254.8,33.1,251.3z M31.5,252.3
		c0,0-0.1,0-0.1,0.1c-0.2,0-0.4,0-0.5-0.2c-3.3-5.4-10.1-9.8-15-9.5c-1.7,0.1-3.1,0.8-3.7,2c-0.9,1.7-0.5,4.2,1.1,6.8
		c2.8,4.5,8.4,8,12.3,7.8c1.4-0.1,2.4-0.7,2.9-1.6c0.7-1.4,0.3-3.4-1-5.4c-2.2-3.5-6.7-6.3-9.7-6c-1,0.1-1.7,0.5-2.1,1.2
		c-0.5,1-0.2,2.5,0.8,4.1c1.7,2.5,5,4.5,7,4.2c0.6-0.1,1-0.4,1.3-0.8c0.3-0.7,0-1.8-0.7-2.8c-1.1-1.6-3.2-2.8-4.3-2.5
		c-0.2,0-0.4,0.1-0.5,0.4c-0.1,0.4,0.1,0.9,0.5,1.4c0.5,0.5,1.1,0.9,1.4,0.9v-0.1c-0.3,0-0.5-0.2-0.5-0.5s0.2-0.4,0.5-0.5
		c0.4,0,0.7,0.2,0.9,0.6c0.1,0.3,0.2,0.8-0.1,1c-0.1,0.1-0.4,0.3-0.7,0.3c-0.7,0-1.6-0.6-2.1-1.2c-0.7-0.8-0.9-1.6-0.7-2.3
		c0.2-0.5,0.6-0.9,1.1-1c1.7-0.4,4.1,1.2,5.3,2.9c0.9,1.3,1.2,2.7,0.8,3.7c-0.3,0.8-1,1.3-2,1.4c-2.7,0.3-6.2-2.1-7.9-4.7
		c-1.2-1.8-1.5-3.7-0.9-5c0.5-1,1.5-1.6,2.8-1.8c3.3-0.3,8.1,2.7,10.5,6.4c1.5,2.4,1.9,4.7,1,6.3c-0.7,1.3-1.9,2-3.6,2.1h-0.4
		c-4.2,0-9.9-3.7-12.7-8.2c-1.8-2.9-2.2-5.7-1.2-7.7c0.8-1.5,2.4-2.4,4.5-2.5c4.6-0.2,10.9,3.4,14.6,8.3c0.4,0.5,0.8,1.1,1.2,1.7
		C31.8,251.9,31.8,252.2,31.5,252.3z"/>
	<path class="st1" d="M185,210.2c-7.8,5.8-13.8,13.6-17.4,22.5c-1.5,3.6-2.6,6.9-3.6,9.9c-3.7,10.8-5.9,17.4-16.5,17.4
		c-9.2,0-12.6-7.7-16.9-17.4c-1.1-2.5-2.2-5-3.5-7.6c-4.8-9.6-14.8-20.1-18.8-23.6c-1.6-1.3-1.2-3.8-0.8-6.3
		c0.1-1.1,0.3-2.3,0.3-3.3c0-31.7,17.3-57.6,38.6-57.6c21.3,0,38.6,25.7,38.8,57.4v0.2c0,0.9,0.2,2,0.4,3
		C186,207.1,186.4,209.2,185,210.2z"/>
	<path class="st1" d="M210.9,251.6c-6.8,6.4-10.8,13.3-15.5,21.1c0.5-4.2,1.4-12.4,1.3-12.7c-0.6-2.1-2.2-8.1,3.5-33.4
		c-3.9,11.2-5.4,22.4-5.4,33.6c-31.9,31.3-61.8,30.6-92.9-7.1c-1-9.8-4.8-17.8-8.8-26.5c-0.7-1.9-1.6-3.8-2.5-5.7
		c0.8,2,1.7,3.8,2.5,5.7c7.5,18,9.3,36.8,8.7,50.3c-3.2-10.1-10.5-22.5-16.5-31.4c-0.6-0.9,0.6-0.9,0.1-1.8
		c-3.5-8.7-8-19.1-9.2-27.7c-1.1-7.8,0.7-14.3,2.7-15.8c4.7-3.6,23.3,2.3,46.2,33c0.4,0.7,0.8,1.5,1.2,2.2c1.3,2.5,2.4,5,3.5,7.5
		c4.2,9.6,7.8,17.9,17.5,17.9c11.2,0,13.6-7.1,17.2-17.9c1-3,2.2-6.3,3.6-9.9c0.3-0.8,0.6-1.6,1-2.4c16.7-26.8,38.6-31.2,48-27.9
		C226.9,206.2,217.2,229.1,210.9,251.6z"/>
	<path class="st1" d="M272.3,219.3c-1.2-1.3-3-2-5.1-2H267c-4.2,0-9.3,2.5-13.4,6.6c-6.5,6.4-8.8,14.9-5.1,18.8
		c0.3,0.3,0.6,0.5,1,0.8c0.1,0,0.1,0.1,0.2,0.1c1.1,0.7,2.4,1,3.9,1h0.7c4.1-0.2,8.9-2.6,12.9-6.5c4.4-4.3,6.9-9.6,6.9-13.7
		C274.1,222.4,273.5,220.6,272.3,219.3z M271.1,228c-1,5.1-6.7,11.4-12.5,13.6c-1.5,0.6-2.9,0.9-4.2,0.9c-1.5,0-2.9-0.4-3.9-1.3
		c-1.6-1-2.1-3.3-1.5-6c1.3-6.2,8.2-13.7,15.1-16.3c0.3-0.1,0.6,0,0.7,0.3c0.1,0.3,0,0.6-0.3,0.7c-6.6,2.5-13.2,9.7-14.5,15.6
		c-0.5,2.3,0,4.2,1.2,5.3c1.5,1.3,4.1,1.3,7,0.2c5.5-2.1,10.9-8,11.8-12.9c0.4-1.8,0-3.3-1-4.2c-1.2-1-3.3-1-5.6-0.1
		c-4.3,1.8-8.5,6.4-9.2,10.1c-0.2,1.3,0,2.4,0.8,3c0.9,0.7,2.5,0.7,4.3,0c3.1-1.3,6.2-4.8,6.6-7.4c0.1-0.8-0.1-1.5-0.6-1.9
		c-0.6-0.5-1.7-0.4-2.9,0.2c-2,0.9-3.9,3.1-3.9,4.6c0,0.2,0,0.6,0.3,0.7c0.3,0.2,0.9,0.1,1.5-0.3c0.7-0.4,1.3-1.2,1.4-1.5
		c0,0,0,0-0.1,0.1c-0.1,0.3-0.4,0.5-0.6,0.4c-0.3-0.1-0.5-0.4-0.4-0.7c0.1-0.5,0.5-0.8,1-0.9c0.4,0,0.8,0.1,1,0.4
		c0.5,1.1-0.9,2.5-1.8,3c-1,0.6-1.9,0.7-2.6,0.3c-0.5-0.3-0.8-1-0.8-1.7c0.1-2.1,2.4-4.5,4.5-5.5c1.6-0.7,3-0.8,4-0.1
		c0.8,0.6,1.2,1.6,1,2.8c-0.4,3-3.7,6.7-7.2,8.2c-2.1,0.9-4.1,0.9-5.3-0.1c-1.1-0.9-1.5-2.3-1.2-4c0.7-4,5.2-9,9.8-10.9
		c2.7-1.1,5.2-1,6.7,0.2C271,223.9,271.5,225.8,271.1,228z"/>
	<path class="st1" d="M98.6,287.9c-7.8,10.5-26.1-0.7-39.6-9.3c-2.8-1.8-5.1-3.7-7.1-5.7c-7-6.9-11.9-11.7-17.5-12.8
		c1.1-2,0.5-4.1,0.2-6.1c9.2,5.2,15.1,5.3,21.4,6c-2.8-6.8-7.7-13.7-12.7-20.5c1.2-1.1,1.8-2,2.1-2.9c8.7,11.1,17.5,12.9,26.3,18.8
		c-1.1-7.5-2-14.9-4.6-22.4h1.1c1.4,0.1,2.5-0.2,3.6-0.7c3,7.5,6.9,10.1,12.4,12.8c1.5,3.7,4.8,7.7,7.2,12
		C98.2,268.5,103.6,281.2,98.6,287.9z"/>
	<path class="st1" d="M242.3,210.8c-0.9-0.7-2.1-1-3.3-1c-0.5,0-1,0-1.5,0.1c-3.8,0.7-8,3.9-11,8.3c-3.7,5.4-4.9,11.6-3.1,15.4
		c0.5,1.1,1.1,1.8,1.9,2.4c0.2,0.1,0.3,0.2,0.5,0.3c0.8,0.5,1.8,0.7,2.9,0.7c1,0,2.1-0.2,3.2-0.6c0.2-0.1,0.4-0.2,0.6-0.3
		c3.1-1.3,6.2-4.1,8.6-7.6C245.8,221.6,246.3,213.6,242.3,210.8z M242.7,221.3c-0.4,4.1-4.5,9.1-8.9,11c-1.1,0.5-2.3,0.7-3.3,0.7
		c-1.2,0-2.3-0.3-3.1-1c-1.7-1.1-2.3-2.9-2.1-5.1c0.5-5,5.5-11,10.8-13.2c0.2-0.1,0.5,0,0.6,0.2c0.1,0.2,0,0.5-0.2,0.5
		c-5.1,2-9.8,7.7-10.3,12.5c-0.2,1.9,0.3,3.5,1.5,4.3c1.3,1,3.4,1,5.6,0.1c4.2-1.7,8-6.4,8.4-10.3c0.1-1.5-0.3-2.7-1.2-3.4
		c-1.1-0.8-2.7-0.8-4.5-0.1c-3.3,1.4-6.3,5.1-6.5,8.1c-0.1,1.1,0.3,2,1,2.5c0.8,0.6,2,0.5,3.4,0c2.4-1.1,4.5-3.8,4.6-5.9
		c0-0.7-0.2-1.3-0.7-1.5c-0.5-0.4-1.4-0.3-2.3,0.1c-1.5,0.7-2.8,2.5-2.7,3.7c0,0.3,0.2,0.5,0.4,0.6c0.3,0.1,0.7,0.1,1.2-0.2
		c0.5-0.3,0.9-0.8,1-1.1c-0.1,0.2-0.3,0.3-0.5,0.3c-0.2,0-0.4-0.2-0.4-0.5c0.1-0.4,0.3-0.7,0.7-0.7c0.4-0.1,0.7,0.1,0.9,0.3
		c0.5,0.8-0.4,2-1.2,2.5c-0.7,0.5-1.5,0.5-2,0.3c-0.5-0.3-0.8-0.7-0.8-1.3c-0.1-1.7,1.6-3.7,3.2-4.5c1.2-0.6,2.3-0.6,3.1-0.1
		c0.7,0.5,1.1,1.3,1,2.3c-0.1,2.4-2.4,5.4-5.1,6.6c-1.6,0.7-3.2,0.7-4.2,0s-1.4-1.8-1.3-3.2c0.2-3.3,3.4-7.3,7-8.8
		c2.1-0.9,4-0.8,5.3,0.1C242.3,218,242.9,219.5,242.7,221.3z"/>
	<path class="st1" d="M109.5,26.2c-12.3,0-22.2,10.3-22.2,23s10,23,22.2,23c12.3,0,22.3-10.3,22.3-23S121.8,26.2,109.5,26.2z
		 M114.3,52.8c-1.2,2-2.7,3.1-4.3,3.1s-3.2-1.1-4.3-3.1c-1.2-2-1.8-4.7-1.8-7.5v-1.1l0.1-1.6l0.8,1.4c0.1,0.2,0.3,0.4,0.4,0.6
		c0.4,0.4,1,0.9,1.7,0.9c1.1,0,1.9-1,2.2-1.6c0.6-1,0.9-2.4,0.9-3.8c0-1.8-0.5-3.5-1.4-4.5l-0.5-0.6l0.7-0.2c0.3-0.1,0.7-0.1,1-0.1
		c0.8,0,1.6,0.3,2.3,0.8s1.4,1.3,2,2.3c1.2,2,1.8,4.7,1.8,7.5C116.1,48.1,115.5,50.8,114.3,52.8z"/>
	<path class="st1" d="M176.8,26.2c-12.3,0-22.2,10.3-22.2,23s10,23,22.2,23c12.3,0,22.3-10.3,22.3-23S189.1,26.2,176.8,26.2z
		 M181.6,52.8c-1.2,2-2.7,3.1-4.3,3.1c-1.6,0-3.2-1.1-4.3-3.1c-1.2-2-1.8-4.7-1.8-7.5v-1.1l0.1-1.6l0.8,1.4c0.1,0.2,0.3,0.4,0.4,0.6
		c0.4,0.4,1,0.9,1.7,0.9c1.1,0,1.9-1,2.2-1.6c0.6-1,0.9-2.4,0.9-3.8c0-1.8-0.5-3.5-1.4-4.5l-0.5-0.6l0.7-0.2c0.3-0.1,0.7-0.1,1-0.1
		c0.8,0,1.6,0.3,2.3,0.8s1.4,1.3,2,2.3c1.2,2,1.8,4.7,1.8,7.5C183.4,48.1,182.8,50.8,181.6,52.8z"/>
	<path class="st1" d="M72.1,113.6c-0.6-1.7-1.5-3.3-2.5-4.6s-2.1-2.3-3.3-2.9c-0.7-0.3-1.4-0.5-2.1-0.5c-0.4,0-0.8,0.1-1.2,0.2
		c-2.6,0.9-3.8,4.8-3,9.1c0.2,1,0.4,1.9,0.7,2.8c0.7,2,1.7,3.8,2.9,5.1c0.9,1.1,1.9,1.9,2.9,2.3c1.2,0.5,2.3,0.7,3.3,0.3
		C72.9,124.3,73.9,119,72.1,113.6z M71.9,118.9c-0.2,0-0.3-0.1-0.3-0.2c-0.6-3.8-3.4-7.9-6.1-9c-1-0.4-1.9-0.3-2.6,0.2
		c-0.9,0.7-1.2,2.1-1,3.9c0.5,3.1,2.8,6.5,5,7.4c0.8,0.3,1.5,0.2,2-0.2c0.7-0.6,1-1.7,0.7-3.1c-0.4-2.5-2.2-5.1-4-5.7
		c-0.6-0.2-1.1-0.2-1.5,0.2c-0.5,0.4-0.7,1.3-0.5,2.4c0.3,1.8,1.7,3.7,2.9,4.1c0.4,0.1,0.7,0.1,0.9-0.1c0.3-0.3,0.4-0.9,0.3-1.6
		c-0.3-1.1-1.1-2.3-1.8-2.5c-0.1,0-0.3,0-0.4,0.1c-0.2,0.2-0.2,0.5,0,0.9c0.1,0.4,0.4,0.8,0.6,0.8c-0.1-0.1-0.1-0.1-0.1-0.3
		c0,0,0-0.1,0-0.2c0.1-0.1,0.2-0.2,0.4-0.1c0.2,0.1,0.4,0.3,0.3,0.6c0,0.2-0.1,0.4-0.3,0.5c-0.1,0-0.3,0.1-0.5,0
		c-0.4-0.2-0.7-0.7-0.9-1.2c-0.2-0.6-0.1-1.1,0.2-1.4c0.2-0.2,0.5-0.3,0.9-0.3c1,0.2,2,1.7,2.3,2.9c0.2,0.9,0,1.7-0.4,2.2
		c-0.4,0.3-0.9,0.4-1.4,0.3c-1.6-0.5-3-2.7-3.3-4.5c-0.2-1.3,0-2.3,0.7-2.9c0.5-0.4,1.2-0.5,2-0.3c1.9,0.7,3.9,3.5,4.3,6.1
		c0.3,1.6-0.1,3-0.9,3.7c-0.4,0.3-0.9,0.5-1.4,0.5c-0.4,0-0.8-0.1-1.2-0.2c-2.4-0.9-4.9-4.5-5.4-7.8c-0.2-2.2,0.2-3.8,1.2-4.7
		c0.8-0.7,1.9-0.7,3.1-0.3c2.9,1.2,5.9,5.5,6.4,9.4C72.1,118.7,72,118.9,71.9,118.9z"/>
	<path class="st1" d="M268.2,269.5c0,0-7.6,8-20.7,15c-10.4,5.5-25.9,9.5-35.7,10c-5.7,0.3-9.5,0.1-12.9-3.6
		c-2.7-3-3.8-9.7-2.6-14.3c2.4-9.6,11.1-19.7,15.2-24.8c1.1-1.4,2.2-2.3,2.5-2.6c5.2-3.9,7.7-7.6,9.8-13.2c1.4,1.9,3.7,2.1,6.5,1.4
		c-6.2,6.4-8.1,11.1-3.7,20.2c12.4-0.7,17.7-7.1,20.4-15.6c1.2,2.3,4.4,3.2,5.8,3.6c-3.5,4.4-8.4,11.4-7.3,26.3
		c9.3-0.3,14.3-3.2,18.4-6.9C264.6,267.3,266.4,268.4,268.2,269.5z"/>
	<path class="st1" d="M281.6,120.2c-3.1-1.8-6.6-2.6-9.1-1.9c-1.3,0.3-2.2,1-2.7,1.9c-1,1.7-0.5,4.1,1.1,6.3c0.6,1,1.4,1.8,2.4,2.6
		c0.7,0.6,1.5,1.1,2.3,1.6c0.3,0.2,0.6,0.4,1,0.5c0.8,0.4,1.7,0.8,2.5,1c2,0.6,4,0.8,5.6,0.4c1.3-0.3,2.2-1,2.7-1.9
		C289.1,127.8,286.5,123.1,281.6,120.2z M285.2,129.2c-0.5,1-1.6,1.7-3,1.8h-0.4c-3.4,0-8.1-2.8-10.5-6.3c0.2-0.3,0.2-0.5,0.3-0.6
		c0.1-0.1,0.3-0.1,0.4,0.1c2.3,3.5,7,6.2,10.3,6c1.2-0.1,2.1-0.6,2.5-1.4c0.5-1.1,0.2-2.7-0.9-4.3c-1.9-2.9-5.8-5.1-8.5-4.9
		c-0.9,0.1-1.6,0.5-2,1.2c-0.4,0.9-0.2,2.2,0.8,3.5c1.6,2.3,4.6,4,6.7,3.8c0.7-0.1,1.2-0.4,1.4-0.9c0.3-0.7,0.1-1.6-0.6-2.6
		c-1.2-1.6-3.4-2.9-4.8-2.7c-0.4,0.1-0.7,0.3-0.9,0.6c-0.2,0.5,0,1.1,0.5,1.8c0.8,1,2.2,1.8,3,1.6c0.1,0,0.3-0.1,0.3-0.3
		c0.1-0.2-0.1-0.6-0.4-0.9c-0.2-0.2-0.6-0.5-0.9-0.6c0.1,0,0.2,0.1,0.2,0.3c0,0.2-0.1,0.3-0.3,0.3c-0.3,0-0.5-0.2-0.6-0.4
		c-0.1-0.2-0.1-0.5,0.1-0.6c0.1-0.1,0.2-0.2,0.5-0.2c0.5,0,1.1,0.4,1.4,0.8c0.5,0.5,0.6,1,0.5,1.5c-0.1,0.3-0.4,0.6-0.8,0.7
		c-1.1,0.3-2.8-0.7-3.6-1.8c-0.6-0.8-0.9-1.7-0.6-2.4c0.2-0.5,0.7-0.9,1.3-1c1.8-0.3,4.2,1.3,5.4,2.9c0.8,1.2,1.1,2.3,0.7,3.2
		c-0.3,0.7-1,1.1-1.9,1.2c-2.3,0.2-5.6-1.6-7.2-4c-1-1.5-1.3-3-0.8-4.1c0.4-0.9,1.3-1.4,2.5-1.5c2.9-0.2,7,2.1,9,5.2
		C285.5,126,285.9,127.8,285.2,129.2z"/>
	<path class="st1" d="M290.5,245.7c-1-1.2-2.6-2-4.7-2.2c-0.4,0-0.7-0.1-1.1-0.1c-3.9,0-8.6,2-12.5,5.2c-4.9,4.1-7.8,9.3-7.8,13.4
		c0,1.6,0.4,3.1,1.4,4.2c1,1.2,2.4,2,4.2,2.3c0.2,0,0.3,0,0.5,0.1c4,0.4,9.2-1.6,13.6-5.2C290.9,257.7,293.8,249.8,290.5,245.7z
		 M287.5,254.3c-0.9,4.5-5.9,10-10.9,11.9c-1.3,0.5-2.5,0.8-3.7,0.8c-0.5,0-0.9,0-1.3-0.1c-0.8-0.2-1.5-0.5-2.1-1
		c-1-0.9-1.5-2.1-1.6-3.7c0-0.6,0-1.2,0.2-1.8c1.2-5.4,7.2-12,13.2-14.3c0.2-0.1,0.5,0,0.6,0.3c0.1,0.2,0,0.5-0.3,0.6
		c-5.8,2.2-11.6,8.4-12.7,13.6c-0.1,0.7-0.2,1.3-0.2,1.8c0.1,1.2,0.5,2.2,1.3,2.8c0.6,0.5,1.3,0.8,2.2,0.9c1.1,0.1,2.5-0.1,3.9-0.7
		c4.8-1.9,9.5-7,10.4-11.2c0.3-1.6,0-2.9-0.9-3.6c-1.1-0.9-2.8-0.9-4.9-0.1c-3.8,1.5-7.5,5.6-8,8.9c-0.2,1.2,0,2.1,0.7,2.6
		c0.8,0.6,2.2,0.6,3.7,0c2.7-1.2,5.4-4.2,5.7-6.5c0.1-0.7-0.1-1.3-0.5-1.6c-0.5-0.4-1.5-0.4-2.5,0.1c-1.7,0.8-3.4,2.8-3.4,4.1
		c0,0.2,0,0.5,0.3,0.6c0.3,0.2,0.8,0.1,1.3-0.2s1-0.8,1.1-1.2c-0.1,0.1-0.2,0.2-0.4,0.2h-0.1c-0.2-0.1-0.4-0.3-0.3-0.5
		c0.1-0.4,0.5-0.7,0.9-0.8c0.4,0,0.7,0.1,0.8,0.4c0.5,0.9-0.8,2.2-1.6,2.7c-0.9,0.5-1.7,0.6-2.3,0.2c-0.5-0.3-0.7-0.8-0.7-1.5
		c0.1-1.8,2.1-4,4-4.8c1.4-0.6,2.6-0.7,3.5,0c0.7,0.5,1,1.4,0.9,2.5c-0.4,2.6-3.2,5.9-6.3,7.2c-1.9,0.8-3.6,0.8-4.6-0.1
		c-0.9-0.7-1.3-2-1-3.5c0.6-3.5,4.6-7.9,8.6-9.5c2.4-1,4.5-0.9,5.8,0.2C287.4,250.7,287.8,252.3,287.5,254.3z"/>
	<path class="st1" d="M207.7,66.9c-2.2-2.9-4.8-5.5-7.7-8c-3.8,9.2-12.8,15.7-23.2,15.7c-13.9,0-25.1-11.4-25.1-25.5
		c0-3,0.5-5.9,1.5-8.5c-3.5-0.3-6.8-0.5-10.1-0.5c-3.1,0-6.4,0.3-9.8,0.8c0.9,2.6,1.3,5.3,1.3,8.2c0,14-11.3,25.5-25.1,25.5
		c-9,0-16.9-4.8-21.3-12.1c-3.4,3.3-6.6,7-8.8,11.1c-3.5,6.3-3.8,14.4-3.3,22c2,32,39.1,41.7,64.7,41.7c16.8,0,34.8-1.3,48.5-8.9
		c12.7-7,21.6-19.8,22.5-33.1C212.3,87.9,213.5,74.5,207.7,66.9z M145.5,96.5c0.1-0.3,0.2-0.6,0.4-0.7c0.1-0.1,0.1-0.1,0.2-0.1
		c0,0,0.1,0,0.2,0.1c0.1,0.1,0.2,0.4,0.4,0.7c0.2,0.7,0.4,1.6,0.4,2.7c0,1.1-0.2,2-0.4,2.7c-0.1,0.3-0.2,0.6-0.4,0.7
		c-0.1,0.1-0.1,0.1-0.2,0.1c0,0-0.1,0-0.2-0.1c-0.1-0.1-0.2-0.4-0.4-0.7c-0.3-0.7-0.4-1.6-0.4-2.7C145.1,98.1,145.3,97.2,145.5,96.5
		z M138.3,97c0.1-0.3,0.2-0.6,0.4-0.7c0.1-0.1,0.1-0.1,0.2-0.1c0,0,0.1,0,0.2,0.1c0.1,0.1,0.2,0.4,0.4,0.7c0.2,0.7,0.4,1.6,0.4,2.7
		c0,1.1-0.2,2-0.4,2.7c-0.1,0.3-0.2,0.6-0.4,0.7c-0.1,0.1-0.1,0.1-0.2,0.1c0,0-0.1,0-0.2-0.1c-0.1-0.1-0.2-0.4-0.4-0.7
		c-0.2-0.7-0.4-1.6-0.4-2.7C137.9,98.6,138.1,97.7,138.3,97z M130.2,115.9c1.9,0.5,4.2,0.9,6.5,1.2c5.2,0.6,11.2,0.4,16.6-1.6
		C146.1,119.1,137.8,118.9,130.2,115.9z"/>
	<path class="st1" d="M0,0v300h300V0H0z M175.5,5.6c3.3-1.3,6.5-1.4,9.7-0.6c4.9,1.2,9.8,4.5,14.8,8.7c-1.1-0.7-2.3-1.5-3.4-2.2
		c-3-1.8-6-3.5-9.3-4.5c-3.2-1-6.7-1.3-10.4-0.5c-2.6,0.6-5.3,1.6-8.1,3.4C171.1,7.9,173.3,6.4,175.5,5.6z M97.4,9.3
		c3.3-1.1,6.7-1.3,10.2-0.3c2.4,0.7,4.9,1.9,7.4,3.8c-7.7-3.7-14-3.5-19.6-1.3c-3.3,1.3-6.3,3.2-9.2,5.3c-1.2,0.8-2.3,1.7-3.5,2.6
		C87.5,14.7,92.4,10.9,97.4,9.3z M284.6,264c-4.1,3.4-8.9,5.4-12.9,5.4c-0.4,0-0.8,0-1.2-0.1c-0.3,0-0.6-0.1-0.9-0.1
		c-1.8,2.2-4,4.7-8.3,8.1c-17.3,13.9-52,23.1-62,16.4c-8.8-5.8-3.6-31.8-3.6-31.8c-32.6,32-63.9,31.2-93.7-6.1
		c0,0,5.4,31.7-6.5,37.2c-11.5,5.3-38.9-15-38.9-15c-8.4-3.9-12.9-16.2-22.9-17.3c-0.1,0.1-0.1,0.1-0.2,0.2
		c-1.1,1.4-2.8,2.2-4.8,2.4h-1.1c-3.8,0-8.2-1.8-12.1-5c-6.6-5.5-9.3-13.3-6-17.4c1.1-1.4,2.8-2.2,4.8-2.4c4-0.4,8.9,1.5,13.2,5
		c3,2.5,5.3,5.5,6.4,8.5c6.5,3.8,13.1,7.4,20.7,6c-4.1-6.1-6.7-12.7-13-18.2c-0.8,0.3-1.7,0.5-2.7,0.5h-0.2c-4.1,0-8.9-2.4-13-6.3
		c-4.2-4.2-6.6-9.2-6.6-13.3c0-2,0.6-3.8,1.8-5.1s3-2,5.2-2c4.1-0.1,9,2.3,13.1,6.3c4.7,4.6,7.1,10.4,6.5,14.6
		c5.7,10.5,16.2,13.1,24.8,18.9c-1.1-6.9-1.6-13.8-5.5-20.8c-0.1,0-0.2-0.1-0.3-0.1c-3.3-1.2-6.5-3.9-9-7.6c-4.6-6.8-5-14.5-1-17.4
		c1.3-0.9,3.1-1.3,5-0.9c3.7,0.7,7.7,3.7,10.7,8c3.8,5.6,4.8,12,2.5,15.7c-0.1,0.1-0.2,0.2-0.2,0.4c0.4,4.7,3.5,11,11,13.3
		c0,0-15.9-33.7-5.7-44.5c3.8-4,16.4,1.5,16.4,1.5c-4-11.4-2-19.4,0-27.5c0,0-8.9,4.9-13.5,4c-13-2.6-31-25.3-31-25.3
		c-13.1-2-16.8-14.7-17.1-18.8c-1.1-3.1-8-5.1-11.2-5.9c-2.1,1.8-4.4,3-6.6,3.2h-0.7c-1.3,0-2.4-0.4-3.2-1.1
		c-3-2.5-2.2-8.6,1.9-13.6c2.6-3.2,5.9-5.3,8.9-5.6c1.5-0.2,2.9,0.2,3.9,1c2.5,2,2.3,6.5,0,10.8c2.6,2.5,8.6,5,12,7.5
		c0.6-4.5,0.3-9-2-13.5c-1.8,0-3.4-0.4-4.8-1.1c-1.4-0.7-2.4-1.8-2.8-3.1c-1.2-3.8,2.8-8.4,8.9-10.4c3.9-1.2,7.7-1.2,10.4,0.2
		c1.4,0.7,2.4,1.8,2.8,3.1c1,3.4-2.1,7.5-7.1,9.7c-1,3.8-1.4,7.6,0.6,11.4c1.3-1.3,5-1.6,6.4-0.3c4.1-1.5,7-5.1,9.1-9.7
		c-1.2-5,0.1-9.7,3.2-10.8c1.1-0.4,2.4-0.3,3.8,0.3c2.5,1.2,4.8,4.2,6.1,7.8c0.7,1.9,1,3.7,1,5.5c0,3.5-1.3,6.3-3.6,7.2
		c-0.5,0.2-0.9,0.2-1.4,0.2c-0.8,0-1.5-0.2-2.3-0.6c-1.2-0.6-2.3-1.5-3.3-2.7c-2.9,1.1-5.5,3.1-7.1,7.3c2.1,2.3,2.5,6.4,2.5,10.9
		c0,0,7.8,9.4,16.8,14.3c8.5,4.6,18.5,5,20.4,2.3c4-5.7,14.3-17.4,20.5-21.2C68.4,129.1,65,75.7,87.8,61.9
		c-2.1-3.8-3.4-8.1-3.4-12.8c0-14.1,11.3-25.5,25.1-25.5c10.3,0,19.2,6.3,23,15.4c5.8-1.6,14.1-2,21.4-0.5
		c4-8.8,12.7-14.9,22.8-14.9c13.8,0,25.1,11.4,25.1,25.5c0,2.6-0.4,5.2-1.1,7.6c28.1,17.5,13.7,78.1-29,78.3
		c17.2,9.8,18,23.8,29.6,27.5c15-4.3,29.2-15.5,37.8-18.7c-1.8-4.7,1.6-13,2.9-13.1c-1.3-4.5-5.5-6.5-9.8-8.5
		c-1.4,0.5-2.8,0.7-4.1,0.7c-0.8,0-1.5-0.1-2.2-0.3c-1.5-0.4-2.7-1.2-3.4-2.3c-2-3.4,0.9-8.8,6.3-12.1c3.5-2.1,7.3-2.9,10.2-2.2
		c1.5,0.4,2.7,1.2,3.3,2.3c1.4,2.4,0.3,6-2.4,9c0.2,3.6,1.9,7,5.6,10.1c8.8,1.3,8.6-7.8,9.2-16c-1.5-0.4-2.8-1.1-3.8-2
		c-1.2-1-1.9-2.3-2-3.6c-0.3-3.9,4.6-7.6,11-8.1c4-0.3,7.8,0.6,10.1,2.6c1.2,1,1.9,2.3,2,3.6c0.3,3.5-3.5,6.7-8.8,7.8
		c-4,4.1-6,7.6-4.8,17.5c5.2,5.1,8.5,0.6,12-2.4c-1.1-1.6-1.8-3.3-1.8-4.8c0-0.8,0.2-1.6,0.6-2.3c0.6-1.1,1.7-1.8,3.1-2.2
		c2.7-0.7,6.3,0,9.6,2c5.2,3.1,7.9,8.2,6,11.4c-0.6,1.1-1.7,1.9-3.1,2.2c-0.7,0.2-1.4,0.3-2.2,0.3c-1.5,0-3.1-0.3-4.7-0.9
		c-5.9,1.7-11.6,4.2-16,11.5c-4,7.6-9.1,8.2-14.2,8c-8,8.9-30.5,32.8-49.9,28.5c1.7,7.4,1.5,14.7-0.5,22
		c39.3-10.7,23.3,17.4,15.9,45.5c5.7-3.5,8.5-8.1,9.8-13.8c-0.1-0.1-0.1-0.2-0.2-0.4c-1.9-4-0.7-10.5,3.1-16
		c3.1-4.7,7.4-7.9,11.4-8.6c2-0.4,3.9-0.1,5.3,0.9c4.3,3,3.9,11.4-1,18.6c-1.3,2-2.9,3.7-4.5,5c-1.6,1.4-3.4,2.4-5.1,3.1
		c-0.2,0.1-0.4,0.1-0.6,0.2c-4.4,4.7-9.8,9.9-4.4,19.4c9.2,0.4,16.8-5,19.4-16c-1.6-4.6,1-11.6,6.6-17.2c4.3-4.2,9.5-6.7,13.9-6.7
		h0.2c2.3,0,4.2,0.8,5.5,2.2c4,4.2,1.7,13-5.1,19.7c-4,4-8.8,6.4-13,6.7c-3.4,2.8-9.3,12.2-8.2,25.3c7.1,0.4,12.7-1.6,17.4-7.6
		c-0.4-4.5,2.6-10.3,8-14.8c4.5-3.8,9.8-5.8,14.1-5.3c2.2,0.2,4,1.1,5.2,2.6C294.6,249.8,291.7,258.2,284.6,264z"/>
</g>
</svg>
