<svg width="300" height="300" viewBox="0 0 300 300" fill="none" xmlns="http://www.w3.org/2000/svg">
<g clip-path="url(#clip0_10_241)">
 
<path d="M46.1 174.2C42.9 171.9 40.9 168.5 40.9 164.6C40.9 163.2 41.2 161.7 41.7 160.4C40.5 160.4 39.3 160.2 38.1 159.9C34.5 184.6 30.9 210.1 38 233.3L38.2 234.1L37.4 234.6C32.9 237.4 29 239.9 31.4 245.5C38.5 248.2 45.4 250 55.4 245.6C56.5 242.2 56.5 239.6 55.5 237.7C54.5 235.9 52.6 234.7 49.6 233.8L49 233.6L48.8 233C43.3 213.8 43.6 195 46.1 174.2Z" fill="white"/>
<path d="M186.1 240.5C180.7 241.1 173.2 242 165 242C156.8 242 149.4 241.1 143.9 240.5C140.9 240.2 137.9 239.8 136.4 239.9C138.9 242.1 150.4 247.4 164.9 247.4C179.4 247.4 190.9 242.1 193.4 239.9C192.1 239.8 189 240.2 186.1 240.5Z" fill="white"/>
<path d="M55.5 174.9C54.8 172.5 54.8 169.9 55.7 167.4C55.8 167.1 55.9 166.8 56 166.5C53.6 166.3 51.4 165.4 49.5 163.9C49.2 163.6 48.9 163.4 48.6 163C48.3 162.7 48 162.4 47.7 162C46.7 160.8 46 159.4 45.5 158L44.4 159.8C43.5 161.3 43 162.9 43 164.6C43 167.4 44.3 169.9 46.4 171.7C46.7 172 47 172.2 47.4 172.5C47.7 172.7 48.1 172.9 48.4 173.1C50.2 174.1 52.4 174.8 54.8 174.8L55.5 174.9Z" fill="white"/>
<path d="M206.1 220.8C204.2 221.8 202.2 222.3 200.2 222.3C195.9 222.3 191.7 220 189.4 215.9C187.9 213.2 187.5 210.2 188.1 207.3C188.2 207 188.3 206.6 188.4 206.3C188.5 206 188.6 205.6 188.8 205.3C189.2 204.3 189.8 203.3 190.5 202.3C187.3 196.4 189.5 188.9 195.3 185.7C200.4 182.9 206.8 184.1 210.6 188.4C211 188.2 211.3 188.1 211.7 188C212.1 188 212.7 188.5 212.5 187.5L211.7 184.8L211.6 183.9C211.3 179.3 213.6 174.7 217.9 172.4C220 171.2 222.4 170.7 224.8 170.9C225.9 168.8 227.6 167 229.7 165.9C230.1 165.7 230.4 165.5 230.7 165.4C231.5 164 232.6 162.8 233.9 161.8C234.3 158.3 236.2 155.1 239 153.1C237 149.9 236.6 146 237.9 142.5C238.7 140.2 240.2 138.3 242.1 136.8C241.5 134.5 241.7 132.1 242.5 129.8C243 128.3 243.8 127.1 244.7 125.9C241.3 122.8 239.9 118.1 241.1 113.6C240.9 113.5 240.8 113.5 240.6 113.4C238.9 112.8 237.3 111.8 236 110.5C235.2 110.4 234.3 110.3 233.5 110C227.9 108.4 224.2 103 224.6 97.3C224 97.1 223.3 96.8 222.8 96.5C221.3 100.2 218 102.8 214.3 103.7C226.6 105.3 236.2 115.8 236.2 128.6C236.2 142.4 225 153.6 211.1 153.6C197.3 153.6 186.1 142.4 186.1 128.6C186.1 115.7 195.9 105.1 208.4 103.7C208.3 103.7 208.2 103.7 208.1 103.6C205.8 102.9 203.7 101.6 202.2 99.8C199.9 100.5 197.5 100.6 195.2 99.9C193.7 99.5 192.4 98.8 191.2 97.9C188.3 101.5 183.7 103.2 179.2 102.3C179.2 102.5 179.1 102.6 179.1 102.8C178.2 106 176.1 108.6 173.2 110.2C170.3 111.8 167 112.2 163.8 111.3C160.9 110.5 158.5 108.7 156.9 106.2C154.7 107.4 152.1 107.8 149.6 107.5C143.8 106.7 139.3 102 138.9 96.2C138.2 96.1 137.6 95.9 136.9 95.7C135.4 101.6 129.6 105.6 123.4 104.8C121 104.5 118.8 103.5 117 101.9C114.8 103 112.4 103.4 110 103C108.5 102.8 107.1 102.3 105.7 101.6C103.7 105.1 100.1 107.4 96.1 107.7C96 108.2 95.8 108.7 95.6 109.2C94.7 111.7 93.1 113.8 90.9 115.3C88.4 117.8 85 119 81.6 118.8C81.5 118.9 81.5 118.9 81.5 119C87 121.7 89.7 128.2 87.6 134.1C86.8 136.4 85.3 138.4 83.4 139.8C84 142.1 83.9 144.6 83.1 146.8C82.8 147.6 82.5 148.3 82 149C82.4 150.2 82.6 151.4 82.6 152.7C84.2 155 85 157.8 84.9 160.6C89.4 159.6 94.1 161.1 97.1 164.8C98.6 166.7 99.6 168.9 99.8 171.3C102.1 172 104.1 173.3 105.7 175.2C106.7 176.4 107.4 177.7 107.9 179.1C112.3 177.8 117 179 120.3 182.3C120.4 182.2 120.5 182.1 120.7 182C125.9 177.7 133.7 178.4 138 183.7C140.1 186.2 141.1 189.4 140.7 192.7C140.4 196 138.8 198.9 136.3 201C134.7 202.3 132.7 203.3 130.6 203.6C130.4 204.8 130.1 205.9 129.6 206.9C129.2 207.7 128.8 208.5 128.2 209.2C127.6 209.9 127 210.6 126.2 211.2C122.9 213.9 118.5 214.6 114.7 213.4C115.5 221.9 118.1 229.3 122.5 235.2C130.6 246.3 144.4 252.5 163.5 253.8C183.7 252.6 197.3 247.1 205.2 237.1C210.2 230.7 212.9 222.3 213.4 211.6C213 211.5 212.6 211.4 212.3 211.3C212 215.4 209.6 218.9 206.1 220.8ZM114 153.7C100.2 153.7 88.9 142.5 88.9 128.7C88.9 114.9 100.1 103.6 114 103.6C127.8 103.6 139 114.8 139 128.7C139 142.4 127.8 153.7 114 153.7ZM171.3 216.1C171.3 215.7 171.3 215.3 171.4 214.9C171.4 214.5 171.5 214 171.6 213.6C172.3 209.5 174.7 206.6 177.7 206.6C178.4 206.6 179 206.7 179.6 207C180.1 207.2 180.5 207.5 180.9 207.9C181.2 208.2 181.5 208.5 181.7 208.8C183.1 210.5 183.9 213.1 183.9 216.1C183.9 221.4 181.1 225.6 177.6 225.6C174.1 225.6 171.3 221.4 171.3 216.1V216.1V216.1ZM146.9 215.5C146.9 215.1 146.9 214.8 147 214.4C147 214 147.1 213.6 147.2 213.2C148 209.3 150.4 206.6 153.2 206.6C156.2 206.6 158.7 209.7 159.4 214C159.4 214.4 159.5 214.8 159.5 215.2C159.5 215.5 159.5 215.8 159.5 216.1C159.5 216.2 159.5 216.2 159.5 216.3C159.4 221.6 156.7 225.6 153.2 225.6C149.7 225.6 146.9 221.4 146.9 216.1C146.9 215.9 146.9 215.7 146.9 215.5ZM186.6 245.7C182.7 247.1 174.8 249.5 165 249.5C155.2 249.5 147.3 247.1 143.4 245.7C141.8 245.1 133.9 242.1 133.9 239.4C133.9 239 134.1 238.6 134.4 238.3C135.4 237.4 137.7 237.6 144.1 238.4C149.5 239 156.8 239.9 164.9 239.9C173 239.9 180.3 239 185.7 238.4C192.1 237.6 194.4 237.4 195.4 238.3C195.7 238.6 195.9 239 195.9 239.4C196.1 242.1 188.2 245.2 186.6 245.7Z" fill="white"/>
<path d="M222 135.1C223.5 135.1 224.7 133.9 224.7 132.4C224.7 130.9 223.5 129.7 222 129.7C220.5 129.7 219.3 130.9 219.3 132.4C219.3 133.9 220.5 135.1 222 135.1Z" fill="white"/>
<path d="M71.9 182.9C69.1 184 66 184.1 63.1 183.1C60.5 182.2 58.5 180.5 57 178.4C55.7 180.1 55 182.1 55 184.1C55 189.7 60.3 194.3 66.7 194.3C68.7 194.3 70.7 193.9 72.4 193C71.5 190.1 71.7 186.9 73.1 184.1C72.7 183.7 72.3 183.3 71.9 182.9Z" fill="white"/>
<path d="M107.3 206.8C105.5 208.2 103.5 209.1 101.4 209.5C101 209.6 100.7 209.6 100.3 209.6C99.9 209.6 99.6 209.6 99.3 209.6C95.9 209.6 92.6 208.1 90.3 205.4C91.6 208.8 94.9 211.4 99 212.2C99.3 212.3 99.7 212.3 100 212.3C100.3 212.3 100.7 212.4 101.1 212.4H101.4C104.4 212.4 107.2 211.4 109.3 209.7C108.6 208.8 108 207.8 107.5 206.7C107.3 206.7 107.3 206.7 107.3 206.8Z" fill="white"/>
<path d="M114 105.7C101.3 105.7 91 116 91 128.7C91 141.3 101.3 151.6 114 151.6C126.7 151.6 136.9 141.3 136.9 128.7C136.9 116 126.7 105.7 114 105.7ZM134.6 132.7C134.6 140.1 128.6 146.1 121.2 146.1C113.8 146.1 107.8 140.1 107.8 132.7C107.8 125.3 113.8 119.3 121.2 119.3C128.5 119.3 134.6 125.3 134.6 132.7Z" fill="white"/>
<path d="M98.6 214.2C94.8 213.5 91.5 211.4 89.5 208.6C86.3 231.2 83.9 254.2 90.3 275.4L90.5 276.2L89.7 276.7C85.2 279.5 81.3 282 83.6 287.6C90.7 290.3 97.6 292.1 107.6 287.7C108.7 284.3 108.7 281.7 107.7 279.8C106.7 278 104.8 276.8 101.8 275.9L101.2 275.8L101 275.2C95.4 255.2 95.9 235.8 98.6 214.2Z" fill="white"/>
<path d="M124.5 135.1C126 135.1 127.2 133.9 127.2 132.4C127.2 130.9 126 129.7 124.5 129.7C123 129.7 121.8 130.9 121.8 132.4C121.8 133.9 123 135.1 124.5 135.1Z" fill="white"/>
<path d="M223.6 206.3C223.8 206.2 223.9 206 224 205.8C226.3 202.8 226.8 198.6 225 195C225 194.9 224.9 194.8 224.9 194.7L224.5 194L224.2 193.4L225.6 193.2C226.1 193.1 226.6 193 227 192.9C227.5 192.7 227.9 192.6 228.4 192.3L229.5 191.8L229.9 193C230 193.5 230.2 193.9 230.4 194.4C230.5 194.6 230.6 194.7 230.7 194.9C231.3 195.9 232 196.8 232.8 197.5L233.9 198.4C234.2 198.6 234.4 198.7 234.7 198.9C237.7 200.6 241.4 200.7 244.6 198.9C246.8 197.7 248.5 195.7 249.3 193.4L249.5 192.7H250.2C252.6 192.5 254.8 191.6 256.5 190C256.9 189.7 257.2 189.3 257.5 188.9C257.9 188.4 258.2 187.9 258.5 187.4C258.8 186.9 259 186.5 259.1 186C259.7 184.4 259.9 182.6 259.6 180.9V180.6L259.7 180.3C260.6 178.2 260.7 175.9 260.1 173.7L259.9 173L260.5 172.6C262.2 171.4 263.4 169.7 264.1 167.8C264.2 167.4 264.3 167 264.4 166.7L264.5 166.4L264.8 166.2C265.4 165.7 265.9 165.1 266.4 164.5C266.7 164.1 267 163.6 267.3 163.1C267.6 162.5 267.9 161.8 268.1 161.2C268.3 160.6 268.4 159.9 268.5 159.2C268.5 158.7 268.5 158.2 268.5 157.7C268.5 157.2 268.4 156.8 268.3 156.3C268.1 155.3 267.8 154.3 267.2 153.3C267.1 153.2 267.1 153.1 267 152.9L266.8 152.6L266.2 151.5L266.7 151.4L267.7 151.2C268.7 151 269.7 150.7 270.5 150.3C270.8 150.1 271.2 149.9 271.5 149.7C271.8 149.5 272.2 149.2 272.5 149C273 148.5 273.5 148 273.9 147.5C274.6 146.7 275.1 145.7 275.5 144.7C275.7 144.1 275.9 143.5 276 142.8C276.3 141.3 276.1 139.7 275.7 138.2C275.1 136.2 273.8 134.4 272.1 133L271.1 132.3L272 131.4C273.2 130.3 274 128.9 274.6 127.5C275.5 124.9 275.3 122.1 274.2 119.7L274 119.6L274.1 119.5C273 117.2 271 115.3 268.4 114.4C267.9 114.2 267.4 114.1 266.9 114L265 113.6L266.4 112.2C267.4 111.1 268.2 109.9 268.7 108.6C270.6 103.3 267.9 97.4 262.6 95.5C261.2 95 259.6 94.8 258.1 95L256.3 95.2L257 93.5C257.2 93 257.4 92.6 257.5 92.2C259 86.8 255.9 81.1 250.5 79.6C246.9 78.6 243 79.6 240.4 82.2L239.3 83.3L238.7 81.8C237.5 78.9 235.1 76.7 232.1 75.8C226.7 74.3 221.1 77.3 219.5 82.7L219.1 84.1L217.9 83.3C217.1 82.7 216.2 82.3 215.3 82L214.1 81.6L214.7 80.5C215 79.9 215.3 79.3 215.5 78.6C216.3 76 216 73.2 214.6 70.8C213.3 68.4 211.1 66.7 208.5 65.9C207.4 65.6 206.3 65.5 205.2 65.5C203.6 65.6 202 66 200.6 66.8C199.2 67.6 198 68.7 197.1 70.1L196.4 71.1L195.5 70.3C194.3 69.2 192.9 68.4 191.4 68C188.8 67.2 186 67.6 183.6 68.9C181.2 70.2 179.5 72.4 178.7 75C178.5 75.6 178.4 76.1 178.4 76.6L178.2 78.5L176.7 77.2C175.6 76.3 174.3 75.6 172.9 75.2C170.6 74.5 168.1 74.7 165.9 75.7L165.5 75.9L165 75.7C164 75.2 162.9 74.9 161.8 74.7C158.1 74.2 154.4 75.8 152.2 78.8L151.3 80.1L150.5 78.7C148.9 76 146.2 74.2 143 73.7C137.5 73 132.3 76.9 131.6 82.4L131.4 83.8L130.1 83.1C129.2 82.7 128.3 82.3 127.3 82.2L126.1 82L126.5 80.8C126.7 80.2 126.9 79.5 127 78.8C127.3 76.1 126.6 73.4 125 71.3C123.3 69.1 120.9 67.8 118.2 67.4C113.7 66.8 109.5 69.2 107.6 73.3L107.1 74.4L106.1 73.7C104.8 72.8 103.3 72.3 101.7 72.1C99 71.7 96.3 72.5 94.2 74.1C92 75.8 90.7 78.2 90.3 80.9C90 81.7 90 82.2 90 82.7L90.1 84.6L88.4 83.6C87.1 82.8 85.8 82.3 84.4 82.1C81.9 81.8 79.4 82.4 77.3 83.8L77 84.1H76.7C72.3 84 68.3 86.7 66.8 90.9C65.5 94.4 66.3 98.3 68.8 101.1L69.9 102.3L68.4 102.8C65.4 103.8 63 106.1 62 109.1C60.1 114.4 62.9 120.2 68.1 122.1L69.5 122.6L68.6 123.7C68 124.5 67.4 125.4 67.1 126.3L66.6 127.4L65.6 126.8C65.4 126.7 65.3 126.6 65.1 126.5C62.5 125.2 59.4 125 56.7 126C53.9 127.1 51.8 129.3 50.8 132.1C49.4 136 50.5 140.4 53.7 143.2L55 144.3L53.5 145C52.6 145.4 51.8 145.9 51.1 146.5C49.8 147.5 48.8 148.9 48.2 150.3C48 150.6 47.9 151 47.8 151.3C47.7 151.7 47.6 152 47.5 152.4C47.4 152.7 47.4 153 47.4 153.3C47.2 155.3 47.6 157.3 48.5 159C48.7 159.5 49 159.9 49.3 160.4C49.4 160.6 49.5 160.7 49.6 160.8C49.8 161 50 161.3 50.2 161.5C52.2 163.6 55 164.7 58 164.6L60 164.5L58.9 166.2C58.5 166.8 58.2 167.5 57.9 168.2C57 170.8 57.1 173.5 58.3 176C59.5 178.5 61.5 180.3 64.1 181.2C66.7 182.1 69.5 182 72 180.7L72.8 180.3L73.3 181C73.9 181.8 74.6 182.5 75.4 183.1L76 183.6L75.5 184.4C74.2 186.7 73.8 189.5 74.5 192H74.6L74.8 193C75.2 194.1 75.8 195.1 76.5 196C79.4 199.5 84.1 200.6 88.2 198.9L89 198.6L89.4 198.4L89.7 199.6C89.7 199.8 89.8 200 89.8 200.2C90 200.9 90.3 201.5 90.6 202.1C90.9 202.7 91.3 203.3 91.7 203.8C93.7 206.3 96.7 207.5 99.7 207.5C100 207.5 100.4 207.5 100.7 207.4C101.1 207.4 101.4 207.3 101.8 207.2C103.3 206.9 104.8 206.2 106.1 205.1C106.5 204.8 106.9 204.4 107.2 204L108.5 202.5L109 204.4C109.4 205.7 110 207 110.8 208C110.8 208.1 110.9 208.1 110.9 208.2C111.1 208.4 111.3 208.6 111.5 208.8C111.7 209.1 112 209.3 112.3 209.5C112.4 209.6 112.6 209.7 112.7 209.8C113 210.1 113.4 210.3 113.7 210.5C114.1 210.7 114.4 210.9 114.8 211C116.2 211.6 117.7 211.9 119.2 211.8C120.5 211.7 121.9 211.4 123.1 210.8C123.9 210.4 124.6 210 125.2 209.4C125.3 209.3 125.4 209.3 125.5 209.2C127.5 207.5 128.7 205.1 128.9 202.4L129 201.5L129.9 201.4C131.9 201.2 133.8 200.4 135.3 199.1C137.4 197.4 138.7 194.9 139 192.2C139.3 189.5 138.5 186.8 136.7 184.7C133.1 180.3 126.7 179.7 122.3 183.3C122 183.6 121.6 183.9 121.3 184.2L120.5 185.1L119.8 184.2L119.7 184.1C116.8 180.6 112.1 179.4 108 181.1L107.8 181.2L106.8 181.6L106.6 180.8L106.5 180.4C106.1 178.9 105.5 177.5 104.4 176.2C103 174.5 101.1 173.3 98.9 172.8L98.1 172.6V171.8C98 169.6 97.2 167.5 95.8 165.8C93 162.4 88.4 161.2 84.3 162.8L82.5 163.5L83 162C83.6 159.2 82.9 156.2 81.1 153.8L80.9 153.5V153.1C80.9 151.8 80.7 150.6 80.3 149.3L80.1 148.8L80.4 148.4C80.9 147.7 81.3 146.9 81.5 146.2C82.2 144.1 82.3 141.9 81.6 139.8L81.4 139L81.9 138.7C83.2 137.8 84.3 136.8 85.1 135.4C88.4 130 86.1 123.3 80.8 120.8C80.5 120.7 80.2 120.5 79.9 120.4H79.8L78.8 120L78.5 119.9L79.2 119.1L79.5 118.8C79.9 118.3 80.2 117.8 80.5 117.2L80.8 116.6L81.4 116.7H81.5C81.8 116.7 82.2 116.7 82.5 116.7C85.3 116.7 87.9 115.7 89.8 113.7L90 113.6C91.9 112.4 93.2 110.6 94 108.5C94.3 107.8 94.4 107.1 94.5 106.5L94.6 105.6H95.5C99.4 105.6 103 103.2 104.6 99.7L105.1 98.6L106.1 99.3C107.4 100.2 108.9 100.7 110.4 100.9C112.6 101.2 114.8 100.7 116.7 99.6L117.4 99.2L118 99.7C119.6 101.3 121.6 102.2 123.8 102.5C129.3 103.2 134.5 99.3 135.2 93.8L135.4 92.3L136.7 93C137.7 93.5 138.8 93.9 140 94L141 94.1V95C141 100.1 144.8 104.4 149.9 105.1C152.3 105.4 154.7 104.9 156.7 103.6L157.6 103L158.1 104C159.4 106.5 161.6 108.2 164.3 109C167.3 109.9 170.4 109.3 173 107.5C174.7 106.3 176 104.6 176.7 102.7C176.9 102.1 177.1 101.4 177.2 100.7L177.4 99.5L178.7 99.9C183 101.1 187.6 99.4 190 95.7L190.7 94.7L191.6 95.5C192.7 96.5 194.2 97.3 195.7 97.8C197.8 98.4 200 98.3 202.1 97.5L202.8 97.2L203.3 97.8C204.6 99.6 206.5 100.9 208.6 101.5C213.9 103 219.6 99.9 221.2 94.6L221.6 93.2L222.8 94C223.7 94.7 224.8 95.2 225.9 95.5H226L226.9 95.7L226.8 96.6C226.1 101.6 229.2 106.5 234.1 107.9C234.9 108.1 235.7 108.3 236.5 108.3H236.9L237.2 108.6C238.3 109.8 239.7 110.7 241.2 111.3C241.4 111.3 241.5 111.4 241.7 111.5C242 111.6 242.2 111.7 242.5 111.7L243 111.8L243.7 111.9L243.5 112.5L243.3 113.1C243.2 113.3 243.2 113.5 243.1 113.8C241.9 117.8 243.4 122.2 246.8 124.7L247.8 125.4L246.9 126.3C245.8 127.3 245 128.6 244.4 130C243.6 132.2 243.6 134.6 244.3 136.9L244.5 137.4L243.8 137.8C241.9 139 240.6 140.8 239.8 142.9C238.6 146.1 239.2 149.7 241.3 152.5L242 153.5L241 154.1C238.1 155.8 236.2 158.8 235.9 162.2V162.7L235.5 163C234.2 163.9 233.1 165.1 232.4 166.5L232.2 166.8L231.9 166.9C231.5 167 231.2 167.2 230.8 167.5C228.9 168.6 227.3 170.2 226.4 172.2L226.1 172.9L225.3 172.8C223.1 172.5 220.9 172.9 218.9 174C215.4 175.9 213.5 179.6 213.6 183.3C213.6 183.6 213.6 184 213.7 184.3C213.7 184.7 213.8 185 213.9 185.3C214.1 186.1 214.4 186.9 214.8 187.7L215.5 189L214 189.2H213.9C213.6 189.3 213.2 189.3 212.9 189.4C212.6 189.5 212.2 189.6 211.9 189.7C211.5 189.8 211.1 190 210.8 190.2L210.7 190.3L209.9 190.7L209.4 190C207.4 187.3 204.3 185.9 201.2 185.9C199.5 185.9 197.8 186.3 196.3 187.2C191.4 189.9 189.6 196.1 192.3 201C192.3 201.1 192.4 201.2 192.4 201.3C192.4 201.4 192.5 201.5 192.5 201.5L192.9 202.2L192.4 202.8C191.8 203.5 191.2 204.3 190.8 205.1C190.6 205.4 190.5 205.8 190.4 206.1C190.3 206.4 190.2 206.8 190.1 207.1C189.5 209.5 189.8 212.1 191.1 214.4C193.8 219.3 200 221.1 205 218.4C208.3 216.6 210.3 213.2 210.3 209.4V208.1V207.8L210.6 207.9L211.7 208.4H211.8C212.4 208.7 213 208.8 213.6 209C214 209.1 214.3 209.2 214.7 209.2C215.1 209.3 215.4 209.3 215.7 209.3C217.5 209.3 219.2 208.9 220.8 208C220.9 208 221 207.9 221.1 207.9C221.2 207.9 221.3 207.8 221.3 207.8L223.6 206.3Z" fill="white"/>
<path d="M272.1 69L271.1 68.9L271.2 67.9C271.2 67.6 271.2 67.4 271.2 67.1C271.2 61.8 266.7 57.5 260.7 57L259.5 56.9L259.8 55.7C259.9 55 260 54.3 260 53.7C260 48.1 254.7 43.5 248.3 43.5C247.5 43.5 246.8 43.6 246.1 43.7L244.6 43.9L244.9 42.5C245 42 245 41.5 245 41C245 35.4 239.7 30.8 233.3 30.8C232.3 30.8 231.4 30.9 230.5 31.1L229.2 31.4V30.1C229.2 30 229.2 30 229.2 29.9V29.8C229.2 24.2 223.9 19.6 217.5 19.6C213.7 19.6 210.1 21.2 207.9 23.9L206.7 25.3L206.1 23.6C204.5 19.4 200.1 16.6 195 16.6C193.5 16.6 192 16.9 190.6 17.4L189.5 17.8L189.2 16.6C188.1 11.8 183.3 8.40002 177.7 8.40002C174.2 8.40002 170.9 9.80002 168.6 12.2L168 12.9L167.2 12.4C165.1 10.9 162.4 10 159.7 10C157.5 10 155.3 10.5 153.4 11.6L152.8 12L152.2 11.5C150 9.60002 147.1 8.50002 143.9 8.50002H143.7C140.1 8.50002 136.6 10.1 134.4 12.7L133.8 13.4L133 12.9C130.9 11.5 128.5 10.7 125.9 10.7C122.3 10.7 118.9 12.1 116.7 14.6L116.1 15.2L115.4 14.7C113.4 13.5 111.1 12.9 108.7 12.9C104.2 12.9 100 15.2 98.1 18.8L97.6 19.6L96.8 19C95.2 18.3 93.4 17.9 91.5 17.9C86.7 17.9 82.4 20.4 80.6 24.2L80.3 25L79.5 24.9C78.7 24.8 78 24.7 77.2 24.7C70.7 24.7 65.5 29.3 65.5 34.9C65.5 35.3 65.5 35.8 65.6 36.2L65.8 37.4H64.5C58 37.4 52.7 42 52.7 47.6C52.7 48.3 52.8 49.1 53 49.8L53.3 50.9L52.2 51.1C46.9 52.1 43 56.3 43 61.1C43 62.5 43.3 63.8 43.9 65L44.4 66.1L43.2 66.5C38.5 67.9 35.4 71.8 35.4 76.1C35.4 78.1 36.1 80.1 37.4 81.7L38.2 82.8L36.9 83.3C32.8 85 30.1 88.6 30.1 92.6C30.1 95.5 31.6 98.3 34.1 100.3L35.6 101.4L33.9 102.1C33.4 102.3 33 102.5 32.5 102.8L32.1 103L31.7 102.9C30.8 102.7 29.9 102.6 29.1 102.6C22.6 102.6 17.4 107.2 17.4 112.8C17.4 116.7 20 120.3 24 122L25.1 122.5L24.6 123.5C23.9 124.9 23.5 126.3 23.5 127.8C23.5 133.1 28.3 137.6 34.4 138L37.6 138.2L35 140C32 142 30.3 144.9 30.3 148.2C30.3 152.1 32.8 155.5 36.5 157.2C36.8 157.3 37.1 157.5 37.5 157.6C37.8 157.7 38.2 157.8 38.5 157.9C39.6 158.2 40.8 158.4 42 158.4C42.4 158.4 42.9 158.4 43.4 158.3L45.5 158.1C45 156.5 44.8 154.9 45 153.2C45 152.7 45.1 152.1 45.3 151.6C45.4 151.3 45.5 150.9 45.6 150.6C45.7 150.3 45.8 149.9 46 149.6C46.8 147.8 47.9 146.2 49.5 144.9C50 144.5 50.5 144.1 51 143.8C48 140.5 47.1 135.8 48.6 131.5C49.7 128.4 51.9 125.9 54.9 124.5C57.9 123.1 61.2 122.9 64.3 124C64.7 124.2 65.1 124.3 65.5 124.5C65.7 124.2 65.8 123.9 66 123.6C60.5 120.9 57.8 114.4 59.9 108.5C61 105.4 63.3 102.9 66.3 101.5C64 98.3 63.5 94.1 64.8 90.3C66.6 85.4 71.2 82.1 76.4 82.1C78.9 80.5 81.8 79.8 84.7 80.2C85.9 80.3 87 80.7 88.1 81.2C88.1 81.1 88.1 81.1 88.1 81C88.5 77.7 90.2 74.8 92.8 72.8C95.4 70.8 98.6 69.9 101.9 70.3C103.4 70.5 104.8 71 106.2 71.7C108.7 67.4 113.5 65 118.4 65.7C121.7 66.1 124.6 67.8 126.5 70.4C128.5 73 129.4 76.2 128.9 79.5C128.8 80 128.8 80.4 128.7 80.8C129.1 80.9 129.4 81 129.7 81.1C131.2 75.2 137 71.1 143.2 72C146.5 72.4 149.4 74.1 151.4 76.8C154.1 73.9 158 72.5 162 73C163.2 73.2 164.3 73.5 165.4 74C167.9 73 170.7 72.8 173.4 73.6C174.5 73.9 175.6 74.4 176.6 75C176.6 74.9 176.6 74.9 176.7 74.8C177.6 71.6 179.7 69 182.6 67.4C185.5 65.8 188.8 65.4 192 66.3C193.5 66.7 194.8 67.4 196 68.3C198.2 65.6 201.5 63.9 205 63.7C206.4 63.6 207.7 63.8 209 64.2C212.2 65.1 214.8 67.2 216.4 70.1C218 73 218.4 76.3 217.4 79.5C217.3 79.9 217.1 80.3 217 80.8C217.3 81 217.6 81.1 217.9 81.3C220.3 75.7 226.6 72.5 232.6 74.3C235.8 75.2 238.4 77.3 240 80.2C243.1 77.8 247.2 76.9 251 78C257.5 79.9 261.3 86.7 259.4 93.2C259.4 93.2 259.4 93.2 259.4 93.3C260.7 93.3 262 93.6 263.2 94C269.6 96.3 272.9 103.4 270.6 109.8C270.2 110.9 269.7 111.9 269 112.9C269.1 112.9 269.1 112.9 269.2 113C272.4 114.2 274.8 116.5 276.1 119.3C280.1 117.5 282.5 114.1 282.5 110.2C282.5 106.8 280.6 103.7 277.4 101.8L276.7 101.4L276.9 100.6C277.1 99.8 277.2 99 277.2 98.2C277.2 95.6 276.1 93.2 274.2 91.3L273.5 90.7L274 90C274.1 89.8 274.2 89.6 274.3 89.5L274.5 89.2L274.9 89.1C279.4 87.6 282.4 83.8 282.4 79.6C282.5 73.9 278 69.6 272.1 69Z" fill="white"/>
<path d="M211.5 151.6C224.2 151.6 234.5 141.3 234.5 128.7C234.5 116 224.2 105.7 211.5 105.7C198.9 105.7 188.6 116 188.6 128.7C188.6 141.3 198.9 151.6 211.5 151.6ZM218.6 119.3C226 119.3 232 125.3 232 132.7C232 140.1 226 146.1 218.6 146.1C211.2 146.1 205.2 140.1 205.2 132.7C205.2 125.3 211.2 119.3 218.6 119.3Z" fill="white"/>
<path d="M0 0V300H300V0H0ZM279.3 97.9C279.3 98.6 279.2 99.4 279.1 100.1C282.5 102.4 284.6 106 284.6 109.9C284.6 114 282.2 117.9 278.4 120.2C281.4 122.5 283.1 125.9 283.1 129.5C283.1 133.2 281.2 136.7 278 139C278.4 141.2 278.3 143.4 277.5 145.6C276.6 148.2 274.8 150.4 272.5 151.8C272.3 153.7 271.6 155.4 270.4 157C270.7 159.8 270 162.7 268.5 165C271.3 186 273 207.3 267.2 227.2C271.8 230.1 276.7 233.5 273.4 240.8L273.2 241.2L272.8 241.4C268.5 243 264.2 244.5 259.3 244.5C255.5 244.5 251.3 243.7 246.4 241.4L246 241.2L245.9 240.8C244.5 236.5 244.4 233.4 245.8 230.9C247 228.7 249.1 227.1 252.4 226.1C255.6 215 256.8 204 256.7 192.7C255.1 193.8 253.2 194.5 251.2 194.8C250.1 197.4 248.2 199.5 245.8 200.8C242.2 202.8 238 202.8 234.5 201.1C234.5 201.5 234.6 201.9 234.7 202.3C238.4 227.3 242.1 253.1 235.1 276.8C239.7 279.7 244.6 283.1 241.3 290.4L241.1 290.8L240.7 291C236.4 292.6 232.1 294 227.2 294C223.4 294 219.2 293.2 214.3 290.9L213.9 290.7L213.8 290.3C212.4 286 212.3 282.9 213.7 280.4C214.9 278.2 217 276.6 220.3 275.6C226.3 254.6 225.2 234 222 210.6C220.1 211.6 218.1 212.1 216.1 212C215.6 223.1 212.7 231.8 207.4 238.6C199.2 249.1 185 254.9 164.1 256.1H164C144.2 254.8 129.8 248.2 121.4 236.6C116.7 230.1 113.9 222 113.1 212.6C112.4 212.2 111.7 211.7 111 211.1C108.5 213.2 105.1 214.4 101.6 214.4C101.4 214.4 101.2 214.4 101 214.4C98.4 235.6 97.8 254.6 103.4 274C106.7 275 108.8 276.5 110 278.8C111.3 281.3 111.3 284.5 109.9 288.7L109.7 289.1L109.3 289.3C104.4 291.5 100.2 292.4 96.4 292.4C91.4 292.4 87.1 291 82.9 289.3L82.5 289.1L82.3 288.7C79 281.4 83.9 278 88.5 275.1C81.9 252.8 84.8 228.6 88.3 205.1C88.2 204.7 88.1 204.3 88 203.8C81.2 204.4 75.2 200.6 73.4 195C71.5 195.9 69.3 196.3 67.1 196.3C59.5 196.3 53.3 190.8 53.3 184C53.3 181.6 54.1 179.3 55.5 177.3C55.3 177.1 55.1 177 54.9 176.8C52.5 176.8 50.3 176.2 48.4 175.3C46.1 195.3 45.9 213.4 51.2 231.9C54.5 232.9 56.6 234.4 57.8 236.7C59.1 239.2 59.1 242.4 57.7 246.6L57.6 247L57.2 247.2C52.3 249.4 48.1 250.3 44.3 250.3C39.3 250.3 35 248.9 30.8 247.2L30.4 247L30.2 246.6C26.9 239.3 31.8 235.9 36.4 233C29.4 209.5 33.1 183.9 36.7 159.1C32 157.2 28.7 152.9 28.7 148C28.7 144.9 30 141.9 32.4 139.6C26.4 138.2 22 133.4 22 127.7C22 126.2 22.3 124.7 22.9 123.4C18.7 121.2 16 117.1 16 112.7C16 105.9 22.2 100.4 29.8 100.4C30.6 100.4 31.4 100.5 32.2 100.6C30 98.4 28.7 95.5 28.7 92.5C28.7 88.1 31.4 84 35.6 81.8C34.5 80 33.9 78 33.9 76C33.9 71.1 37.1 66.7 42.1 64.8C41.7 63.6 41.4 62.3 41.4 61C41.4 55.5 45.5 50.7 51.3 49.2C51.2 48.6 51.2 48.1 51.2 47.5C51.2 41 56.8 35.7 64 35.2C64 35 64 34.9 64 34.7C64 27.9 70.2 22.4 77.8 22.4C78.4 22.4 79 22.4 79.6 22.5C81.9 18.3 86.7 15.6 92 15.6C93.8 15.6 95.6 15.9 97.3 16.5C99.7 12.7 104.3 10.3 109.3 10.3C111.8 10.3 114.2 10.9 116.4 12C119 9.5 122.7 8 126.6 8C129.3 8 131.9 8.7 134.2 10C136.8 7.3 140.6 5.7 144.6 5.7H145.2C148.4 5.8 151.4 6.9 153.7 8.7C155.7 7.7 158 7.2 160.4 7.2C163.3 7.2 166.1 8 168.4 9.5C171 7.1 174.6 5.7 178.4 5.7C184.5 5.7 189.9 9.3 191.6 14.5C192.9 14.2 194.2 14 195.6 14C200.9 14 205.7 16.7 208 20.9C210.6 18.4 214.3 17 218.1 17C225.4 17 231.3 22 231.9 28.4C232.6 28.3 233.2 28.3 233.9 28.3C241.5 28.3 247.7 33.8 247.7 40.6C247.7 40.8 247.7 40.9 247.7 41.1C248.1 41.1 248.5 41.1 248.9 41.1C256.5 41.1 262.7 46.6 262.7 53.4C262.7 53.9 262.7 54.3 262.6 54.8C269.1 55.8 273.9 60.8 273.9 66.8C280.4 67.9 285.2 72.9 285.2 78.9C285.2 83.7 282 88.2 277.1 90.1C278.3 92.5 279.3 95.1 279.3 97.9Z" fill="white"/>
<path d="M277 121.7C277.5 123.9 277.3 126.2 276.5 128.4C276 129.8 275.2 131.1 274.2 132.3C275.6 133.6 276.6 135.1 277.3 136.8C279.6 134.9 280.9 132.2 280.9 129.4C281 126.4 279.5 123.6 277 121.7Z" fill="white"/>
<path d="M224.9 208C224.5 208.5 224 208.9 223.5 209.3C226.9 233.6 228.1 254.8 221.7 276.7L221.5 277.3L220.9 277.5C217.9 278.3 216 279.6 215 281.4C214 283.3 214 285.8 215.1 289.2C225.1 293.7 232 291.9 239.1 289.2C241.4 283.5 237.5 281.1 233 278.3L232.2 277.8L232.4 277C239.5 253.7 235.9 228.2 232.3 203.4C230.7 205.5 228 207.2 224.9 208Z" fill="white"/>
<path d="M266.3 167.5C266.2 167.8 266.1 168.1 266 168.5C265.2 170.6 263.9 172.4 262.2 173.9C262.7 176.2 262.5 178.6 261.7 180.8C262 182.8 261.8 184.8 261.1 186.6C260.5 188.2 259.7 189.6 258.6 190.8C258.8 203.1 257.6 215 254.1 227.1L253.9 227.7L253.3 227.9C250.3 228.7 248.4 230 247.4 231.8C246.4 233.7 246.5 236.2 247.5 239.7C257.6 244.2 264.4 242.4 271.5 239.6C273.8 233.9 269.9 231.5 265.5 228.7L264.7 228.2L264.9 227.4C270.7 208.4 269.4 187.7 266.7 167.3C266.6 167.3 266.4 167.4 266.3 167.5Z" fill="white"/>
<path d="M232.1 200C232.1 199.8 232 199.7 232 199.5C230.8 198.5 229.7 197.3 228.9 195.8C228.4 195.5 227.9 195.3 227.4 195.1C228.7 198.4 228.5 202 227 205C229.2 203.9 231 202.2 232.1 200Z" fill="white"/>
</g>
<defs>
<clipPath id="clip0_10_241">
<rect width="300" height="300" fill="white"/>
</clipPath>
</defs>
</svg>
