<svg width="300" height="300" viewBox="0 0 300 300" fill="none" xmlns="http://www.w3.org/2000/svg">
<g clip-path="url(#clip0_25_552)">
<path d="M164.7 46.7001L154.4 32.3001L166.8 22.3001L152.3 25.1001L146.7 8.6001L145.3 25.3001L129.9 25.2001L144.9 32.4001L137.7 49.1001L150.8 38.6001L164.7 46.7001Z" fill="white"/>
<path d="M124.8 158.8C128.776 158.8 132 155.576 132 151.6C132 147.623 128.776 144.4 124.8 144.4C120.824 144.4 117.6 147.623 117.6 151.6C117.6 155.576 120.824 158.8 124.8 158.8Z" fill="white"/>
<path d="M141.3 156.5L161 173.5L173.2 159.9L184.3 167.5L198.7 155.9L205.2 160.5L192.4 138.5L190.6 140.1L175.6 137.8L153.7 146.6L131.8 138.5L116.3 140.8L110.6 136.9L95.8 162.5L107.2 157.4L124.2 168.3L141.3 156.5ZM183.7 142.7C188.6 142.7 192.6 146.7 192.6 151.6C192.6 156.5 188.6 160.5 183.7 160.5C178.8 160.5 174.8 156.5 174.8 151.6C174.8 146.7 178.8 142.7 183.7 142.7ZM115.9 151.6C115.9 146.7 119.9 142.7 124.8 142.7C129.7 142.7 133.7 146.7 133.7 151.6C133.7 156.5 129.7 160.5 124.8 160.5C119.9 160.6 115.9 156.6 115.9 151.6Z" fill="white"/>
<path d="M100.3 196.2L114.6 194.8L136.2 205.7L163.5 196.2L186.3 202.7L202.3 199.9L209.2 191.4L193 163L184.5 169.9L173.6 162.5L161.2 176.3L141.2 159L124.2 170.6L110.9 162.1L92.8 191.7L100.3 196.2ZM185.9 176.5C190.8 176.5 194.8 180.5 194.8 185.4C194.8 190.3 190.8 194.3 185.9 194.3C181 194.3 177 190.3 177 185.4C176.9 180.5 180.9 176.5 185.9 176.5ZM131 179.5C135.9 179.5 139.9 183.5 139.9 188.4C139.9 193.3 135.9 197.3 131 197.3C126.1 197.3 122.1 193.3 122.1 188.4C122.1 183.5 126.1 179.5 131 179.5Z" fill="white"/>
<path d="M183.7 158.8C187.676 158.8 190.9 155.576 190.9 151.6C190.9 147.623 187.676 144.4 183.7 144.4C179.724 144.4 176.5 147.623 176.5 151.6C176.5 155.576 179.724 158.8 183.7 158.8Z" fill="white"/>
<path d="M185.9 192.6C189.876 192.6 193.1 189.376 193.1 185.4C193.1 181.423 189.876 178.2 185.9 178.2C181.924 178.2 178.7 181.423 178.7 185.4C178.7 189.376 181.924 192.6 185.9 192.6Z" fill="white"/>
<path d="M131 195.6C134.976 195.6 138.2 192.376 138.2 188.4C138.2 184.423 134.976 181.2 131 181.2C127.024 181.2 123.8 184.423 123.8 188.4C123.8 192.376 127.024 195.6 131 195.6Z" fill="white"/>
<path d="M150.1 83.5L166.2 86.6L176.1 80.9L177.1 72.9L169 69.2L171.3 78.2L160 82L128.3 81.2L127.4 77.4L130.8 71.6L125.3 72.6L122.3 80.9L132.1 86.6L150.1 83.5Z" fill="white"/>
<path d="M131.8 137.3L153.6 145.4L175.4 136.6L190.2 138.8L196.2 133.7L192.8 127.8L186.9 125.2L191.9 133.8L174.7 131.9L153.2 140L132.5 132.6L117.7 135L111.6 130.9L116 123.3L109.5 127.1L107.9 133.7L116.5 139.6L131.8 137.3Z" fill="white"/>
<path d="M151.6 99L165.8 113.8L178 96.2L187.5 102.5L175.5 82.5L166.4 87.7L150.1 84.6L131.9 87.7L125.7 84.2L113.4 105.3L125.1 101.2L135.8 110.6L151.6 99Z" fill="white"/>
<path d="M118 133.8L132.7 131.4L153.2 138.8L174.6 130.7L188.8 132.3L173.5 106L166 116.8L151.4 101.5L135.7 113.1L128 106.4L113.8 131.1L118 133.8ZM150.2 112C155.1 112 159.1 116 159.1 120.9C159.1 125.8 155.1 129.8 150.2 129.8C145.3 129.8 141.3 125.8 141.3 120.9C141.3 116 145.3 112 150.2 112Z" fill="white"/>
<path d="M150.2 128.1C154.176 128.1 157.4 124.876 157.4 120.9C157.4 116.924 154.176 113.7 150.2 113.7C146.224 113.7 143 116.924 143 120.9C143 124.876 146.224 128.1 150.2 128.1Z" fill="white"/>
<path d="M207.6 206.3L184 210.5L163.6 204.6L136.8 213.1L114.3 202.5L97.7 203.9L88.1 199.2L65.4 236.2L79.3 232.6L89.3 242L103.8 230.2L115.4 246.3L124 233.6L137.3 245L153.7 233L163.2 243.9L177.8 231.8L193.3 248L210.3 232.9L221.8 245.7L223 234.5L235 236.7L213 198L207.6 206.3ZM93.2 229.1C88.3 229.1 84.3 225.1 84.3 220.2C84.3 215.3 88.3 211.3 93.2 211.3C98.1 211.3 102.1 215.3 102.1 220.2C102.1 225.1 98.1 229.1 93.2 229.1ZM160.4 228C155.5 228 151.5 224 151.5 219.1C151.5 214.2 155.5 210.2 160.4 210.2C165.3 210.2 169.3 214.2 169.3 219.1C169.3 224 165.3 228 160.4 228ZM200.6 235.2C195.7 235.2 191.7 231.2 191.7 226.3C191.7 221.4 195.7 217.4 200.6 217.4C205.5 217.4 209.5 221.4 209.5 226.3C209.5 231.2 205.5 235.2 200.6 235.2Z" fill="white"/>
<path d="M200.6 233.5C204.576 233.5 207.8 230.277 207.8 226.3C207.8 222.324 204.576 219.1 200.6 219.1C196.624 219.1 193.4 222.324 193.4 226.3C193.4 230.277 196.624 233.5 200.6 233.5Z" fill="white"/>
<path d="M160.4 226.3C164.376 226.3 167.6 223.076 167.6 219.1C167.6 215.123 164.376 211.9 160.4 211.9C156.424 211.9 153.2 215.123 153.2 219.1C153.2 223.076 156.424 226.3 160.4 226.3Z" fill="white"/>
<path d="M93.2 227.3C97.1764 227.3 100.4 224.076 100.4 220.1C100.4 216.123 97.1764 212.9 93.2 212.9C89.2235 212.9 86 216.123 86 220.1C86 224.076 89.2235 227.3 93.2 227.3Z" fill="white"/>
<path d="M0 0V300H300V0H0ZM224.8 236.9L223.3 250.3L210.2 235.7L193.2 250.7L177.7 234.5L163.1 246.6L159.2 242.1L162.7 283.5L190.6 291.9V295.7H113V292L141 283.6L144.5 242.3L137.3 247.6L124.5 236.6L115.6 249.8L103.6 233.1L89.4 244.6L78.9 234.8L61.3 239.4L86.8 197.8L85.1 190.5L91.1 182L96.8 181.5L109.4 161L107.2 159.6L91.2 166.8L109.1 135.8L106.9 134.3L108.7 126.4L117.4 121.4L126.8 105.1L124.9 103.4L109.2 108.9L124 83.2L120.9 81.4L124.5 71.6L131.6 70.3L147.3 43.5L136.1 52.6L134.8 51.6L142.8 33.3L125.9 25.1L126.3 23.5L143.8 23.7L145.5 4.5L147.1 4.3L153.5 23.2L169.8 20.1L170.5 21.6L156.7 32.7L168.3 48.8L167.2 50L153.9 42.5L169.1 68L178.3 72.3L177.2 81.6L191.3 105.3L189.9 106.6L178.4 98.9L174.6 104.3L185.8 123.5L193.5 126.9L197.5 133.9L193.7 137.1L209 163.3L207.6 164.6L198.6 158.2L194.3 161.7L205.1 180.6L211 181.6L214.9 187.6L215.3 194.5L214.1 196.3L238.7 239.5L224.8 236.9Z" fill="white"/>
<path d="M129.2 80.1L159.8 80.9001L169.9 77.4001L168.1 70.2L150.9 41.3L128.9 78.9001L129.2 80.1Z" fill="white"/>
<path d="M153.4 235.7L145.6 241.4L142 283.5H161.5L157.9 240.8L153.4 235.7Z" fill="white"/>
<path d="M97.9 202.7L114.4 201.3L136.9 211.9L163.6 203.5L184.1 209.4L206.9 205.3L212.4 197.1L214.3 194.2L214 188L210.5 182.7L206 181.9L211 191.1L209.8 192.4L202.9 200.9L186.2 203.9L163.5 197.4L136.1 206.9L114.3 195.9L100 197.4L92.1 192.5L90.5 191.4L95.9 182.6L91.6 183L86.1 190.7L87.9 197.9L97.9 202.7Z" fill="white"/>
<path d="M141.5 284.6L114.1 292.8V294.6H189.4V292.8L162.1 284.6H141.5Z" fill="white"/>
</g>
<defs>
<clipPath id="clip0_25_552">
<rect width="300" height="300" fill="white"/>
</clipPath>
</defs>
</svg>
