<?xml version="1.0" encoding="utf-8"?>
<!-- Generator: Adobe Illustrator 23.0.3, SVG Export Plug-In . SVG Version: 6.00 Build 0)  -->
<svg version="1.1" id="Layer_1" xmlns="http://www.w3.org/2000/svg" xmlns:xlink="http://www.w3.org/1999/xlink" x="0px" y="0px"
	 viewBox="0 0 300 300" style="enable-background:new 0 0 300 300;" xml:space="preserve">
<style type="text/css">
	.st0{fill:#231F20;}
	.st1{fill:#FFFFFF;}
</style>
<rect class="st0" width="300" height="300"/>
<g>
	<path class="st1" d="M66.9,171.4c-0.7-4.1,0.4-7.8,3-10.1c2.6-2.3,6.3-3,10.2-1.9c3.5,1,6.8,1.6,10,1.9l-0.9-21.6c0,0-0.1,0-0.1,0
		c-0.6-0.1-1.1-0.2-1.7-0.3c-9.1-2.1-16.8-6.7-22.8-13.4c-5.9-6.6-10.1-15.4-12.3-25.9c-0.3,17.4-4.5,37.8-12,59.2
		c-10.5,29.9-12.3,60.2-4.1,69c11.2,12.1,24.4,14.5,35.3,6.3c11.3-8.5,17.2-22.8,18.2-43.8l0-0.5l0,0
		C79.4,186.3,68.6,181.1,66.9,171.4z"/>
	<path class="st1" d="M92.9,159.5c8.2-1,15.1-3,21-6c0.9-2.9,2.2-5.6,4.2-8.2c-9.3,0.3-18-0.8-25.9-3L92.9,159.5z"/>
	<path class="st1" d="M102.1,187.6c3.4-10.9,6.6-21.2,11-29.8c0,0,0,0,0,0c-6.8,3.6-13.9,5.1-21.6,4.7l-0.8-0.1l-0.5,0l0,0
		c-3.4-0.3-6.8-0.9-10.4-1.9c-3.5-1-6.9-0.4-9.1,1.6c-0.4,0.4-0.8,0.8-1.1,1.3l8,2.5l-0.3,1.1l-8.3-2.6c-0.9,1.8-1.2,4-0.9,6.4
		l8.4,3.1L76,175l-7.8-2.9c2.2,8.5,11.9,13.1,22,17l0,0l10.8,1.7C101.4,189.8,101.7,188.7,102.1,187.6z"/>
	<path class="st1" d="M168.2,145.1c1.2,2,2.2,4.3,2.8,6.6c8.6,4,17.1,5.7,25.4,4.8c-0.8-5.9-1.2-12.9-1.4-21.3
		c-3.6,1.9-7.4,3.6-11.3,5.1C178.8,142.3,173.6,143.9,168.2,145.1z"/>
	<path class="st1" d="M104.8,239.9L104.8,239.9c-0.5,0.3-40,24.5-39.8,41.6c0,1.9,0.3,3.6,0.9,5.1c1.5-3.4,4.9-9.3,11.2-11l0.3,1.1
		c-6.4,1.7-9.7,8.4-10.8,11.3c0,0,0,0,0,0c0.1,0.1,0.1,0.3,0.2,0.4c2.7,4.4,8,5.2,11.2,5.3c0.4-3.5,2.3-12.4,10.4-13.9l0.2,1.1
		c-7.3,1.4-9,9.5-9.4,12.8c1.3,0,2.6-0.2,3.7-0.4c35-7.8,49.3-19.9,48-40.4C121.5,251,112.4,246.5,104.8,239.9z"/>
	<path class="st1" d="M122.6,117.1c0,11,4.8,20.1,10.5,20.4c1.4,0.1,2.8-0.4,4.3-1.3c5.7-3.6,6-12,1-25.4
		c-4.9,3.8-10.5,5.5-17.1,5.1l0.8,0.4C122.4,116.4,122.6,116.7,122.6,117.1z"/>
	<path class="st1" d="M53.3,99.4c4.3,20.9,16.5,34.7,34.3,38.8c0.5,0.1,1,0.2,1.5,0.3c0.1,0,0.1,0,0.1,0c0.4,0.1,0.8,0.2,1.3,0.2
		c8.3,1.6,16.2,2.8,23.6,3.7c2.3,0.3,4.5,0.5,6.6,0.7l0.4,0c0.6,0.1,1.2,0.1,1.8,0.2c0.2,0,0.3,0,0.5,0c3.1,0.3,6.3,0.5,9.3,0.6
		c11.1,0.5,21.3,0,30.4-1.5c7.1-1.1,13.6-2.8,19.4-5.1c9-3.5,16.7-8.4,22.8-14.6c12.1-12.4,18-26.5,17.7-41.7c-0.2-1-0.4-2-0.6-3
		l0-0.2c-0.1-2.5-0.3-5-0.6-7.3c0,0,0-0.1,0-0.1C220,61,215.8,51,209.3,40.8c-0.5-0.7-0.9-1.4-1.4-2.1c0,0,0,0,0,0
		c-1.7-2.1-3.6-4.1-5.7-6c-7.7-7.4-18-14-30.4-19.7c-7.3-2.7-14.7-4.5-22-5.5c-7.5-1.1-15.1-1.3-22.6-0.6c0,0-0.1,0-0.1,0
		c-0.5,0-1,0.1-1.4,0.2c-0.5,0.1-1,0.1-1.5,0.2c-0.5,0.1-1,0.1-1.5,0.2c-0.3,0-0.6,0.1-0.9,0.1c-0.5,0.1-1,0.1-1.5,0.2
		c-0.1,0-0.2,0-0.3,0c-7.7,1.3-15.4,3.5-23.1,6.5c0,0-0.1,0-0.1,0c-13.3,6-24.8,15.4-32.9,27.2c-3.8,5.6-6.7,11.6-8.8,17.9
		c0,0,0,0.1,0,0.1c-2.4,8.6-3.5,18.1-3.3,28.7C52,91.9,52.6,95.6,53.3,99.4z M190.1,102.8c0.8,2.9-3.5,6.6-9.6,8.1
		c-6,1.6-11.6,0.5-12.3-2.4s3.5-6.6,9.6-8.1C183.9,98.8,189.4,99.9,190.1,102.8z M163.3,76.9c0.6,2.4,2.7,4.3,5.3,4.3
		c3.1,0.1,5.7-2.3,5.8-5.5c0.1-3.1-2.3-5.7-5.5-5.8c-1,0-1.9,0.2-2.7,0.6c2.2-2.5,5.5-4,9.1-3.9c6.5,0.2,11.6,5.7,11.4,12.2
		c-0.2,6.5-5.7,11.6-12.2,11.4c-6.5-0.2-11.6-5.7-11.4-12.2C163.2,77.7,163.3,77.3,163.3,76.9z M115.7,114.1c0.2-0.4,0.6-0.6,1-0.6
		c8.6,1.7,15.7,0.1,21.5-4.8c0.2-0.2,0.5-0.3,0.8-0.2c0.3,0.1,0.5,0.3,0.6,0.5c5.9,15,5.4,24.3-1.2,28.6c-1.6,1-3.3,1.5-4.9,1.5
		c-0.1,0-0.2,0-0.4,0c-6.7-0.3-12-9.8-12.2-21.6l-4.7-2.4C115.8,114.9,115.6,114.5,115.7,114.1z M87.8,120.4c-0.1,0-0.1,0-0.2,0
		c-5.5,0-9.9-2.6-9.9-5.7c0-3.2,4.5-5.7,10-5.7s10,2.6,10,5.7S93.4,120.4,87.8,120.4z M73.6,90.2c0.6,2.4,2.8,4.2,5.4,4.2
		c3.1,0,5.6-2.5,5.6-5.6c0-3.1-2.5-5.6-5.6-5.6c-1,0-1.9,0.2-2.7,0.7c2.2-2.6,5.4-4.2,9-4.2c6.5,0,11.8,5.3,11.8,11.8
		c0,6.5-5.3,11.8-11.8,11.8c-6.5,0-11.8-5.3-11.8-11.8C73.5,91,73.5,90.6,73.6,90.2z"/>
	<path class="st1" d="M250.3,155.5c-11.8-19.7-20.5-43.1-26.2-69.8c-0.8,13.9-6.8,26.7-17.8,37.9c-2.6,2.6-5.4,5-8.5,7.1l0,2.1
		c0.1,10,0.7,18.1,1.6,24.7l0,0.2l0,0c7.3-1.2,13.4-1.5,15.6,3.1c0.2,0.4,0.3,0.8,0.5,1.3c0.6,2.1,0.8,4.1,0.5,6.1
		c-0.8,5.2-4.5,10-11.9,14.8l0.1,0.9c3,21,12.4,39.6,24.7,48.6c5.5,4.1,11.2,5.8,16.4,4.9c8-1.3,14.1-5,18.2-10.9
		c5.2-7.6,6.7-18.3,4.1-31.1C264.8,181.1,257.2,167.2,250.3,155.5z"/>
	<path class="st1" d="M0,0v300h300V0H0z M265.9,228.2c-4.5,6.5-11.4,10.6-20.1,12c-5.9,1-12.3-0.9-18.5-5.4
		c-12.5-9.2-22.2-27.7-25.6-48.7c-5.3,2.3-12.1,3.8-21.2,4.7c1.1,6.7,1.5,13.9,1.1,22c6.4,0.3,11.6,5.1,13.5,12.4
		c1.9,7.2,0.3,16.6-7.2,21.5c13,9.7,21,20.9,24.4,34.2c1,3.9-0.4,8-3.5,10.5c-0.6,0.5-1.3,0.9-2,1.3c-13.1,6.2-38.7-0.4-53.6-13.9
		c-8.1-7.3-11.7-15.5-10.4-23.3c0,0,0,0,0,0c-1.3,0.3-2.6,0.5-4.1,0.5c-1.6,0-3.3-0.2-5.2-0.5c0,0,0,0,0,0
		c-0.3,25.7-26.9,35-50.3,40.3c-1.5,0.3-3.3,0.5-5,0.5c-3.7,0-10.5-0.9-14-6.6c-1.4-2.3-2.1-5.1-2.1-8.3
		c-0.2-17.1,33.1-39,39.9-43.3c-6.8-12.8-8-27.8-3.5-44.8l-6-0.9c-1.3,21.1-7.6,35.6-19.3,44.4c-12,9-27,6.5-39.1-6.6
		c-10.3-11.1-5.9-45.3,3.5-71.9c7.5-21.5,11.6-42,11.8-59.4C46,60.1,57.3,33.4,84,17.1c21.9-11.5,44.2-15.7,66.3-12.6
		c6,0.9,12.1,2.3,18.2,4.2c0,0,0,0,0,0c10.9,3.2,20.4,8.4,28.4,15.6c0,0,0,0,0,0c2.6,2,5,4,7.3,6.2c13.5,12.8,20.6,28.7,21.3,47.2
		c5.5,29.4,14.7,55.1,27.3,76.3c7.1,11.9,14.8,26,17.7,40.9C273.1,208.5,271.6,220,265.9,228.2z"/>
	<path class="st1" d="M177.5,188.4c-4-20.2-8-35.5-14.4-44.7c-6.8,1.1-14.3,1.6-22.3,1.6c-2.6,0-5.2,0-7.9-0.2
		c-3.2-0.1-6.4-0.3-9.6-0.6c-2.2,2.5-4.3,5.4-6.4,8.8c0,0,0,0,0,0c-0.5,0.8-1,1.7-1.4,2.5h0c-0.2,0.3-0.3,0.5-0.4,0.8
		c-4.8,8.8-8.2,19.7-11.8,31.3c-0.4,1.4-0.9,2.8-1.3,4.3c0,0,0,0.1,0,0.1l-0.1,0.2c-4.9,17.4-3.8,32.7,3.4,45.4l0.7,1.2l-0.1,0
		c8.5,7.3,18.8,11.9,29,13c3.1,0.3,6.1,0.4,9,0.1h0l0.1,0c0.4,0,0.8-0.1,1.2-0.1c18.6-2.3,30.8-15.9,33.6-37.3c0,0,0,0,0-0.1l0-0.5
		c0.6-9.1,0.3-18.2-1.1-25.4L177.5,188.4z"/>
	<path class="st1" d="M214.7,169l-8.3,2.8l-0.4-1.1l8.9-3c0.2-1.7,0-3.5-0.5-5.3c-0.1-0.2-0.1-0.5-0.2-0.7l-9.1,2.5l-0.3-1.1
		l8.9-2.5c-1.9-3-6.5-3-14-1.8l0,0l0,0.1l-1.4,0.2c-2.1,0.3-4.1,0.4-6.2,0.4c-7.3,0-14.8-1.8-22.2-5.3h0c0,0,0,0,0,0
		c3.5,8.9,6.2,20.4,8.9,34l0,0l0.1,0c10.4-1,17.8-2.7,23.3-5.3l0,0c0,0,0.1,0,0.1-0.1l0,0l0.2-0.1
		C209.6,178.2,213.6,173.7,214.7,169z"/>
	<path class="st1" d="M179.7,215.8c-3,21-15.1,34.6-33.4,37.3l0.2,0.1c-3.7,10.4,3.8,19.3,8.7,23.7c11.2,10.1,28.5,16.2,41.3,15.5
		c0,0,0,0,0,0c-0.9-2.8-3.3-9-8.8-11.7l0.5-1c6.2,2.9,8.7,9.7,9.5,12.6c3-0.3,5.7-0.9,8-2c0.5-0.2,1-0.5,1.4-0.9c0,0,0.1,0,0.1-0.1
		c-0.7-3.1-3-11.2-8.5-12.7l0.3-1.1c5.8,1.6,8.3,9.2,9.2,12.9c0,0,0,0,0,0c1.5-1.8,2.1-4.2,1.5-6.6c-3.5-13.2-11.7-24.3-25.1-33.9
		l-2-1.4l2.2-1.1c7.8-3.8,9.4-12.7,7.7-19.4c-1.4-5.3-5.3-10.7-12.2-10.3L179.7,215.8z"/>
</g>
</svg>
