<?xml version="1.0" encoding="utf-8"?>
<!-- Generator: Adobe Illustrator 23.0.3, SVG Export Plug-In . SVG Version: 6.00 Build 0)  -->
<svg version="1.1" id="Слой_1" xmlns="http://www.w3.org/2000/svg" xmlns:xlink="http://www.w3.org/1999/xlink" x="0px" y="0px"
	 viewBox="0 0 300 300" style="enable-background:new 0 0 300 300;" xml:space="preserve">
<style type="text/css">
	
		.st0{fill-rule:evenodd;clip-rule:evenodd;fill:#7ACBE4;stroke:#0A0202;stroke-width:0.2835;stroke-linecap:round;stroke-linejoin:round;stroke-miterlimit:10;}
	
		.st1{fill-rule:evenodd;clip-rule:evenodd;fill:#EFB3D2;stroke:#0A0202;stroke-width:0.2835;stroke-linecap:round;stroke-linejoin:round;stroke-miterlimit:10;}
	
		.st2{fill-rule:evenodd;clip-rule:evenodd;fill:#F08308;stroke:#0A0202;stroke-width:0.2835;stroke-linecap:round;stroke-linejoin:round;stroke-miterlimit:10;}
	
		.st3{fill-rule:evenodd;clip-rule:evenodd;fill:#E43F90;stroke:#0A0202;stroke-width:0.2835;stroke-linecap:round;stroke-linejoin:round;stroke-miterlimit:10;}
	
		.st4{fill-rule:evenodd;clip-rule:evenodd;fill:#FFFFFF;stroke:#0A0202;stroke-width:0.2835;stroke-linecap:round;stroke-linejoin:round;stroke-miterlimit:10;}
	
		.st5{fill-rule:evenodd;clip-rule:evenodd;fill:#94D3E6;stroke:#0A0202;stroke-width:0.2835;stroke-linecap:round;stroke-linejoin:round;stroke-miterlimit:10;}
	.st6{fill:none;stroke:#0A0202;stroke-width:0.2835;stroke-linecap:round;stroke-linejoin:round;stroke-miterlimit:10;}
	
		.st7{fill-rule:evenodd;clip-rule:evenodd;stroke:#0A0202;stroke-width:0.2835;stroke-linecap:round;stroke-linejoin:round;stroke-miterlimit:10;}
</style>
<g>
	<path class="st0" d="M233.2,172.4c-0.1,0.8-0.5,2.3-1.2,4.5c-5.8,17.7-30.4,76.6-30.9,90.1c-0.3-0.1-0.6-0.2-1-0.3
		c-2.8-0.7-5.8-0.8-8.9-0.2c-3.8,0.7-10,6.7-13.9,13.4l0,0c-0.4,0.7-0.8,1.5-1.2,2.2l0,0c-1.7,3.4-2.7,6.8-2.5,9.7l-3.7-0.1
		c0-2.2-0.8-4.7-2.1-7.1c0,0,0-0.1-0.1-0.2c-3.6-7-11-14-15.4-14.8c-2.5-0.4-4.9-0.4-7.3-0.1c-4.4-16.8-34.9-67.9-40.8-83.9
		c-0.7-1.8-1-3.2-1-4c0.3-7,8.3-23.8,10.6-28.4c14.8,14,51.3,45.7,57.8,65.9c0.3,1.1,1.2,1.8,2.2,2c1.1,0.2,2.1-0.2,2.8-1.1
		c10.3-12.9,37.7-48.4,50.1-76.6C228.5,148.7,233.8,166.2,233.2,172.4z"/>
	<path class="st0" d="M224.1,74.5c-1.5-3-3.4-6.5-5.4-10.2c-4.4-8.1-9.5-16.9-13.4-22c0,0-5.9-5.4-1.7-14.1
		c3.6-7.4,11.7-16.5,14.9-22.2c0,0,0-0.1,0.1-0.1c0.2-0.3,0.1-0.6-0.1-0.8c-0.2-0.2-0.6-0.2-0.8,0c-7.4,5.5-19.4,10.5-26.4,14.8
		c-2.1,1.3-3.8,2.5-4.7,3.7c-3.1-1.7-9.9-3-17.9-3.4c-6.2-0.3-13.2-0.2-19.8,0.5c-5.3,0.6-10.4,1.5-14.7,2.8
		c-0.7,0.2-1.4,0.4-2.1,0.7c0,0-7.6,3-29.7-22.4c-0.2-0.2-0.5-0.3-0.8-0.2c-0.3,0.1-0.4,0.4-0.4,0.7c0.8,5.3,4,19.3,14.4,31.2
		c0,0,3.3,7.2-2,15c-2.3,3.4-5.4,8.3-8.4,13.8c-2.5,4.7-4.9,9.9-6.6,15.2l0,0c-0.4,1.1-0.7,2.2-1,3.2c-0.8,3-0.2,6.2,1.8,8.6
		c0.1,0.1,0.1,0.2,0.2,0.2c6.7,8,15,14.9,24.3,20.2c26.2,14.7,60.4,15.8,89.5-10.6c3.8-3.4,7.5-7.4,11.1-11.8c0,0,0,0,0,0
		c2.4-2.9,2.8-6.9,1.1-10.2C225,76.3,224.6,75.5,224.1,74.5z M123.1,45.6c1.3-8.2,9.1-14.9,17.3-14.9c8.2,0,13.8,6.6,12.4,14.9
		c-1.3,8.2-9.1,14.9-17.3,14.9C127.3,60.4,121.8,53.7,123.1,45.6z M183,78.5c-0.1,2.1-0.6,4.2-1.4,6.1c-1.3,3.1-3.5,5.5-6,6
		c-2,0.4-3.8,0.6-5.5,0.6c-0.6,4.5-4.2,8.7-13.6,8.5c-7.9-0.1-9.5-5.8-9.9-8.5c-1.3-0.1-2.8-0.3-4.4-0.6c-2.3-0.4-4.4-2.6-5.7-5.4
		c-0.9-1.8-1.5-3.9-1.7-5.9c-0.2-2,0-4,0.8-5.7c0.8-1.8,2.3-3.3,4.5-4c5-1.6,9.1-1.9,10.1-1.9c-0.1-0.2-0.2-0.5-0.2-0.7
		c-0.2-0.7,0.1-1.4,0.7-1.7c2.8-1.5,10.7-1.9,15.7-0.3c0.4,0.1,0.7,0.4,0.9,0.8c0.2,0.4,0.2,0.8,0,1.1c1.4,0,5.1,0,9.6,1.5
		c2.5,0.8,4.2,2.5,5.2,4.5C182.8,74.5,183.1,76.4,183,78.5z M184.6,60.4c-8.2,0-15.9-6.6-17.3-14.9c-1.3-8.2,4.2-14.9,12.4-14.9
		c8.2,0,15.9,6.6,17.3,14.9C198.3,53.7,192.7,60.4,184.6,60.4z"/>
	<path class="st1" d="M113.4,48.5c-2.3,3.4-5.4,8.3-8.4,13.8c-10.4-35.9-4-60-4-60c0.8,5.3,4,19.3,14.4,31.2
		C115.5,33.5,118.8,40.7,113.4,48.5z"/>
	<path class="st1" d="M218.7,64.4c-4.4-8.1-9.5-16.9-13.4-22c0,0-5.9-5.4-1.7-14.1c3.6-7.4,11.7-16.5,14.9-22.2
		C218.6,7.1,220.8,44.8,218.7,64.4z"/>
	<path class="st2" d="M218.6,6.1C218.6,6.1,218.6,6.1,218.6,6.1"/>
	<path class="st3" d="M168.6,20.3c-6.2-0.3-13.2-0.2-19.8,0.5c0-1.7,0.2-6.3,2.3-8.7c0.6-0.6,1.2-1.2,2.1-1.4
		c3.6-1.1,9.5-2.4,13,2.6c0.1,0.1,0.2,0.3,0.3,0.4C167.4,15.2,168.2,17.6,168.6,20.3z"/>
	<path class="st3" d="M191.2,19.9c-2.1,1.3-3.8,2.5-4.7,3.7c-3.1-1.7-9.9-3-17.9-3.4c-0.5-2.7-1.3-5.1-2.2-6.6
		c6-5.9,13.1-9.8,17.4-11.7c1.2-0.5,2.4-0.5,3.5,0.1c1.1,0.6,1.9,1.5,2.2,2.8C190.3,8.5,191.4,14.4,191.2,19.9z"/>
	<path class="st3" d="M151.1,12.1c-2.1,2.4-2.3,6.9-2.3,8.7c-5.3,0.6-10.4,1.5-14.7,2.8c-3.6-7.6-2.6-15.8-1.2-20.6
		c0.4-1.3,1.3-2.3,2.6-2.7c1.3-0.4,2.6-0.2,3.7,0.6C142,2.9,146.3,6.6,151.1,12.1z"/>
	<path class="st4" d="M140.4,30.7c-8.2,0-15.9,6.6-17.3,14.9s4.2,14.9,12.4,14.9c8.2,0,15.9-6.6,17.3-14.9
		C154.1,37.4,148.6,30.7,140.4,30.7z M139.1,56.6c-6,0-10.8-4.6-10.8-10.3S133.1,36,139.1,36c6,0,10.8,4.6,10.8,10.3
		C150,52,145.1,56.6,139.1,56.6z"/>
	<path class="st4" d="M196.9,45.6c-1.3-8.2-9.1-14.9-17.3-14.9c-8.2,0-13.8,6.6-12.4,14.9c1.3,8.2,9.1,14.9,17.3,14.9
		C192.7,60.4,198.3,53.7,196.9,45.6z M180.2,56.4c-6,0-10.8-4.6-10.8-10.3s4.9-10.3,10.8-10.3c6,0,10.8,4.6,10.8,10.3
		S186.2,56.4,180.2,56.4z"/>
	<path class="st5" d="M139.1,36c-6,0-10.8,4.6-10.8,10.3s4.9,10.3,10.8,10.3c6,0,10.8-4.6,10.8-10.3C150,40.6,145.1,36,139.1,36z
		 M139.1,54.5c-4.7,0-8.6-3.7-8.6-8.2s3.9-8.2,8.6-8.2c4.7,0,8.6,3.7,8.6,8.2S143.9,54.5,139.1,54.5z"/>
	<path class="st5" d="M180.2,35.8c-6,0-10.8,4.6-10.8,10.3s4.9,10.3,10.8,10.3c6,0,10.8-4.6,10.8-10.3S186.2,35.8,180.2,35.8z
		 M180.2,54.3c-4.7,0-8.6-3.7-8.6-8.2s3.9-8.2,8.6-8.2c4.8,0,8.6,3.7,8.6,8.2C188.8,50.6,184.9,54.3,180.2,54.3z"/>
	<path class="st1" d="M167.2,66.8C167.2,66.8,167.2,66.8,167.2,66.8c-1.2,2.5-3.8,7.6-7.5,9.7c-0.2,0.2-0.5,0.2-0.8,0.2h0
		c-0.2,0-0.5-0.1-0.7-0.2c-1.8-1.2-6.6-4.6-8.1-9c-0.1-0.2-0.2-0.5-0.2-0.7c-0.2-0.7,0.1-1.4,0.7-1.7c2.8-1.5,10.7-1.9,15.7-0.3
		c0.4,0.1,0.7,0.4,0.9,0.8C167.4,66,167.4,66.4,167.2,66.8z"/>
	<path class="st4" d="M183,78.5c-0.1,2.1-0.6,4.2-1.4,6.1c-1.3,3.1-3.5,5.5-6,6c-2,0.4-3.8,0.6-5.5,0.6c-7,0.2-10.7-2.9-11.2-10.9
		c0.1-1.1,0.1-2.3,0-3.6c0.3,0,0.5-0.1,0.8-0.2c3.6-2.1,6.3-7.2,7.5-9.7c0,0,0,0,0-0.1c1.4,0,5.1,0,9.6,1.5c2.5,0.8,4.2,2.5,5.2,4.5
		C182.8,74.5,183.1,76.4,183,78.5z"/>
	<path class="st4" d="M216.8,103.9c-1.1-1.6-2.3-3.1-3.5-4.5c-0.1-0.1-0.1-0.1-0.2-0.2c-29.1,26.3-63.3,25.3-89.5,10.6
		c0,0-0.7,1.2-1.9,3.2c0.3,0.7,0.5,1.5,0.5,2.4c0,0.7-0.1,1.4-0.4,2c0.2,0,0.5,0,0.7,0c3.8,0,6.9,3.1,6.9,6.9c0,1.2-0.3,2.4-0.9,3.4
		c1.5-1,3.2-1.6,5.2-1.5c4.3,0.3,7.6,3.9,7.6,8.2c0,0.5-0.1,1.1-0.2,1.5c1.5-1.5,3.5-2.4,5.7-2.4c3.8,0,7,2.7,7.9,6.2
		c1.3-2.6,4-4.4,7.2-4.4c3,0,5.6,1.6,7,4c0.8-3.6,4-6.3,7.9-6.3c2.4,0,4.6,1.1,6.1,2.8c-0.2-0.8-0.3-1.7-0.2-2.6
		c0.3-3.5,3.2-6.3,6.7-6.6c2.5-0.2,4.9,0.8,6.3,2.6c-0.4-0.9-0.5-2-0.4-3.1c0.2-3.7,3.4-6.7,7.1-6.9c1.5,0,2.9,0.3,4,1.1
		c-0.3-0.8-0.4-1.6-0.4-2.4c0-4.1,3.3-7.4,7.4-7.4c0.3,0,0.6,0,1,0.1l0,0c0.6,0.1,1.1,0.2,1.6,0.4c-0.4-0.9-0.7-1.9-0.7-2.9
		C215.4,106.5,215.9,105,216.8,103.9z M223.1,114.6c-0.4,0.1-0.7,0.1-1.1,0.1c-0.7,0-1.4-0.1-2.1-0.3c0.6,1.2,0.9,2.5,0.9,3.9
		c-0.2,3.8-3.3,6.8-7.1,6.9c-1.5,0-2.9-0.3-4-1.1c0.3,0.8,0.4,1.6,0.4,2.4c0,4.1-3.3,7.4-7.4,7.4c-2.3,0-4.3-1-5.7-2.6
		c0.3,0.9,0.5,1.8,0.4,2.8c-0.1,3.7-3,6.8-6.8,7.1c-2.4,0.2-4.6-0.8-6.1-2.4c0.2,0.8,0.3,1.5,0.3,2.4c-0.1,4.2-3.4,7.7-7.5,7.9
		c-3.2,0.2-6-1.5-7.5-4c-0.8,3.6-4,6.3-7.9,6.3c-3.8,0-7-2.7-7.9-6.2c-1.3,2.6-4.1,4.4-7.2,4.4c-4.4,0-8-3.5-8.1-7.9
		c0-0.6,0-1.3,0.2-1.8c-1.6,1.6-3.8,2.5-6.2,2.4c-4-0.2-7.3-3.5-7.6-7.5c-0.1-1.7,0.3-3.4,1.2-4.7c-1.2,0.8-2.6,1.2-4.1,1.1
		c-3.5-0.2-6.3-3-6.5-6.6c0-0.3,0-0.5,0-0.8c-4.8,9.1-9.7,19.9-8.1,23.1c0.5,1,2.8,3.3,6.1,6.5c14.8,14,51.3,45.7,57.8,65.9
		c0.3,1.1,1.2,1.8,2.2,2s2.1-0.2,2.8-1.1c10.3-12.9,37.7-48.4,50.1-76.6c0-0.1,0.1-0.2,0.1-0.3c0.6-1.3,1.1-2.7,1.7-4
		c1.3-3.4,1.4-7.2,0.2-10.7C227.6,124.9,225.7,119.9,223.1,114.6z"/>
	<path class="st6" d="M167.6,283c0,0-1.9-45.3-3.8-63.1"/>
	<line class="st6" x1="186.1" y1="218.5" x2="177.3" y2="279.8"/>
	<path class="st3" d="M72.9,152.8c-3.1-0.5-5.4,0.1-7,1.7c0.2-10.6-8.8-10.5-11.6-10.4c0.2-0.2,0.4-0.3,0.5-0.5
		c2.5-2.3,5.1-4,7.7-5.1c0.9-0.4,1.8-0.7,2.7-1l0,0C70.7,137.1,79.7,141.2,72.9,152.8z"/>
	<path class="st0" d="M65.9,154.4c-2.9,2.7-3.9,8-4.1,13.9c-0.4,9.3-8.2,8.5-8.2,8.5s-20.9,0-5.6-24.9c1.1-1.8,2.2-3.4,3.4-4.8l0,0
		c0.9-1.2,1.9-2.2,2.9-3.2C57,143.9,66.1,143.8,65.9,154.4z"/>
	<path class="st0" d="M88.9,254.1c2.5,5.3,4.4,8.9,4.4,8.9c-3,0.6-6.6,5.2-8.6,10.6c-66.2-8.9-47.3-66.9-6.7-98.6
		c10-7.8,3.3-20.8-5.2-22.3c6.8-11.5-2.2-15.7-7.6-15.3c3-0.9,6-1.2,8.8-1.1c2,0.1,4,0.4,5.8,0.8c8,1.8,14.1,6.8,17.4,14.3
		c10.4,23.5-13.3,28.1-32.2,60.7C43.9,248.5,88.9,254.1,88.9,254.1z"/>
	<path class="st0" d="M145.1,269.5c-9,1.3-16.1,8-19,16.7c0,0,0,0,0,0l-3.7-1.2c0,0,0,0,0-0.1c0-0.8-0.1-1.7-0.6-2.7
		c-5.2-12.3-17.4-21.5-28.6-19.3c0,0-1.9-3.6-4.4-8.9c-5-10.6-12.4-27.7-11.2-34.9c1.9-10.8,19.7-22.6,19.7-22.6l6.9-10.9
		C110.1,201.6,140.7,252.7,145.1,269.5z"/>
	<path class="st0" d="M256.2,241.8c0,8.5-6.8,21.9-7,22.3c-0.9-0.6-1.8-1-2.6-1.1c-9.2-1.7-17.2,3.6-21.2,12
		c-1.1,2.3-1.8,4.7-2.2,7.3c-0.1,0.8-0.1,1.5,0,2.2l0,0c-2.3,1-4.3,1.4-5.5,1.6c0-0.2-0.1-0.3-0.1-0.4c-2.4-9.1-8.6-16.3-16.6-18.7
		c0.4-13.4,25-72.4,30.9-90.1C236.2,186.8,256.2,234.2,256.2,241.8z"/>
	<path class="st4" d="M122.4,285C122.4,285,122.4,285.1,122.4,285c-0.6,9.1-27.6,6.6-27.6,6.6c-12-0.6-12.9-10.1-10-18
		c1.9-5.4,5.6-10,8.6-10.6c11.1-2.2,23.4,7,28.6,19.3C122.3,283.3,122.5,284.2,122.4,285z"/>
	<path class="st4" d="M252.8,291.6c0,0-27.5,2.6-29.5-7.1l0,0c-0.1-0.7-0.2-1.4,0-2.2c0.4-2.6,1.2-5.1,2.2-7.3
		c3.9-8.3,11.9-13.7,21.2-12c0.8,0.2,1.7,0.5,2.6,1.1C257.7,269.4,270.8,290.6,252.8,291.6z"/>
	<path class="st4" d="M184.1,299.6c-7-0.4-10-3.4-10.4-7.6l0,0c0-0.1,0-0.2,0-0.2c-0.2-2.9,0.8-6.4,2.5-9.7l0,0
		c0.4-0.8,0.8-1.5,1.2-2.2l0,0c3.9-6.7,10-12.7,13.9-13.4c3.1-0.6,6.2-0.5,8.9,0.2c0.3,0.1,0.6,0.2,1,0.3c8,2.4,14.2,9.6,16.6,18.7
		c0,0.2,0.1,0.3,0.1,0.4c0.2,0.9,0.4,1.8,0.6,2.8C220.6,303.1,184.1,299.6,184.1,299.6z"/>
	<path class="st4" d="M159.5,299.7c0,0-36.5,3.1-34.3-9.8c0.2-1.3,0.5-2.5,0.9-3.7c0,0,0,0,0,0c2.8-8.7,10-15.4,19-16.7
		c2.3-0.3,4.7-0.3,7.3,0.1c4.4,0.8,11.8,7.7,15.4,14.8c0,0,0.1,0.1,0.1,0.2c1.3,2.5,2,4.9,2.1,7.1v0
		C170,296,167.2,299.3,159.5,299.7z"/>
	<path class="st3" d="M62.6,138.5c-2.6,1.1-5.2,2.8-7.7,5.1c-5.9-3-5-7.6-4.6-9.1c0.1-0.3,0.2-0.4,0.2-0.4s0.5-0.5,1.2-1.2
		c1.3-1.1,3.7-2.2,6-1.4C59.5,132.2,61.3,134.2,62.6,138.5z"/>
	<path class="st3" d="M74.1,136.4c-2.8-0.1-5.8,0.2-8.8,1.1l0,0c-0.9,0.3-1.8,0.6-2.7,1c-1.2-4.3-3-6.3-4.9-7
		c0.4-6.8,10.6-8.3,10.6-8.3S74.3,126.5,74.1,136.4z"/>
	<path class="st3" d="M54.8,143.5c-0.2,0.2-0.4,0.3-0.5,0.5c-1,0.9-1.9,2-2.9,3.2l0,0c-3.4,3.4-5.8,3.6-5.8,3.6
		c-7.4,0.3-7.4-14.6-7.4-14.6s6.6-4.6,12.1-1.7C49.8,135.9,48.9,140.6,54.8,143.5z"/>
	<path class="st6" d="M97.4,196.6c0,0,13.8,21.6,19.4,52.4"/>
	<path class="st6" d="M229.8,229.2c0,0,2.4,19-4.3,45.7"/>
	<path class="st4" d="M170.1,91.2c-0.6,4.5-4.2,8.7-13.6,8.5c-7.9-0.1-9.5-5.8-9.9-8.5c7.7,0.6,11.8-2.4,12.3-10.8
		C159.4,88.3,163.1,91.4,170.1,91.2z"/>
	<path class="st6" d="M174.1,75.6c0,0,26-13,57.9,2.2"/>
	<path class="st6" d="M237.5,95.4c-7.4-11.2-38.6-21.9-68.1-14.5"/>
	<path class="st6" d="M173.7,85.4c0,0,15.7-4.5,31.8,7.2"/>
	<path class="st3" d="M122.3,115.4c0,0.7-0.1,1.4-0.4,2c-1.3,0.1-2.5,0.6-3.4,1.4c-0.9,0.7-1.7,1.7-2.2,2.8c-0.3,0-0.7,0.1-1,0.1
		c-3.8,0-6.1-3.1-6.1-6.6s3.1-6.2,7-6.2c2.9,0,4.5,1.9,5.6,4.2C122.1,113.7,122.3,114.5,122.3,115.4z"/>
	<path class="st3" d="M129.6,124.2c0,1.2-0.3,2.4-0.9,3.4l0,0c-0.9,0.6-1.6,1.4-2.2,2.3l0,0c-1.1,0.7-2.4,1.1-3.8,1.1
		c-3.8,0-6.9-3.1-6.9-6.9c0-0.2,0-0.3,0-0.5c0-0.8,0.2-1.5,0.5-2.2c0.5-1.1,1.2-2.1,2.2-2.8c1-0.7,2.1-1.2,3.4-1.4
		c0.2,0,0.5,0,0.7,0C126.5,117.3,129.6,120.4,129.6,124.2z"/>
	<path class="st3" d="M141.4,134.1c0,0.6-0.1,1.1-0.2,1.7l0,0c-1.1,1.1-1.8,2.5-2.1,4l0,0c-1.5,1.5-3.5,2.4-5.7,2.4
		c-4.5,0-8.1-3.6-8.1-8.1c0-1.5,0.4-3,1.2-4.2l0,0c0.6-0.9,1.3-1.7,2.2-2.3l0,0c1.3-0.9,3-1.5,4.7-1.5
		C137.8,126.1,141.4,129.7,141.4,134.1z"/>
	<path class="st3" d="M154,143.3c0,0.6,0.1,1.3,0.2,1.8c-1.3,2.6-4,4.4-7.2,4.4c-4.5,0-8.1-3.6-8.1-8.1c0-0.6,0.1-1.1,0.2-1.7l0,0
		c0.3-1.5,1.1-2.9,2.1-4l0,0c1.5-1.5,3.5-2.4,5.7-2.4c3.8,0,7,2.7,7.9,6.2C154.3,140.7,154,142,154,143.3z"/>
	<path class="st3" d="M170.1,143.3c0,0.6-0.1,1.2-0.2,1.8c-0.8,3.6-4,6.3-7.9,6.3c-3.8,0-7-2.7-7.9-6.2c-0.1-0.6-0.2-1.2-0.2-1.8
		c0-1.3,0.3-2.6,0.9-3.7c1.3-2.6,4-4.4,7.2-4.4c3,0,5.6,1.6,7,4C169.7,140.5,170.1,141.8,170.1,143.3z"/>
	<path class="st3" d="M185,141.1c0,4.5-3.6,8.1-8.1,8.1c-3,0-5.6-1.6-7-4c0.1-0.6,0.2-1.2,0.2-1.8c0-1.5-0.4-2.9-1.1-4
		c0.8-3.6,4-6.3,7.9-6.3c2.4,0,4.6,1.1,6.1,2.8c0.8,0.9,1.3,1.9,1.7,3l0,0C184.8,139.5,185,140.3,185,141.1z"/>
	<path class="st3" d="M197.5,133.9c0,4.1-3.3,7.4-7.4,7.4c-2.2,0-4.1-0.9-5.5-2.4l0,0c-0.3-1.1-0.9-2.2-1.7-3
		c-0.2-0.6-0.2-1.3-0.2-1.9c0-4.1,3.3-7.4,7.4-7.4c2.3,0,4.3,1,5.7,2.6l0,0c0.5,0.6,1,1.4,1.3,2.2l0,0
		C197.3,132.1,197.5,133,197.5,133.9z"/>
	<path class="st3" d="M210.1,126.6c0,4.1-3.3,7.4-7.4,7.4c-2.3,0-4.3-1-5.7-2.6l0,0c-0.3-0.8-0.7-1.5-1.3-2.2l0,0
		c-0.3-0.8-0.4-1.7-0.4-2.5c0-4.1,3.3-7.4,7.4-7.4c1.4,0,2.7,0.4,3.8,1.1c1.5,0.9,2.6,2.3,3.2,3.9l0,0
		C209.9,125,210.1,125.8,210.1,126.6z"/>
	<path class="st3" d="M220.8,117.9c0,4.1-3.3,7.4-7.4,7.4c-1.4,0-2.7-0.4-3.8-1.1l0,0c-0.6-1.7-1.7-3-3.2-3.9
		c-0.3-0.8-0.4-1.6-0.4-2.4c0-4.1,3.3-7.4,7.4-7.4c0.3,0,0.6,0,1,0.1l0,0c0.6,0.1,1.1,0.2,1.6,0.4c0.2,0.1,0.4,0.2,0.7,0.3
		c1.4,0.7,2.5,1.8,3.3,3.1C220.5,115.4,220.8,116.6,220.8,117.9z"/>
	<path class="st3" d="M228.7,108.1c0,3.3-2.4,6.1-5.6,6.6c-0.4,0.1-0.7,0.1-1.1,0.1c-0.7,0-1.4-0.1-2.1-0.3
		c-0.7-1.4-1.9-2.5-3.3-3.1c-0.2-0.1-0.4-0.2-0.7-0.3c-0.4-0.9-0.7-1.9-0.7-2.9c0-1.6,0.6-3,1.5-4.2c1.2-1.5,3.1-2.5,5.2-2.5
		c0.4,0,0.9,0,1.3,0.1C226.4,102.2,228.7,104.8,228.7,108.1z"/>
	<path class="st3" d="M223.3,101.5c-0.4-0.1-0.9-0.1-1.3-0.1c-2.1,0-4,1-5.2,2.5c-1.1-1.6-2.3-3.1-3.5-4.5c1.1-0.9,2.5-1.4,4.1-1.4
		C220,98,222.2,99.4,223.3,101.5z"/>
	<path class="st7" d="M180.2,37.9c-4.7,0-8.6,3.7-8.6,8.2s3.9,8.2,8.6,8.2c4.8,0,8.6-3.7,8.6-8.2S184.9,37.9,180.2,37.9z
		 M179.3,47.7c-2.5,0-4.6-2-4.6-4.4s2.1-4.4,4.6-4.4c2.5,0,4.6,2,4.6,4.4C183.9,45.8,181.8,47.7,179.3,47.7z"/>
	<path class="st7" d="M139.1,38.1c-4.7,0-8.6,3.7-8.6,8.2s3.9,8.2,8.6,8.2c4.7,0,8.6-3.7,8.6-8.2C147.7,41.8,143.9,38.1,139.1,38.1z
		 M141.3,47.7c-2.5,0-4.6-2-4.6-4.4s2.1-4.4,4.6-4.4c2.5,0,4.6,2,4.6,4.4C145.9,45.8,143.8,47.7,141.3,47.7z"/>
	<path class="st4" d="M158.9,80.3c-0.5,8.4-4.6,11.4-12.3,10.8c-1.3-0.1-2.8-0.3-4.4-0.6c-2.3-0.4-4.4-2.6-5.7-5.4
		c-0.9-1.8-1.5-3.9-1.7-5.9c-0.2-2,0-4,0.8-5.7c0.8-1.8,2.3-3.3,4.5-4c5-1.6,9.1-1.9,10.1-1.9c1.5,4.4,6.2,7.8,8.1,9
		c0.2,0.2,0.5,0.2,0.7,0.2L158.9,80.3z"/>
	<path class="st6" d="M143.3,75.3c0,0-27.2-10.1-57.3,8.4"/>
	<path class="st6" d="M147.4,79.8c-32.6-3.7-59.3,16.9-65,22.1"/>
	<path class="st6" d="M144.8,85.1c0,0-16.1-2.8-30.8,10.6"/>
	<path class="st4" d="M183.9,43.3c0,2.4-2.1,4.4-4.6,4.4c-2.5,0-4.6-2-4.6-4.4s2.1-4.4,4.6-4.4C181.8,39,183.9,41,183.9,43.3z"/>
	<path class="st4" d="M145.9,43.3c0,2.4-2.1,4.4-4.6,4.4c-2.5,0-4.6-2-4.6-4.4s2.1-4.4,4.6-4.4S145.9,41,145.9,43.3z"/>
</g>
</svg>
