<?xml version="1.0" encoding="utf-8"?>
<!-- Generator: Adobe Illustrator 23.0.3, SVG Export Plug-In . SVG Version: 6.00 Build 0)  -->
<svg version="1.1" id="Слой_1" xmlns="http://www.w3.org/2000/svg" xmlns:xlink="http://www.w3.org/1999/xlink" x="0px" y="0px"
	 viewBox="0 0 300 300" style="enable-background:new 0 0 300 300;" xml:space="preserve">
<style type="text/css">
	.st0{display:none;}
	.st1{fill:#FFFFFF;}
</style>

<g id="Слой_1" class="st0">
		<image style="display:inline;overflow:visible;opacity:0.29;" width="1919" height="1079" xlink:href="../обезьяна/обезьяна.jpg"  transform="matrix(3.3569 0 0 3.3569 -3467.6089 -1843.7804)">
	</image>
</g>
<g id="Слой_2">
	<rect width="300" height="300"/>
	<g  >
		<path class="st1" d="M165.1,15.6c0,0-0.1-0.1-0.1-0.1c-1.6-2.2-3.8-2.9-6-2.9c-1.8,0-3.6,0.4-5.3,0.9c0,0-0.1,0-0.1,0
			c-0.1,0-0.1,0-0.2,0c-0.1,0-0.2,0.1-0.2,0.1c-0.3,0.2-0.5,0.4-0.9,0.8c0,0,0,0-0.1,0.1c-0.1,0.1-0.1,0.2-0.2,0.3
			c-0.1,0.1-0.1,0.1-0.2,0.2c0,0-0.1,0.1-0.1,0.2c0,0-0.1,0.1-0.1,0.2c0,0-0.1,0.1-0.1,0.2c-0.1,0.1-0.1,0.2-0.2,0.3
			c-0.1,0.2-0.1,0.3-0.2,0.5s-0.1,0.4-0.2,0.5c0,0,0,0.1,0,0.1c0,0.1,0,0.2-0.1,0.3c0,0,0,0.1,0,0.2v0c-0.1,0.2-0.1,0.4-0.1,0.6
			c0,0.2-0.1,0.4-0.1,0.5c0,0.1,0,0.2,0,0.3c0,0.2-0.1,0.4-0.1,0.6c0,0.1,0,0.1,0,0.2c0,0,0,0.1,0,0.1c0,0.1,0,0.2,0,0.2
			c0,0.1,0,0.2,0,0.4c0,0,0.1,0,0.2,0c1.2-0.1,2.3-0.2,3.5-0.3c0.6,0,1.1-0.1,1.7-0.1c0.3,0,0.5,0,0.8,0c0.5,0,0.9,0,1.4,0
			c0.4,0,0.8,0,1.1,0c0.2,0,0.4,0,0.6,0c0.2,0,0.4,0,0.6,0h0.4c0.7,0,1.3,0,2,0c0.2,0,0.4,0,0.7,0c0.4,0,0.7,0,1.1,0
			c0.2,0,0.3,0,0.5,0c0.6,0,1.3,0,1.9,0h0.2c-0.4-1.6-0.9-3.1-1.5-4.1C165.2,15.8,165.2,15.7,165.1,15.6L165.1,15.6
			C165.1,15.6,165.1,15.6,165.1,15.6z"/>
		<path class="st1" d="M112.2,48.7c4.5-6.5,2.3-12.4,2-13.2c-7.3-8.3-11-17.5-12.9-24c-1,9.1-1.5,26.1,4.2,47.8
			C108.2,54.6,110.8,50.7,112.2,48.7C112.2,48.7,112.2,48.7,112.2,48.7z"/>
		<path class="st1" d="M147.3,20.7c0-0.1,0-0.2,0-0.2c0-0.2,0-0.4,0-0.6c0-0.2,0-0.4,0.1-0.6c0-0.1,0-0.2,0-0.4
			c0-0.3,0.1-0.5,0.1-0.8c0-0.3,0.1-0.5,0.1-0.8c0-0.1,0-0.1,0-0.2c0.1-0.3,0.2-0.6,0.2-0.9c0.1-0.2,0.1-0.3,0.2-0.5
			c0-0.1,0.1-0.3,0.1-0.4c0.2-0.4,0.3-0.9,0.5-1.3c0.1-0.2,0.2-0.4,0.3-0.5c-5.2-5.7-9.3-8.9-10.8-10c-0.5-0.3-1-0.5-1.5-0.5
			c-0.3,0-0.6,0-0.8,0.1c-1,0.3-1.4,1.1-1.6,1.7c-0.9,3-2.5,10.6,0.6,18.2C138.5,22,142.6,21.3,147.3,20.7z"/>
		<path class="st1" d="M135.5,59.9c3.7,0,7.4-1.5,10.2-3.9c-1.9,1.3-4.1,2-6.6,2c-6.2,0-11.3-4.8-11.3-10.7c0-5.9,5.1-10.7,11.3-10.7
			c3.1,0,6.2,1.2,8.3,3.4c2,2,3,4.6,3,7.3c0,1.4-0.3,2.8-0.8,4c0.9-1.5,1.5-3.2,1.8-5c0.6-3.6-0.2-6.9-2.3-9.3
			c-2.1-2.4-5.1-3.7-8.6-3.7c-7.5,0-14.6,6.1-15.8,13.5c0,0,0,0,0,0c-0.6,3.5,0.3,6.8,2.4,9.2C129,58.5,132,59.9,135.5,59.9z"/>
		<path class="st1" d="M138.6,69.4c0.3-0.1,0.7-0.3,1-0.4c3.5-1.1,6.7-1.6,8.7-1.8c0,0,0.1,0,0.1,0c0.1-1,0.7-1.9,1.6-2.3
			c3.4-1.8,11.7-2,16.8-0.4c0.7,0.2,1.3,0.7,1.7,1.5c0,0,0,0,0,0c0,0,0,0,0,0c0,0,0,0.1,0,0.1c0,0.1,0,0.1,0.1,0.2
			c1.9,0.1,5,0.4,8.6,1.5c0.5,0.1,0.9,0.3,1.3,0.5c0.2,0.1,0.3,0.2,0.5,0.3c0.2,0.1,0.3,0.2,0.5,0.3c0,0,0,0,0,0c0,0,0.1,0,0.1,0
			c8.3-2.6,22.4-5.6,37.3-3.2c-5.3-9.7-9.8-17.1-13-21.2c-0.9-0.9-2-2.3-2.7-4.2c-0.1-0.2-0.1-0.4-0.2-0.5c0-0.1,0-0.2-0.1-0.2
			c0-0.1-0.1-0.3-0.1-0.4c0,0,0,0,0,0c0-0.2-0.1-0.4-0.1-0.6c0-0.2-0.1-0.4-0.1-0.6c0,0,0,0,0,0c0-0.1,0-0.2,0-0.2c0-0.1,0-0.3,0-0.4
			c0-0.1,0-0.2,0-0.2c0,0,0,0,0,0c0-0.2,0-0.5-0.1-0.7c0-0.5,0-0.9,0-1.5c0-0.5,0.1-0.9,0.2-1.4c0-0.1,0-0.1,0-0.2
			c0.1-0.3,0.1-0.7,0.2-1.1c0-0.1,0.1-0.3,0.1-0.5c0-0.1,0.1-0.3,0.1-0.4c0.3-0.8,0.6-1.6,1-2.5c2.1-4.3,5.8-9.3,9-13.6
			c1.3-1.7,2.5-3.4,3.6-5c-3.9,2.4-8.5,4.7-12.9,7c-3.7,1.9-7.2,3.6-9.9,5.3c-1.5,1-3.5,2.2-4.3,3.3c-0.5,0.6-1.3,0.8-1.9,0.4
			c-2.9-1.6-9.5-2.8-17.3-3.2h-0.1c-3.3-0.2-7.7-0.3-12.7,0c-0.5,0-1.1,0-1.6,0.1c-1.1,0.1-2.2,0.1-3.4,0.2c-0.6,0-1.1,0.1-1.7,0.2
			c-5.7,0.6-10.5,1.6-14.4,2.7c-0.7,0.2-1.3,0.4-1.9,0.6c-0.9,0.3-8.8,2.5-29.5-20.4c1.3,5.9,4.7,17.3,13.5,27.2
			c0.1,0.1,0.2,0.2,0.2,0.4c0.1,0.3,3.6,8-2.1,16.3c-1.7,2.4-5,7.4-8.3,13.5c-0.4,0.7-0.7,1.3-1.1,2
			C118.7,64.5,130.9,67.1,138.6,69.4z M168.9,35.1c2.6-3,6.5-4.7,10.8-4.7c9,0,17.3,7,18.8,16c0.7,4.4-0.4,8.6-3.1,11.7
			c-2.6,3.1-6.5,4.7-10.8,4.7c-9,0-17.3-7-18.8-16C165.1,42.4,166.2,38.2,168.9,35.1z M121.6,46.4c0.7-4.4,3.2-8.4,6.6-11.3
			c3.4-2.9,7.7-4.7,12.2-4.7c4.4,0,8.3,1.7,10.9,4.8c2.7,3.1,3.7,7.3,3,11.7c-1.4,8.8-9.8,16-18.8,16c-4.4,0-8.2-1.8-10.8-4.9
			C122,54.9,120.9,50.8,121.6,46.4z"/>
		<path class="st1" d="M169.8,20c7,0.4,12.9,1.5,16.3,3c1-0.9,2.3-1.8,3.6-2.7c0.1-3.8-0.5-8.4-1.7-13.8c-0.2-0.8-0.6-1.3-1.5-1.8
			c-0.7-0.4-1.4-0.4-2.2,0c-0.2,0.1-0.4,0.2-0.6,0.3c-0.2,0.1-0.4,0.2-0.7,0.3c-0.4,0.2-0.7,0.4-1.2,0.6c-0.5,0.3-1.2,0.6-1.8,0.9
			c-0.2,0.1-0.3,0.2-0.5,0.3c-0.2,0.1-0.5,0.3-0.7,0.4c-0.1,0-0.1,0.1-0.2,0.1c-0.2,0.1-0.4,0.3-0.7,0.4c-0.2,0.1-0.3,0.2-0.5,0.3
			c0,0,0,0,0,0c-0.3,0.2-0.7,0.4-1.1,0.7c-1.5,0.9-3.1,2-4.7,3.3c-0.8,0.6-1.6,1.3-2.4,1.9c-0.4,0.3-0.8,0.7-1.2,1.1c0,0,0,0,0,0
			C168.9,16.5,169.4,18.2,169.8,20L169.8,20z"/>
		<path class="st1" d="M144.6,89.7c-0.1,0-1.1-0.2-2.6-0.1c0.2,0.1,0.3,0.1,0.5,0.1c1.5,0.3,3,0.5,4.3,0.6c3.6,0.3,6.2-0.3,7.8-1.7
			c1.7-1.5,2.6-3.9,2.8-7.6v0c0,0,0-0.1,0-0.1c0.1-0.7,0.1-1.5,0.1-2.3c0,0-0.1,0-0.1,0c-2.8-1.9-6.4-4.8-8.2-8.4
			c-1.2,0.1-3.3,0.4-5.7,1c2.1,0.8,3.4,1.3,3.5,1.4c1.1,0.5,1.6,1.8,1.1,3c-0.5,1.1-1.8,1.6-3,1.1c-0.1-0.1-2.8-1.4-7.1-3
			c-0.5,0.5-0.8,1-1,1.5c-0.5,1-0.7,2.2-0.7,3.5c7.2,0.3,12,1.3,12.2,1.3c1.2,0.3,2,1.4,1.7,2.7c-0.3,1.2-1.4,2-2.6,1.7
			c-0.2,0-4.3-1.2-10.7-1.7c0.3,0.9,0.6,1.9,1,2.7c0.2,0.4,0.4,0.8,0.6,1.1c3.8-0.8,6.6-0.3,6.8-0.3c1,0.2,1.7,1.2,1.6,2.2
			C146.6,89.1,145.6,89.8,144.6,89.7z"/>
		<path class="st1" d="M170.7,79.1c0.2,0,4.4-0.9,10.8-1.3v0c0-0.2,0-0.5-0.1-0.7c0-0.1,0-0.3,0-0.4c-0.1-0.4-0.1-0.7-0.2-1.1
			c-0.1-0.5-0.3-0.9-0.5-1.4c0-0.1-0.1-0.1-0.1-0.2c0,0,0-0.1,0-0.1c-0.2-0.3-0.3-0.6-0.6-0.8c-3.7,1.4-5.9,2.5-6,2.6
			c-1.2,0.5-2.5,0-3-1.1c-0.5-1.2,0-2.5,1.1-3c0.1,0,1.3-0.6,3.4-1.3c-3.2-0.9-5.9-1.1-7.4-1.1c-0.1,0.1-0.2,0.3-0.2,0.4c0,0,0,0,0,0
			c-0.1,0.1-0.2,0.3-0.3,0.5c-0.1,0.1-0.2,0.3-0.2,0.4c-1.2,2.1-2.7,4.3-4.4,6c-0.3,0.3-0.6,0.5-0.8,0.8c-0.2,0.1-0.3,0.3-0.5,0.4
			c-0.2,0.1-0.3,0.2-0.5,0.4c-0.2,0.1-0.4,0.3-0.6,0.4c0,0,0,0,0,0c0,0.9,0,1.7-0.1,2.5c0,0.4,0.1,0.9,0.1,1.3
			c0.2,1.5,0.5,2.7,0.9,3.8c0.4,0.9,0.9,1.6,1.5,2.2c0.3,0.3,0.7,0.6,1,0.8c0.5,0.3,1,0.5,1.5,0.7c0,0,0,0,0.1,0
			c0.5,0.2,1.1,0.3,1.7,0.4c0.8,0.1,1.7,0.1,2.7,0.1h0c0,0,0,0,0,0c1.6,0,3.3-0.2,5.2-0.6c0.2,0,0.3-0.1,0.5-0.1
			c0.1,0,0.2-0.1,0.3-0.1c0.3-0.1,0.6-0.3,0.9-0.5c-1.6-0.1-2.6,0.1-2.7,0.1c-1,0.1-2-0.6-2.2-1.6c-0.1-1,0.6-2,1.6-2.2
			c0.2,0,2.6-0.4,6,0.2c0.1-0.2,0.3-0.5,0.4-0.8c0.4-0.9,0.7-1.8,0.9-2.8c-5.7,0.5-9.4,1.5-9.5,1.6c-1.2,0.3-2.3-0.5-2.6-1.7
			C168.7,80.5,169.5,79.4,170.7,79.1z"/>
		<path class="st1" d="M213.7,17.1c-3.2,4.2-6.8,9-8.8,13.1c-0.7,1.5-1.1,2.9-1.3,4.2c-0.1,0.7-0.1,1.3,0,1.9
			c0.3,3.9,2.6,6.1,2.7,6.1c0.1,0.1,0.1,0.1,0.2,0.2c2.9,3.7,6.6,9.6,11.1,17.7c0,0,0-0.1,0-0.1c0,0,0,0,0,0
			c1-15.5,0.1-38.3-0.4-47.9C216.2,13.7,215,15.4,213.7,17.1z"/>
		<path class="st1" d="M183,72.2L183,72.2c0.1,0.2,0.2,0.4,0.4,0.7c0,0,0,0,0,0.1c0,0,0,0.1,0.1,0.1c0.4,0.8,0.6,1.6,0.8,2.5
			c0,0.2,0.1,0.4,0.1,0.6c0,0.1,0,0.3,0,0.4c0,0.2,0,0.4,0.1,0.6c0,0.2,0,0.4,0,0.6c10.6-0.2,25.6,1.2,39.1,8.9
			c1.8-2.3,2-5.4,0.7-8.1c-0.6-0.9-1.1-1.7-1.6-2.7c-0.2-0.5-0.5-1-0.7-1.4c-0.4-0.8-0.9-1.7-1.4-2.6c-0.3-0.5-0.5-1-0.8-1.4
			C205.3,66.6,191.5,69.4,183,72.2z"/>
		<path class="st1" d="M139.1,37.7c-5.7,0-10.3,4.4-10.3,9.7s4.6,9.7,10.3,9.7c5.7,0,10.3-4.4,10.3-9.7c0-2.5-0.9-4.8-2.7-6.6
			C144.7,38.8,142,37.7,139.1,37.7z M139.1,56c-5,0-9.1-3.9-9.1-8.6s4.1-8.6,9.1-8.6c5,0,9.1,3.9,9.1,8.6S144.1,56,139.1,56z"/>
		<path class="st1" d="M78.9,175.9c-26.1,20.2-40.6,48.2-35.1,68.1c3.9,14.2,17.7,23.4,39.9,26.6c1.7-3.9,4.4-7.9,7.4-9.6
			c-0.7-1.4-1.9-3.7-3.3-6.7c-4.2-0.7-21.7-4.1-27.8-16.4c-3.8-7.5-2.5-16.6,3.7-27.3c7.2-12.2,15.1-20.6,21.4-27.3
			c10.5-11.1,16.8-17.8,10.7-31.4c-3.1-7-8.8-11.6-16.4-13.3c-1.7-0.4-3.4-0.6-5-0.7c-0.1,0-0.3,0.1-0.4,0.1c-0.4,0-0.9,0-1.3,0
			c0.2,0.2,0.5,0.3,0.7,0.5c0.1,0.1,0.2,0.2,0.3,0.3c0.2,0.2,0.4,0.3,0.5,0.5c0.5,0.5,0.9,1,1.3,1.5c1.3,2.1,2.2,5.6-0.4,11
			c4.2,1.6,7.8,5.5,9,10.2C85.4,167.3,83.5,172.3,78.9,175.9z"/>
		<path class="st1" d="M64.3,136.4c0.1-0.1,0.3-0.2,0.5-0.3c2.5-0.7,5.1-1.1,7.8-1.1c-0.3-6.2-3.4-9.1-4.6-9.9
			c-1.8,0.4-7.6,1.9-8.6,5.8c1.8,1.1,3.2,3,4.2,5.8C63.8,136.5,64,136.4,64.3,136.4z"/>
		<path class="st1" d="M57.2,133c-1.7-0.6-3.6,0.4-4.4,1.1l-1,1c-0.6,2.4,0.1,4.4,2,6c0,0,0,0,0.1,0.1c0.1,0,0.1,0.1,0.2,0.1
			c0.2,0.1,0.4,0.3,0.7,0.4c2-1.7,4-3,6.1-4C59.8,135.2,58.5,133.6,57.2,133z"/>
		<path class="st1" d="M44.8,170.7c2.4,4.2,8.7,4.3,8.8,4.3c0.1,0,0.1,0,0.2,0c0,0,2.5,0.2,4.3-1.4c1.4-1.2,2.1-3.1,2.2-5.6
			c0.2-7,1.5-11.6,4.1-14.3c0-0.1,0-0.2,0-0.2c0-0.1,0-0.2,0-0.3c0-0.3,0-0.6-0.1-0.8c0,0,0,0,0-0.1c-0.3-1.9-0.9-3.4-2-4.5
			c-2.2-2.2-5.8-2.3-7.4-2.2c-0.7,0.7-1.3,1.5-2.1,2.3l-0.2,0.2c0,0-0.1,0.1-0.1,0.1c-0.1,0.1-0.2,0.2-0.3,0.3
			c-0.9,1.2-1.8,2.4-2.9,4.1C44.2,160.7,42.7,167,44.8,170.7z"/>
		<path class="st1" d="M151.5,67.9c0,0.1,0.1,0.3,0.1,0.4c1,2.5,3.6,5.2,7.3,7.7h0c0,0,0,0,0,0c0,0,0,0,0.1,0l0,0
			c0.1-0.1,0.3-0.2,0.4-0.3c0.1-0.1,0.3-0.2,0.4-0.3c2.9-2.2,5-6.4,5.8-8.1c0,0,0.1-0.1,0.1-0.1c0,0,0,0,0,0c-5-1.5-12.2-1-14.4,0.2
			c0,0.1,0,0.2,0.1,0.3c0,0,0,0.1,0,0.1C151.5,67.7,151.5,67.8,151.5,67.9z"/>
		<path class="st1" d="M39.7,137.1c0.1,2.9,0.9,8.8,3.3,11.2c0.7,0.7,1.5,1,2.5,1c0,0,1.8-0.3,4.4-2.7c0.1-0.1,0.2-0.3,0.4-0.4
			c0.6-0.8,1.3-1.6,2.1-2.3c-3.9-2.7-4.1-6.3-3.8-8.3C45.1,134.4,41.2,136.3,39.7,137.1z"/>
		<path class="st1" d="M145.4,42.7c-0.1-0.2-0.2-0.3-0.3-0.5c0,0,0,0,0,0c-0.1-0.1-0.1-0.2-0.2-0.3c-0.3-0.4-0.7-0.7-1.1-1
			c-0.1-0.1-0.2-0.1-0.3-0.2c-0.4-0.2-0.8-0.4-1.2-0.5c-0.1,0-0.2,0-0.3-0.1c0,0,0,0-0.1,0c0,0,0,0,0,0c-0.2,0-0.4,0-0.7,0
			c-2.4,0-4.5,1.9-4.5,4.2s2,4.2,4.5,4.2s4.5-1.9,4.5-4.2c0-0.1,0-0.2,0-0.3c0-0.1,0-0.2,0-0.2c0-0.1,0-0.2-0.1-0.3c0,0,0-0.1,0-0.1
			c0-0.1,0-0.2-0.1-0.2c0-0.1,0-0.1-0.1-0.2C145.4,42.9,145.4,42.8,145.4,42.7z"/>
		<path class="st1" d="M67.2,151.8c1.3-0.6,2.9-0.8,4.7-0.6c2-3.6,2.4-6.7,1-8.9c-0.3-0.6-0.8-1-1.3-1.4c-1.7-1.3-4-1.8-6-1.8
			c-0.8,0.3-1.6,0.5-2.4,0.9c0,0,0,0,0,0c0,0,0,0,0,0c-1.6,0.7-3.2,1.6-4.8,2.8c2,0.4,4.3,1.2,6.1,3C66,147.3,66.9,149.3,67.2,151.8z
			"/>
		<path class="st1" d="M168.9,47c0.1-5.8,5.1-10.5,11.3-10.5c6.2,0,11.3,4.8,11.3,10.7c0,5.9-5.1,10.7-11.3,10.7
			c-1.5,0-2.9-0.3-4.3-0.8c2.6,1.7,5.6,2.8,8.7,2.8c3.4,0,6.4-1.3,8.5-3.7c2.1-2.5,3-5.8,2.4-9.3c-1.3-7.4-8.4-13.5-15.8-13.5
			c-3.4,0-6.5,1.3-8.5,3.7c-2.1,2.5-3,5.8-2.4,9.4C168.8,46.5,168.9,46.8,168.9,47z"/>
		<path class="st1" d="M190.5,47.2c0-5.3-4.6-9.7-10.3-9.7s-10.3,4.4-10.3,9.7c0,5.3,4.6,9.7,10.3,9.7S190.5,52.5,190.5,47.2z
			M171.1,47.2c0-4.8,4.1-8.6,9.1-8.6c5,0,9.1,3.9,9.1,8.6c0,4.8-4.1,8.6-9.1,8.6C175.2,55.8,171.1,51.9,171.1,47.2z"/>
		<path class="st1" d="M183.8,44.4c0-2.2-2-4.1-4.5-4.2c-2.4,0-4.4,1.9-4.4,4.2s2,4.2,4.5,4.2S183.8,46.7,183.8,44.4z"/>
		<path class="st1" d="M123.4,280.5c0.2,0.6,0.4,1.3,0.4,2l1.3,0.4c2.9-7.6,9-13.3,16.4-15.4c0.5-0.1,1-0.3,1.5-0.4
			c-3.2-9.9-13.6-29.4-22.9-46.8c-6.7-12.5-13.1-24.4-16.3-31.8l-5.3,8.3c-0.1,0.2-0.3,0.3-0.4,0.4c-0.2,0.1-17.3,11.4-19,21.4
			c-0.8,4.9,3.1,16.8,11,33.4c0.1,0.1,0.1,0.2,0.2,0.3c1.7,3.5,3.1,6.3,3.8,7.7c7.3-0.9,15,2.3,21.1,8.3c0,0,0,0,0,0
			c0.1,0.1,0.2,0.2,0.3,0.3c3.3,3.2,6,7.2,7.9,11.7C123.4,280.4,123.4,280.4,123.4,280.5z"/>
		<path class="st1" d="M94.9,288.6c5.4,0.5,20.2,0.9,24.8-3c0.8-0.6,1.2-1.4,1.2-2.2c0-0.6-0.1-1.2-0.4-2c-3.1-7.2-8.5-13-14.4-16.1
			c-0.1,0-0.1-0.1-0.2-0.1c-0.2-0.1-0.5-0.2-0.7-0.3c-2.8-1.3-5.6-2-8.4-2c-1,0-2,0.1-3,0.3c-2.1,0.4-5.6,4.2-7.5,9.5
			c-1.8,4.8-1.7,9.2,0.1,12C87.9,287.1,90.8,288.4,94.9,288.6z"/>
		<path class="st1" d="M171,144.3c0,0.2-0.1,0.5-0.1,0.7c1.3,2,3.5,3.2,6,3.2c3.9,0,7.1-3.2,7.1-7c0-0.5-0.1-1.1-0.2-1.5
			c0,0,0-0.1,0-0.1c-0.1-0.1-0.1-0.2-0.2-0.3c-0.1-0.4-0.3-0.8-0.4-1.1c-0.1-0.3-0.3-0.5-0.5-0.8c-0.2-0.2-0.3-0.5-0.5-0.7
			c-0.1-0.1-0.1-0.2-0.2-0.3c-1.4-1.4-3.2-2.2-5.1-2.2c-3.2,0-6,2.1-6.8,5.1c0.1,0.2,0.2,0.3,0.3,0.5c0.5,1.1,0.8,2.3,0.8,3.5v0.1
			C171.1,143.7,171.1,144,171,144.3z"/>
		<path class="st1" d="M110.2,115.4c0,2.8,1.8,5.5,5.1,5.5c0.1,0,0.2,0,0.3,0c0.6-1.2,1.4-2.2,2.4-2.9c0.9-0.6,1.7-1,2.6-1.3
			c0.2-0.1,0.4-0.1,0.7-0.2c0-0.3,0.1-0.6,0.1-0.9c0-0.7-0.1-1.3-0.4-1.8c-0.2-0.4-0.4-0.8-0.6-1.1c-1.1-1.7-2.4-2.5-4.1-2.5
			C112.8,110.3,110.2,112.5,110.2,115.4z"/>
		<path class="st1" d="M159.4,296.6c6.1-0.3,9.1-2.5,9-6.4v0c0-1.6-0.5-3.6-1.6-6.1c-0.1-0.1-0.2-0.2-0.3-0.4
			c-1.4-2.7-3.4-5.5-5.6-7.8c0,0-0.1-0.1-0.1-0.1c-0.1-0.1-0.3-0.3-0.5-0.5c-0.1-0.1-0.3-0.2-0.4-0.3c-1.7-1.6-3.3-3-5-3.9
			c-0.6-0.3-1.2-0.7-1.8-0.8l-0.3-0.1c-0.1,0-0.1,0-0.2,0c-0.2,0-0.5-0.1-0.6-0.1c-2.6-0.4-4.7-0.4-6.8-0.1c-0.2,0-0.3,0-0.4,0
			c-0.1,0-0.2,0-0.3,0c-0.4,0.1-0.8,0.2-1.2,0.3c0,0-0.1,0-0.1,0c-7,1.8-12.8,7.1-15.5,14.5c-0.1,0.2-0.1,0.4-0.2,0.6
			c-0.4,1.2-0.7,2.3-0.9,3.4c-0.2,1.4,0.1,2.5,1,3.5C132.7,297.6,152.3,297.2,159.4,296.6z"/>
		<path class="st1" d="M0-0.1v300h148.4c-8.3-0.1-18.8-1.3-22.9-5.7c-1.6-1.7-2.2-3.8-1.8-6c0.1-0.8,0.3-1.6,0.5-2.4l-0.8-0.3
			c-0.4,0.9-1,1.7-1.8,2.4c-3.9,3.3-12.7,4-19.1,4c-4.2,0-7.5-0.3-7.8-0.3c-5-0.2-8.7-2-10.8-5.2c-2.2-3.2-2.5-7.9-1-12.9
			c-29.3-4.4-39-18-41.9-28.7c-5.8-21,9.1-50.4,36.2-71.3c5-3.8,4.7-8.4,4.1-10.8c-1-4.1-4.4-7.6-8.2-8.5c-0.1,0-0.2,0-0.3,0
			c-2.6-0.4-4.4,0-5.7,1.3c-0.1,0.1-0.2,0.1-0.2,0.2c-2.1,2.1-3.2,6.2-3.4,12.5c-0.1,3.4-1.3,6-3.3,7.8c-2.2,1.9-4.8,2.1-6,2.1
			c-0.2,0-0.4,0-0.5,0c-0.8,0-8.2-0.3-11.3-5.8c-2.6-4.6-1.3-11.3,3.8-20c-0.2,0-0.3,0-0.3,0h-0.3c-1.7,0-3.2-0.6-4.5-1.8
			c-4.2-4-4.3-13.7-4.3-14.1c0-0.5,0.2-0.9,0.6-1.2c0.3-0.2,6.6-4.5,12.5-2.3l0.8-0.8c0,0,0.1-0.1,0.1-0.1c1.3-1.1,3.5-2.1,5.7-2
			c1.8-6.5,11.2-7.9,11.6-8c0.3,0,0.7,0,0.9,0.2c0.3,0.1,6.2,3.5,6.6,12.9c1.5,0.1,3,0.4,4.5,0.7c8.4,1.9,15,7.2,18.5,15
			c6.9,15.4-0.7,23.5-11.3,34.7c-6.3,6.6-14,14.8-21,26.7c-5.7,9.7-6.9,17.9-3.6,24.5c4.8,9.5,17.8,13.2,23.6,14.4
			c-7.6-16.4-11.1-27.5-10.1-32.9c1.9-10.6,17.7-21.6,20.1-23.2l6.3-9.9c-0.5-1.5-0.8-2.8-0.8-3.7c0.3-7.2,7.9-23,10.2-27.7
			c-3.4-3.2-5.1-5-5.6-6.1c-0.6-1.1-2.3-4.6,8.1-24.2c0.1-0.2,0.2-0.3,0.4-0.4c-3.8-0.3-6.5-3.4-6.5-7.5c0-4,3.5-7.1,8-7.1
			c1.1,0,2.2,0.2,3.1,0.7c-7.8-4.9-14.9-11-20.7-17.8c-0.1-0.1-0.3-0.2-0.4-0.4c-0.8,0.5-1.7,1.1-2.5,1.6c-0.6,0.2-1.1,0.4-1.6,0.4
			c-0.6,0-1.2-0.3-1.6-0.8c-0.8-0.9-0.8-2.5,0.3-3.1c1.1-0.7,2.3-1.4,3.4-2c-0.5-1.9-0.6-4,0-6l0.2-0.7c0.3-0.8,0.5-1.7,0.8-2.6
			c0.7-2.1,1.5-4.4,2.5-6.7c-2.3,0.6-4.6,1.3-6.9,2.2c-0.6,0.2-1.2,0.3-1.7,0.1c-0.6-0.2-1.1-0.6-1.4-1.1c-0.6-1.1-0.2-2.6,1-3
			c3.7-1.4,7.5-2.3,11.2-2.9c0.5-1,1-2.1,1.6-3.1C93.2,27.9,99.3,4.4,99.5,3.4c0.1-0.3,0.2-0.5,0.4-0.7c0.2-0.5,0.7-0.9,1.2-1.1
			c0.8-0.3,1.7-0.1,2.3,0.6c0,0,0,0,0.1,0.1c19.9,22.6,27.5,21.8,28.1,21.7c0.2-0.1,0.3-0.1,0.5-0.2c-3.4-8.4-1.6-16.6-0.6-19.9
			c0.6-1.8,1.9-3.1,3.6-3.7c1.8-0.5,3.5-0.3,5,0.8c1.6,1.1,5.9,4.4,11.1,10.2c0.4-0.3,1-0.6,1.6-0.7c2.4-0.7,9.3-2.8,13.8,2.1
			c6.5-6,13.7-9.5,16.6-10.7c1.7-0.7,3.4-0.6,4.8,0.1c1.5,0.8,2.6,2.1,2.9,3.7c1.1,4.9,1.7,9.2,1.8,12.8c2.4-1.3,5.1-2.7,7.9-4.1
			c5.8-2.9,11.7-5.9,16.1-9.1c0.8-0.7,2.1-0.7,2.8,0.1c0.7,0.7,0.8,1.6,0.5,2.4c0.3,4.4,2.1,38.2,0.2,57v0l0.1,0.2
			c0.3,0.5,0.5,0.9,0.8,1.4c2.4,0.6,4.9,1.3,7.3,2.2c1.2,0.4,1.6,1.9,1,3c-0.3,0.5-0.8,0.9-1.4,1.1c-0.6,0.1-1.1,0-1.7-0.1
			c-0.8-0.3-1.6-0.6-2.3-0.9c0.5,1,1,2,1.5,2.9c0.5,1,0.8,1.7,1.4,2.3c0,0.1,0.1,0.1,0.1,0.2c1.9,3.6,1.5,7.8-0.8,11.1
			c0.1,0,0.1,0.1,0.1,0.1c1.1,0.6,1.1,2.2,0.3,3.1c-0.4,0.5-1,0.8-1.6,0.8c-0.5,0-1-0.2-1.6-0.4c-0.1,0-0.1-0.1-0.1-0.1
			c-1.9,2.1-3.7,4.1-5.5,5.9c2.6,0.1,5,1.5,6.3,3.7c3.3,0.9,5.7,3.8,5.7,7.3c0,3.1-1.9,5.8-4.7,7c2.2,4.6,4,9.2,5,12.9
			c1.3,3.7,1.2,7.8-0.3,11.5c0,0,0,0.1,0,0.1c-0.3,0.6-0.6,1.3-0.8,1.9c-0.2,0.5-0.4,0.9-0.6,1.4c1.4,4.4,7,22.3,6.4,28.9v0
			c-0.1,0.8-0.5,2.3-1.1,4.3c2.7,6.2,24.1,55.9,24.1,64.2c0,7.3-4.7,17.6-6.6,21.5c6.3,4.5,13.8,15.6,11.9,22.8
			c-0.7,2.7-3,6-10.1,6.4c-1,0.1-4.1,0.3-8.1,0.3c-8.1,0-19.5-1.1-22.4-6.9c-1,0.4-2,0.6-2.7,0.8c0.1,0.5,0.2,0.9,0.3,1.5
			c0.4,2.7-0.3,5-2.1,6.8c-4.7,4.9-16.2,5.8-24.5,5.8c-5,0-8.8-0.3-9.3-0.4c-8.3-0.5-10.9-4.3-11.6-7.9l-1,0c-0.4,3.3-2.7,7.5-11.7,8
			c-0.8,0.1-3.6,0.3-7.3,0.3H300v-300H0z"/>
		<path class="st1" d="M215.3,99.9C215.3,99.9,215.3,99.9,215.3,99.9c0.7,0.9,1.4,1.8,2,2.6c1.1-0.9,2.5-1.4,3.9-1.6
			c-1-0.9-2.4-1.4-3.8-1.4C216.6,99.5,215.9,99.6,215.3,99.9z"/>
		<path class="st1" d="M220.7,114c0.4,0.1,0.9,0.1,1.3,0.1c0.4,0,0.6,0,0.9-0.1c0.4-0.1,0.8-0.2,1.2-0.3c2.2-0.8,3.7-2.9,3.7-5.3
			c0-2.7-1.9-4.9-4.7-5.5c-0.3-0.1-0.8-0.1-1.1-0.1c-1.3,0-2.6,0.5-3.6,1.3c-0.1,0.1-0.2,0.2-0.3,0.3c-0.1,0.1-0.3,0.3-0.4,0.4
			c0,0,0,0,0,0c0,0,0,0-0.1,0.1c-0.8,1.1-1.3,2.3-1.3,3.5c0,0.6,0.1,1.3,0.4,2c0.1,0.1,0.3,0.1,0.4,0.2c0,0,0.1,0,0.1,0.1
			c0.1,0,0.2,0.1,0.3,0.1c1,0.6,2,1.4,2.7,2.3C220.4,113.5,220.5,113.8,220.7,114z"/>
		<path class="st1" d="M108.9,146.2c0.4,0.8,3.4,3.8,5.4,5.6c0.2,0.1,0.4,0.2,0.5,0.3c1.9,1.8,4.1,3.8,6.6,6.1
			c12.2,11.2,30.6,28.1,42,43.1c0.2,0.1,0.5,0.2,0.6,0.5c4.6,6.1,7.7,11.5,9.1,16.1c0.1,0.5,0.6,0.9,1.1,1c0.3,0,0.6,0,0.8-0.1
			c0.1-0.1,0.2-0.1,0.2-0.2c10.9-13.6,37.6-48,49.8-75.3c0-0.1,0.1-0.2,0.1-0.3c0-0.1,0-0.1,0.1-0.2c0.3-0.6,0.5-1.3,0.8-1.9
			c0.3-0.7,0.6-1.3,0.9-2c1.2-3.1,1.2-6.5,0.2-9.5c-1-3.7-2.8-8.2-5-12.8h-0.1c0.1,0.7,0.2,1.4,0.2,2.1c-0.2,4.6-4,8.2-8.6,8.3
			c-0.8,0-1.5-0.1-2.1-0.2c0,2.4-1,4.6-2.6,6.2c-1.6,1.6-3.8,2.6-6.3,2.6c-1.4,0-2.7-0.3-3.8-0.8c-0.3,4.3-3.8,7.7-8.2,8.1
			c-1.5,0.1-3.1-0.2-4.5-0.8c-0.5,4.7-4.2,8.4-8.9,8.6c-2.6,0.2-5.2-0.8-7.1-2.5c-1.7,2.9-4.8,4.8-8.4,4.8c-3.4,0-6.5-1.8-8.2-4.6
			c-1.8,1.8-4.3,2.8-6.9,2.8c-4.9,0-8.9-3.5-9.5-8.2c-1.4,0.7-3,1-4.6,0.9c-4.7-0.2-8.7-4.1-9-8.8c0-0.8,0-1.5,0.1-2.2
			c-0.5,0.1-1.1,0.1-1.6,0.1c-3-0.2-5.6-1.9-7-4.5C107.9,142.6,108.7,145.7,108.9,146.2z"/>
		<path class="st1" d="M232.1,180.8c-2,5.6-5,13.3-8.3,22.1c-8.5,22-20,51.8-21.1,61.9c0.6,0.2,1.3,0.5,1.9,0.8c0,0,0.1,0,0.1,0
			c0.4,0.2,0.7,0.4,1.1,0.5c0.3,0.2,0.6,0.3,0.9,0.5c0.1,0,0.1,0.1,0.2,0.1c5.6,3.4,10,9.1,12.1,16.2c0.8-0.2,1.7-0.4,2.7-0.8
			c0-0.4,0-0.9,0.1-1.4c0.4-2.8,1.2-5.3,2.3-7.7c3.9-8.1,11.2-13,19.1-13c1.3,0,2.5,0.1,3.8,0.3c0.1,0,0.3,0.1,0.5,0.1
			c0.3,0.1,0.5,0.2,0.8,0.3c0.1,0,0.2,0.1,0.3,0.1c0,0,0,0,0,0c1.8-3.7,6.2-13.5,6.2-20C254.7,234.8,240.2,199.5,232.1,180.8z"/>
		<path class="st1" d="M105.5,184.5c0,0.1,0.1,0.1,0.1,0.2c2.5,6.7,9.7,20.1,17.3,34.2c10,18.6,20.3,37.8,23.3,47.8
			c2.1-0.2,4.2-0.1,6.3,0.2c0.2,0,0.5,0.1,0.8,0.2l0.1,0c0.2,0,0.4,0.1,0.6,0.1c0.8,0.2,1.6,0.7,2.4,1.1c1.7,1,3.5,2.4,5.6,4.4l1,1
			c1,1.1,2,2.2,2.9,3.4l-0.1-1.1c-1-19.2-3.1-58.7-4.6-72.4c-11.2-14.9-29.6-31.8-42-43.1c-1.9-1.7-3.6-3.3-5.1-4.7
			c-3.6,7.4-9.3,20.2-9.5,25.6C104.7,181.9,104.9,182.9,105.5,184.5z"/>
		<path class="st1" d="M184.2,296.5C184.2,296.5,184.2,296.5,184.2,296.5c7,0.7,26.1,1.1,31.5-4.5c1.2-1.2,1.6-2.6,1.3-4.3
			c-0.2-0.7-0.3-1.5-0.5-2.2c-0.2-0.2-0.3-0.4-0.3-0.7c0-0.1-0.1-0.2-0.1-0.3c-2-7.4-6.8-13.4-12.8-16.3c-0.8-0.4-1.7-0.7-2.6-1
			c-0.3-0.1-0.6-0.2-0.9-0.3c-0.1,0-0.3,0-0.4-0.1c0,0,0,0,0,0c-0.1,0-0.3,0-0.4-0.1c-0.1,0-0.2,0-0.2,0c-0.2,0-0.5-0.1-0.8-0.2
			c-0.5-0.2-0.8-0.1-1.1-0.2c-0.1,0-0.3,0-0.4,0h-2.2c-1,0.1-1.9,0.2-2.8,0.4c-1.5,0.2-3.7,1.7-6.2,4c-2.4,2.3-4.8,5.3-6.8,8.5
			c-0.4,0.7-0.8,1.3-1.1,2.1c-0.4,0.7-0.7,1.5-1,2.2c-0.9,2.2-1.3,4.2-1.3,5.9v0.8v0.2C175.3,291.9,175.9,296.1,184.2,296.5z"/>
		<path class="st1" d="M247.3,263.5c-0.2-0.1-0.5-0.2-0.7-0.2c-0.1,0-0.1,0-0.2,0c-1.5-0.3-3-0.4-4.4-0.3c-6.3,0.5-12,4.6-15.1,11.3
			c-1,2.2-1.7,4.5-2.1,6.8c0,0,0,0.1,0,0.1c-0.1,0.5,0,1,0,1.6c1.3,6,17.8,6.7,27.9,5.8c0,0,0,0,0.1,0c4.2-0.2,6.7-1.7,7.4-4.2
			c1.5-5.9-6-16.6-11.4-20.1c-0.1,0-0.2-0.1-0.3-0.2C248,263.9,247.6,263.7,247.3,263.5z"/>
		<path class="st1" d="M178.6,219.4l-0.7,0.8c-0.4,0.5-0.9,0.9-1.4,1.2c-0.7,0.4-1.4,0.7-2.3,0.7c-0.3,0-0.5,0-0.8-0.1
			c-1.7-0.3-3-1.5-3.4-3.1c-1-3.1-2.8-6.4-5-10c1.7,19.8,3.8,61.5,4.4,73.5c0,0,0,0,0,0.1c1.1,2.2,1.8,4.2,2,6.1l0.8,0
			c0.1-1.3,0.3-2.7,0.8-4.1c0,0,0,0,0,0c0.1-0.3,0.2-0.7,0.3-1c0-0.1,0.1-0.2,0.1-0.3c0.1-0.3,0.2-0.5,0.3-0.8
			c0.3-0.8,0.7-1.7,1.1-2.6c0.2-0.6,0.6-1.2,1-1.8c0,0,0,0,0,0l7-64C181.2,216.1,179.8,217.9,178.6,219.4z"/>
		<path class="st1" d="M186.5,209.3l-6.9,63.3c3.6-4.4,8-8.3,11.4-8.9c0,0,0.1,0,0.1,0c0.3,0,0.6-0.1,1-0.1c0.7-0.1,1.4-0.2,2.2-0.2
			h2.3c0.2,0,0.5,0,0.7,0.1c0.1,0,0.1,0,0.2,0c0.1,0,0.3,0,0.5,0.1c0.1,0,0.2,0,0.3,0c0.2,0,0.5,0.1,0.7,0.1c0,0,0.1,0,0.1,0
			c0.1,0,0.2,0,0.2,0c0.1,0,0.3,0,0.5,0.1c1.5-11.2,12.6-39.9,21.6-63.3c4-10.3,7.4-19.2,9.2-24.5c0.1-0.2,0.1-0.3,0.2-0.4
			c0.7-2.2,0.9-3.3,1-3.7c0.4-4.5-2.7-16.1-5.2-24.4C216,169.7,197.3,195.3,186.5,209.3z"/>
		<path class="st1" d="M162,150.4c3.3,0,6.2-2.2,6.9-5.5c0.1-0.4,0.1-0.7,0.2-1.1c0-0.1,0-0.3,0-0.4c0-0.9-0.2-1.8-0.5-2.6
			c-0.1-0.3-0.3-0.6-0.4-0.8c0-0.1-0.1-0.2-0.1-0.3c-1.3-2.1-3.5-3.3-6.1-3.3c-2.7,0-5.1,1.5-6.3,3.8c-0.1,0.2-0.2,0.4-0.3,0.7
			c0,0.1,0,0.2-0.1,0.2c-0.2,0.8-0.3,1.5-0.3,2.2c0,0.2,0,0.5,0.1,0.8c0,0.2,0.1,0.5,0.1,0.8c0,0.1,0,0.2,0,0.4
			C156,148.2,158.9,150.4,162,150.4z"/>
		<path class="st1" d="M133.4,141.3c1.8,0,3.4-0.7,4.8-1.9c0.1-0.3,0.1-0.5,0.2-0.8c0.3-0.8,0.7-1.6,1.2-2.3c0,0,0,0,0,0
			c0.2-0.3,0.4-0.6,0.7-0.9c0.1-0.4,0.1-0.8,0.1-1.1c0-3.8-3.1-6.9-7-6.9c-1.4,0-2.9,0.5-4.1,1.3c-0.3,0.2-0.6,0.5-0.9,0.8
			c-0.2,0.2-0.4,0.4-0.6,0.7c-0.2,0.2-0.3,0.4-0.4,0.6c-0.7,1-1,2.3-1,3.6C126.3,138.1,129.5,141.3,133.4,141.3z"/>
		<path class="st1" d="M153.6,140.1c0.1-0.2,0.1-0.4,0.2-0.6c-0.9-3-3.8-5.1-6.8-5.1c-1.8,0-3.5,0.7-4.8,1.9
			c-0.1,0.1-0.1,0.2-0.2,0.3c-0.3,0.3-0.5,0.6-0.7,0.9c-0.4,0.6-0.7,1.2-0.9,1.9c-0.1,0.2-0.1,0.5-0.2,0.7c0,0,0,0,0,0.1v0
			c-0.1,0.5-0.1,0.9-0.1,1.3c0,3.9,3.2,7,7.1,7c2.5,0,4.8-1.3,6.1-3.4c0-0.3-0.1-0.6-0.1-0.9c0-0.2,0-0.5,0-0.7c0-1,0.2-2,0.5-2.9
			C153.4,140.4,153.5,140.2,153.6,140.1z"/>
		<path class="st1" d="M176.8,131.7c1.6,0,3.1,0.4,4.5,1.1c0.5-3.9,3.9-7.1,8-7.4c1.6-0.1,3.2,0.1,4.5,0.8c0.3-4.3,4-7.9,8.5-8.1h0
			c0.8,0,1.5,0.1,2.2,0.2c0,0,0,0,0,0c0-4.9,4-8.8,8.9-8.8c0.1,0,0.3,0,0.5,0c0-0.3-0.1-0.6-0.1-0.9c0.1-1.6,0.5-3,1.2-4.1
			c-0.6-0.8-1.2-1.6-1.9-2.5c-10.1,8.7-21.3,14.6-32.9,17.6c-0.5,0.1-0.9,0.2-1.4,0.3c-0.7,0.2-1.4,0.3-2.1,0.5c-0.1,0-0.2,0-0.3,0.1
			c-17.1,3.5-35.1,0.9-52.1-8.2c-0.2,0.4-0.5,0.8-0.8,1.3c0.2,0.7,0.3,1.5,0.3,2.2c0,0.2,0,0.4,0,0.6c4.1,0.6,7.2,4,7.2,8.2
			c0,0.2,0,0.5,0,0.7c1-0.2,1.9-0.3,2.9-0.3c4.6,0.3,8.2,3.8,8.9,8.2c1.3-0.6,2.7-0.9,4.1-0.9c3.4,0,6.5,1.8,8.2,4.6
			c1.8-1.8,4.2-2.8,6.9-2.8c2.4,0,4.8,0.9,6.5,2.5C170.1,133.5,173.2,131.7,176.8,131.7z"/>
		<path class="st1" d="M124.6,108.8c15.9,8.8,32.8,11.8,48.9,9.1c1-0.2,2-0.4,3-0.6c0.4-0.1,0.8-0.2,1.2-0.3c0.8-0.2,1.5-0.4,2.3-0.6
			c0,0,0,0,0,0c0.7-0.2,1.4-0.4,2.1-0.6c0.7-0.2,1.3-0.4,2-0.6c9.9-3.3,19.3-8.9,28-16.6c0.2-0.1,0.3-0.2,0.5-0.3
			c2.6-2.3,5.4-5.1,8.1-8.2c-12.9-7.8-26.8-8.9-36.5-8.4h0c0,0.3-0.1,0.6-0.2,0.9c-0.1,0.5-0.2,0.9-0.4,1.3c-0.1,0.2-0.1,0.5-0.2,0.7
			c-0.1,0.4-0.3,0.8-0.5,1.2c0,0.1-0.1,0.2-0.1,0.3c2.8,0.9,6.1,2.4,9.2,5.2c0.7,0.7,0.8,1.9,0.1,2.7c-0.4,0.4-0.9,0.6-1.4,0.6
			c-0.4,0-0.9-0.2-1.3-0.5c-3-2.7-6.1-4-8.6-4.7c-0.2,0.2-0.4,0.4-0.5,0.6c-0.2,0.2-0.4,0.4-0.6,0.6c-0.2,0.1-0.3,0.3-0.5,0.4
			c-0.4,0.3-0.8,0.5-1.1,0.8c-0.1,0.1-0.2,0.1-0.3,0.2c-0.1,0.1-0.3,0.1-0.5,0.2c-0.2,0.1-0.4,0.2-0.6,0.2c0,0,0,0-0.1,0
			c-0.2,0.1-0.4,0.1-0.6,0.2c-0.4,0.1-0.8,0.2-1.3,0.2c-0.3,0-0.5,0.1-0.8,0.1c-0.3,0-0.5,0.1-0.8,0.1c-0.1,0-0.2,0-0.3,0
			c-0.5,0-0.9,0.1-1.3,0.1c0,0-0.1,0-0.1,0v0c0,0.1-0.1,0.2-0.1,0.4c0,0,0,0.1,0,0.1c0,0.1,0,0.2-0.1,0.2c0,0.1,0,0.1-0.1,0.2
			c0,0.1-0.1,0.2-0.1,0.3c-0.2,0.6-0.5,1.2-0.9,1.8c-0.1,0.1-0.2,0.2-0.2,0.4c-0.1,0.1-0.1,0.2-0.2,0.3c-0.7,0.9-1.6,1.8-2.8,2.5
			c-0.1,0.1-0.3,0.2-0.5,0.3c-0.3,0.2-0.6,0.3-0.9,0.4c-0.2,0.1-0.3,0.1-0.5,0.2c-0.2,0.1-0.3,0.1-0.5,0.2c-0.2,0.1-0.5,0.2-0.7,0.2
			c-0.8,0.2-1.7,0.4-2.6,0.6c-0.2,0-0.4,0.1-0.6,0.1c-0.1,0-0.2,0-0.3,0c-0.3,0-0.5,0.1-0.8,0.1h-0.1c-0.2,0-0.4,0-0.6,0
			c-0.2,0-0.3,0-0.5,0c-0.3,0-0.6,0-1,0c-0.2,0-0.4,0-0.7,0c-0.3,0-0.6,0-0.9,0c-0.1,0-0.2,0-0.3,0c-0.3,0-0.6-0.1-0.9-0.1
			c-0.2,0-0.5-0.1-0.7-0.1c-0.2,0-0.3-0.1-0.5-0.1c-0.2,0-0.4-0.1-0.6-0.1c-0.2,0-0.3-0.1-0.4-0.1c-0.2,0-0.3-0.1-0.5-0.2
			c-0.1-0.1-0.3-0.1-0.4-0.2c-0.1-0.1-0.3-0.1-0.4-0.2c-0.1-0.1-0.2-0.1-0.4-0.2c-0.2-0.1-0.4-0.2-0.5-0.3c-0.2-0.1-0.4-0.3-0.6-0.4
			c-0.1,0-0.2-0.1-0.2-0.2c-0.2-0.1-0.3-0.2-0.4-0.4c-0.1-0.1-0.2-0.2-0.3-0.3c-0.2-0.1-0.3-0.3-0.4-0.4c0,0-0.1-0.1-0.1-0.1
			c-0.2-0.2-0.3-0.4-0.5-0.6c-0.2-0.2-0.3-0.4-0.5-0.7c-0.2-0.3-0.3-0.5-0.5-0.8c-0.2-0.3-0.3-0.6-0.4-0.9c-0.2-0.5-0.4-1-0.5-1.5
			c0,0,0-0.1,0-0.1c0-0.1-0.1-0.3-0.1-0.4c-1.1-0.1-2.2-0.3-3.4-0.5c-1.5-0.2-2.9-1.1-4.1-2.3c-2.5,0.7-5.4,2-8.2,4.5
			c-0.3,0.4-0.8,0.5-1.3,0.5s-1-0.2-1.4-0.6c-0.7-0.8-0.6-2,0.1-2.7c2.8-2.6,5.8-4.1,8.5-5c-0.1-0.2-0.2-0.4-0.3-0.6
			c-0.6-1.3-1.2-2.7-1.5-4.2c-9-0.3-21.1,0.8-32.8,7C107.4,97,115.6,103.7,124.6,108.8z"/>
		<path class="st1" d="M100,78.7c-0.3,0.9-0.6,1.7-0.8,2.4L99,81.8c-0.3,1.2-0.4,2.5-0.1,3.7c12-5.8,24.7-7.2,34.3-7.1
			c0-1.7,0.4-3.3,1-4.7c0.2-0.4,0.4-0.9,0.7-1.3c-7.8-2.4-19.2-4.5-31.6-2.2C102,73.2,100.9,76,100,78.7z"/>
		<path class="st1" d="M127.6,127.4c0.1-0.1,0.3-0.2,0.4-0.3c0.4-0.8,0.7-1.7,0.7-2.7c0-3.2-2.6-5.8-6-5.9h-0.1
			c-0.1,0.1-0.3,0.2-0.5,0.2c-0.4,0-0.7,0.1-1.1,0.2c-0.7,0.2-1.3,0.5-1.7,0.9c-0.8,0.6-1.5,1.5-1.9,2.4c0,0.1-0.1,0.1-0.1,0.2
			c-0.1,0.2-0.1,0.4-0.2,0.6v0c0,0.2-0.1,0.5-0.1,0.7v0.5c0,3.2,2.7,5.8,5.9,5.8c1.1,0,2.2-0.3,3.1-0.8c0.1-0.2,0.3-0.4,0.4-0.5
			c0.3-0.3,0.5-0.6,0.8-0.9c0.2-0.1,0.3-0.3,0.5-0.4C127.5,127.5,127.5,127.4,127.6,127.4z"/>
		<path class="st1" d="M149.3,95.1c0.1,0.1,0.2,0.3,0.3,0.4c0,0.1,0.1,0.1,0.1,0.2c0.1,0.1,0.2,0.3,0.3,0.4c0,0,0,0,0,0
			c0.1,0.1,0.2,0.3,0.3,0.4c0.1,0.1,0.1,0.1,0.2,0.1c0.1,0.1,0.2,0.2,0.3,0.3c0.7,0.5,1.4,0.9,2.3,1.2c0.1,0,0.2,0.1,0.3,0.1
			c0.1,0,0.2,0.1,0.4,0.1c0.2,0,0.3,0.1,0.5,0.1c0.2,0,0.4,0.1,0.6,0.1c0.2,0,0.4,0.1,0.7,0.1c0.3,0,0.6,0,0.9,0c1.3,0,2.5,0,3.6-0.2
			c0.2,0,0.3,0,0.5-0.1c0.2,0,0.4-0.1,0.6-0.1c0.3,0,0.5-0.1,0.8-0.2c0.1,0,0.2,0,0.2-0.1c0.5-0.1,1-0.3,1.5-0.5
			c0.2-0.1,0.4-0.2,0.6-0.3c0.1,0,0.1-0.1,0.2-0.1c0.2-0.1,0.4-0.2,0.6-0.3c0.2-0.1,0.4-0.3,0.6-0.4c0.2-0.1,0.4-0.3,0.6-0.4
			c0.1-0.1,0.2-0.1,0.2-0.2c0.3-0.3,0.5-0.5,0.7-0.8c0.2-0.2,0.3-0.4,0.4-0.7c0.1-0.1,0.2-0.3,0.2-0.4c0,0,0-0.1,0.1-0.1
			c0.1-0.2,0.2-0.4,0.2-0.6c-1.4-0.1-2.6-0.3-3.8-0.7c-0.2-0.1-0.4-0.1-0.5-0.2c-0.2-0.1-0.3-0.1-0.5-0.2c-0.2-0.1-0.3-0.2-0.5-0.2
			c-0.5-0.3-1-0.6-1.4-0.9c-0.1-0.1-0.3-0.2-0.4-0.3c-0.1-0.1-0.3-0.2-0.4-0.4c-0.5-0.5-1-1.1-1.3-1.7c-0.2-0.2-0.3-0.5-0.4-0.7
			c0,0-0.1-0.1-0.1-0.2c-0.6,1.3-1.4,2.3-2.4,3.2c-1.9,1.7-4.6,2.5-8,2.5c0.1,0.2,0.1,0.4,0.2,0.6C148.9,94.4,149.1,94.8,149.3,95.1z
			"/>
		<path class="st1" d="M210,122.9c0.2,0.3,0.3,0.6,0.5,0.9c0.9,0.5,1.9,0.8,3,0.8c3.5,0,6.4-2.8,6.4-6.3c0-0.9-0.2-1.8-0.5-2.6
			c-0.1-0.1-0.2-0.2-0.3-0.3c-0.2-0.3-0.4-0.6-0.6-0.9c-0.5-0.7-1.2-1.2-2-1.6c-0.1,0-0.1-0.1-0.2-0.1c-0.2-0.1-0.4-0.2-0.6-0.3
			c-0.2,0-0.3-0.1-0.4-0.3c-0.3-0.1-0.6-0.1-0.9-0.2c-0.4-0.1-0.6-0.1-0.8-0.1c-3.5,0-6.4,2.8-6.4,6.3c0,0.7,0.1,1.2,0.2,1.7
			c0.2,0.1,0.5,0.3,0.7,0.5c0.8,0.6,1.5,1.4,2,2.3C209.9,122.7,210,122.8,210,122.9z"/>
		<path class="st1" d="M196.5,128.7c0.2,0.3,0.4,0.6,0.6,0.9c0.1,0.2,0.2,0.3,0.3,0.5c0.2,0.4,0.4,0.8,0.6,1.1
			c1.2,1.2,2.9,1.9,4.7,1.9c3.5,0,6.4-2.8,6.4-6.3c0-0.6-0.1-1.2-0.3-1.8c-0.1-0.1-0.1-0.2-0.1-0.2c-0.1-0.3-0.2-0.6-0.4-0.9
			c-0.2-0.3-0.4-0.7-0.6-1c-0.3-0.3-0.6-0.6-0.9-0.9c-0.2-0.2-0.5-0.3-0.7-0.5c-1-0.6-2.1-1-3.3-1c-3.5,0-6.4,2.8-6.4,6.3
			C196.3,127.6,196.4,128.2,196.5,128.7C196.5,128.7,196.5,128.7,196.5,128.7z"/>
		<path class="st1" d="M185.2,137.6c0.1,0.3,0.3,0.6,0.4,1c1.2,1.2,2.8,1.8,4.5,1.8c3.5,0,6.4-2.8,6.4-6.3c0-0.5-0.1-1.2-0.3-1.9
			c-0.1-0.1-0.1-0.2-0.2-0.2c-0.1-0.3-0.3-0.7-0.5-1c0,0,0-0.1-0.1-0.1c-0.2-0.3-0.4-0.6-0.6-0.8c-0.1-0.1-0.1-0.2-0.2-0.3
			c-1.2-1.3-2.9-2-4.7-2c-3.5,0-6.4,2.8-6.4,6.3c0,0.4,0,0.9,0.1,1.3c0.2,0.2,0.4,0.5,0.6,0.8C184.7,136.6,184.9,137.1,185.2,137.6z"
			/>
	</g>
</g>
</svg>
