<?xml version="1.0" encoding="utf-8"?>
<!-- Generator: Adobe Illustrator 23.0.3, SVG Export Plug-In . SVG Version: 6.00 Build 0)  -->
<svg version="1.1" xmlns="http://www.w3.org/2000/svg" xmlns:xlink="http://www.w3.org/1999/xlink" x="0px" y="0px"
	 viewBox="0 0 300 300" style="enable-background:new 0 0 300 300;" xml:space="preserve">
<style type="text/css">
	.st0{display:none;}
	.st1{fill:#FFFFFF;}
</style>
<g id="Слой_1" class="st0">
		<image style="display:inline;overflow:visible;opacity:0.29;" width="1919" height="1079" xlink:href="../обезьяна/обезьяна.jpg"  transform="matrix(3.3569 0 0 3.3569 -3467.6089 -1843.7804)">
	</image>
</g>
<g id="Слой_2">
	<rect width="300" height="300"/>
	<g>
		<path class="st1" d="M183.4,113.5c0.7-0.5,0.9-0.8,0.9-1c0-0.1,0-0.2,0-0.2c-0.4-0.2-0.9-0.3-1.4-0.4
			C183.1,112.4,183.3,113,183.4,113.5z"/>
		<path class="st1" d="M152.1,147.9c-0.1,0-0.2,0-0.4,0c-0.1,0-0.3,0-0.5,0.1c-0.1,0-0.2,0.1-0.3,0.1c-0.3,0.1-0.5,0.2-0.8,0.4
			c-0.3,0.2-0.9,0.9-0.8,3.9c0,0,0,0,0,0c0,0.1,0,0.2,0,0.3c0.2,3.1,1.1,6.6,1.3,7.6c0.2,0.7,0.3,1.2,0.5,1.5l5.8-2.4
			c-0.1-0.5-0.2-1-0.3-1.4c-0.6-2.5-1.3-5.2-2.1-7.1c0,0,0,0,0,0c0,0,0,0,0,0c-0.2-0.5-0.4-0.9-0.6-1.2
			C153.3,148.6,152.7,148,152.1,147.9z"/>
		<path class="st1" d="M168,117.3c0.2,0.1,0.6,0.2,0.9,0.2c0-0.1-0.1-0.3-0.1-0.4c0-0.1,0-0.1-0.1-0.2
			C168.5,117,168.2,117.1,168,117.3z"/>
		<path class="st1" d="M153.5,131.6c0.6,0,1.7,0.1,2.7,1c1.3,1.1,2.1,3.1,2.2,5.8c1.5-0.5,3.5-1.1,4.8-0.1c0.6,0.5,0.9,1.4,0.9,2.6
			c1.2-0.4,3.1-0.9,4.4-0.1c0.6,0.4,1.1,0.9,1.3,1.7c0.6-0.3,1-0.6,1.3-0.8c-1-3.2-1.8-15.3-2.3-22.9c-1.3-0.1-2.1-0.6-2.4-1.5
			c0,0,0,0,0,0v0c0,0,0,0,0,0c0,0,0,0,0,0v0c-0.4-2.5-2-8-3-11.1c-0.4-1.3-0.7-2.2-0.7-2.2c-0.1-0.4,0.1-0.8,0.4-0.9
			c0.4-0.1,0.8,0.1,0.9,0.4c0,0,0.1,0.3,0.3,0.9c1.2-1.6,2.4-2.1,3.3-1.6c1,0.5,1.3,1.9,1.2,3.3c1.6-0.4,3.8-0.4,6,0.5
			c0.6,0.3,1.1,0.7,1.2,1.4c0.3,1.3-0.6,3.1-1.6,4.6c3-1.3,5.6-2,7.6-2c0,0,0,0,0,0h0c0.7,0,1.3,0.1,1.9,0.2
			c-6.5-25.5-12.5-30.5-15.5-31.2c-2.1-0.5-3.5,1-3.8,1.3C161.4,86.3,152.8,104.2,153.5,131.6z"/>
		<path class="st1" d="M174.5,108.1c0-0.1-0.1-0.3-0.4-0.4c-2.6-1.1-5.1-0.6-6.1,0c-0.3,0.1-0.6,0.1-0.8-0.1
			c-0.2-0.2-0.3-0.5-0.2-0.8c0.5-1.2,0.2-2.7-0.2-2.9c-0.2-0.1-0.9,0.1-2.2,2c0.9,2.8,2.2,7.2,2.8,10c0.9-0.5,2.3-1.4,4-2.3
			C173,112,174.8,109.3,174.5,108.1z"/>
		<path class="st1" d="M105.4,44c0-2.7,2.4-3.9,4.1-4.2c0-1.3,0.1-2.6,0.2-3.8c-2.6,0.8-6,2.2-6.5,3.8c-1.2,3.9-1.5,11.3,2.7,15.5
			c0.3,0.3,0.6,0.5,0.9,0.6c0.7,0.3,2.1,0.7,4.3,0.5c-0.3-1-0.6-2.3-0.9-3.7C105.4,52.3,105.4,47.1,105.4,44z"/>
		<path class="st1" d="M182.4,114.7C182.4,114.7,182.4,114.7,182.4,114.7C182.4,114.7,182.4,114.7,182.4,114.7
			c-0.3-0.9-0.6-1.8-1-2.9c-2.3,0.2-5.5,1.2-9.2,3.1c0,0,0,0,0,0c-0.8,0.4-1.6,0.8-2.2,1.2c0,0.2,0.1,0.4,0.2,0.6
			c0.1,0.5,0.2,1,0.3,1.2c0,0,0,0,0,0c7,23.5,15.4,32.7,15.5,32.8c0.1,0.1,0.1,0.2,0.2,0.3c0.2,0.9,1.3,2,2.1,2.6
			c0-0.2,0-0.4,0.1-0.5c0.3-1,1.3-1.5,1.4-1.6c0.2-0.1,0.5-0.1,0.7,0c1.2,0.8,3.2,1,5.6,0.6c1.3-0.2,2.4-0.6,3.1-0.9
			c-2.2-0.1-3.5-0.5-4-1.3c-0.3-0.4-0.2-0.8-0.1-1.1c0.1-0.2,0.3-0.4,0.6-0.4c1.6-0.2,3.2-1.4,4-2.2c-2.2,0.5-4.1-0.2-4.2-0.3
			c-0.2-0.1-0.4-0.3-0.4-0.5c0-0.2,0.1-0.5,0.2-0.6c0.2-0.2,1.5-2.2,6.4-20.4c2.7-10.1,5.3-20.8,6.1-24.6c-2.1-0.4-4.2-0.7-5.7-1.6
			c-4.4,8.4-10.4,19.2-14.6,25.4c-0.1,0.1-0.2,0.2-0.2,0.4c-0.1,0.2-0.3,0.4-0.4,0.6c-2.4,3.4-3.3,4-4,4.1c0,0-0.1,0-0.1,0
			c-0.3,0-0.6-0.3-0.7-0.6c0-0.4,0.2-0.7,0.6-0.8c0.1,0,0.9-0.4,3.2-3.7C184.9,121.8,183.8,119,182.4,114.7
			C182.4,114.7,182.4,114.7,182.4,114.7z"/>
		<path class="st1" d="M208.2,98.6l0.5,0.1l0,0c0,0,0,0,0,0c3.2,0.5,6.2,1.2,8.8,3.2c1.5,1.1,2.8,2.2,4.1,3.3
			c2.9,2.4,5.4,4.5,7.9,5.3c2.8,1,6.6-0.4,7.8-0.9h0c-0.1-1-1.3-4.8-13.9-11.7c-0.3-0.2-0.5-0.6-0.3-0.9c0.2-0.3,0.6-0.5,0.9-0.3
			c6.7,3.7,11.2,7,13.3,9.9c1.1,1.5,1.3,2.5,1.3,3.1c0.3,0.1,0.6,0.1,0.9,0c1.5-0.3,3.3-2.3,4.4-4.1c0.2-0.3,0.3-0.7,0.3-1
			c0-0.3-0.1-0.6-0.1-0.8c0,0,0,0,0,0c0,0,0,0,0,0c0,0,0,0,0,0c0,0,0-0.1,0-0.1c0,0,0-0.1,0-0.1c-0.1-0.2-0.2-0.4-0.4-0.8
			c0,0,0,0,0,0c0,0,0,0,0,0c-0.1-0.2-0.2-0.3-0.2-0.3c-0.1-0.1-0.1-0.1-0.1-0.2c-1.5-2.1-5.2-5.8-14.6-8.7c-0.4-0.1-0.6-0.5-0.5-0.9
			c0.1-0.4,0.5-0.6,0.9-0.5c8.8,2.7,12.9,6.2,14.8,8.5c0,0,0,0,0,0c0.2-0.8,0.3-2.4-1-5.1c-1.8-4-15.9-9.3-21.1-11.1
			c-0.3-0.1-0.5-0.4-0.5-0.7c0-0.3,0.2-0.6,0.5-0.7c2-0.6,7.6-2.7,7.1-5.1c-0.5-2.4-2.4-2.4-3.1-2.3c-0.9,0.9-4.7,4.4-11.1,5.1
			c-4.1,0.4-4.6,2-5,3.2c-0.2,0.8-0.6,1.7-1.7,1.8c-1.3,0.1-1.8,0.5-3.3,1.7c-0.6,0.5-1.4,1-2.4,1.7c-2.8,1.9-0.3,6.8,0.1,7.6
			C203.7,97.8,205.8,98.2,208.2,98.6z M216.8,94.8c0.1-0.1,0.1-0.2,0.2-0.2c0,0,0-0.1,0.1-0.1c0.6-1,2.3-3.7,8-4.7
			c0.4-0.1,0.7,0.2,0.8,0.6c0.1,0.4-0.2,0.7-0.6,0.8c-5.1,0.9-6.5,3.2-7.1,4.1c-0.2,0.3-0.4,0.6-0.7,0.7c0,0-0.1,0-0.1,0
			c-0.1,0-0.3,0-0.4-0.1C216.7,95.5,216.6,95.1,216.8,94.8z"/>
		<path class="st1" d="M137.6,147c-2.2,0.7-4.9,1.9-4.7,3.8c0.1,1.6,2.2,3.1,3,3.5c3.7-0.2,7.7-0.9,11.9-2.1
			c-0.2-1.3-1.1-7.6-1.4-16.3c-3.4,0.5-5.9,1.8-7.3,3.8c-2,2.9-1.1,6.4-1.1,6.5C138.1,146.5,137.9,146.9,137.6,147z"/>
		<path class="st1" d="M149.2,159.9c-0.3-1.3-0.9-3.8-1.1-6.3c-4.1,1.1-8,1.8-11.6,2c-0.1,0.1-0.2,0.1-0.4,0.1h0
			c-0.1,0-0.2,0-0.3-0.1c-0.7,0-1.5,0.1-2.2,0.1c-5.1,0-9.8-0.9-14-2.8c-0.1,2.2-0.3,4.5-0.6,6.2C127.8,163,138,163.2,149.2,159.9z"
			/>
		<path class="st1" d="M106.8,44c0,3.7,0.3,6.9,3.2,7.3c-0.4-2.9-0.6-6.4-0.6-10C108.5,41.5,106.8,42.1,106.8,44z"/>
		<path class="st1" d="M151.6,95.4c-3.8,13.4-4.2,28.2-3.9,38.2c0.2,6.1,0.6,11.1,1,14.5c0,0,0.1-0.1,0.1-0.1c0,0,0.1-0.1,0.1-0.1
			c0,0,0.1-0.1,0.1-0.1c0.1-0.1,0.1-0.1,0.2-0.2c0,0,0,0,0.1-0.1c0.1-0.1,0.2-0.2,0.3-0.2c1.1-0.7,2.1-0.9,3-0.7c0.1,0,0.1,0,0.2,0
			c0,0,0,0,0.1,0c0,0,0.1,0,0.1,0c0,0,0,0,0,0c0.1,0,0.1,0,0.2,0.1c0.1,0,0.1,0.1,0.2,0.1c0.1,0,0.1,0.1,0.2,0.1c0,0,0,0,0,0
			c0,0,0.1,0,0.1,0.1c-5.3-36.4,6.2-60.4,10-67c0,0,0,0,0,0c0,0,0,0,0,0c0,0,0,0,0,0c0,0,0-0.1,0.1-0.1c-1.8,0.5-4.7,1.4-6.8,2.5
			c-0.3,0.5-0.5,1-0.7,1.5c0,0,0,0,0,0c0,0,0,0,0,0c-0.2,0.4-0.4,0.8-0.6,1.2c0,0,0,0,0,0.1C153.8,88.3,152.6,91.7,151.6,95.4
			C151.6,95.3,151.6,95.4,151.6,95.4z"/>
		<path class="st1" d="M122.6,116.9c0-3.9-0.4-5.6-0.8-6.3c-1,6.2-1.8,13.3-2.2,21.2c2.9,0.7,6.2,1.2,7,0.6c0.1,0,0.1-0.1,0.1-0.1
			c0-1.6-2.7-3.4-3.7-3.9c-0.2-0.1-0.3-0.2-0.3-0.4c-0.1-0.2,0-0.4,0.1-0.5c0.9-1.5,1.6-3.4,1.2-3.9c-0.1-0.1-0.3-0.1-0.7,0
			c-0.2,0-0.4,0-0.6-0.2c-0.2-0.1-0.2-0.4-0.2-0.6C122.4,122.7,122.6,119.9,122.6,116.9z"/>
		<path class="st1" d="M168.2,53.3c1.1,0.3,2.1,0.5,3,0.5c1.3,0,2.4-0.3,3.2-0.9c1.9-1.4,2.1-3.8,2.1-3.8c0-0.1,0-0.1,0-0.2
			c0-0.2,0.1-1-0.1-4.3c-0.2-3.7-2.2-3.9-6.2-4.2l-0.1,0c-2.2-0.1-2.9,0.6-3,1c0,0,0,0,0,0v10.9C167.3,52.7,167.6,53.2,168.2,53.3z"
			/>
		<path class="st1" d="M119.1,148.5c0.2,0.8,0.3,1.8,0.3,3c4.1,1.9,8.8,2.9,14,2.9c-0.9-0.8-1.8-2-2-3.2c-0.2-1.5,0.5-3.7,5-5.3
			c-0.2-1.3-0.4-4.3,1.4-6.9c1.6-2.4,4.4-3.9,8.4-4.4c0-0.3,0-0.6,0-0.9c-0.3-9.7,0.2-23.8,3.5-36.9c-3.7,2.2-6.1,3.1-11.4,3.1
			c-1.1,0-2.3,0-3.7-0.1c-2.7-0.2-4.7-1.1-6.1-2.8c-1.2-1.4-1.6-3.1-1.8-4.5c-1.9,4.1-3.4,9.6-4.7,16.5c0.1,0.1,0.2,0.1,0.4,0.2
			c0.6,0.6,1.4,2,1.5,7.7c0,2.1-0.1,4.1-0.2,5.2c0.7,0.1,1,0.4,1.2,0.7c0.8,1.2-0.2,3.5-0.8,4.8c1.3,0.8,3.9,2.6,3.8,4.9
			c0,0.5-0.2,0.9-0.6,1.2c-0.5,0.4-1.4,0.5-2.4,0.5c-1.9,0-4.1-0.5-5.5-0.8C119.2,139.5,119.1,145,119.1,148.5z M127.5,118.8
			c-0.4,0.1-0.8-0.1-0.8-0.5c-0.1-0.4,0.1-0.8,0.5-0.8c0.3-0.1,7.1-1.9,12.6,0c0.4,0.1,0.6,0.5,0.4,0.9c-0.1,0.3-0.4,0.5-0.7,0.5
			c-0.1,0-0.1,0-0.2,0C134.2,117.1,127.6,118.8,127.5,118.8z"/>
		<path class="st1" d="M215.2,181.9c0.1,0.3,0.2,0.7,0.4,1c0,0,0,0,0,0c0.9,2.3,2.1,4.4,3.5,6.1c1.3,1.5,2.7,2.7,4.2,3.5
			c3.2,1.7,6.5,1.5,8.6-0.6c0.7-0.7,1.8-2.2,1.8-4.8c0-1.7-0.5-3.9-1.9-6.6c-0.4-0.8-0.8-1.5-1.2-2.3c-0.2,0.4-0.4,0.8-0.7,1.3
			c-0.1,0.1-0.1,0.2-0.2,0.3c-0.3,0.6-0.7,1.1-1,1.6c-0.1,0.1-0.1,0.2-0.2,0.3c-0.1,0.1-0.1,0.2-0.2,0.3c0,0.1-0.1,0.1-0.1,0.2
			c-0.1,0.1-0.1,0.2-0.2,0.3c-0.2,0.2-0.3,0.5-0.5,0.7c-0.1,0.1-0.2,0.2-0.2,0.3c0,0-0.1,0.1-0.1,0.1c-0.1,0.1-0.2,0.2-0.2,0.3
			c0,0-0.1,0.1-0.1,0.1c-0.1,0.1-0.2,0.2-0.3,0.3c0,0,0,0-0.1,0.1c0,0,0,0,0,0.1c0.2,0.5,0.4,1,0.5,1.4c0.1,0.3,0,0.6-0.2,0.8
			c-0.2,0.2-0.6,0.2-0.8,0c-0.5-0.3-0.9-0.7-1.4-1.2c0,0,0,0,0,0l-0.1-0.1c-0.1-0.1-0.1-0.1-0.2-0.2c-0.1-0.1-0.2-0.2-0.2-0.3
			c-0.9-1.1-2.1-3-3-6c0,0,0,0,0,0c0,0,0,0,0,0c-0.1-0.4-0.2-0.8-0.3-1.2c-1.1-3.1-1-6.8-0.7-9.4c0,0,0,0,0,0l0,0
			c0.1-0.6,0.1-1.1,0.2-1.5c0-0.1,0-0.1,0-0.2c0,0,0-0.1,0-0.1c0,0,0-0.1,0-0.1c0,0,0,0,0,0c0,0,0-0.1,0-0.1c0,0,0,0,0,0
			c0-0.1,0-0.2,0-0.2c0,0,0,0,0-0.1c0,0,0,0,0,0c0-0.1,0-0.2,0.1-0.2c0,0,0,0,0,0c0,0,0-0.1,0-0.1c0,0,0,0,0,0
			c0.1-1,0.3-2.1,0.5-3.1c0.3-1.8-0.8-3.5-2.5-3.8c-1.8-0.3-3.5,0.8-3.8,2.5c-0.1,0.5-0.2,0.9-0.2,1.3c0,0.1-0.1,0.3-0.1,0.6
			c0,0,0,0.1,0,0.1c0,0.1,0,0.2,0,0.3c0,0,0,0.1,0,0.1c0,0,0,0,0,0.1c0,0.1,0,0.1,0,0.2c0,0.2,0,0.4-0.1,0.6c0,0.2,0,0.3-0.1,0.5
			c0,0.1,0,0.2,0,0.3c0,0,0,0,0,0c0,0.1,0,0.1,0,0.2c0,0.1,0,0.2,0,0.3c0,0.1,0,0.2,0,0.3c0,0,0,0,0,0c0,0.2,0,0.3,0,0.5
			c0,0.1,0,0.1,0,0.2c0,0.1,0,0.3,0,0.4c0,0.1,0,0.1,0,0.2c0,0.1,0,0.2,0,0.3c0,0.1,0,0.1,0,0.2c0,0.3-0.1,0.6-0.1,0.9
			c0,0.1,0,0.1,0,0.2c0,0,0,0,0,0.1c0,0.1,0,0.1,0,0.2c0,0.1,0,0.2,0,0.3c0,0,0,0.1,0,0.1c0,0,0,0.1,0,0.1c0,0,0,0.1,0,0.1
			c0,0.1,0,0.1,0,0.2c0,0,0,0,0,0.1c0,0,0,0.1,0,0.1c0,0,0,0,0,0c0,0,0,0,0,0c-0.1,2.3,0.1,4.6,0.4,6.7
			C214.2,178.5,214.6,180.2,215.2,181.9z"/>
		<path class="st1" d="M222,177.1c0,0.1,0.1,0.3,0.1,0.4c1.8-1.3,3.2-4.3,4-8.8c0.7-3.9,0.7-7.6,0.7-7.7c0-0.4,0.3-0.7,0.7-0.7
			c0,0,0,0,0,0c0.4,0,0.7,0.3,0.7,0.7c0,0.6-0.1,14.5-5.7,17.8c0,0,0,0,0,0c0,0.1,0.1,0.3,0.1,0.4c0.1,0.2,0.1,0.3,0.2,0.5
			c0.1,0.3,0.2,0.6,0.3,0.8c0,0.1,0.1,0.2,0.1,0.3c0.6,1.3,1.2,2.2,1.7,2.8c0,0,0,0,0,0c0,0,0,0,0,0c0,0,0,0,0,0l0,0
			c0.2-0.2,0.3-0.4,0.5-0.6c0.2-0.2,0.4-0.4,0.5-0.6c1.4-1.8,2.7-3.9,3.7-6.1c1.2-2.7,1.9-5.4,2-7.7c0-0.3,0-0.7,0-1
			c0-5.9-2.6-8.9-3.3-9.6h-2.3l-1.5,1.5c-0.7,2.4-1.5,4.6-2.4,6.5c0,0,0,0,0,0c0,0,0,0,0,0c-0.3,0.6-0.6,1.2-0.8,1.7
			c-0.1,0.1-0.1,0.2-0.2,0.3c0,0,0,0,0,0v0c0,0,0,0,0,0c0,0,0,0.1,0,0.1c0,0.1,0,0.1,0,0.2c0,0.1,0,0.1,0,0.2c0,0.2,0,0.3,0,0.5
			c0,0.1,0,0.2,0,0.3c0,0.4,0,0.7-0.1,1.1c0,0.2,0,0.4,0,0.6C221.1,173.2,221.3,175.2,222,177.1C222,177,222,177.1,222,177.1z"/>
		<path class="st1" d="M212.7,177.9c-2.1,1.3-4.3,2.1-6.7,2.5c-1.2,0.2-2.4,0.3-3.5,0.3c-0.1,0-0.2,0-0.4,0c-0.1,0-0.2,0-0.3,0
			c-0.1,0-0.2,0-0.3,0c-0.1,0-0.2,0-0.3,0c0,0,0,0,0,0c-0.2,0-0.3,0-0.5,0c-0.1,0-0.2,0-0.2,0c0,0.1,0.1,0.1,0.1,0.2c0,0,0,0,0,0.1
			c0,0,0,0,0,0.1c0,0,0,0,0,0c0,0,0,0.1,0,0.1c0,0,0,0,0,0c0,0,0,0.1,0,0.1c0,0,0,0,0,0c0,0,0,0.1,0,0.1c0,0,0,0,0,0
			c0,0,0,0.1,0,0.1c0,0.1,0,0.1,0,0.2c0.1,0,0.1,0,0.2,0.1c0.1,0,0.2,0.1,0.3,0.1c0.1,0,0.1,0,0.2,0.1c0.1,0,0.2,0.1,0.3,0.1
			c0.2,0.1,0.4,0.1,0.6,0.2c0.2,0.1,0.4,0.1,0.6,0.2c0.3,0.1,0.5,0.1,0.8,0.2c0.1,0,0.2,0.1,0.3,0.1c0.1,0,0.2,0.1,0.3,0.1
			c0.1,0,0.2,0,0.3,0.1c0.2,0,0.3,0.1,0.5,0.1c0.2,0,0.4,0.1,0.6,0.1c1.4,0.3,2.8,0.4,4.1,0.4c0.1,0,0.1,0,0.2,0c0.1,0,0.2,0,0.3,0
			c0.1,0,0.1,0,0.2,0c0.1,0,0.2,0,0.3,0c0.1,0,0.2,0,0.2,0c0,0,0.1,0,0.1,0c0.1,0,0.1,0,0.2,0c0.3,0,0.6-0.1,0.9-0.1
			c0.1,0,0.2,0,0.2,0c0,0,0.1,0,0.1,0c0.1,0,0.2,0,0.3-0.1c0.1,0,0.2,0,0.3-0.1c0.1,0,0.3-0.1,0.4-0.1c0.1,0,0.1,0,0.2,0
			c0.2,0,0.3-0.1,0.5-0.1c0,0,0,0,0,0c0-0.1-0.1-0.2-0.1-0.4c-0.1-0.2-0.1-0.4-0.2-0.5c0-0.1-0.1-0.3-0.1-0.4c0,0,0-0.1,0-0.1
			c0-0.2-0.1-0.3-0.1-0.5c-0.1-0.2-0.1-0.4-0.2-0.6c0-0.1-0.1-0.3-0.1-0.4c0,0,0,0,0-0.1c0-0.2-0.1-0.4-0.1-0.6
			c0-0.2-0.1-0.4-0.1-0.6S212.8,178.1,212.7,177.9z"/>
		<path class="st1" d="M211.2,170.8c-1.4,0.7-3.3,3.2-4.4,8c2-0.5,4-1.3,5.7-2.4c-0.3-1.9-0.4-3.8-0.3-5.8
			C211.7,170.6,211.3,170.7,211.2,170.8z"/>
		<path class="st1" d="M224.1,144.8c-0.1-0.2-0.3-0.4-0.4-0.6c-0.2,0-0.4,0-0.6,0.1c-0.8,0.4-1.4,1.6-1.8,2.4
			c0.6,0.1,1.2-0.2,1.5-0.4C223.5,146,224,145.3,224.1,144.8z"/>
		<path class="st1" d="M228,156.8c-0.3-1.9-1.2-6.9-3.1-10.6c0,0,0,0,0,0c-0.4,0.5-0.9,1-1.4,1.3c-0.4,0.3-0.9,0.5-1.4,0.6
			c0,0,0,0,0,0c2.4,3.1,3.9,7.3,4.3,8.7H228z"/>
		<path class="st1" d="M169.7,144.2c-3,1.8-7.8,4.4-13.7,6.7c0.7,1.7,1.2,3.8,1.7,5.9c6-2.6,10.7-5.4,13.5-7.2
			c1.1-0.7,1.8-1.1,2.2-1.3c-0.8-2.6-1.4-4.3-1.9-5.3C171.2,143.3,170.6,143.7,169.7,144.2C169.7,144.2,169.7,144.2,169.7,144.2z"/>
		<path class="st1" d="M163.3,214.5c-0.2,0-0.4-0.2-0.5-0.4c-1.2-2.9-3-7.3-3.5-8.3c-2.6-1.2-5.2-3.2-7.6-5.9
			c-1.5,4.1-4.4,12.5-5.7,21.4c-1.8,12-0.2,21,4.5,26.8c5.1,6.2,14.4,8.8,27.6,7.7c-2.4-8.9-6.4-23-7.1-25.7c-1-0.3-2.7-1.7-4.2-7.5
			c-1-3.8-1.7-6.4-2.1-7.9C163.8,214.6,163.3,214.5,163.3,214.5z"/>
		<path class="st1" d="M181.5,203.4c0,0-0.1,0.1-0.1,0.1c-7.1,4.3-11.7,4-17.6,3.6c-0.3,0-0.7,0-1-0.1c0,0-0.1,0-0.1,0
			c-0.5-0.1-1-0.3-1.5-0.4c0.3,0.8,0.7,1.8,1.1,2.7c0.7,1.6,1.3,3.2,1.6,3.9c0.3,0,0.7,0.1,1.3,0.2c0,0,0,0,0,0c0,0,0,0,0,0
			c3.2,0.3,9.5,0.3,15.1-3.2c0,0,0,0,0,0c0,0,0,0,0,0c0,0,0,0,0,0c0,0,0,0,0,0c0.4-0.2,0.7-0.5,1-0.7l0.4-6.4
			c-0.1,0.1-0.1,0.1-0.2,0.2C181.6,203.3,181.6,203.4,181.5,203.4z"/>
		<path class="st1" d="M162.3,139.4c-0.8-0.6-2.8,0.1-3.9,0.5c-0.2,0.1-0.3,0.1-0.5,0.2c-0.2,0.1-0.4,0-0.6-0.1
			c-0.2-0.1-0.3-0.3-0.3-0.6c0-2.7-0.6-4.7-1.8-5.7c-0.7-0.6-1.4-0.7-1.8-0.7c0.2,5,0.7,10.3,1.6,15.9c0.1,0.2,0.2,0.4,0.4,0.7
			c5.5-2.2,10.1-4.6,13.1-6.4c-0.1-0.6-0.4-1-0.8-1.2c-1.2-0.7-3.5,0.2-4.2,0.6c-0.2,0.1-0.5,0.1-0.7-0.1c-0.2-0.2-0.3-0.4-0.3-0.7
			C162.8,140.6,162.7,139.7,162.3,139.4z"/>
		<path class="st1" d="M187.7,256.8c0,0.1,0.1,0.3,0.1,0.4c0,0.1,0.1,0.3,0.1,0.4c0,0.1,0.1,0.3,0.1,0.4c0,0,0,0.1,0,0.1
			c0,0.1,0.1,0.3,0.1,0.4c0,0.1,0.1,0.2,0.1,0.3c0,0,0,0,0,0c0.2,0.5,0.3,1,0.5,1.5c0,0.1,0.1,0.2,0.1,0.4c0,0,0,0,0,0
			c0,0.1,0.1,0.2,0.1,0.3c0.1,0.2,0.2,0.5,0.3,0.7c0,0.1,0.1,0.2,0.1,0.3c1.2-0.2,2.4-0.5,3.5-0.7c7.6-1.7,13.9-7.1,17.8-15.4
			c5-10.6,5-23.6,0.1-33.3c-3.5-6.8-5.7-14.7-6.3-22.1c0,0,0,0-0.1,0c-0.2-0.1-0.5-0.1-0.7-0.2c-0.1,0-0.2-0.1-0.3-0.1
			c-0.1,0-0.3-0.1-0.4-0.1c-0.2-0.1-0.4-0.1-0.6-0.2c-0.1,0-0.2-0.1-0.2-0.1c-0.2-0.1-0.3-0.1-0.5-0.2c-0.5-0.2-0.9-0.4-1.3-0.6
			c-0.1-0.1-0.3-0.1-0.4-0.2c0,0,0,0-0.1,0c-0.1,0-0.2-0.1-0.2-0.1c-0.7-0.4-1.4-0.8-1.9-1.1c0.1,9.3,2.6,19.2,7.1,28
			c4,7.8,3.9,18.9-0.2,27.6c-3,6.4-7.8,10.6-13.3,11.8c-1.4,0.3-2.8,0.6-4.2,0.8c0,0.1,0.1,0.2,0.1,0.4
			C187.6,256.5,187.7,256.6,187.7,256.8z"/>
		<path class="st1" d="M198.9,179c0.1,0,0.2,0,0.4,0.1c0.1,0,0.1,0,0.2,0c0.1,0,0.1,0,0.2,0c0.1,0,0.1,0,0.2,0c0.1,0,0.2,0,0.2,0
			c0.1,0,0.3,0,0.4,0c0.1,0,0.3,0,0.4,0c0.2,0,0.4,0,0.7,0c0.1,0,0.2,0,0.2,0c0.1,0,0.1,0,0.2,0c0.1,0,0.2,0,0.2,0
			c0.1,0,0.2,0,0.3,0c0.1,0,0.2,0,0.3,0c0,0,0.1,0,0.1,0c0.1,0,0.2,0,0.3,0c0.1,0,0.2,0,0.3,0c0.1,0,0.2,0,0.2,0c0,0,0.1,0,0.1,0
			c0.1,0,0.2,0,0.3,0h0c0.1,0,0.2,0,0.3,0c0,0,0,0,0,0c0.1,0,0.2,0,0.3,0c0.1,0,0.2,0,0.4,0c1-4.8,2.9-8.3,5.2-9.5
			c0.3-0.1,0.8-0.4,1.7-0.4h0c0,0,0-0.1,0-0.1c0-0.1,0-0.2,0-0.3c0-0.1,0-0.2,0-0.3c0-0.1,0-0.2,0-0.3v0c0-0.1,0-0.2,0-0.3
			c0-0.1,0-0.2,0-0.3c0-0.1,0-0.2,0-0.3c0-0.1,0-0.2,0-0.3c0,0,0,0,0,0c0-0.1,0-0.1,0-0.2c0-0.1,0-0.3,0-0.4c0-0.1,0-0.2,0-0.3
			c0-0.1,0-0.2,0-0.3c0-0.1,0-0.1,0-0.2c0-0.1,0-0.2,0-0.3c0,0,0-0.1,0-0.1c0-0.1,0-0.2,0-0.2c0-0.4,0.1-0.9,0.1-1.3
			c0-0.1,0-0.2,0-0.3c0-0.2,0-0.4,0.1-0.6c-2.3-0.1-4.2,0.5-5.4,1.1c-2.8,1.4-5.1,4.2-6.7,8c-0.9,2.1-1.6,4.5-2,7.1
			C198.8,178.9,198.9,179,198.9,179C198.9,179,198.9,179,198.9,179z"/>
		<path class="st1" d="M199.1,181.8C199.1,181.8,199.1,181.8,199.1,181.8c0.1-0.4,0.1-0.6,0-0.7c-0.2-0.3-0.7-0.6-1.4-0.8
			c0,0,0,0,0,0c0,0,0,0,0,0c-0.1,0-0.2-0.1-0.3-0.1c-1.5,1.2-1.5,2.7-1.4,3.6c0,0,0.1,0,0.1,0c0.3-0.1,0.7-0.2,1.1-0.3
			C197.9,183.1,198.8,182.6,199.1,181.8z"/>
		<path class="st1" d="M212.8,190.1c1.6-0.1,3.1-0.4,4.7-1c-0.1-0.1-0.2-0.3-0.3-0.4c-0.1-0.1-0.1-0.2-0.2-0.3c0,0,0,0,0,0
			c-0.1-0.1-0.2-0.2-0.2-0.3c-0.2-0.3-0.4-0.6-0.6-0.9c-0.1-0.1-0.1-0.2-0.2-0.3c0,0,0,0,0,0c-0.1-0.1-0.1-0.2-0.2-0.3
			c-0.1-0.2-0.2-0.4-0.3-0.5c-0.1-0.1-0.1-0.3-0.2-0.4c0,0,0,0,0,0c-0.1-0.1-0.1-0.2-0.2-0.4c0-0.1-0.1-0.2-0.1-0.2
			c-0.1-0.1-0.1-0.2-0.1-0.3c0,0,0,0,0-0.1c0-0.1-0.1-0.2-0.1-0.3c0-0.1-0.1-0.2-0.1-0.3c-0.2,0.1-0.4,0.1-0.6,0.2
			c-0.1,0-0.2,0-0.2,0.1c-0.2,0.1-0.4,0.1-0.6,0.1c-0.1,0-0.2,0-0.4,0.1c-0.1,0-0.2,0-0.4,0.1s-0.2,0-0.4,0.1c-0.1,0-0.2,0-0.4,0
			c0,0,0,0,0,0c-0.1,0-0.2,0-0.3,0c0,0,0,0,0,0c-0.1,0-0.2,0-0.3,0c0,0-0.1,0-0.1,0c-0.1,0-0.2,0-0.3,0c0,0,0,0-0.1,0
			c-0.1,0-0.2,0-0.3,0c-0.1,0-0.2,0-0.3,0c-0.1,0-0.2,0-0.2,0c-0.1,0-0.2,0-0.3,0c-1.3,0-2.7-0.1-4.1-0.4c-0.2,0-0.4-0.1-0.6-0.1
			c0,0,0,0-0.1,0c-0.1,0-0.2,0-0.3-0.1c-0.2-0.1-0.5-0.1-0.7-0.2c-0.1,0-0.2-0.1-0.4-0.1c-0.6-0.2-1.1-0.3-1.7-0.5
			c-0.1,0-0.2-0.1-0.3-0.1c-0.2-0.1-0.4-0.1-0.5-0.2c-0.1,0-0.2-0.1-0.3-0.1c0,0-0.1,0-0.1-0.1c0,0,0,0,0,0c0,0-0.1,0.1-0.1,0.1
			c0,0-0.1,0.1-0.1,0.1c0,0,0,0,0,0c0,0-0.1,0.1-0.1,0.1c-0.1,0.1-0.2,0.2-0.2,0.3c0,0-0.1,0.1-0.1,0.1c-0.1,0.1-0.1,0.1-0.2,0.2
			c0,0-0.1,0.1-0.1,0.1c0,0,0,0-0.1,0c0,0-0.1,0.1-0.1,0.1c0,0,0,0,0,0c0,0-0.1,0.1-0.1,0.1c0,0-0.1,0-0.1,0.1
			c-0.1,0-0.1,0.1-0.2,0.1s-0.1,0.1-0.2,0.1c-0.1,0-0.1,0.1-0.2,0.1c0,0-0.1,0-0.1,0.1c-0.1,0-0.1,0.1-0.2,0.1
			c-0.3,0.1-0.6,0.2-0.8,0.3c0.3,0.2,0.6,0.5,0.9,0.8c1.5,1.2,4.1,2.8,7.7,3.7C207.8,190,210.2,190.2,212.8,190.1z"/>
		<path class="st1" d="M111.1,147c0.1-0.2,0.1-0.5,0.1-0.7l-0.9,3c0,0.2,0.1,0.7,0,1.2C110.6,149.4,110.9,148.2,111.1,147z"/>
		<path class="st1" d="M113,149.1c-0.3-0.2-0.5-0.4-0.8-0.7c-0.5,2.1-0.9,4.2-1.5,6.2c0.5,0.4,1.1,0.8,1.6,1.1
			C112.5,152.9,112.7,150.7,113,149.1z"/>
		<path class="st1" d="M112.9,136.1L112.9,136.1c0-0.1,0-0.1,0-0.1c0.1-0.2,0.3-0.4,0.6-0.4c0-1.4,0.1-2.7,0.1-4
			c0-0.4,0-0.9,0.1-1.3c0-0.1,0-0.3,0-0.4c0-0.2,0-0.4,0-0.6c0-0.4,0-0.8,0.1-1.3c0-0.4,0-0.8,0.1-1.2c0-0.4,0-0.8,0.1-1.2
			c0-0.2,0-0.4,0-0.6c0-0.6,0.1-1.3,0.1-1.9c0-0.2,0-0.4,0-0.6c0-0.4,0.1-0.8,0.1-1.2c0-0.4,0.1-0.8,0.1-1.2c0-0.2,0-0.4,0.1-0.6
			c0-0.4,0.1-0.8,0.1-1.2c0-0.4,0.1-0.8,0.1-1.1c0-0.4,0.1-0.7,0.1-1.1l0.1-0.5c0.1-0.5,0.1-1,0.2-1.4c0.1-0.7,0.2-1.4,0.3-2.1
			c0-0.2,0.1-0.4,0.1-0.6c-1-0.4-3.5-1.3-5.5-0.9c-0.5,1.7-0.9,3.5-1.3,5.2c0,0,0,0,0,0c0,0,0,0,0,0c-0.9,3.8-1.3,6.4-1.4,7
			c1.3,6.5,2,10.7,2,12.8c0,0.4-0.3,0.7-0.7,0.7h0c-0.4,0-0.7-0.3-0.7-0.7c0-2-0.7-6.1-2-12.6c-1-4.7-2.1-9.9-3.1-14.6
			c-1.2-5.4-2.2-10.1-2.6-12.3c-0.3,0.4-0.6,0.9-1.3,1.8c-0.8,1-2.7,2.5-5.1,2.4c0.7,5.1,2.2,16.1,3.5,26.2
			c2.5,20.4,2,21.2,1.8,21.6c-0.8,1.2-2.4,1.7-3.7,1.9c1.4,0.7,3.5,0.5,3.5,0.5c0,0,0.1,0,0.1,0c0.2,0,0.3,0.1,0.5,0.2
			c0.1,0.1,0.2,0.3,0.2,0.5c0,0.4,0,0.8,0,1.2c0.1,1.7,0.1,3.6-0.9,4.6c1.9-0.4,5.1-4.2,6.6-6c0.6-0.7,1.1-1.2,1.3-1.5
			c0.3-0.2,0.7-0.2,0.9,0c0.4,0.4,0.5,1,0.6,1.7c0,0.2,0.1,0.6,0.2,0.8c0.9-0.7,0.6-2.6,0.6-2.6c0-0.1,0-0.2,0-0.3L112.9,136.1
			L112.9,136.1z"/>
		<path class="st1" d="M108.3,111.1c-0.6,0.3-1,0.8-1.2,1.3v0l0,0c0,0.1-0.2,0.9,0.4,1.8C107.8,113.2,108,112.1,108.3,111.1z"/>
		<path class="st1" d="M109.2,109.2c2.4-0.7,5.1,0.2,6.5,0.7h0c0-0.3,0.1-0.5,0.1-0.8c0.1-0.4,0.1-0.9,0.2-1.3
			c0-0.1,0.1-0.3,0.1-0.4c0-0.2,0.1-0.4,0.1-0.6c0.1-0.4,0.1-0.8,0.2-1.2c0.1-0.4,0.1-0.8,0.2-1.1c0,0,0,0,0,0
			c0-0.2,0.1-0.4,0.1-0.6c0-0.2,0.1-0.4,0.1-0.6c0.2-0.7,0.3-1.4,0.5-2.1c0-0.2,0.1-0.3,0.1-0.5c0-0.2,0.1-0.3,0.1-0.5
			c0.1-0.2,0.1-0.5,0.2-0.7c0.1-0.2,0.1-0.5,0.2-0.7c0-0.2,0.1-0.3,0.1-0.5c0,0,0,0,0,0c0-0.2,0.1-0.3,0.1-0.5
			c0.1-0.5,0.3-0.9,0.4-1.3c0.1-0.3,0.2-0.6,0.3-0.9c0.1-0.3,0.2-0.5,0.3-0.8c0.1-0.4,0.3-0.8,0.4-1.2c0,0,0-0.1,0-0.1
			c0.1-0.2,0.2-0.4,0.2-0.6c0,0,0,0,0,0c0.1-0.2,0.2-0.5,0.3-0.7c0.1-0.2,0.2-0.5,0.3-0.7c0.1-0.2,0.1-0.3,0.2-0.5
			c0.1-0.2,0.1-0.3,0.2-0.4c0.4-0.9,0.8-1.6,1.1-2.4c0-0.1,0.1-0.2,0.1-0.2c0,0,0-0.1,0-0.1c0-0.1,0.1-0.1,0.1-0.2
			c0.2-0.3,0.3-0.6,0.5-0.9c0-0.1,0.1-0.1,0.1-0.2c0.5-0.9,1.1-1.7,1.6-2.3c0-0.1,0.1-0.1,0.1-0.2c0-0.1,0.1-0.1,0.1-0.2
			c0,0,0.1-0.1,0.1-0.1c0.1-0.1,0.2-0.2,0.2-0.3c0,0,0.1-0.1,0.1-0.1c0-0.1,0.1-0.1,0.2-0.2c0.1-0.1,0.1-0.1,0.2-0.2l0,0
			c0,0,0.1-0.1,0.1-0.1c0,0,0.1-0.1,0.1-0.1c-0.3,0-0.6,0-0.9,0c0,0-0.1,0-0.1,0c0,0-0.1,0-0.1,0c0,0,0,0,0,0c0,0,0,0-0.1,0
			c-0.1,0-6.1-0.4-16.4,26.6C108.5,109.5,108.8,109.4,109.2,109.2C109.1,109.3,109.1,109.3,109.2,109.2z"/>
		<path class="st1" d="M97.8,96.8c0.6-0.9,1.1-1.8,1.4-2.5c0.5-1.1,0.8-1.7,1.5-1.8c0.3-0.1,0.8-0.3,1.3-0.7
			c0.5-0.4,0.9-0.9,1.1-1.5c0.3-1.1-0.1-2.2-1.4-3.5c-3.7-3.8-3.8-8.9-3.8-10.1c-0.3-0.4-1.3-1.6-3.2-0.9c-1,0.3-1.6,0.9-1.9,1.7
			c-0.7,1.9,0.7,4.9,1.3,5.9c0.1,0.2,0.1,0.5,0,0.7c-0.1,0.2-0.4,0.3-0.7,0.3c-0.2,0-11.7-1.4-20.6-1.4c-3.7,0-6.9,0.2-8.7,0.9
			c-3.1,1.1-3.9,2.2-4.1,2.8C60,86.8,60,87,60,87.1c0,0,0,0,0,0c1.9-0.5,7.8-1.9,16.3-0.9c0.4,0,0.7,0.4,0.6,0.8
			c0,0.4-0.4,0.7-0.8,0.6c-10-1.2-16.2,1-16.3,1c0,0,0,0,0,0c-0.8,0.3-3.1,1.4-3.6,2.7c-0.5,1.4-0.6,2.5-0.1,3.3
			c0.6,1,2.1,1.3,3.1,1.4c1-1.3,4.7-4.9,17-4.9c0.4,0,0.7,0.3,0.7,0.7c0,0.4-0.3,0.7-0.7,0.7c-11.9,0-15.2,3.5-15.9,4.3
			c0.3,0.7,1.1,2.6,3.4,3.2c1.4,0.3,4-0.4,6.8-1.2c3.2-0.9,6.9-1.9,10.3-1.9c5.5,0.1,9.2,1,11.2,1.5c0.4,0.1,0.7,0.2,0.9,0.2
			c2-0.4,4.3-1,4.8-1.7C97.7,96.9,97.8,96.8,97.8,96.8z M82,85.8c-1.7,1-2.2,4.5-2.4,5.8c0,0.1,0,0.2,0,0.3
			c-0.1,0.3-0.3,0.6-0.7,0.6c0,0-0.1,0-0.1,0c-0.4-0.1-0.6-0.4-0.6-0.8c0-0.1,0-0.2,0-0.3c0.2-1.6,0.8-5.4,3-6.7
			c0.3-0.2,0.8-0.1,1,0.2C82.5,85.2,82.4,85.6,82,85.8z"/>
		<path class="st1" d="M113.5,147.5C113.5,147.5,113.5,147.5,113.5,147.5c0-0.3,0-0.6,0-1c0-1.5,0-2.9,0-4.3c0-0.2,0-0.4,0-0.6
			c-0.3,1.5-0.6,3.3-1,5.3c0.3,0.3,0.6,0.5,0.9,0.8C113.5,147.6,113.5,147.5,113.5,147.5z"/>
		<path class="st1" d="M0,0v300h200.8c-0.3,0-0.6,0-1-0.1c-2.2-0.3-4.2-1.7-5.8-4c-1-1.4-1.9-3-2.8-4.7c-2.3-4.3-4.8-8.7-9-10.4
			c-2-0.8-4.5-0.6-6.9,0.6c-2.1,1-4,2.7-4.9,4.2c-0.7,1.3-2.1,2.2-3.5,2.4c-1.4,0.2-2.8-0.3-3.9-1.3c-1.1-1.1-2.6-3.5-0.1-7.4
			c2.7-4.3,7.8-6.7,11.5-8.5c2.1-1,3.9-1.8,4.5-2.7c1.2-1.6,1.4-2.5,1.4-3.4l0,0c-2.8,0.3-5.4,0.4-8,0.4c-3.7,0-7.2-0.3-10.3-0.9
			c-8-1.5-14.2-5.1-18.6-10.4c-4-4.9-6.4-11.3-7-19c-0.5-5.8,0-12.5,1.4-19.7c1.5-7.5,3.9-14.8,5.5-19.6c0.8-2.5,1.5-4.6,1.7-5.5
			c-0.6-1-1-1.8-1.2-2.3c-1.6,0.4-3.3,0.6-5,0.6c-0.1,0.4-0.3,0.9-0.6,1.6c0,0,0,0,0,0c-1.4,3.5-4.5,9.9-9.2,13.9l-0.8,7.4
			c0,0.2-0.2,0.4-0.4,0.5l-2.9,1.6h0c-1.3,5.8-2.1,9.5-2.4,11.2c-1,6.3-2.8,31.8-3,34.8c1.2,1.4,7.5,9.3,9.9,17.1
			c0.6,1.9,0.5,3.4-0.2,4.6c-0.7,1.2-2.1,2-4.1,2.4c-1.6,0.3-3.2,0-4.5-1c-1.3-0.9-2.2-2.3-2.4-3.9c-0.2-1.2-3.2-3-4.9-2.9
			c-3.5,0.2-12.8,3.8-22.8,11.1c-0.9,0.6-1.6,1.3-2.4,2c-1.5,1.3-2.9,2.6-5,3.4c-1.8,0.7-3.5,1.1-5.1,1.1c-1.4,0-2.7-0.3-3.7-0.8
			c-1.1-0.6-1.9-1.5-2.3-2.5c-1.1,0.1-2.8-0.3-3.9-2.2c-1.6-2.9-1-5.2,0.3-6.6c-0.2-1.3-0.5-5.3,3.2-7.6c4-2.5,28.4-12.9,36.1-14.5
			c0.4-0.5,0.7-0.9,1-1.2c0.7-0.9,1-1.2,1.2-1.7c0.2-0.5,0.2-1.1,0.3-2.4c0-0.5,0.1-1.1,0.1-1.9c0.3-4.9,0.6-20.1,0.6-22.9
			c-0.9-0.5-2.7-2-2.7-5.3c0-1.9,0-6-0.1-12.3l-1.6-1c-0.2-0.1-0.3-0.3-0.3-0.5l-0.6-6.2c-2.3-2.5-3-5.9-3-6.1c0,0,0,0,0,0
			c-0.1-0.8-2.2-18.6-1-26.7c1.1-7.8,7.2-15.5,8-16.6c0,0,0,0,0,0c0.2-0.9,0.5-1.7,0.7-2.6c-0.2,0.5-0.5,0.9-1,1.3
			c-0.6,0.4-1,0.3-1.3,0.2c-0.7-0.3-0.8-1.2-0.9-2c0,0,0,0,0,0c-0.1,0.2-0.3,0.3-0.4,0.5c-2.6,3.1-5.4,6.1-7.6,6.5
			c-0.1,0-0.1,0-0.2,0c-0.5,0-1-0.3-1.2-0.8c-0.3-0.6-0.1-1.2,0.4-1.6c0.6-0.5,0.5-2.3,0.4-3.5c0-0.2,0-0.4,0-0.6
			c-0.9,0-2.5-0.1-3.7-0.8c-0.5-0.3-0.8-0.8-0.6-1.4c0.1-0.6,0.6-1,1.1-1.1c1.4-0.2,2.4-0.7,2.8-1.3c0.4-1.8-1.7-20.3-5.5-47.4
			c-0.2,0-0.4-0.1-0.7-0.2c-1.9-0.5-5.5-1.4-10.8-1.5c-3.2,0-6.7,1-9.9,1.8c-2.5,0.7-4.7,1.3-6.4,1.3c-0.4,0-0.8,0-1.2-0.1
			c-2.8-0.7-3.9-3-4.3-4c-1.5-0.2-3.2-0.7-4.1-2.1c-0.7-1.2-0.8-2.7,0-4.5c0.6-1.6,2.7-2.7,3.8-3.2c-0.1-0.3-0.1-0.8,0.1-1.3
			c0.5-1.5,2.1-2.7,4.9-3.7c5.8-2.1,23.6-0.3,28.7,0.3c-0.7-1.5-1.6-3.9-0.8-5.9c0.4-1.2,1.4-2,2.8-2.5c2.8-0.9,4.5,0.7,5,1.8
			c0.1,0.1,0.1,0.2,0.1,0.4c0,0.1-0.3,5.5,3.4,9.2c2,2,2,3.8,1.7,4.9c-0.5,1.7-2.2,2.8-3.3,3.1c0,0.1-0.1,0.2-0.2,0.3c0,0,0,0,0,0
			c0.2,0.4,0.4,0.9,0.5,1.5c0.3,2.1,1.4,6.9,2.6,12.4c0.8,3.5,1.6,7.4,2.4,11.1c0.2-0.9,0.4-2.1,0.7-3.3v0c-1.9-1.6-1.4-3.6-1.3-3.8
			c0,0,0,0,0,0c0,0,0,0,0,0c0,0,0,0,0,0c0,0,0,0,0,0c4.8-13.1,9.3-22.1,13.5-26.9c2.9-3.4,4.8-3.5,5.4-3.4c0.8-0.1,1.6,0,2.4,0.2
			c0.7-0.5,1.2-0.7,1.3-0.7c0.2-0.1,0.4,0,0.6,0.1l3.8,2.4c0.2,0.1,0.3,0.4,0.3,0.6c0,0.2-0.1,0.4-0.3,0.5c0.2,0.1,0.5,0.2,0.7,0.3
			c0,0,0,0,0,0c2,0.8,4.6,1.5,5.7,0.3c2.4-2.6,2.9-8.3,3-10.5c-2.5,0.5-5.5,0.8-9,0.8c-1.5,0-3.2-0.1-4.9-0.2
			c-7.2-0.6-11.3-1.7-13.8-3.8c-2.4-2-3.4-4.9-3.4-9.9c0-0.3-0.1-1.9,0.7-4v0c0,0,0-0.1,0-0.1c-0.6,0.1-1.2,0.1-1.8,0.1
			c-1.7,0-2.9-0.4-3.5-0.7c-0.5-0.2-0.9-0.5-1.3-0.9c-5-5-4.2-13.3-3.1-16.9c0.8-2.7,6.1-4.4,7.9-4.9c0.1-1.2,0.3-2.4,0.5-3.6
			c1.1-6.8,3.3-11.5,6.4-13.6c4.7-3.3,10-4.8,14.3-5.4h0c0.4-1.2,0.3-3.1-0.3-5.3c-0.2-0.6,0.1-1.3,0.7-1.6c0.6-0.3,1.3-0.2,1.7,0.3
			c0.8,0.9,1.4,1.9,1.9,2.8c5.2-5.6,9.6-7.5,12.4-8.1c0.6-0.1,1.2,0.2,1.5,0.7c0.3,0.6,0.2,1.2-0.3,1.7c-1.4,1.3-2.6,3.2-3.4,4.5
			c1.8-0.6,3.5-0.8,5.2-0.7c0.6,0,1.1,0.4,1.2,1c0.2,0.6,0,1.2-0.5,1.5c-1.2,0.9-1.8,1.9-2.2,2.6c4,0.4,12.6,3.4,16.7,7.5
			c3.6,3.6,5.6,11,6.4,14.5c2.5,0.3,5,0.7,5.9,1c0.1,0,0.2,0.1,0.2,0.1c2,0.7,6.3,2.2,5.1,16.9c-0.2,2.9-1.9,5.5-4.4,7
			c-2.3,1.3-5.4,2-9.1,2c-0.2,0-0.4,0-0.6,0c-3.1,5.7-7.6,8.4-10.8,9.6c-1.1,0.4-2.2,0.7-3.1,0.9c-0.1,0.3-2.6,6.3-2.8,12.4v0
			c0.3,0,0.9,0,2.2-0.3c0.2-0.5,0.5-1,0.7-1.5c0.1-0.1,0.2-0.2,0.3-0.3c3.5-1.8,8.7-3.1,9-3.1c0.3-0.1,0.6,0,0.7,0.3c0,0,0,0,0,0
			c0.8-0.4,1.9-0.6,3.1-0.3c2.6,0.6,5.2,3.1,7.7,7.5c3.2,5.6,6.3,14.3,9.1,25.8c0.2,0.2,0.4,0.7,0.3,1.3c-0.1,0.8-0.7,1.5-1.8,2.1
			c1.1,3.4,2.1,5.8,2.9,7.4c3.6-5.4,8.9-14.8,14.3-25c-0.7-1.4-3.2-6.7,0.4-9.2c1-0.7,1.7-1.3,2.3-1.7c1.6-1.2,2.4-1.8,4.1-1.9
			c0.2,0,0.3-0.1,0.5-0.8c0.4-1.4,1.2-3.6,6.2-4.2c6.7-0.7,10.4-4.8,10.4-4.8c0.1-0.1,0.2-0.2,0.4-0.2c1.4-0.3,4.2,0,4.9,3.4
			c0.6,3-3.5,5-6.1,6c1.9,0.7,4.9,1.8,8,3.1c6.9,3,11,5.7,12,8c1.8,4,1.2,6.1,0.6,7c0,0,0,0,0,0c0.4,0.7,0.6,1.2,0.6,1.4
			c0.3,0.9,0.4,2-0.3,3c-0.2,0.3-0.9,1.4-1.8,2.4c-0.9,1-2.1,2-3.4,2.3c-0.7,0.2-1.4,0.1-2-0.2c-0.9,0.4-3.5,1.4-6.2,1.4
			c-0.9,0-1.8-0.1-2.7-0.4c-2.7-0.9-5.3-3.1-8.3-5.6c-1.3-1.1-2.6-2.1-4.1-3.3c-2.2-1.7-4.8-2.3-7.6-2.8c-0.8,3.9-3.4,14.7-6.2,24.8
			c-3.7,13.8-5.4,18.4-6.2,20c0.7,0.1,1.9,0.2,3.1-0.2c0.2-0.1,0.9-0.4,1.4,0.1c0.1,0.1,0.4,0.5,0.2,1.1c-0.3,1-2.3,3-4.5,3.7
			c0.5,0.1,1.3,0.3,2.6,0.3c0.5,0,1.5,0,1.8,0.8c0.1,0.3,0.1,0.8-0.6,1.2c-1.4,1.1-7.4,2.8-10.8,1c-0.3,0.2-0.6,0.6-0.3,1.1
			c0.3,0.5,0.2,0.9,0,1.1c-0.1,0.1-0.3,0.3-0.7,0.3c-0.1,0-0.2,0-0.2,0c-1.1-0.2-3.5-2.1-4-3.9c-1-1.2-8-9.5-14.5-29.2
			c0.8,10.8,1.6,18.2,2.2,19.2c0,0,0,0,0,0c0.5,0.8,1.4,3.4,2.4,6.7c0,0,0,0,0,0c0,0,0,0,0,0c4.4,3.8,7.6,11,9.1,14.9
			c2,5.4,3.5,11.3,3.5,14.4c0,15.9-3.4,21.8-4.2,22.9l-0.6,9.2c0,0.2-0.1,0.4-0.3,0.5c-0.4,0.3-0.7,0.5-1.1,0.8c0,0,0,0,0,0
			c-0.1,4.9-0.2,10.2,0.4,13.5c0,0,0,0,0,0c0,0.2,1.9,17.1,5.3,29.9c1.4-0.3,2.8-0.5,4.2-0.9c5.1-1.1,9.5-5.1,12.4-11.1
			c3.9-8.3,4-18.9,0.2-26.3c-4.8-9.3-7.4-19.9-7.3-29.7c-1-0.8-1.6-1.4-1.7-1.6c0,0,0,0,0,0c0,0,0,0,0,0c0-0.1-0.1-0.1-0.1-0.2
			c-0.4-1.2-0.5-4,2-5.8c0,0,0,0,0,0c0,0,0,0,0,0c0,0,0,0,0,0c0.1-0.1,0.3-0.1,0.5-0.1c0,0,0,0,0,0c0.5-2.7,1.2-5.2,2.2-7.4
			c1.8-4.1,4.3-7.1,7.4-8.7c1.2-0.6,3.1-1.3,5.4-1.3c0.3,0,0.6,0,0.8,0c0-0.2,0.1-0.4,0.1-0.7c0.5-2.5,2.9-4.1,5.4-3.6
			c2.5,0.5,4.1,2.9,3.6,5.4c0,0.2-0.1,0.4-0.1,0.5c0.5-1.2,0.9-2.5,1.3-3.9c0-0.1,0.1-0.2,0.2-0.3l1.5-1.5l0,0
			c-0.5-1.5-2.4-6.8-5.3-9.7c0,0,0,0,0,0c0,0,0,0,0,0c0,0,0,0,0,0c0,0,0,0,0,0c0,0,0,0,0,0c0,0,0,0,0,0c0,0,0,0,0,0c0,0,0,0,0,0
			c0,0,0,0,0,0c0,0,0,0,0,0c0,0,0-0.1,0-0.1c0,0,0,0,0,0c0,0,0,0,0,0c0,0,0,0,0,0c0,0,0,0,0,0c0,0,0,0,0-0.1c0,0,0,0,0,0
			c0,0,0,0,0,0c0,0,0,0,0-0.1c0,0,0,0,0,0c0,0,0,0,0,0c0,0,0,0,0,0c0,0,0,0,0-0.1c0,0,0,0,0-0.1c0,0,0,0,0,0c0.2-0.5,1.1-3,2.7-3.8
			c0.6-0.3,1.2-0.3,1.8-0.1c0,0,0,0,0,0c0,0,0,0,0,0c0.7,0.3,1.1,0.8,1.2,1.5c0,0,0,0,0,0c2.7,4.4,3.8,11.3,3.9,12.7
			c0.9,0.8,4.1,4.4,3.7,11.7c-0.1,2.3-0.8,5.1-2,7.8c0.6,1,1.2,2.1,1.8,3.2c4,7.7,1.3,11.7-0.1,13.1c-1.4,1.4-3.3,2.1-5.3,2.1
			c-1.6,0-3.3-0.4-4.9-1.3c-1.5-0.8-2.9-2-4.2-3.4c-1.8,0.7-3.6,1.2-5.5,1.2c-0.4,0-0.8,0-1.3,0c-1.9,0-3.7-0.2-5.5-0.6
			c0.6,7.1,2.7,14.6,6.1,21.1c2.5,5,3.8,10.8,3.8,16.8c0,6-1.3,12.2-3.9,17.7c-4.1,8.7-10.7,14.4-18.7,16.2
			c-1.1,0.2-2.2,0.5-3.3,0.7h0c0.5,1.1,0.9,2,1.4,2.7c1.9,0.9,18.3,9.1,28,19.8c1.2,1.3,1.8,3.1,1.5,4.9c-0.2,1.6-1.1,3.1-2.4,4.1
			c0.1,0.4,0.1,1-0.2,1.7c-0.4,1.1-1.4,1.9-2.9,2.5c-2.4,1-8.2,1.3-10.5-0.4c-0.8,0.5-2.3,1.3-4.3,1.3H300V0H0z"/>
		<path class="st1" d="M190.3,274.9c0.3-0.3,0.7-0.3,1,0c12.6,13.1,15.1,19.1,14.9,21.8c0,0.4-0.1,0.7-0.2,0.9
			c1.7,1.1,6.7,1.1,9,0.1c1.1-0.5,1.8-1,2.1-1.7c0.3-0.6,0.1-1.1,0-1.3c-0.4-0.8-7.9-13.5-19.3-20c-0.3-0.2-0.4-0.6-0.3-0.9
			c0.2-0.3,0.6-0.4,0.9-0.3c10.6,6,17.7,17,19.4,19.9c0.9-0.7,1.5-1.8,1.6-2.9c0.2-1.4-0.3-2.7-1.2-3.7
			c-10.1-11.1-27.6-19.4-27.8-19.5c-0.1-0.1-0.2-0.1-0.3-0.2c-0.7-1-1.3-2.3-2-3.9c-0.1-0.3-0.2-0.6-0.3-0.9
			c-0.7-1.9-1.5-4.2-2.2-6.8c0,0,0,0,0,0c-3.4-12.8-5.4-30-5.5-30.7c-0.5-3.2-0.5-8.2-0.4-12.9c0,0,0,0,0,0c-4.4,2.4-9,2.9-12.3,2.9
			c-0.6,0-1.2,0-1.7,0c0.4,1.6,1,4,1.9,7.5c1.6,6.1,3.2,6.5,3.4,6.5c0.3,0,0.6,0.2,0.7,0.5c0,0.2,4.8,17.2,7.4,26.9c0,0,0,0,0,0
			c0.9,3.2,1.3,4.9,1.5,5.8c0.1,0.6,0.2,0.8,0.2,0.9l0,0l0,0.1c0,0.1,0,0.1,0,0.2c0.1,0.3,0.1,0.5,0.1,0.8c0,0,0,0,0,0.1
			c0,0,0,0,0,0c0.2,1.5,0,2.9-1.6,5c-0.8,1.1-2.7,2-5,3.1c-3.7,1.8-8.4,4-10.9,8c-1.5,2.3-1.5,4.3-0.1,5.7c0.7,0.7,1.7,1,2.7,0.9
			c1.1-0.1,2-0.8,2.5-1.7c1-1.8,3.1-3.7,5.5-4.8c2.8-1.4,5.7-1.6,8.1-0.6c4.7,1.9,7.4,6.7,9.7,11c0.9,1.7,1.8,3.2,2.7,4.6
			c1.4,2,3.1,3.2,4.9,3.4c2.4,0.3,4.4-1,4.7-1.2c0.2-0.3,2.2-4.2-14.4-21.4C190,275.6,190.1,275.2,190.3,274.9z"/>
		<path class="st1" d="M125.7,206.1c-0.1,0.1-0.3,0.1-0.4,0.2c-0.5,0.2-1,0.3-1.6,0.5c-0.2,0-0.4,0.1-0.5,0.1c0,0,0,0,0,0
			c-0.2,0-0.4,0.1-0.6,0.1c0,0,0,0,0,0c-0.2,0-0.4,0.1-0.6,0.1c-0.2,0-0.4,0.1-0.6,0.1c-0.2,0-0.4,0.1-0.6,0.1c-0.1,0-0.2,0-0.3,0
			c-0.2,0-0.4,0-0.7,0.1c-1,0.1-2,0.1-3.1,0.1c-0.2,0-0.4,0-0.6,0h0c-0.2,0-0.4,0-0.6,0c-0.2,0-0.4,0-0.6,0c-0.2,0-0.4,0-0.6,0
			c-0.3,0-0.6-0.1-0.9-0.1c-0.2,0-0.4,0-0.6-0.1c-0.2,0-0.4-0.1-0.6-0.1c-0.1,0-0.2,0-0.3-0.1c-0.3-0.1-0.6-0.1-0.9-0.2
			c-0.1,0-0.2,0-0.3-0.1c-0.1,0-0.3-0.1-0.4-0.1c-0.3-0.1-0.6-0.1-0.8-0.2c-0.1,0-0.3-0.1-0.4-0.1c-0.4-0.1-0.7-0.2-1-0.4
			c-0.1,0-0.1,0-0.2-0.1c-0.4-0.2-0.7-0.3-1-0.5l0.4,4.5l1.6,1c0.6,0.3,9,3.8,14.9,1.7l2.8-1.5l0.6-5.7c-0.3,0.2-0.7,0.4-1,0.6
			C126.1,206,125.9,206.1,125.7,206.1z"/>
		<path class="st1" d="M119.4,214.6c-4.2,0-8.4-1.4-10.2-2.1c0.1,5.9,0.1,9.8,0.1,11.6c0,3.3,2.2,4.2,2.2,4.2
			c0.3,0.1,0.5,0.4,0.4,0.7c0,0.2-0.3,18-0.6,23.4c-0.1,0.7-0.1,1.3-0.1,1.9c-0.2,2.9-0.2,3-1.7,4.9c-0.3,0.4-0.7,0.8-1.1,1.4
			c-0.1,0.1-0.3,0.2-0.4,0.3c-7.3,1.4-31.9,11.8-35.9,14.3c-2.3,1.5-2.7,3.8-2.7,5.2c8-7.6,23.4-11.8,24-12c0.4-0.1,0.8,0.1,0.9,0.5
			c0.1,0.4-0.1,0.8-0.5,0.9c-0.2,0-17,4.7-24.4,12.7c0,0,0,0,0,0c0,0,0,0,0,0c-0.5,0.5-2,2.2-0.3,5.1c0.9,1.6,2.1,1.6,2.6,1.5
			c0.3-0.7,1.1-2.1,3.4-4c4.2-3.6,11.3-7.4,21.1-11.4c0.4-0.1,0.8,0,0.9,0.4c0.1,0.4,0,0.8-0.4,0.9c-20.9,8.6-23.5,14-23.8,14.8
			c0.2,0.9,0.8,1.6,1.7,2.1c1.9,1,4.8,0.9,7.6-0.3c1.8-0.8,3.2-1.9,4.6-3.2c0.8-0.7,1.6-1.4,2.5-2.1c9.6-7.1,19.3-11.1,23.6-11.4
			c2.3-0.1,6.1,2,6.4,4c0.2,1.2,0.9,2.2,1.9,2.9c1,0.7,2.2,1,3.4,0.7c1.6-0.3,2.6-0.9,3.1-1.8c0.5-0.9,0.6-2,0.1-3.5
			c-2.5-8.2-9.7-16.8-9.8-16.9c-0.1-0.1-0.2-0.3-0.2-0.5c0-0.3,2.1-28.4,3.1-35.2c0.2-1.6,1-5.1,2.2-10.4c0,0,0,0,0,0
			C121.9,214.4,120.7,214.6,119.4,214.6z"/>
		<path class="st1" d="M180,263.3L180,263.3l0-0.1c0,0,0,0,0,0c0,0,0,0,0,0c0,0,0,0,0-0.1c0,0,0,0,0-0.1c0-0.1-0.1-0.3-0.1-0.6
			c0,0,0,0,0-0.1c0,0,0,0,0-0.1c-0.1-0.3-0.2-0.8-0.3-1.3c0-0.1,0-0.2-0.1-0.3c0,0,0,0,0-0.1c0-0.1,0-0.2-0.1-0.3
			c0-0.1,0-0.1-0.1-0.2c-0.1-0.3-0.2-0.6-0.3-1c0-0.1,0-0.1-0.1-0.2c0-0.1,0-0.2-0.1-0.2c0-0.1-0.1-0.2-0.1-0.3
			c-0.1-0.2-0.1-0.4-0.2-0.6c0,0,0-0.1,0-0.1l0,0c0-0.1-0.1-0.2-0.1-0.3c0-0.1,0-0.2-0.1-0.3c-13.8,1.2-23.6-1.5-29-8.2
			c-11.4-13.9-2.1-41.5,1.3-50.3v0c0-0.1-0.1-0.1-0.1-0.2c-1.6-1.9-3.2-4.1-4.6-6.5c0,0-0.1-0.1-0.1-0.1c-0.3,1-0.7,2.3-1.4,4.2
			c-1.6,4.8-4,12-5.5,19.4c-1.4,7.1-1.9,13.6-1.4,19.3c0.6,7.4,2.9,13.5,6.7,18.2c4.2,5.1,10.2,8.4,17.8,9.9c3,0.6,6.4,0.9,10.1,0.9
			c2.5,0,5.1-0.1,7.8-0.4C180,263.5,180,263.4,180,263.3C180,263.4,180,263.4,180,263.3z"/>
		<path class="st1" d="M146.1,189.8c1.5,2.5,3.9,6.1,5.6,8.2c0.1,0.1,0.1,0.1,0.2,0.2c2.7,3.1,5.4,5.3,8.2,6.5c0,0,0,0,0.1,0
			c0.1,0,0.2,0.1,0.3,0.1c0.1,0,0.2,0.1,0.3,0.1c0.4,0.2,0.8,0.3,1.2,0.4c0.2,0.1,0.4,0.1,0.6,0.2c0.1,0,0.3,0.1,0.4,0.1
			c0.3,0,0.6,0,1,0.1c5.8,0.4,10,0.7,16.7-3.3c0.6-0.6,1.1-1.3,1.5-2.3c0,0,0,0,0-0.1c0,0,0-0.1,0.1-0.1c0.2-0.2,4-5.6,4-22.2
			c0-2.4-1.2-8-3.4-13.9c-2.5-6.6-5.6-11.7-8.7-14.3c-0.4,0.2-1.3,0.7-2.1,1.3c-2.9,1.8-7.8,4.7-13.9,7.4c0.1,0.5,0.2,1,0.3,1.4
			c0.1,0.3-0.1,0.7-0.4,0.8l-7,2.9c-0.1,0-0.2,0.1-0.3,0.1c-0.6,0-0.7-0.5-0.9-1.1c-0.1-0.3-0.2-0.6-0.3-1
			c-11.4,3.3-21.8,3.1-30.9-0.6c0,0,0,0.1,0,0.1c0,0.1,0,0.2,0,0.3c0,0,0,0,0,0.1c0,0,0,0.1,0,0.1c0,0,0,0,0,0.1c0,0.1,0,0.2,0,0.3
			c0,0,0,0,0,0c0,0.1,0,0.1,0,0.1c0,0.2-0.2,0.4-0.4,0.5c0,0-0.1,0-0.2,0.1s-0.1,0-0.2,0c-0.1,0-0.2,0-0.3-0.1l-4.8-2.4
			c-0.2-0.1-0.4-0.4-0.4-0.6c0-0.5,0-0.9,0-1.4c0-0.1,0-0.3,0-0.4c-0.7-0.5-1.5-1-2.2-1.5c-1.5,1.9-6.5,8.8-7.4,15.5
			c-1.1,7.8,0.9,25.5,1,26.4c0.1,0.3,0.8,3.4,2.8,5.5c0.1,0.1,0.2,0.2,0.4,0.3c0.1,0.1,0.2,0.1,0.2,0.2c0.5,0.4,0.9,0.6,1.5,0.9
			c5.8,2.3,14.6,1.4,17,0c0.7-0.4,1.4-0.9,2.1-1.5c4.2-3.5,7.2-9.3,8.6-12.5c0,0,0,0,0,0c-0.8,0.1-1.9,0.1-3.1,0.1
			c-1.2,0-2.4-0.1-3.6-0.2c0,0,0,0,0,0c-0.5-0.1-1-0.2-1.5-0.3c-0.4-0.1-0.6-0.5-0.5-0.8c0.1-0.4,0.5-0.6,0.8-0.5
			c0.4,0.1,0.9,0.2,1.3,0.3c0,0,0,0,0,0c0,0,0,0,0,0c2.8,0.4,6,0.1,7.2,0c0,0,0,0,0,0c0.1-0.3,0.2-0.5,0.3-0.7
			c-2.3-0.1-4.6-0.5-6.9-1.3c0,0,0,0,0,0c-2.2-0.7-3.9-1.5-4.7-1.9c-0.2-0.1-0.3-0.1-0.4-0.2c-0.3-0.1-0.5-0.3-0.5-0.7
			c0-0.4,0.3-0.7,0.7-0.7c0.2,0,0.3,0.1,0.8,0.3c0.8,0.4,2.3,1.1,4.5,1.8c0,0,0,0,0,0c0,0,0,0,0,0c0,0,0,0,0,0c0,0,0,0,0,0
			c2.5,0.8,5.1,1.2,7.5,1.2c0,0,0,0,0,0c2,0,3.9-0.2,5.7-0.7c0.3-0.1,0.7,0.1,0.8,0.4C144.6,186.9,145.1,188,146.1,189.8
			C146.1,189.8,146.1,189.8,146.1,189.8z M141.8,185.4c-2,0.5-3.7,0.6-4.8,0.6c-0.7,0-1,0-1.1,0c-0.4,0-0.7-0.4-0.6-0.8
			c0-0.4,0.4-0.7,0.8-0.6c0,0,2.5,0.2,5.4-0.6c3.9-1,6.8-3.3,8.6-6.6c0.2-0.3,0.6-0.5,0.9-0.3c0.3,0.2,0.5,0.6,0.3,0.9
			C149.3,181.7,146.1,184.3,141.8,185.4z"/>
		<path class="st1" d="M152.9,58.3c-1-3.3-4.5-6-9.4-7.6c-3-1-6.5-1.4-10.1-1.4c-2.8,0-5.7,0.3-8.7,0.8c-5.4,1-9.3,3.4-11.1,6.9
			c-0.1,0.3-0.3,0.5-0.4,0.8c-0.1,0.3-0.3,0.7-0.4,1c-0.6,1.7-0.5,3-0.4,3c0,0,0,0,0,0.1c0,8.2,2.4,11.3,16,12.4
			c14,1.2,21.2-2.9,23-4.2C153.3,68.6,155.2,65.5,152.9,58.3z M130.7,52.8c1.4-2.3,2.8-1.6,3.1-1.3c0.5,0.5,0.4,1.6-0.7,3
			c-1.7,2-2.8,1.9-3,1.5C130.1,56,129.4,55.1,130.7,52.8z M126,51.4c0.2-0.2,1.5-0.8,2.6,1.3c1.1,2.1,0.4,2.9,0.4,2.9
			c-0.2,0.3-1.2,0.4-2.6-1.5C125.5,52.7,125.5,51.8,126,51.4z M142.8,64.8c-0.5,1.7-1.4,2.8-2.6,3.3c-0.5,0.2-0.9,0.2-1.4,0.2
			c-1.4,0-2.7-0.7-2.9-0.8c-6.7-3.3-15.2,0-15.2,0c-0.4,0.1-0.8,0-0.9-0.4c-0.1-0.4,0-0.8,0.4-0.9c0.4-0.2,9.1-3.6,16.4,0
			c0,0,0,0,0.1,0c0,0,1.7,1,3.1,0.5c0.8-0.3,1.4-1.1,1.8-2.4c0.1-0.4,0.5-0.6,0.9-0.5C142.7,64.1,142.9,64.5,142.8,64.8z"/>
		<path class="st1" d="M136.6,93.6c7.2,0.8,10.3-1.7,17.4-9.1c-0.5,0.1-0.9,0.1-1.2,0.1c-0.7,0-1.2-0.2-1.5-0.5
			c-0.2-0.3-0.3-0.7-0.2-1c0.2-5.1,1.8-10,2.5-11.9c-0.8,0.1-1.4,0.1-1.7,0.1c0,0,0,0,0,0c-1.2,0.8-3.9,2.3-8.4,3.4
			c-0.1,1.9-0.5,8.6-3.4,11.7c-0.7,0.7-1.6,1.1-2.9,1.1c-1.1,0-2.4-0.3-3.9-0.9c-0.5,0.9-1.2,3.2-0.5,4.9
			C133.5,92.7,134.7,93.4,136.6,93.6z"/>
		<path class="st1" d="M124.5,48.7c7-1.4,13.9-1.1,19.5,0.6c5.5,1.7,9.1,4.8,10.3,8.5c2,6.3,1.1,9.8-0.5,11.9
			c1.1-0.2,2.6-0.5,4.2-1.1c4.1-1.6,7.4-4.4,9.7-8.4h-2.7c-0.4,0-0.7-0.3-0.7-0.7c0-0.4,0.3-0.7,0.7-0.7h3.1c0.2,0,0.4,0,0.5,0
			c0.1,0,0.3,0,0.4,0c3.8,0.1,6.9-0.5,9.2-1.8c2.1-1.2,3.5-3.4,3.7-5.9c1.1-13.6-2.5-14.8-4.2-15.5c-0.1,0-0.2-0.1-0.3-0.1
			c-1.4-0.5-8.4-1.3-11-1.5c-0.4,0-0.7-0.4-0.6-0.8c0-0.4,0.4-0.7,0.8-0.6c0.4,0,2,0.2,3.9,0.4c-0.8-3.2-2.7-10.1-5.9-13.3
			c-4.4-4.4-14.2-7.4-16.7-7.2c-0.2,0-0.5-0.1-0.6-0.3c-0.1-0.2-0.2-0.4-0.1-0.6c0-0.1,0.7-2.4,3.1-4.2c0,0,0,0,0,0
			c-2-0.1-4.1,0.3-6.3,1.2c-0.3,0.1-0.6,0-0.8-0.2c-0.2-0.2-0.2-0.5-0.1-0.8c0.1-0.2,1.9-4,4.5-6.5c0,0,0,0,0,0
			c-2.7,0.6-7.1,2.5-12.4,8.5c-0.2,0.2-0.4,0.3-0.7,0.2c-0.2-0.1-0.4-0.3-0.5-0.5c-0.3-1-1-2.3-2-3.4h0c0,0,0,0,0,0
			c0.4,1.6,0.7,3.7,0.4,5.4c3.6-0.4,6.2-0.3,6.4-0.3c0.4,0,0.7,0.4,0.7,0.7c0,0.4-0.4,0.7-0.7,0.7c-0.1,0-12.3-0.6-21.3,5.7
			c-2.7,1.9-4.7,6.3-5.8,12.7c-0.2,1.2-0.4,2.4-0.5,3.6c0,0.2,0,0.5-0.1,0.7c-0.1,1.5-0.2,3.1-0.3,4.7c0,0.2,0,0.4,0,0.6v0
			c-0.1,4.1,0.2,8,0.7,11.1c0,0,0,0.1,0,0.1c0,0,0,0,0,0c0.3,1.7,0.6,3.1,0.9,4.1C114,53.5,117.2,50.1,124.5,48.7z M165.9,41.3
			c0-0.1,0-0.8,0.7-1.4c0.8-0.7,2-1,3.7-0.9l0.1,0c3.6,0.2,7.3,0.4,7.5,5.5c0.1,3.1,0.1,4.3,0,4.8c-0.1,0.6-0.4,3.2-2.6,4.8
			c-1.1,0.8-2.5,1.2-4.1,1.2c-1,0-2.2-0.2-3.4-0.5c-1.1-0.3-1.9-1.3-1.9-2.5V41.3z M139.7,36.1c0.7-8.1,4.2-7.3,4.9-7.3
			s3.5,0.8,2.2,8.5c-1.4,7.7-3.1,9.7-5.6,8.5C141.2,45.7,139,44.2,139.7,36.1z M120.5,30.8c0.6,0,3.4-0.7,4,6.1c0.5,6.7-1.2,8-1.2,8
			c-2,1-3.4-0.7-4.5-7.1C117.6,31.5,119.9,30.8,120.5,30.8z"/>
		<path class="st1" d="M128.1,89.8C128.1,89.8,128.1,89.8,128.1,89.8c0,0.2,0,0.5,0,1c0,1.3,0.2,3.6,1.6,5.2
			c1.1,1.4,2.8,2.2,5.1,2.3c8.4,0.5,10.5-0.5,15.6-3.6v0c0.7-2.4,1.4-4.6,2.2-6.8c-5,5-8.3,7.2-13.5,7.2c-0.8,0-1.7-0.1-2.6-0.2
			c-4.8-0.5-5.3-3.7-5.2-5.5c0.1-1.1,0.4-2.2,0.6-2.9c0.1-0.2,0.2-0.4,0.2-0.6c-0.2-0.1-0.5-0.2-0.8-0.4
			C130.2,86.7,129.1,88,128.1,89.8z"/>
		<path class="st1" d="M116.9,111L116.9,111c0,0.1,0,0.1,0,0.1c0,0,0,0,0,0c-1.3,9-2,19.7-2,32.1c0,0.4,0,0.8,0,1.3
			c0,0.4,0,0.9,0,1.3c0.1,0,0.2-0.1,0.2-0.1c0.2-0.1,0.4-0.1,0.5-0.1c0,0,0.1,0,0.1,0c0,0,0.1,0,0.1,0c0,0,0.1,0,0.1,0c0,0,0,0,0,0
			c0,0,0.1,0,0.1,0c0,0,0,0,0,0c0,0,0.1,0,0.1,0c0,0,0.1,0,0.1,0s0.1,0,0.1,0c0.1,0,0.1,0,0.2,0.1c0.1,0,0.2,0.1,0.3,0.1
			c0,0,0,0,0,0c0.1,0,0.2,0.1,0.3,0.1c0,0,0.1,0.1,0.1,0.1c0.1,0.1,0.2,0.1,0.3,0.2c0,0,0,0,0,0c0-3.6,0.1-8.3,0.4-13.7
			c-0.1-0.2-0.1-0.4-0.1-0.6c0-0.1,0.1-0.2,0.1-0.2c0.5-8.5,1.3-16,2.4-22.5c0,0,0,0,0,0c1.5-8.9,3.6-15.6,6.2-20.1c0,0,0,0,0,0
			c1-1.7,2.1-3.1,3.3-4.2c0.3-0.2,0.5-0.5,0.8-0.7c0,0,0.1-0.1,0.1-0.1l-2.6-1.7c-0.2,0.1-0.5,0.3-0.9,0.6c0,0,0,0-0.1,0
			c-0.1,0-0.1,0.1-0.2,0.1c0,0-0.1,0-0.1,0.1c0,0,0,0-0.1,0.1c-0.1,0.1-0.2,0.1-0.2,0.2c0,0-0.1,0.1-0.1,0.1c0,0-0.1,0.1-0.1,0.1
			c0,0-0.1,0.1-0.1,0.1c-1.8,1.8-4.6,5.6-6.9,13.7C118.6,101.5,117.7,106,116.9,111z"/>
		<path class="st1" d="M117.2,147.7c-0.5-0.3-1.2-0.8-1.6-0.7c-0.3,0.1-0.5,0.5-0.7,0.8c-0.1,0.3-0.3,0.7-0.4,1.1
			c-0.4,1.7-0.7,4.3-0.8,8v0c0,0.5,0,1.1,0,1.7l3.6,1.8c0-0.3,0.1-0.6,0.2-1c0.3-1.7,0.7-4.9,0.7-7.6v0c0-0.7,0-1.3-0.1-1.8
			c-0.1-0.5-0.1-1-0.2-1.4C117.5,148.1,117.3,147.8,117.2,147.7z"/>
	</g>
</g>
</svg>
